<svg width="268" height="36" viewBox="0 0 268 36" fill="none" xmlns="http://www.w3.org/2000/svg">
<path d="M20.7194 27.5069L11.4258 18.1424L21.2869 8.28125L22.2801 9.27446L13.4122 18.1424L21.7126 26.5137L20.7194 27.5069Z" fill="#F40004"/>
<path d="M57.1141 35.4525H33.7028L16.6055 18.3552L34.696 0.264648H57.1141V4.52125H36.3987L22.6357 18.3552L35.4764 31.1959H57.1141V35.4525Z" fill="#F40004"/>
<path d="M12.4179 18.8517H0.783203V17.4329H12.4179V18.8517Z" fill="#F40004"/>
<path d="M134.157 34.0336H53.6367V32.6147H134.157V34.0336Z" fill="#F40004"/>
<path d="M134.157 3.10222H53.6367V1.68335H134.157V3.10222Z" fill="#F40004"/>
<path d="M247.101 27.5069L246.107 26.5137L254.975 17.5748L246.675 9.27446L247.668 8.28125L256.962 17.5748L247.101 27.5069Z" fill="#F40004"/>
<path d="M233.69 35.4525H211.271V31.1959H231.987L245.75 17.4329L232.909 4.52125H211.271V0.264648H234.683L251.78 17.4329L233.69 35.4525Z" fill="#F40004"/>
<path d="M267.531 18.2843H255.967V16.8655H267.531V18.2843Z" fill="#F40004"/>
<path d="M214.748 3.10222H134.156V1.68335H214.748V3.10222Z" fill="#F40004"/>
<path d="M214.748 34.0336H134.156V32.6147H214.748V34.0336Z" fill="#F40004"/>
<path d="M142.457 7.57202H133.234L112.59 28.2165H121.812L142.457 7.57202Z" fill="#430000"/>
<path d="M102.375 7.57202H93.1523L72.5078 28.2165H81.7304L102.375 7.57202Z" fill="#430000"/>
<path d="M129.05 7.57202H119.898L99.2539 28.2165H108.477L129.05 7.57202Z" fill="#430000"/>
<path d="M115.712 7.57202H106.561L85.916 28.2165H95.0677L115.712 7.57202Z" fill="#430000"/>
<path d="M89.0371 7.57202H79.8145L59.1699 28.2165H68.3926L89.0371 7.57202Z" fill="#F40004"/>
<path d="M48.9549 7.57202H39.7323L27.8848 19.4196L32.4961 24.0309L48.9549 7.57202Z" fill="#F40004"/>
<path d="M75.6302 7.57202H66.4785L45.834 28.2165H55.0566L75.6302 7.57202Z" fill="#F40004"/>
<path d="M53.1392 7.57202L34.623 26.0882L36.7513 28.2165H41.6464L62.2909 7.57202H53.1392Z" fill="#F40004"/>
<path d="M233.764 9.70032L231.635 7.57202H226.74L206.096 28.2165H215.247L233.764 9.70032Z" fill="#430000"/>
<path d="M209.215 7.57202H199.992L179.348 28.2165H188.57L209.215 7.57202Z" fill="#430000"/>
<path d="M222.552 7.57202H213.329L192.756 28.2165H201.908L222.552 7.57202Z" fill="#430000"/>
<path d="M240.431 16.3689L235.891 11.7576L219.432 28.2164H228.654L240.431 16.3689Z" fill="#430000"/>
<path d="M155.795 7.57202H146.572L125.928 28.2165H135.15L155.795 7.57202Z" fill="#430000"/>
<path d="M169.132 7.57202H159.91L139.336 28.2165H148.488L169.132 7.57202Z" fill="#430000"/>
<path d="M182.47 7.57202H173.318L152.674 28.2165H161.826L182.47 7.57202Z" fill="#430000"/>
<path d="M195.877 7.57202H186.654L166.01 28.2165H175.232L195.877 7.57202Z" fill="#430000"/>
</svg>
