<svg width="66" height="410" viewBox="0 0 66 410" fill="none" xmlns="http://www.w3.org/2000/svg">
<g clip-path="url(#clip0_1730_7601)">
<rect width="65.982" height="409.406" rx="6.35971" transform="matrix(1 0 0 -1 0 409.406)" fill="#500000"/>
<path fill-rule="evenodd" clip-rule="evenodd" d="M52.2335 135.898L52.2335 100.791L82.6148 83.2371L112.996 100.791L112.996 135.898L82.6148 153.452L52.2335 135.898ZM56.9596 103.491L56.9596 132.522L82.6148 147.375L107.595 132.522L107.595 103.491L82.6148 88.6381L56.9596 103.491Z" fill="black"/>
<path fill-rule="evenodd" clip-rule="evenodd" d="M61.6856 129.823L61.6856 106.193L82.615 94.7156L102.869 106.193V129.823L82.615 141.975L61.6856 129.823ZM66.4116 108.893V126.447L81.9398 135.899L97.4681 126.447V108.893L81.9398 100.117L66.4116 108.893Z" fill="black"/>
<path fill-rule="evenodd" clip-rule="evenodd" d="M52.2335 253.371L52.2335 218.264L82.6148 200.711L112.996 218.264L112.996 253.371L82.6148 270.925L52.2335 253.371ZM56.9596 220.965L56.9596 249.996L82.6148 264.849L107.595 249.996L107.595 220.965L82.6148 206.112L56.9596 220.965Z" fill="black"/>
<path fill-rule="evenodd" clip-rule="evenodd" d="M61.6856 247.297L61.6856 223.667L82.615 212.189L102.869 223.667V247.297L82.615 259.449L61.6856 247.297ZM66.4116 226.367V243.921L81.9398 253.373L97.4681 243.921V226.367L81.9398 217.591L66.4116 226.367Z" fill="black"/>
<path fill-rule="evenodd" clip-rule="evenodd" d="M52.2335 370.845L52.2335 335.738L82.6148 318.184L112.996 335.738L112.996 370.845L82.6148 388.399L52.2335 370.845ZM56.9596 338.439L56.9596 367.469L82.6148 382.323L107.595 367.469L107.595 338.439L82.6148 323.585L56.9596 338.439Z" fill="black"/>
<path fill-rule="evenodd" clip-rule="evenodd" d="M61.6856 364.77L61.6856 341.14L82.615 329.663L102.869 341.14V364.77L82.615 376.923L61.6856 364.77ZM66.4116 343.841V361.394L81.9398 370.846L97.4681 361.394V343.841L81.9398 335.064L66.4116 343.841Z" fill="black"/>
<path fill-rule="evenodd" clip-rule="evenodd" d="M20.505 77.1593L20.505 42.0524L50.8863 24.4985L81.2676 42.0524L81.2676 77.1593L50.8863 94.7132L20.505 77.1593ZM25.9063 44.7527L25.9063 73.7836L50.8863 88.6368L76.5417 73.7836L76.5417 44.7527L50.8863 29.8996L25.9063 44.7527Z" fill="black"/>
<path fill-rule="evenodd" clip-rule="evenodd" d="M30.6323 71.0849L30.6323 47.455L50.8864 35.9775L71.1406 47.455V71.0849L50.8864 83.2373L30.6323 71.0849ZM36.0335 50.1553L36.0335 67.7092L50.8864 76.4859L66.4148 67.7092V50.1553L50.8864 41.3786L36.0335 50.1553Z" fill="black"/>
<path fill-rule="evenodd" clip-rule="evenodd" d="M-15.9557 135.898L-15.9557 100.791L14.4254 83.2371L44.8066 100.791L44.8066 135.898L14.4254 153.452L-15.9557 135.898ZM-10.5547 103.491L-10.5547 132.522L14.4254 147.375L40.0808 132.522L40.0808 103.491L14.4254 88.6381L-10.5547 103.491Z" fill="black"/>
<path fill-rule="evenodd" clip-rule="evenodd" d="M20.505 194.636L20.505 159.529L50.8863 141.975L81.2676 159.529L81.2676 194.636L50.8863 212.19L20.505 194.636ZM25.9063 162.23L25.9063 191.26L50.8863 206.114L76.5417 191.26L76.5417 162.23L50.8863 147.376L25.9063 162.23Z" fill="black"/>
<path fill-rule="evenodd" clip-rule="evenodd" d="M-15.9557 253.371L-15.9557 218.264L14.4254 200.711L44.8066 218.264L44.8066 253.371L14.4254 270.925L-15.9557 253.371ZM-10.5547 220.965L-10.5547 249.996L14.4254 264.849L40.0808 249.996L40.0808 220.965L14.4254 206.112L-10.5547 220.965Z" fill="black"/>
<path fill-rule="evenodd" clip-rule="evenodd" d="M-5.82848 247.297L-5.82848 223.667L14.4255 212.189L34.6797 223.667L34.6797 247.297L14.4255 259.449L-5.82848 247.297ZM-0.427441 226.367L-0.427441 243.921L14.4255 253.373L29.9538 243.921L29.9538 226.367L14.4255 217.591L-0.427441 226.367Z" fill="black"/>
<path fill-rule="evenodd" clip-rule="evenodd" d="M20.505 311.434L20.505 276.327L50.8863 258.773L81.2676 276.327L81.2676 311.434L50.8863 328.988L20.505 311.434ZM25.9063 279.702L25.9063 308.734L50.8863 323.586L76.5417 308.734L76.5417 279.702L50.8863 264.85L25.9063 279.702Z" fill="black"/>
<path fill-rule="evenodd" clip-rule="evenodd" d="M-15.9557 370.845L-15.9557 335.738L14.4254 318.184L44.8066 335.738L44.8066 370.845L14.4254 388.399L-15.9557 370.845ZM-10.5547 338.439L-10.5547 367.469L14.4254 382.323L40.0808 367.469L40.0808 338.439L14.4254 323.585L-10.5547 338.439Z" fill="black"/>
<path fill-rule="evenodd" clip-rule="evenodd" d="M-47.0106 77.1593L-47.0106 42.0524L-16.6293 24.4985L13.752 42.0524L13.752 77.1593L-16.6293 94.7132L-47.0106 77.1593ZM-42.2845 44.7527L-42.2845 73.7836L-16.6293 88.6368L8.35092 73.7836L8.35092 44.7527L-16.6293 29.8996L-42.2845 44.7527Z" fill="black"/>
<path fill-rule="evenodd" clip-rule="evenodd" d="M-47.0106 194.636L-47.0106 159.529L-16.6293 141.975L13.752 159.529L13.752 194.636L-16.6293 212.19L-47.0106 194.636ZM-42.2845 162.23L-42.2845 191.26L-16.6293 206.114L8.35092 191.26L8.35092 162.23L-16.6293 147.376L-42.2845 162.23Z" fill="black"/>
<path fill-rule="evenodd" clip-rule="evenodd" d="M-47.0106 311.434L-47.0106 276.327L-16.6293 258.773L13.752 276.327L13.752 311.434L-16.6293 328.988L-47.0106 311.434ZM-42.2845 279.702L-42.2845 308.734L-16.6293 323.586L8.35092 308.734L8.35092 279.702L-16.6293 264.85L-42.2845 279.702Z" fill="black"/>
<path d="M11.7279 413.382L11.7279 385.026H17.1289L17.1289 413.382H11.7279Z" fill="black"/>
<path d="M48.1808 27.2018L48.1808 -3.17944L53.582 -3.17944L53.582 27.2018H48.1808Z" fill="black"/>
</g>
<defs>
<clipPath id="clip0_1730_7601">
<rect width="65.982" height="409.406" rx="6.35971" transform="matrix(1 0 0 -1 0 409.406)" fill="white"/>
</clipPath>
</defs>
</svg>
