<svg width="67" height="410" viewBox="0 0 67 410" fill="none" xmlns="http://www.w3.org/2000/svg">
<g clip-path="url(#clip0_1731_5565)">
<rect width="65.982" height="409.406" rx="6.35971" transform="matrix(1 0 0 -1 0.933594 409.834)" fill="#500000"/>
<path fill-rule="evenodd" clip-rule="evenodd" d="M53.1671 136.326L53.1671 101.219L83.5484 83.665L113.93 101.219L113.93 136.326L83.5484 153.88L53.1671 136.326ZM57.8932 103.919L57.8932 132.95L83.5484 147.803L108.529 132.95L108.529 103.919L83.5484 89.0661L57.8932 103.919Z" fill="black"/>
<path fill-rule="evenodd" clip-rule="evenodd" d="M62.6192 130.251L62.6192 106.621L83.5485 95.1436L103.803 106.621V130.251L83.5485 142.403L62.6192 130.251ZM67.3452 109.321V126.875L82.8734 136.327L98.4017 126.875V109.321L82.8734 100.545L67.3452 109.321Z" fill="black"/>
<path fill-rule="evenodd" clip-rule="evenodd" d="M53.1671 253.799L53.1671 218.692L83.5484 201.139L113.93 218.692L113.93 253.799L83.5484 271.353L53.1671 253.799ZM57.8932 221.393L57.8932 250.424L83.5484 265.277L108.529 250.424L108.529 221.393L83.5484 206.54L57.8932 221.393Z" fill="black"/>
<path fill-rule="evenodd" clip-rule="evenodd" d="M62.6192 247.725L62.6192 224.095L83.5485 212.617L103.803 224.095V247.725L83.5485 259.877L62.6192 247.725ZM67.3452 226.795V244.349L82.8734 253.801L98.4017 244.349V226.795L82.8734 218.019L67.3452 226.795Z" fill="black"/>
<path fill-rule="evenodd" clip-rule="evenodd" d="M53.1671 371.273L53.1671 336.166L83.5484 318.612L113.93 336.166L113.93 371.273L83.5484 388.827L53.1671 371.273ZM57.8932 338.866L57.8932 367.897L83.5484 382.751L108.529 367.897L108.529 338.866L83.5484 324.013L57.8932 338.866Z" fill="black"/>
<path fill-rule="evenodd" clip-rule="evenodd" d="M62.6192 365.198L62.6192 341.568L83.5485 330.091L103.803 341.568V365.198L83.5485 377.351L62.6192 365.198ZM67.3452 344.269V361.822L82.8734 371.274L98.4017 361.822V344.269L82.8734 335.492L67.3452 344.269Z" fill="black"/>
<path fill-rule="evenodd" clip-rule="evenodd" d="M21.4386 77.5873L21.4386 42.4804L51.8199 24.9265L82.2012 42.4804L82.2012 77.5873L51.8199 95.1412L21.4386 77.5873ZM26.8399 45.1807L26.8399 74.2116L51.8199 89.0648L77.4753 74.2116L77.4753 45.1807L51.8199 30.3275L26.8399 45.1807Z" fill="black"/>
<path fill-rule="evenodd" clip-rule="evenodd" d="M31.5658 71.5129L31.5658 47.883L51.82 36.4055L72.0742 47.883V71.5129L51.82 83.6653L31.5658 71.5129ZM36.9671 50.5833L36.9671 68.1372L51.82 76.9139L67.3484 68.1372V50.5833L51.82 41.8066L36.9671 50.5833Z" fill="black"/>
<path fill-rule="evenodd" clip-rule="evenodd" d="M-15.0221 136.326L-15.0221 101.219L15.359 83.665L45.7402 101.219L45.7402 136.326L15.359 153.88L-15.0221 136.326ZM-9.62108 103.919L-9.62108 132.95L15.359 147.803L41.0144 132.95L41.0144 103.919L15.359 89.0661L-9.62108 103.919Z" fill="black"/>
<path fill-rule="evenodd" clip-rule="evenodd" d="M21.4386 195.064L21.4386 159.957L51.8199 142.403L82.2012 159.957L82.2012 195.064L51.8199 212.618L21.4386 195.064ZM26.8399 162.658L26.8399 191.688L51.8199 206.542L77.4753 191.688L77.4753 162.658L51.8199 147.804L26.8399 162.658Z" fill="black"/>
<path fill-rule="evenodd" clip-rule="evenodd" d="M-15.0221 253.799L-15.0221 218.692L15.359 201.139L45.7402 218.692L45.7402 253.799L15.359 271.353L-15.0221 253.799ZM-9.62108 221.393L-9.62108 250.424L15.359 265.277L41.0144 250.424L41.0144 221.393L15.359 206.54L-9.62108 221.393Z" fill="black"/>
<path fill-rule="evenodd" clip-rule="evenodd" d="M-4.89488 247.725L-4.89488 224.095L15.3591 212.617L35.6133 224.095L35.6133 247.725L15.3591 259.877L-4.89488 247.725ZM0.506152 226.795L0.506152 244.349L15.3591 253.801L30.8874 244.349L30.8874 226.795L15.3591 218.019L0.506152 226.795Z" fill="black"/>
<path fill-rule="evenodd" clip-rule="evenodd" d="M21.4386 311.862L21.4386 276.755L51.8199 259.201L82.2012 276.755L82.2012 311.862L51.8199 329.416L21.4386 311.862ZM26.8399 280.13L26.8399 309.162L51.8199 324.014L77.4753 309.162L77.4753 280.13L51.8199 265.278L26.8399 280.13Z" fill="black"/>
<path fill-rule="evenodd" clip-rule="evenodd" d="M-15.0221 371.273L-15.0221 336.166L15.359 318.612L45.7402 336.166L45.7402 371.273L15.359 388.827L-15.0221 371.273ZM-9.62108 338.866L-9.62108 367.897L15.359 382.751L41.0144 367.897L41.0144 338.866L15.359 324.013L-9.62108 338.866Z" fill="black"/>
<path fill-rule="evenodd" clip-rule="evenodd" d="M-46.077 77.5873L-46.077 42.4804L-15.6957 24.9265L14.6855 42.4804L14.6855 77.5873L-15.6957 95.1412L-46.077 77.5873ZM-41.3509 45.1807L-41.3509 74.2116L-15.6957 89.0648L9.28451 74.2116L9.28451 45.1807L-15.6957 30.3275L-41.3509 45.1807Z" fill="black"/>
<path fill-rule="evenodd" clip-rule="evenodd" d="M-46.077 195.064L-46.077 159.957L-15.6957 142.403L14.6855 159.957L14.6855 195.064L-15.6957 212.618L-46.077 195.064ZM-41.3509 162.658L-41.3509 191.688L-15.6957 206.542L9.28451 191.688L9.28451 162.658L-15.6957 147.804L-41.3509 162.658Z" fill="black"/>
<path fill-rule="evenodd" clip-rule="evenodd" d="M-46.077 311.862L-46.077 276.755L-15.6957 259.201L14.6855 276.755L14.6855 311.862L-15.6957 329.416L-46.077 311.862ZM-41.3509 280.13L-41.3509 309.162L-15.6957 324.014L9.28451 309.162L9.28451 280.13L-15.6957 265.278L-41.3509 280.13Z" fill="black"/>
<path d="M12.6615 413.81L12.6615 385.454H18.0625L18.0625 413.81H12.6615Z" fill="black"/>
<path d="M49.1144 27.6298L49.1144 -2.75146L54.5156 -2.75146L54.5156 27.6298H49.1144Z" fill="black"/>
<path d="M38.0686 124.915C37.935 124.915 37.8396 124.819 37.8396 124.686V109.117C37.8396 108.984 37.7442 108.888 37.6107 108.888H36.7903C36.733 108.888 36.6758 108.907 36.6186 108.965L35.6264 109.957C35.5692 110.014 35.5501 110.071 35.5501 110.128V123.541C35.5501 123.675 35.4547 123.77 35.3212 123.77H33.4896C33.356 123.77 33.2606 123.675 33.2606 123.541V109.117C33.2606 108.984 33.1652 108.888 33.0317 108.888H32.2113C32.154 108.888 32.0968 108.907 32.0396 108.965L31.0475 109.957C30.9902 110.014 30.9711 110.071 30.9711 110.128L30.9711 124.686C30.9711 124.819 30.8757 124.915 30.7422 124.915H28.9106C28.777 124.915 28.6816 124.819 28.6816 124.686L28.6816 107.972C28.6816 107.839 28.777 107.743 28.9106 107.743H39.9002C40.0337 107.743 40.1291 107.839 40.1291 107.972V124.686C40.1291 124.819 40.0337 124.915 39.9002 124.915H38.0686ZM28.758 136.524L39.1179 127.843C39.1561 127.805 39.2133 127.786 39.2706 127.786H39.9002C40.0337 127.786 40.1291 127.881 40.1291 128.014V129.961C40.1291 130.037 40.091 130.094 40.0528 130.151L31.0475 137.688C31.0093 137.726 30.9711 137.802 30.9711 137.859V138.89C30.9711 138.947 31.0093 139.023 31.0475 139.061L40.0528 146.598C40.091 146.655 40.1291 146.712 40.1291 146.788V148.734C40.1291 148.868 40.0337 148.963 39.9002 148.963H39.2706C39.2133 148.963 39.1561 148.944 39.1179 148.906L28.758 140.225C28.7198 140.168 28.6816 140.111 28.6816 140.034V136.715C28.6816 136.638 28.7198 136.581 28.758 136.524ZM38.0686 168.995C37.935 168.995 37.8396 168.9 37.8396 168.766L37.8396 153.197C37.8396 153.064 37.7442 152.968 37.6107 152.968H36.7903C36.733 152.968 36.6758 152.988 36.6186 153.045L35.6264 154.037C35.5692 154.094 35.5501 154.151 35.5501 154.209L35.5501 167.621C35.5501 167.755 35.4547 167.85 35.3212 167.85H33.4896C33.356 167.85 33.2606 167.755 33.2606 167.621L33.2606 153.197C33.2606 153.064 33.1652 152.968 33.0317 152.968H32.2113C32.154 152.968 32.0968 152.988 32.0396 153.045L31.0475 154.037C30.9902 154.094 30.9711 154.151 30.9711 154.209L30.9711 168.766C30.9711 168.9 30.8757 168.995 30.7422 168.995H28.9106C28.777 168.995 28.6816 168.9 28.6816 168.766L28.6816 152.053C28.6816 151.919 28.777 151.824 28.9106 151.824H39.9002C40.0337 151.824 40.1291 151.919 40.1291 152.053L40.1291 168.766C40.1291 168.9 40.0337 168.995 39.9002 168.995H38.0686ZM39.9002 186.938C40.0337 186.938 40.1291 187.034 40.1291 187.167V188.999C40.1291 189.132 40.0337 189.228 39.9002 189.228H28.9106C28.777 189.228 28.6816 189.132 28.6816 188.999V184.744C28.6816 184.687 28.7007 184.63 28.758 184.572L37.7633 175.567C37.8205 175.51 37.8396 175.453 37.8396 175.395V173.449C37.8396 173.354 37.7252 173.297 37.6488 173.354L36.5422 174.289C36.485 174.327 36.4468 174.346 36.3896 174.346H28.9106C28.777 174.346 28.6816 174.251 28.6816 174.117V172.286C28.6816 172.152 28.777 172.057 28.9106 172.057H39.9002C40.0337 172.057 40.1291 172.152 40.1291 172.286V176.54C40.1291 176.597 40.11 176.655 40.0528 176.712L31.0475 185.717C30.9902 185.774 30.9711 185.832 30.9711 185.889V187.835C30.9711 187.93 31.0856 187.988 31.1619 187.93L32.2685 186.996C32.3258 186.957 32.3639 186.938 32.4212 186.938H39.9002ZM37.7824 209.461C37.6488 209.461 37.5534 209.365 37.5534 209.232L37.5534 204.405C37.5534 204.347 37.5725 204.29 37.6298 204.233L38.6219 203.241C38.6791 203.184 38.6982 203.126 38.6982 203.069V202.249C38.6982 202.115 38.6028 202.02 38.4692 202.02H28.9106C28.777 202.02 28.6816 201.924 28.6816 201.791V199.959C28.6816 199.826 28.777 199.73 28.9106 199.73H38.4692C38.6028 199.73 38.6982 199.635 38.6982 199.501V198.681C38.6982 198.624 38.6791 198.566 38.6219 198.509L37.6298 197.517C37.5725 197.46 37.5534 197.403 37.5534 197.345V192.518C37.5534 192.385 37.6488 192.289 37.7824 192.289H39.9002C40.0337 192.289 40.1291 192.385 40.1291 192.518L40.1291 209.232C40.1291 209.365 40.0337 209.461 39.9002 209.461H37.7824ZM39.9002 232.75C40.0337 232.75 40.1291 232.845 40.1291 232.979V234.81C40.1291 234.944 40.0337 235.039 39.9002 235.039H28.9106C28.777 235.039 28.6816 234.944 28.6816 234.81V230.556C28.6816 230.498 28.7007 230.441 28.758 230.384L37.7633 221.379C37.8205 221.321 37.8396 221.264 37.8396 221.207V219.261C37.8396 219.165 37.7252 219.108 37.6488 219.165L36.5422 220.1C36.485 220.139 36.4468 220.158 36.3896 220.158H28.9106C28.777 220.158 28.6816 220.062 28.6816 219.929V218.097C28.6816 217.963 28.777 217.868 28.9106 217.868H39.9002C40.0337 217.868 40.1291 217.963 40.1291 218.097V222.352C40.1291 222.409 40.11 222.466 40.0528 222.523L31.0475 231.529C30.9902 231.586 30.9711 231.643 30.9711 231.7V233.647C30.9711 233.742 31.0856 233.799 31.1619 233.742L32.2685 232.807C32.3258 232.769 32.3639 232.75 32.4212 232.75H39.9002ZM37.7633 252.487C37.8205 252.429 37.8396 252.372 37.8396 252.315V241.058C37.8396 241.001 37.8205 240.944 37.7633 240.886L36.7712 239.894C36.714 239.837 36.6567 239.818 36.5995 239.818H35.7791C35.6455 239.818 35.5501 239.913 35.5501 240.047V253.326C35.5501 253.46 35.6455 253.555 35.7791 253.555H36.5995C36.6567 253.555 36.714 253.536 36.7712 253.479L37.7633 252.487ZM28.9106 238.101H37.3626C37.6679 238.101 37.9541 238.215 38.1831 238.444L39.7857 240.047C40.0146 240.276 40.1291 240.562 40.1291 240.867L40.1291 252.506C40.1291 252.811 40.0146 253.097 39.7857 253.326L38.1831 254.929C37.9541 255.158 37.6679 255.272 37.3626 255.272H28.9106C28.777 255.272 28.6816 255.177 28.6816 255.043V252.639C28.6816 252.506 28.777 252.41 28.9106 252.41H30.8757C30.933 252.41 30.9902 252.429 31.0475 252.487L32.0396 253.479C32.0968 253.536 32.154 253.555 32.2113 253.555H33.0317C33.1652 253.555 33.2606 253.46 33.2606 253.326V240.047C33.2606 239.913 33.1652 239.818 33.0317 239.818H32.2113C32.154 239.818 32.0968 239.837 32.0396 239.894L31.0475 240.886C30.9902 240.944 30.933 240.963 30.8757 240.963H28.9106C28.777 240.963 28.6816 240.867 28.6816 240.734V238.33C28.6816 238.196 28.777 238.101 28.9106 238.101ZM40.0528 277.146C40.091 277.203 40.1291 277.26 40.1291 277.337V279.283C40.1291 279.416 40.0337 279.512 39.9002 279.512H28.9106C28.777 279.512 28.6816 279.416 28.6816 279.283V277.451C28.6816 277.318 28.777 277.222 28.9106 277.222H34.9968C35.0541 277.222 35.1113 277.241 35.1495 277.279L36.2751 278.214C36.3515 278.271 36.4468 278.214 36.4468 278.119L36.4659 277.337C36.4659 277.26 36.4278 277.203 36.3705 277.146L28.758 270.773C28.7198 270.716 28.6816 270.659 28.6816 270.583V267.263C28.6816 267.186 28.7198 267.129 28.758 267.072L36.3705 260.7C36.4278 260.642 36.4659 260.585 36.4659 260.509L36.4468 259.727C36.4468 259.631 36.3515 259.574 36.2751 259.631L35.1495 260.566C35.1113 260.604 35.0541 260.623 34.9968 260.623H28.9106C28.777 260.623 28.6816 260.528 28.6816 260.394V258.563C28.6816 258.429 28.777 258.334 28.9106 258.334H39.9002C40.0337 258.334 40.1291 258.429 40.1291 258.563V260.509C40.1291 260.585 40.091 260.642 40.0528 260.7L31.0475 268.236C31.0093 268.274 30.9711 268.35 30.9711 268.408V269.438C30.9711 269.495 31.0093 269.571 31.0475 269.61L40.0528 277.146ZM38.0686 299.744C37.935 299.744 37.8396 299.648 37.8396 299.515V283.946C37.8396 283.813 37.7442 283.717 37.6107 283.717H36.7903C36.733 283.717 36.6758 283.736 36.6186 283.794L35.6264 284.786C35.5692 284.843 35.5501 284.9 35.5501 284.957V298.37C35.5501 298.504 35.4547 298.599 35.3212 298.599H33.4896C33.356 298.599 33.2606 298.504 33.2606 298.37V283.946C33.2606 283.813 33.1652 283.717 33.0317 283.717H32.2113C32.154 283.717 32.0968 283.736 32.0396 283.794L31.0475 284.786C30.9902 284.843 30.9711 284.9 30.9711 284.957L30.9711 299.515C30.9711 299.648 30.8757 299.744 30.7422 299.744H28.9106C28.777 299.744 28.6816 299.648 28.6816 299.515L28.6816 282.801C28.6816 282.668 28.777 282.572 28.9106 282.572H39.9002C40.0337 282.572 40.1291 282.668 40.1291 282.801V299.515C40.1291 299.648 40.0337 299.744 39.9002 299.744H38.0686Z" fill="white"/>
</g>
<defs>
<clipPath id="clip0_1731_5565">
<rect width="65.982" height="409.406" rx="6.35971" transform="matrix(1 0 0 -1 0.933594 409.834)" fill="white"/>
</clipPath>
</defs>
</svg>
