<svg width="570" height="184" viewBox="0 0 570 184" fill="none" xmlns="http://www.w3.org/2000/svg">
<path d="M567.522 180.258C567.522 181.136 566.811 181.848 565.933 181.848H393.525C393.332 181.848 393.148 181.768 393.016 181.627L349.176 134.655C348.875 134.332 348.454 134.149 348.013 134.149H4.09188C3.21379 134.149 2.50195 133.438 2.50195 132.559V1.58993C2.50195 0.711841 3.21379 0 4.09188 0H565.933C566.811 0 567.522 0.711835 567.522 1.58993V180.258ZM492.101 18.1846C463.124 18.1846 439.633 41.6753 439.633 70.6523C439.633 99.6294 463.124 123.12 492.101 123.12C521.078 123.12 544.568 99.6294 544.568 70.6523C544.568 41.6754 521.078 18.1847 492.101 18.1846Z" fill="url(#paint0_linear_1720_5667)"/>
<path d="M393.016 181.627L391.575 182.972L391.578 182.975L393.016 181.627ZM492.101 18.1846L492.101 16.2139H492.101V18.1846ZM439.633 70.6523L437.662 70.6523V70.6523H439.633ZM492.101 123.12L492.101 125.091L492.101 125.091L492.101 123.12ZM544.568 70.6523L546.539 70.6523L546.539 70.6523L544.568 70.6523ZM349.176 134.655L350.616 133.31L349.176 134.655ZM565.933 181.848V179.877H393.525V181.848V183.818H565.933V181.848ZM393.016 181.627L394.456 180.282L350.616 133.31L349.176 134.655L347.735 135.999L391.575 182.972L393.016 181.627ZM348.013 134.149V132.179H4.09188V134.149V136.12H348.013V134.149ZM2.50195 132.559H4.4726V1.58993H2.50195H0.531305V132.559H2.50195ZM4.09188 0V1.97065H565.933V0V-1.97065H4.09188V0ZM567.522 1.58993H565.552V180.258H567.522H569.493V1.58993H567.522ZM492.101 18.1846V16.2139C462.035 16.2139 437.662 40.587 437.662 70.6523L439.633 70.6523L441.603 70.6523C441.604 42.7637 464.212 20.1552 492.101 20.1552V18.1846ZM439.633 70.6523H437.662C437.662 100.718 462.035 125.091 492.101 125.091V123.12V121.149C464.212 121.149 441.603 98.5411 441.603 70.6523H439.633ZM492.101 123.12L492.101 125.091C522.166 125.091 546.539 100.718 546.539 70.6523H544.568H542.598C542.598 98.541 519.989 121.149 492.101 121.149L492.101 123.12ZM544.568 70.6523L546.539 70.6523C546.539 40.587 522.166 16.214 492.101 16.2139L492.101 18.1846L492.101 20.1552C519.989 20.1553 542.598 42.7637 542.598 70.6523L544.568 70.6523ZM565.933 0V1.97065C565.722 1.97065 565.552 1.80014 565.552 1.58993H567.522H569.493C569.493 -0.376474 567.899 -1.97065 565.933 -1.97065V0ZM4.09188 134.149V132.179C4.30215 132.179 4.4726 132.349 4.4726 132.559H2.50195H0.531305C0.531305 134.526 2.12542 136.12 4.09188 136.12V134.149ZM349.176 134.655L350.616 133.31C349.943 132.588 349 132.179 348.013 132.179V134.149V136.12C347.908 136.12 347.807 136.076 347.735 135.999L349.176 134.655ZM393.525 181.848V179.877C393.877 179.877 394.212 180.022 394.453 180.279L393.016 181.627L391.578 182.975C392.083 183.513 392.788 183.818 393.525 183.818V181.848ZM2.50195 1.58993H4.4726C4.4726 1.80019 4.30216 1.97065 4.09188 1.97065V0V-1.97065C2.12542 -1.97065 0.531305 -0.376508 0.531305 1.58993H2.50195ZM565.933 181.848V183.818C567.899 183.818 569.493 182.224 569.493 180.258H567.522H565.552C565.552 180.047 565.722 179.877 565.933 179.877V181.848Z" fill="#840202"/>
<defs>
<linearGradient id="paint0_linear_1720_5667" x1="54.9696" y1="90.6257" x2="567.522" y2="90.9238" gradientUnits="userSpaceOnUse">
<stop/>
<stop offset="0.764251" stop-color="#171717"/>
</linearGradient>
</defs>
</svg>
