<svg width="977" height="55" viewBox="0 0 977 55" fill="none" xmlns="http://www.w3.org/2000/svg">
<g filter="url(#filter0_i_467_58974)">
<path d="M2.63544 32.1161H30.7338H196.843L219.157 49.4728H234.032L211.719 32.1161H230.726L253.866 49.4728H268.742L245.602 32.1161H265.436L287.749 49.4728C288.3 49.4728 288.575 49.4728 288.575 49.4728H456.338C456.889 49.4728 457.44 49.4728 457.991 49.4728L479.478 32.1161H572.036L600.134 54.4316C600.134 54.4316 600.41 54.4316 600.961 54.4316H695.999C696.55 54.4316 696.825 54.4316 696.825 54.4316L724.923 32.1161H894.339L882.769 41.2077H787.731V43.6871H882.769C883.32 43.6871 883.871 43.6871 884.422 43.6871L899.297 32.1161H975.328C976.154 32.1161 976.98 31.2895 976.98 30.463V21.3713C976.98 20.5448 976.154 19.7184 975.328 19.7184H736.493C735.942 19.7184 735.391 19.7184 734.84 19.7184L723.271 29.6364L695.172 51.9522H601.787L572.863 29.6364C572.863 29.0854 572.587 28.8101 572.036 28.8101H507.576L499.311 19.7184C498.76 19.7184 498.21 19.7184 497.659 19.7184H381.134C380.583 19.7184 380.308 19.7184 380.308 19.7184L372.044 28.8101H265.436C264.885 28.8101 264.609 28.8101 264.609 28.8101H242.296H241.47H227.421H207.587H192.711H31.56L3.46167 0.708607C2.91071 0.708607 2.63544 0.708607 2.63544 0.708607C2.08447 0.708607 1.8092 0.708607 1.8092 0.708607C1.2583 0.708607 0.982544 1.25971 0.982544 2.36172V30.463C0.982544 31.2895 1.80902 32.1161 2.63544 32.1161Z" fill="#F40004"/>
</g>
<path d="M572.506 29.8115L572.645 29.9189L601.569 52.2354L601.666 52.3096H695.297L695.395 52.2314L723.492 29.916L723.271 29.6367L723.493 29.916L723.503 29.9072L734.972 20.0752H975.327C975.624 20.0752 975.952 20.2275 976.212 20.4873C976.472 20.747 976.623 21.0741 976.623 21.3711V30.4629C976.623 30.76 976.471 31.0868 976.211 31.3467C975.951 31.6065 975.624 31.7588 975.327 31.7588H899.175L899.078 31.834L884.299 43.3301H788.088V41.5645H882.893L882.989 41.4883L894.56 32.3965L895.371 31.7588H724.799L724.701 31.8369L696.702 54.0742H600.258L572.259 31.8369L572.161 31.7588H479.352L479.253 31.8379L457.866 49.1152H287.871L265.655 31.834L265.559 31.7588H244.531L245.388 32.4014L267.669 49.1152H253.983L230.94 31.8301L230.845 31.7588H210.678L211.499 32.3975L232.99 49.1152H219.278L197.062 31.834L196.966 31.7588H2.63574C2.3387 31.7588 2.01177 31.6065 1.75195 31.3467C1.49214 31.0868 1.33984 30.76 1.33984 30.4629V2.36133C1.33988 1.82882 1.40833 1.48212 1.50879 1.28125C1.55634 1.1863 1.60503 1.13645 1.64551 1.10938C1.68386 1.0838 1.73435 1.06543 1.80957 1.06543H3.31348L31.3076 29.0625L31.4121 29.167H372.201L372.308 29.0498L380.467 20.0752H499.152L507.312 29.0498L507.418 29.167H572.036C572.257 29.167 572.356 29.2225 572.403 29.2695C572.45 29.3166 572.506 29.4162 572.506 29.6367V29.8115Z" stroke="#F40004" stroke-width="0.714145"/>
<defs>
<filter id="filter0_i_467_58974" x="0.982422" y="0.708984" width="978.855" height="56.5792" filterUnits="userSpaceOnUse" color-interpolation-filters="sRGB">
<feFlood flood-opacity="0" result="BackgroundImageFix"/>
<feBlend mode="normal" in="SourceGraphic" in2="BackgroundImageFix" result="shape"/>
<feColorMatrix in="SourceAlpha" type="matrix" values="0 0 0 0 0 0 0 0 0 0 0 0 0 0 0 0 0 0 127 0" result="hardAlpha"/>
<feOffset dx="3.57072" dy="4.99901"/>
<feGaussianBlur stdDeviation="1.42829"/>
<feComposite in2="hardAlpha" operator="arithmetic" k2="-1" k3="1"/>
<feColorMatrix type="matrix" values="0 0 0 0 0.893349 0 0 0 0 0.883654 0 0 0 0 1 0 0 0 0.25 0"/>
<feBlend mode="normal" in2="shape" result="effect1_innerShadow_467_58974"/>
</filter>
</defs>
</svg>
