<svg width="976" height="54" viewBox="0 0 976 54" fill="none" xmlns="http://www.w3.org/2000/svg">
<g filter="url(#filter0_i_467_58973)">
<path d="M974.345 22.3156H946.247H780.137L757.824 4.95885H742.948L765.262 22.3156H746.254L723.114 4.95885H708.239L731.378 22.3156H711.545L689.231 4.95885C688.68 4.95885 688.405 4.95885 688.405 4.95885H520.642C520.091 4.95885 519.541 4.95885 518.99 4.95885L497.503 22.3156H404.944L376.846 0C376.846 0 376.57 0 376.019 0H280.982C280.431 0 280.155 0 280.155 0L252.057 22.3156H82.6416L94.2117 13.2239H189.25V10.7445H94.2117C93.6607 10.7445 93.1097 10.7445 92.5587 10.7445L77.6833 22.3156H1.65293C0.826517 22.3156 0 23.1422 0 23.9687V33.0603C0 33.8868 0.826517 34.7132 1.65293 34.7132H240.487C241.038 34.7132 241.589 34.7132 242.14 34.7132L253.71 24.7952L281.808 2.47942H375.193L404.118 24.7952C404.118 25.3463 404.393 25.6216 404.944 25.6216H469.405L477.669 34.7132C478.22 34.7132 478.771 34.7132 479.321 34.7132H595.846C596.397 34.7132 596.673 34.7132 596.673 34.7132L604.937 25.6216H711.545C712.096 25.6216 712.371 25.6216 712.371 25.6216H734.684H735.51H749.56H769.394H784.269H945.42L973.519 53.723C974.07 53.723 974.345 53.723 974.345 53.723C974.896 53.723 975.171 53.723 975.171 53.723C975.722 53.723 975.998 53.1719 975.998 52.0699V23.9687C975.998 23.1422 975.171 22.3156 974.345 22.3156Z" fill="#F40004"/>
</g>
<path d="M404.475 24.6201L404.336 24.5127L375.411 2.19629L375.314 2.12207H281.684L281.586 2.2002L253.488 24.5156L253.71 24.7949L253.487 24.5156L253.478 24.5244L242.009 34.3564H1.65332C1.35623 34.3564 1.02837 34.2041 0.768555 33.9443C0.508912 33.6846 0.357496 33.3575 0.357422 33.0605V23.9688C0.357422 23.6716 0.509704 23.3448 0.769531 23.085C1.02935 22.8252 1.3563 22.6729 1.65332 22.6729H77.8057L77.9023 22.5977L92.6816 11.1016H188.893V12.8672H94.0879L93.9912 12.9434L82.4209 22.0352L81.6094 22.6729H252.182L252.279 22.5947L280.278 0.357422H376.723L404.722 22.5947L404.819 22.6729H497.629L497.728 22.5938L519.114 5.31641H689.109L711.325 22.5977L711.422 22.6729H732.449L731.593 22.0303L709.312 5.31641H722.997L746.04 22.6016L746.136 22.6729H766.303L765.481 22.0342L743.99 5.31641H757.702L779.918 22.5977L780.015 22.6729H974.345C974.642 22.6729 974.969 22.8251 975.229 23.085C975.488 23.3448 975.641 23.6716 975.641 23.9688V52.0703C975.641 52.6028 975.572 52.9495 975.472 53.1504C975.424 53.2453 975.375 53.2952 975.335 53.3223C975.297 53.3478 975.246 53.3662 975.171 53.3662H973.667L945.673 25.3691L945.568 25.2646H604.779L604.673 25.3818L596.514 34.3564H477.828L469.669 25.3818L469.562 25.2646H404.944C404.724 25.2646 404.624 25.2092 404.577 25.1621C404.53 25.115 404.475 25.0154 404.475 24.7949V24.6201Z" stroke="#F40004" stroke-width="0.714145"/>
<defs>
<filter id="filter0_i_467_58973" x="0" y="0" width="978.855" height="56.5792" filterUnits="userSpaceOnUse" color-interpolation-filters="sRGB">
<feFlood flood-opacity="0" result="BackgroundImageFix"/>
<feBlend mode="normal" in="SourceGraphic" in2="BackgroundImageFix" result="shape"/>
<feColorMatrix in="SourceAlpha" type="matrix" values="0 0 0 0 0 0 0 0 0 0 0 0 0 0 0 0 0 0 127 0" result="hardAlpha"/>
<feOffset dx="3.57072" dy="4.99901"/>
<feGaussianBlur stdDeviation="1.42829"/>
<feComposite in2="hardAlpha" operator="arithmetic" k2="-1" k3="1"/>
<feColorMatrix type="matrix" values="0 0 0 0 0.893349 0 0 0 0 0.883654 0 0 0 0 1 0 0 0 0.25 0"/>
<feBlend mode="normal" in2="shape" result="effect1_innerShadow_467_58973"/>
</filter>
</defs>
</svg>
