<svg width="418" height="89" viewBox="0 0 418 89" fill="none" xmlns="http://www.w3.org/2000/svg">
<g opacity="0.3">
<path fill-rule="evenodd" clip-rule="evenodd" d="M383.897 88.704H34.2585L0.757812 67.9104V20.7936L34.2585 0H383.897L384.052 0.096L417.398 20.7936V67.9104L383.897 88.704ZM34.6297 88.128H383.526L416.47 67.68V21.024L383.526 0.576H34.6297L1.65487 21.024V67.68L34.6297 88.128Z" fill="#FF0000"/>
</g>
<path fill-rule="evenodd" clip-rule="evenodd" d="M362.549 85.1328H38.6471L38.4925 85.056L11.8899 68.5247V32.2752L6.47656 28.9152V22.9247L38.3069 3.16797H38.4925H379.903L380.027 3.24475L411.733 22.9247V54.6048L362.549 85.1328ZM39.0183 84.576H362.178L410.805 54.3744V23.1552L379.501 3.72475L38.6781 3.74397L7.40456 23.1552V28.6847L12.8179 32.0448V68.2944L39.0183 84.576Z" fill="#FF0000"/>
<path d="M411.014 56.5449L407.797 58.5417V67.5849L411.076 65.5689L411.014 56.5449Z" fill="#FF0000"/>
<path d="M405.459 60L402.242 61.9968V71.04L405.521 69.024L405.459 60Z" fill="#FF0000"/>
<path d="M399.889 63.4561L396.672 65.4528V74.4961L399.951 72.4801L399.889 63.4561Z" fill="#FF0000"/>
<path d="M394.319 66.9121L391.102 68.9089V77.9521L394.38 75.9361L394.319 66.9121Z" fill="#FF0000"/>
<path d="M388.756 70.3682L385.539 72.3649V81.4082L388.818 79.3922L388.756 70.3682Z" fill="#FF0000"/>
<path d="M383.194 73.8242L379.977 75.821V84.8642L383.255 82.8482L383.194 73.8242Z" fill="#FF0000"/>
<path d="M377.616 77.2803L374.398 79.2771V85.0563H377.677L377.616 77.2803Z" fill="#FF0000"/>
<path d="M372.053 80.7363L368.836 82.7331V85.0563H372.115L372.053 80.7363Z" fill="#FF0000"/>
<path d="M7.06873 31.623L10.0074 33.4279V67.4119L6.91406 65.4919L7.06873 31.623Z" fill="#FF0000"/>
<g opacity="0.3">
<path d="M392.687 64.3199L310.219 13.1135H23.375V12.5566H310.59L310.714 12.6335L393.337 63.9166L392.687 64.3199Z" fill="#FF0000"/>
</g>
<path d="M179.086 84.8451L183.788 81.9268H262.018L266.844 84.9411L179.086 84.8451Z" fill="#FF0000"/>
</svg>
