<svg width="418" height="90" viewBox="0 0 418 90" fill="none" xmlns="http://www.w3.org/2000/svg">
<g opacity="0.3">
<path fill-rule="evenodd" clip-rule="evenodd" d="M383.897 89.0468H34.2585L0.757812 68.2532V21.1364L34.2585 0.342773H383.897L384.052 0.438773L417.398 21.1364V68.2532L383.897 89.0468ZM34.6297 88.4708H383.526L416.47 68.0228V21.3668L383.526 0.918773H34.6297L1.65487 21.3668V68.0228L34.6297 88.4708Z" fill="#29ABE2"/>
</g>
<path fill-rule="evenodd" clip-rule="evenodd" d="M362.549 85.4755H38.6471L38.4925 85.3987L11.8899 68.8675V32.618L6.47656 29.258V23.2675L38.3069 3.51074H38.4925H379.903L380.027 3.58752L411.733 23.2675V54.9475L362.549 85.4755ZM39.0183 84.9187H362.178L410.805 54.7171V23.498L379.501 4.06752L38.6781 4.08674L7.40456 23.498V29.0275L12.8179 32.3875V68.6371L39.0183 84.9187Z" fill="#29ABE2"/>
<path d="M411.014 56.8867L407.797 58.8835V67.9267L411.076 65.9107L411.014 56.8867Z" fill="#29ABE2"/>
<path d="M405.459 60.3428L402.242 62.3396V71.3828L405.521 69.3668L405.459 60.3428Z" fill="#29ABE2"/>
<path d="M399.889 63.7988L396.672 65.7956V74.8388L399.951 72.8228L399.889 63.7988Z" fill="#29ABE2"/>
<path d="M394.319 67.2549L391.102 69.2517V78.2949L394.38 76.2789L394.319 67.2549Z" fill="#29ABE2"/>
<path d="M388.756 70.7109L385.539 72.7077V81.7509L388.818 79.7349L388.756 70.7109Z" fill="#29ABE2"/>
<path d="M383.194 74.167L379.977 76.1638V85.207L383.255 83.191L383.194 74.167Z" fill="#29ABE2"/>
<path d="M377.616 77.623L374.398 79.6198V85.399H377.677L377.616 77.623Z" fill="#29ABE2"/>
<path d="M372.053 81.0791L368.836 83.0759V85.3991H372.115L372.053 81.0791Z" fill="#29ABE2"/>
<path d="M7.06873 31.9648L10.0074 33.7697V67.7537L6.91406 65.8337L7.06873 31.9648Z" fill="#29ABE2"/>
<g opacity="0.3">
<path d="M392.687 64.6626L310.219 13.4562H23.375V12.8994H310.59L310.714 12.9762L393.337 64.2594L392.687 64.6626Z" fill="#29ABE2"/>
</g>
<path d="M179.086 85.1869L183.788 82.2686H262.018L266.844 85.2829L179.086 85.1869Z" fill="#29ABE2"/>
</svg>
