<svg width="645" height="34" viewBox="0 0 645 34" fill="none" xmlns="http://www.w3.org/2000/svg">
<path d="M29.3438 6.875H8.625V27.7812H29.3438V20.6875L37.0312 22.2812V26.1875C37.0312 29.2083 36.4583 31.2708 35.3125 32.375C34.1875 33.4583 32.0312 34 28.8438 34H9.125C5.91667 34 3.75 33.4583 2.625 32.375C1.5 31.2708 0.9375 29.2083 0.9375 26.1875V8.78125C0.9375 5.78125 1.5 3.72917 2.625 2.625C3.75 1.52083 5.91667 0.96875 9.125 0.96875H28.8438C32.0312 0.96875 34.1875 1.52083 35.3125 2.625C36.4583 3.72917 37.0312 5.78125 37.0312 8.78125V11.9062L29.3438 13.125V6.875ZM56.4062 28.8125H78.2188V11.9062H56.4062V28.8125ZM49.8125 13.3125C49.8125 10.8542 50.2917 9.17708 51.25 8.28125C52.2083 7.38542 54.0729 6.9375 56.8438 6.9375H77.7812C80.5729 6.9375 82.4375 7.38542 83.375 8.28125C84.3333 9.17708 84.8125 10.8542 84.8125 13.3125V27.5938C84.8125 30.0729 84.3229 31.7604 83.3438 32.6562C82.3854 33.5521 80.5312 34 77.7812 34H56.8438C54.0729 34 52.2083 33.5521 51.25 32.6562C50.2917 31.7604 49.8125 30.0729 49.8125 27.5938V13.3125ZM96.2188 34V6.9375H100.75L123.719 24.9062V6.9375H129.688V34H125.125L102.219 15.75V34H96.2188ZM168.312 11.9062H147.719V28.8125H168.312V23.0625H157.562V18.25H174.781V27.5938C174.781 30.0729 174.292 31.7604 173.312 32.6562C172.354 33.5521 170.5 34 167.75 34H148.156C145.406 34 143.542 33.5521 142.562 32.6562C141.604 31.7604 141.125 30.0729 141.125 27.5938V13.3125C141.125 10.8542 141.604 9.17708 142.562 8.28125C143.542 7.38542 145.406 6.9375 148.156 6.9375H167.75C170.479 6.9375 172.333 7.375 173.312 8.25C174.292 9.125 174.781 10.7083 174.781 13V13.7188L168.312 14.8125V11.9062ZM207.656 11.5938H192.594V19.0938H207.656C208.802 19.0938 209.583 18.9271 210 18.5938C210.438 18.2604 210.656 17.6979 210.656 16.9062V13.7812C210.656 12.9896 210.438 12.4271 210 12.0938C209.583 11.7604 208.802 11.5938 207.656 11.5938ZM186.094 34V6.9375H210.469C212.698 6.9375 214.312 7.35417 215.312 8.1875C216.312 9 216.812 10.3333 216.812 12.1875V18.5625C216.812 20.3958 216.312 21.7188 215.312 22.5312C214.312 23.3438 212.698 23.75 210.469 23.75H206.75L219.625 34H210.156L198.812 23.75H192.594V34H186.094ZM221.281 34L237.344 6.9375H243.688L260 34H252.594L249.188 28.0625H231.281L227.875 34H221.281ZM234.094 23.125H246.5L240.188 11.8438L234.094 23.125ZM279.406 11.7812V34H272.812V11.7812H259.75V6.9375H292.5V11.7812H279.406ZM307.594 6.9375V28.9375H326.438V6.9375H333.094V27.5938C333.094 30.0521 332.594 31.7396 331.594 32.6562C330.615 33.5521 328.74 34 325.969 34H308.062C305.312 34 303.448 33.5521 302.469 32.6562C301.51 31.7604 301.031 30.0729 301.031 27.5938V6.9375H307.594ZM345.156 34V6.9375H351.812V28.9375H373.031V34H345.156ZM376.344 34L392.406 6.9375H398.75L415.062 34H407.656L404.25 28.0625H386.344L382.938 34H376.344ZM389.156 23.125H401.562L395.25 11.8438L389.156 23.125ZM434.469 11.7812V34H427.875V11.7812H414.812V6.9375H447.562V11.7812H434.469ZM456.094 34V6.9375H462.656V34H456.094ZM480.656 28.8125H502.469V11.9062H480.656V28.8125ZM474.062 13.3125C474.062 10.8542 474.542 9.17708 475.5 8.28125C476.458 7.38542 478.323 6.9375 481.094 6.9375H502.031C504.823 6.9375 506.688 7.38542 507.625 8.28125C508.583 9.17708 509.062 10.8542 509.062 13.3125V27.5938C509.062 30.0729 508.573 31.7604 507.594 32.6562C506.635 33.5521 504.781 34 502.031 34H481.094C478.323 34 476.458 33.5521 475.5 32.6562C474.542 31.7604 474.062 30.0729 474.062 27.5938V13.3125ZM520.469 34V6.9375H525L547.969 24.9062V6.9375H553.938V34H549.375L526.469 15.75V34H520.469ZM591.031 11.7812H572.406V17.5H590.031C592.802 17.5 594.667 17.9479 595.625 18.8438C596.583 19.7188 597.062 21.3958 597.062 23.875V27.5938C597.062 30.0729 596.573 31.7604 595.594 32.6562C594.615 33.5521 592.76 34 590.031 34H572.469C569.677 34 567.781 33.5521 566.781 32.6562C565.802 31.7604 565.312 30.0729 565.312 27.5938V26.8438L571.188 25.75V28.9375H591.094V22.75H573.562C570.792 22.75 568.917 22.3021 567.938 21.4062C566.958 20.4896 566.469 18.8021 566.469 16.3438V13.3125C566.469 10.875 566.958 9.20833 567.938 8.3125C568.917 7.39583 570.792 6.9375 573.562 6.9375H589.625C592.354 6.9375 594.219 7.375 595.219 8.25C596.24 9.10417 596.75 10.625 596.75 12.8125V13.4688L591.031 14.6875V11.7812ZM641.719 24.8438H642.812C643.417 24.8438 643.833 24.9896 644.062 25.2812C644.292 25.5729 644.406 26.1562 644.406 27.0312V31.8125C644.406 32.7083 644.281 33.3021 644.031 33.5938C643.781 33.8646 643.01 34 641.719 34H636.094C635.49 34 635.062 33.8542 634.812 33.5625C634.583 33.2708 634.469 32.6875 634.469 31.8125V27.0312C634.469 26.1354 634.594 25.5521 634.844 25.2812C635.115 24.9896 635.885 24.8438 637.156 24.8438H641.719ZM636.906 20.5625L634.531 0.96875H644.406L642.031 20.5625H636.906Z" fill="white"/>
</svg>
