<svg width="411" height="180" viewBox="0 0 411 180" fill="none" xmlns="http://www.w3.org/2000/svg">
<g filter="url(#filter0_f_467_50444)">
<path d="M336.028 60.1768L349.988 80.6318L314.447 119.823H70.8242L61.1455 94.2998L103.521 60.1768H336.028Z" fill="#8B76D9" stroke="black" stroke-width="2.35418"/>
</g>
<g filter="url(#filter1_i_467_50444)">
<path d="M59.7422 93.9195L103.104 59H336.65L351.485 80.7356L314.969 121H70.0121L59.7422 93.9195Z" fill="#8B75D9"/>
</g>
<path d="M337.366 57.6445L337.77 58.2363L352.604 79.9717L353.206 80.8545L352.488 81.6455L315.973 121.91L315.569 122.355H69.0771L68.7451 121.48L58.4756 94.4004L58.127 93.4805L58.8926 92.8643L102.254 57.9443L102.626 57.6445H337.366Z" stroke="#AE9FE5" stroke-width="2.71"/>
<path d="M122.955 98V83.5488H137.748V86.0098H126.318V89.2363H132.99V91.6973H126.318V95.2793H137.885V98H122.955ZM147.455 95.2793H151.803C154.118 95.2793 155.758 94.9193 156.725 94.1992C157.691 93.4792 158.174 92.2897 158.174 90.6309C158.174 89.1543 157.773 88.0378 156.971 87.2812C156.169 86.5156 154.984 86.1328 153.416 86.1328H147.455V95.2793ZM144.092 98V83.5488H153.389C156.041 83.5488 158.078 84.1686 159.5 85.4082C160.931 86.6478 161.646 88.4069 161.646 90.6855C161.646 92.0345 161.368 93.2513 160.812 94.3359C160.257 95.4115 159.473 96.2591 158.461 96.8789C157.832 97.2708 157.048 97.5579 156.109 97.7402C155.18 97.9134 153.986 98 152.527 98H144.092ZM167.826 98V83.5488H171.189V98H167.826ZM185.299 86.1328V98H181.936V86.1328H175.305V83.5488H191.957V86.1328H185.299ZM210.291 95.2793H214.639C216.954 95.2793 218.594 94.9193 219.561 94.1992C220.527 93.4792 221.01 92.2897 221.01 90.6309C221.01 89.1543 220.609 88.0378 219.807 87.2812C219.005 86.5156 217.82 86.1328 216.252 86.1328H210.291V95.2793ZM206.928 98V83.5488H216.225C218.877 83.5488 220.914 84.1686 222.336 85.4082C223.767 86.6478 224.482 88.4069 224.482 90.6855C224.482 92.0345 224.204 93.2513 223.648 94.3359C223.092 95.4115 222.309 96.2591 221.297 96.8789C220.668 97.2708 219.884 97.5579 218.945 97.7402C218.016 97.9134 216.822 98 215.363 98H206.928ZM229.609 98V86.1602H242.311V88.252H232.521V90.8359H238.223V92.873H232.521V95.7852H242.461V98H229.609ZM253.699 88.2793V98H250.814V88.2793H245.1V86.1602H259.428V88.2793H253.699ZM259.305 98L266.332 86.1602H269.107L276.244 98H273.004L271.514 95.4023H263.68L262.189 98H259.305ZM264.91 93.2422H270.338L267.576 88.3066L264.91 93.2422ZM279.211 98V86.1602H282.082V98H279.211ZM287.359 98V86.1602H290.271V95.7852H299.555V98H287.359ZM313.746 88.2793H305.598V90.7812H313.309C314.521 90.7812 315.337 90.9772 315.756 91.3691C316.175 91.752 316.385 92.4857 316.385 93.5703V95.1973C316.385 96.2819 316.171 97.0202 315.742 97.4121C315.314 97.804 314.503 98 313.309 98H305.625C304.404 98 303.574 97.804 303.137 97.4121C302.708 97.0202 302.494 96.2819 302.494 95.1973V94.8691L305.064 94.3906V95.7852H313.773V93.0781H306.104C304.891 93.0781 304.071 92.8822 303.643 92.4902C303.214 92.0892 303 91.3509 303 90.2754V88.9492C303 87.8828 303.214 87.1536 303.643 86.7617C304.071 86.3607 304.891 86.1602 306.104 86.1602H313.131C314.325 86.1602 315.141 86.3516 315.578 86.7344C316.025 87.1081 316.248 87.7734 316.248 88.7305V89.0176L313.746 89.5508V88.2793Z" fill="black"/>
<path d="M102 82H95C94.4696 82 93.9609 82.2107 93.5858 82.5858C93.2107 82.9609 93 83.4696 93 84V98C93 98.5304 93.2107 99.0391 93.5858 99.4142C93.9609 99.7893 94.4696 100 95 100H109C109.53 100 110.039 99.7893 110.414 99.4142C110.789 99.0391 111 98.5304 111 98V91" stroke="black" stroke-width="2" stroke-linecap="round" stroke-linejoin="round"/>
<path d="M109.5 80.5002C109.898 80.1024 110.437 79.8789 111 79.8789C111.563 79.8789 112.102 80.1024 112.5 80.5002C112.898 80.8981 113.121 81.4376 113.121 82.0002C113.121 82.5628 112.898 83.1024 112.5 83.5002L103 93.0002L99 94.0002L100 90.0002L109.5 80.5002Z" stroke="black" stroke-width="2" stroke-linecap="round" stroke-linejoin="round"/>
<defs>
<filter id="filter0_f_467_50444" x="0.887802" y="0.145615" width="409.451" height="179.709" filterUnits="userSpaceOnUse" color-interpolation-filters="sRGB">
<feFlood flood-opacity="0" result="BackgroundImageFix"/>
<feBlend mode="normal" in="SourceGraphic" in2="BackgroundImageFix" result="shape"/>
<feGaussianBlur stdDeviation="29.4272" result="effect1_foregroundBlur_467_50444"/>
</filter>
<filter id="filter1_i_467_50444" x="56.5107" y="56.29" width="298.417" height="79.1908" filterUnits="userSpaceOnUse" color-interpolation-filters="sRGB">
<feFlood flood-opacity="0" result="BackgroundImageFix"/>
<feBlend mode="normal" in="SourceGraphic" in2="BackgroundImageFix" result="shape"/>
<feColorMatrix in="SourceAlpha" type="matrix" values="0 0 0 0 0 0 0 0 0 0 0 0 0 0 0 0 0 0 127 0" result="hardAlpha"/>
<feOffset dy="16.4792"/>
<feGaussianBlur stdDeviation="5.88544"/>
<feComposite in2="hardAlpha" operator="arithmetic" k2="-1" k3="1"/>
<feColorMatrix type="matrix" values="0 0 0 0 0.879584 0 0 0 0 0.872481 0 0 0 0 0.904442 0 0 0 1 0"/>
<feBlend mode="normal" in2="shape" result="effect1_innerShadow_467_50444"/>
</filter>
</defs>
</svg>
