<svg width="412" height="917" viewBox="0 0 412 917" fill="none" xmlns="http://www.w3.org/2000/svg">
<g clip-path="url(#clip0_630_2050)">
<g clip-path="url(#clip1_630_2050)">
<rect x="51.75" y="69.75" width="4.5" height="4.5" rx="2.25" stroke="#F40004" stroke-width="1.5"/>
</g>
<rect x="-44.875" y="-58.875" width="98.75" height="130.75" stroke="#F40004" stroke-width="0.25"/>
<g clip-path="url(#clip2_630_2050)">
<rect x="51.75" y="462.75" width="4.5" height="4.5" rx="2.25" stroke="#F40004" stroke-width="1.5"/>
<rect x="51.75" y="593.75" width="4.5" height="4.5" rx="2.25" stroke="#F40004" stroke-width="1.5"/>
</g>
<rect x="-44.875" y="465.125" width="98.75" height="130.75" stroke="#F40004" stroke-width="0.25"/>
<g clip-path="url(#clip3_630_2050)">
<rect x="51.75" y="200.75" width="4.5" height="4.5" rx="2.25" stroke="#F40004" stroke-width="1.5"/>
<rect x="51.75" y="331.75" width="4.5" height="4.5" rx="2.25" stroke="#F40004" stroke-width="1.5"/>
</g>
<rect x="-44.875" y="203.125" width="98.75" height="130.75" stroke="#F40004" stroke-width="0.25"/>
<g clip-path="url(#clip4_630_2050)">
<rect x="51.75" y="724.75" width="4.5" height="4.5" rx="2.25" stroke="#F40004" stroke-width="1.5"/>
<rect x="51.75" y="855.75" width="4.5" height="4.5" rx="2.25" stroke="#F40004" stroke-width="1.5"/>
</g>
<rect x="-44.875" y="727.125" width="98.75" height="130.75" stroke="#F40004" stroke-width="0.25"/>
<g clip-path="url(#clip5_630_2050)">
<rect x="348.75" y="69.75" width="4.5" height="4.5" rx="2.25" stroke="#F40004" stroke-width="1.5"/>
</g>
<rect x="351.125" y="-58.875" width="98.75" height="130.75" stroke="#F40004" stroke-width="0.25"/>
<g clip-path="url(#clip6_630_2050)">
<rect x="348.75" y="593.75" width="4.5" height="4.5" rx="2.25" stroke="#F40004" stroke-width="1.5"/>
<rect x="348.75" y="462.75" width="4.5" height="4.5" rx="2.25" stroke="#F40004" stroke-width="1.5"/>
</g>
<rect x="351.125" y="465.125" width="98.75" height="130.75" stroke="#F40004" stroke-width="0.25"/>
<g clip-path="url(#clip7_630_2050)">
<rect x="348.75" y="331.75" width="4.5" height="4.5" rx="2.25" stroke="#F40004" stroke-width="1.5"/>
<rect x="348.75" y="200.75" width="4.5" height="4.5" rx="2.25" stroke="#F40004" stroke-width="1.5"/>
</g>
<rect x="351.125" y="203.125" width="98.75" height="130.75" stroke="#F40004" stroke-width="0.25"/>
<g clip-path="url(#clip8_630_2050)">
<rect x="348.75" y="855.75" width="4.5" height="4.5" rx="2.25" stroke="#F40004" stroke-width="1.5"/>
<rect x="348.75" y="724.75" width="4.5" height="4.5" rx="2.25" stroke="#F40004" stroke-width="1.5"/>
</g>
<rect x="351.125" y="727.125" width="98.75" height="130.75" stroke="#F40004" stroke-width="0.25"/>
<g clip-path="url(#clip9_630_2050)">
<rect x="150.75" y="69.75" width="4.5" height="4.5" rx="2.25" stroke="#F40004" stroke-width="1.5"/>
<rect x="249.75" y="69.75" width="4.5" height="4.5" rx="2.25" stroke="#F40004" stroke-width="1.5"/>
</g>
<rect x="153.125" y="-58.875" width="98.75" height="130.75" stroke="#F40004" stroke-width="0.25"/>
<g clip-path="url(#clip10_630_2050)">
<rect x="150.75" y="593.75" width="4.5" height="4.5" rx="2.25" stroke="#F40004" stroke-width="1.5"/>
<rect x="150.75" y="462.75" width="4.5" height="4.5" rx="2.25" stroke="#F40004" stroke-width="1.5"/>
<rect x="249.75" y="462.75" width="4.5" height="4.5" rx="2.25" stroke="#F40004" stroke-width="1.5"/>
<rect x="249.75" y="593.75" width="4.5" height="4.5" rx="2.25" stroke="#F40004" stroke-width="1.5"/>
</g>
<rect x="153.125" y="465.125" width="98.75" height="130.75" stroke="#F40004" stroke-width="0.25"/>
<g clip-path="url(#clip11_630_2050)">
<rect x="150.75" y="331.75" width="4.5" height="4.5" rx="2.25" stroke="#F40004" stroke-width="1.5"/>
<rect x="150.75" y="200.75" width="4.5" height="4.5" rx="2.25" stroke="#F40004" stroke-width="1.5"/>
<rect x="249.75" y="200.75" width="4.5" height="4.5" rx="2.25" stroke="#F40004" stroke-width="1.5"/>
<rect x="249.75" y="331.75" width="4.5" height="4.5" rx="2.25" stroke="#F40004" stroke-width="1.5"/>
</g>
<rect x="153.125" y="203.125" width="98.75" height="130.75" stroke="#F40004" stroke-width="0.25"/>
<g clip-path="url(#clip12_630_2050)">
<rect x="150.75" y="855.75" width="4.5" height="4.5" rx="2.25" stroke="#F40004" stroke-width="1.5"/>
<rect x="150.75" y="724.75" width="4.5" height="4.5" rx="2.25" stroke="#F40004" stroke-width="1.5"/>
<rect x="249.75" y="724.75" width="4.5" height="4.5" rx="2.25" stroke="#F40004" stroke-width="1.5"/>
<rect x="249.75" y="855.75" width="4.5" height="4.5" rx="2.25" stroke="#F40004" stroke-width="1.5"/>
</g>
<rect x="153.125" y="727.125" width="98.75" height="130.75" stroke="#F40004" stroke-width="0.25"/>
<g clip-path="url(#clip13_630_2050)">
<rect x="51.75" y="69.75" width="4.5" height="4.5" rx="2.25" stroke="#F40004" stroke-width="1.5"/>
<rect x="51.75" y="200.75" width="4.5" height="4.5" rx="2.25" stroke="#F40004" stroke-width="1.5"/>
</g>
<rect x="-44.875" y="72.125" width="98.75" height="130.75" stroke="#F40004" stroke-width="0.25"/>
<g clip-path="url(#clip14_630_2050)">
<rect x="51.75" y="593.75" width="4.5" height="4.5" rx="2.25" stroke="#F40004" stroke-width="1.5"/>
<rect x="51.75" y="724.75" width="4.5" height="4.5" rx="2.25" stroke="#F40004" stroke-width="1.5"/>
</g>
<rect x="-44.875" y="596.125" width="98.75" height="130.75" stroke="#F40004" stroke-width="0.25"/>
<g clip-path="url(#clip15_630_2050)">
<rect x="51.75" y="331.75" width="4.5" height="4.5" rx="2.25" stroke="#F40004" stroke-width="1.5"/>
<rect x="51.75" y="462.75" width="4.5" height="4.5" rx="2.25" stroke="#F40004" stroke-width="1.5"/>
</g>
<rect x="-44.875" y="334.125" width="98.75" height="130.75" stroke="#F40004" stroke-width="0.25"/>
<g clip-path="url(#clip16_630_2050)">
<rect x="51.75" y="855.75" width="4.5" height="4.5" rx="2.25" stroke="#F40004" stroke-width="1.5"/>
</g>
<rect x="-44.875" y="858.125" width="98.75" height="130.75" stroke="#F40004" stroke-width="0.25"/>
<g clip-path="url(#clip17_630_2050)">
<rect x="348.75" y="200.75" width="4.5" height="4.5" rx="2.25" stroke="#F40004" stroke-width="1.5"/>
<rect x="348.75" y="69.75" width="4.5" height="4.5" rx="2.25" stroke="#F40004" stroke-width="1.5"/>
</g>
<rect x="351.125" y="72.125" width="98.75" height="130.75" stroke="#F40004" stroke-width="0.25"/>
<g clip-path="url(#clip18_630_2050)">
<rect x="348.75" y="724.75" width="4.5" height="4.5" rx="2.25" stroke="#F40004" stroke-width="1.5"/>
<rect x="348.75" y="593.75" width="4.5" height="4.5" rx="2.25" stroke="#F40004" stroke-width="1.5"/>
</g>
<rect x="351.125" y="596.125" width="98.75" height="130.75" stroke="#F40004" stroke-width="0.25"/>
<g clip-path="url(#clip19_630_2050)">
<rect x="348.75" y="462.75" width="4.5" height="4.5" rx="2.25" stroke="#F40004" stroke-width="1.5"/>
<rect x="348.75" y="331.75" width="4.5" height="4.5" rx="2.25" stroke="#F40004" stroke-width="1.5"/>
</g>
<rect x="351.125" y="334.125" width="98.75" height="130.75" stroke="#F40004" stroke-width="0.25"/>
<g clip-path="url(#clip20_630_2050)">
<rect x="348.75" y="855.75" width="4.5" height="4.5" rx="2.25" stroke="#F40004" stroke-width="1.5"/>
</g>
<rect x="351.125" y="858.125" width="98.75" height="130.75" stroke="#F40004" stroke-width="0.25"/>
<g clip-path="url(#clip21_630_2050)">
<rect x="150.75" y="200.75" width="4.5" height="4.5" rx="2.25" stroke="#F40004" stroke-width="1.5"/>
<rect x="150.75" y="69.75" width="4.5" height="4.5" rx="2.25" stroke="#F40004" stroke-width="1.5"/>
<rect x="249.75" y="69.75" width="4.5" height="4.5" rx="2.25" stroke="#F40004" stroke-width="1.5"/>
<rect x="249.75" y="200.75" width="4.5" height="4.5" rx="2.25" stroke="#F40004" stroke-width="1.5"/>
</g>
<rect x="153.125" y="72.125" width="98.75" height="130.75" stroke="#F40004" stroke-width="0.25"/>
<g clip-path="url(#clip22_630_2050)">
<rect x="150.75" y="724.75" width="4.5" height="4.5" rx="2.25" stroke="#F40004" stroke-width="1.5"/>
<rect x="150.75" y="593.75" width="4.5" height="4.5" rx="2.25" stroke="#F40004" stroke-width="1.5"/>
<rect x="249.75" y="593.75" width="4.5" height="4.5" rx="2.25" stroke="#F40004" stroke-width="1.5"/>
<rect x="249.75" y="724.75" width="4.5" height="4.5" rx="2.25" stroke="#F40004" stroke-width="1.5"/>
</g>
<rect x="153.125" y="596.125" width="98.75" height="130.75" stroke="#F40004" stroke-width="0.25"/>
<g clip-path="url(#clip23_630_2050)">
<rect x="150.75" y="462.75" width="4.5" height="4.5" rx="2.25" stroke="#F40004" stroke-width="1.5"/>
<rect x="150.75" y="331.75" width="4.5" height="4.5" rx="2.25" stroke="#F40004" stroke-width="1.5"/>
<rect x="249.75" y="331.75" width="4.5" height="4.5" rx="2.25" stroke="#F40004" stroke-width="1.5"/>
<rect x="249.75" y="462.75" width="4.5" height="4.5" rx="2.25" stroke="#F40004" stroke-width="1.5"/>
</g>
<rect x="153.125" y="334.125" width="98.75" height="130.75" stroke="#F40004" stroke-width="0.25"/>
<g clip-path="url(#clip24_630_2050)">
<rect x="150.75" y="855.75" width="4.5" height="4.5" rx="2.25" stroke="#F40004" stroke-width="1.5"/>
<rect x="249.75" y="855.75" width="4.5" height="4.5" rx="2.25" stroke="#F40004" stroke-width="1.5"/>
</g>
<rect x="153.125" y="858.125" width="98.75" height="130.75" stroke="#F40004" stroke-width="0.25"/>
<g clip-path="url(#clip25_630_2050)">
<rect x="51.75" y="69.75" width="4.5" height="4.5" rx="2.25" stroke="#F40004" stroke-width="1.5"/>
<rect x="150.75" y="69.75" width="4.5" height="4.5" rx="2.25" stroke="#F40004" stroke-width="1.5"/>
</g>
<rect x="54.125" y="-58.875" width="98.75" height="130.75" stroke="#F40004" stroke-width="0.25"/>
<g clip-path="url(#clip26_630_2050)">
<rect x="51.75" y="593.75" width="4.5" height="4.5" rx="2.25" stroke="#F40004" stroke-width="1.5"/>
<rect x="51.75" y="462.75" width="4.5" height="4.5" rx="2.25" stroke="#F40004" stroke-width="1.5"/>
<rect x="150.75" y="462.75" width="4.5" height="4.5" rx="2.25" stroke="#F40004" stroke-width="1.5"/>
<rect x="150.75" y="593.75" width="4.5" height="4.5" rx="2.25" stroke="#F40004" stroke-width="1.5"/>
</g>
<rect x="54.125" y="465.125" width="98.75" height="130.75" stroke="#F40004" stroke-width="0.25"/>
<g clip-path="url(#clip27_630_2050)">
<rect x="51.75" y="331.75" width="4.5" height="4.5" rx="2.25" stroke="#F40004" stroke-width="1.5"/>
<rect x="51.75" y="200.75" width="4.5" height="4.5" rx="2.25" stroke="#F40004" stroke-width="1.5"/>
<rect x="150.75" y="200.75" width="4.5" height="4.5" rx="2.25" stroke="#F40004" stroke-width="1.5"/>
<rect x="150.75" y="331.75" width="4.5" height="4.5" rx="2.25" stroke="#F40004" stroke-width="1.5"/>
</g>
<rect x="54.125" y="203.125" width="98.75" height="130.75" stroke="#F40004" stroke-width="0.25"/>
<g clip-path="url(#clip28_630_2050)">
<rect x="51.75" y="855.75" width="4.5" height="4.5" rx="2.25" stroke="#F40004" stroke-width="1.5"/>
<rect x="51.75" y="724.75" width="4.5" height="4.5" rx="2.25" stroke="#F40004" stroke-width="1.5"/>
<rect x="150.75" y="724.75" width="4.5" height="4.5" rx="2.25" stroke="#F40004" stroke-width="1.5"/>
<rect x="150.75" y="855.75" width="4.5" height="4.5" rx="2.25" stroke="#F40004" stroke-width="1.5"/>
</g>
<rect x="54.125" y="727.125" width="98.75" height="130.75" stroke="#F40004" stroke-width="0.25"/>
<g clip-path="url(#clip29_630_2050)">
<rect x="249.75" y="69.75" width="4.5" height="4.5" rx="2.25" stroke="#F40004" stroke-width="1.5"/>
<rect x="348.75" y="69.75" width="4.5" height="4.5" rx="2.25" stroke="#F40004" stroke-width="1.5"/>
</g>
<rect x="252.125" y="-58.875" width="98.75" height="130.75" stroke="#F40004" stroke-width="0.25"/>
<g clip-path="url(#clip30_630_2050)">
<rect x="249.75" y="593.75" width="4.5" height="4.5" rx="2.25" stroke="#F40004" stroke-width="1.5"/>
<rect x="249.75" y="462.75" width="4.5" height="4.5" rx="2.25" stroke="#F40004" stroke-width="1.5"/>
<rect x="348.75" y="462.75" width="4.5" height="4.5" rx="2.25" stroke="#F40004" stroke-width="1.5"/>
<rect x="348.75" y="593.75" width="4.5" height="4.5" rx="2.25" stroke="#F40004" stroke-width="1.5"/>
</g>
<rect x="252.125" y="465.125" width="98.75" height="130.75" stroke="#F40004" stroke-width="0.25"/>
<g clip-path="url(#clip31_630_2050)">
<rect x="249.75" y="331.75" width="4.5" height="4.5" rx="2.25" stroke="#F40004" stroke-width="1.5"/>
<rect x="249.75" y="200.75" width="4.5" height="4.5" rx="2.25" stroke="#F40004" stroke-width="1.5"/>
<rect x="348.75" y="200.75" width="4.5" height="4.5" rx="2.25" stroke="#F40004" stroke-width="1.5"/>
<rect x="348.75" y="331.75" width="4.5" height="4.5" rx="2.25" stroke="#F40004" stroke-width="1.5"/>
</g>
<rect x="252.125" y="203.125" width="98.75" height="130.75" stroke="#F40004" stroke-width="0.25"/>
<g clip-path="url(#clip32_630_2050)">
<rect x="249.75" y="855.75" width="4.5" height="4.5" rx="2.25" stroke="#F40004" stroke-width="1.5"/>
<rect x="249.75" y="724.75" width="4.5" height="4.5" rx="2.25" stroke="#F40004" stroke-width="1.5"/>
<rect x="348.75" y="724.75" width="4.5" height="4.5" rx="2.25" stroke="#F40004" stroke-width="1.5"/>
<rect x="348.75" y="855.75" width="4.5" height="4.5" rx="2.25" stroke="#F40004" stroke-width="1.5"/>
</g>
<rect x="252.125" y="727.125" width="98.75" height="130.75" stroke="#F40004" stroke-width="0.25"/>
<g clip-path="url(#clip33_630_2050)">
<rect x="51.75" y="200.75" width="4.5" height="4.5" rx="2.25" stroke="#F40004" stroke-width="1.5"/>
<rect x="51.75" y="69.75" width="4.5" height="4.5" rx="2.25" stroke="#F40004" stroke-width="1.5"/>
<rect x="150.75" y="69.75" width="4.5" height="4.5" rx="2.25" stroke="#F40004" stroke-width="1.5"/>
<rect x="150.75" y="200.75" width="4.5" height="4.5" rx="2.25" stroke="#F40004" stroke-width="1.5"/>
</g>
<rect x="54.125" y="72.125" width="98.75" height="130.75" stroke="#F40004" stroke-width="0.25"/>
<g clip-path="url(#clip34_630_2050)">
<rect x="51.75" y="724.75" width="4.5" height="4.5" rx="2.25" stroke="#F40004" stroke-width="1.5"/>
<rect x="51.75" y="593.75" width="4.5" height="4.5" rx="2.25" stroke="#F40004" stroke-width="1.5"/>
<rect x="150.75" y="593.75" width="4.5" height="4.5" rx="2.25" stroke="#F40004" stroke-width="1.5"/>
<rect x="150.75" y="724.75" width="4.5" height="4.5" rx="2.25" stroke="#F40004" stroke-width="1.5"/>
</g>
<rect x="54.125" y="596.125" width="98.75" height="130.75" stroke="#F40004" stroke-width="0.25"/>
<g clip-path="url(#clip35_630_2050)">
<rect x="51.75" y="462.75" width="4.5" height="4.5" rx="2.25" stroke="#F40004" stroke-width="1.5"/>
<rect x="51.75" y="331.75" width="4.5" height="4.5" rx="2.25" stroke="#F40004" stroke-width="1.5"/>
<rect x="150.75" y="331.75" width="4.5" height="4.5" rx="2.25" stroke="#F40004" stroke-width="1.5"/>
<rect x="150.75" y="462.75" width="4.5" height="4.5" rx="2.25" stroke="#F40004" stroke-width="1.5"/>
</g>
<rect x="54.125" y="334.125" width="98.75" height="130.75" stroke="#F40004" stroke-width="0.25"/>
<g clip-path="url(#clip36_630_2050)">
<rect x="51.75" y="855.75" width="4.5" height="4.5" rx="2.25" stroke="#F40004" stroke-width="1.5"/>
<rect x="150.75" y="855.75" width="4.5" height="4.5" rx="2.25" stroke="#F40004" stroke-width="1.5"/>
</g>
<rect x="54.125" y="858.125" width="98.75" height="130.75" stroke="#F40004" stroke-width="0.25"/>
<g clip-path="url(#clip37_630_2050)">
<rect x="249.75" y="200.75" width="4.5" height="4.5" rx="2.25" stroke="#F40004" stroke-width="1.5"/>
<rect x="249.75" y="69.75" width="4.5" height="4.5" rx="2.25" stroke="#F40004" stroke-width="1.5"/>
<rect x="348.75" y="69.75" width="4.5" height="4.5" rx="2.25" stroke="#F40004" stroke-width="1.5"/>
<rect x="348.75" y="200.75" width="4.5" height="4.5" rx="2.25" stroke="#F40004" stroke-width="1.5"/>
</g>
<rect x="252.125" y="72.125" width="98.75" height="130.75" stroke="#F40004" stroke-width="0.25"/>
<g clip-path="url(#clip38_630_2050)">
<rect x="249.75" y="724.75" width="4.5" height="4.5" rx="2.25" stroke="#F40004" stroke-width="1.5"/>
<rect x="249.75" y="593.75" width="4.5" height="4.5" rx="2.25" stroke="#F40004" stroke-width="1.5"/>
<rect x="348.75" y="593.75" width="4.5" height="4.5" rx="2.25" stroke="#F40004" stroke-width="1.5"/>
<rect x="348.75" y="724.75" width="4.5" height="4.5" rx="2.25" stroke="#F40004" stroke-width="1.5"/>
</g>
<rect x="252.125" y="596.125" width="98.75" height="130.75" stroke="#F40004" stroke-width="0.25"/>
<g clip-path="url(#clip39_630_2050)">
<rect x="249.75" y="462.75" width="4.5" height="4.5" rx="2.25" stroke="#F40004" stroke-width="1.5"/>
<rect x="249.75" y="331.75" width="4.5" height="4.5" rx="2.25" stroke="#F40004" stroke-width="1.5"/>
<rect x="348.75" y="331.75" width="4.5" height="4.5" rx="2.25" stroke="#F40004" stroke-width="1.5"/>
<rect x="348.75" y="462.75" width="4.5" height="4.5" rx="2.25" stroke="#F40004" stroke-width="1.5"/>
</g>
<rect x="252.125" y="334.125" width="98.75" height="130.75" stroke="#F40004" stroke-width="0.25"/>
<g clip-path="url(#clip40_630_2050)">
<rect x="249.75" y="855.75" width="4.5" height="4.5" rx="2.25" stroke="#F40004" stroke-width="1.5"/>
<rect x="348.75" y="855.75" width="4.5" height="4.5" rx="2.25" stroke="#F40004" stroke-width="1.5"/>
</g>
<rect x="252.125" y="858.125" width="98.75" height="130.75" stroke="#F40004" stroke-width="0.25"/>
</g>
<defs>
<clipPath id="clip0_630_2050">
<rect width="560" height="976" fill="white" transform="translate(-45 -59)"/>
</clipPath>
<clipPath id="clip1_630_2050">
<rect x="-45" y="-59" width="99" height="131" fill="white"/>
</clipPath>
<clipPath id="clip2_630_2050">
<rect x="-45" y="465" width="99" height="131" fill="white"/>
</clipPath>
<clipPath id="clip3_630_2050">
<rect x="-45" y="203" width="99" height="131" fill="white"/>
</clipPath>
<clipPath id="clip4_630_2050">
<rect x="-45" y="727" width="99" height="131" fill="white"/>
</clipPath>
<clipPath id="clip5_630_2050">
<rect x="351" y="-59" width="99" height="131" fill="white"/>
</clipPath>
<clipPath id="clip6_630_2050">
<rect x="351" y="465" width="99" height="131" fill="white"/>
</clipPath>
<clipPath id="clip7_630_2050">
<rect x="351" y="203" width="99" height="131" fill="white"/>
</clipPath>
<clipPath id="clip8_630_2050">
<rect x="351" y="727" width="99" height="131" fill="white"/>
</clipPath>
<clipPath id="clip9_630_2050">
<rect x="153" y="-59" width="99" height="131" fill="white"/>
</clipPath>
<clipPath id="clip10_630_2050">
<rect x="153" y="465" width="99" height="131" fill="white"/>
</clipPath>
<clipPath id="clip11_630_2050">
<rect x="153" y="203" width="99" height="131" fill="white"/>
</clipPath>
<clipPath id="clip12_630_2050">
<rect x="153" y="727" width="99" height="131" fill="white"/>
</clipPath>
<clipPath id="clip13_630_2050">
<rect x="-45" y="72" width="99" height="131" fill="white"/>
</clipPath>
<clipPath id="clip14_630_2050">
<rect x="-45" y="596" width="99" height="131" fill="white"/>
</clipPath>
<clipPath id="clip15_630_2050">
<rect x="-45" y="334" width="99" height="131" fill="white"/>
</clipPath>
<clipPath id="clip16_630_2050">
<rect x="-45" y="858" width="99" height="131" fill="white"/>
</clipPath>
<clipPath id="clip17_630_2050">
<rect x="351" y="72" width="99" height="131" fill="white"/>
</clipPath>
<clipPath id="clip18_630_2050">
<rect x="351" y="596" width="99" height="131" fill="white"/>
</clipPath>
<clipPath id="clip19_630_2050">
<rect x="351" y="334" width="99" height="131" fill="white"/>
</clipPath>
<clipPath id="clip20_630_2050">
<rect x="351" y="858" width="99" height="131" fill="white"/>
</clipPath>
<clipPath id="clip21_630_2050">
<rect x="153" y="72" width="99" height="131" fill="white"/>
</clipPath>
<clipPath id="clip22_630_2050">
<rect x="153" y="596" width="99" height="131" fill="white"/>
</clipPath>
<clipPath id="clip23_630_2050">
<rect x="153" y="334" width="99" height="131" fill="white"/>
</clipPath>
<clipPath id="clip24_630_2050">
<rect x="153" y="858" width="99" height="131" fill="white"/>
</clipPath>
<clipPath id="clip25_630_2050">
<rect x="54" y="-59" width="99" height="131" fill="white"/>
</clipPath>
<clipPath id="clip26_630_2050">
<rect x="54" y="465" width="99" height="131" fill="white"/>
</clipPath>
<clipPath id="clip27_630_2050">
<rect x="54" y="203" width="99" height="131" fill="white"/>
</clipPath>
<clipPath id="clip28_630_2050">
<rect x="54" y="727" width="99" height="131" fill="white"/>
</clipPath>
<clipPath id="clip29_630_2050">
<rect x="252" y="-59" width="99" height="131" fill="white"/>
</clipPath>
<clipPath id="clip30_630_2050">
<rect x="252" y="465" width="99" height="131" fill="white"/>
</clipPath>
<clipPath id="clip31_630_2050">
<rect x="252" y="203" width="99" height="131" fill="white"/>
</clipPath>
<clipPath id="clip32_630_2050">
<rect x="252" y="727" width="99" height="131" fill="white"/>
</clipPath>
<clipPath id="clip33_630_2050">
<rect x="54" y="72" width="99" height="131" fill="white"/>
</clipPath>
<clipPath id="clip34_630_2050">
<rect x="54" y="596" width="99" height="131" fill="white"/>
</clipPath>
<clipPath id="clip35_630_2050">
<rect x="54" y="334" width="99" height="131" fill="white"/>
</clipPath>
<clipPath id="clip36_630_2050">
<rect x="54" y="858" width="99" height="131" fill="white"/>
</clipPath>
<clipPath id="clip37_630_2050">
<rect x="252" y="72" width="99" height="131" fill="white"/>
</clipPath>
<clipPath id="clip38_630_2050">
<rect x="252" y="596" width="99" height="131" fill="white"/>
</clipPath>
<clipPath id="clip39_630_2050">
<rect x="252" y="334" width="99" height="131" fill="white"/>
</clipPath>
<clipPath id="clip40_630_2050">
<rect x="252" y="858" width="99" height="131" fill="white"/>
</clipPath>
</defs>
</svg>
