<svg width="881" height="52" viewBox="0 0 881 52" fill="none" xmlns="http://www.w3.org/2000/svg">
<path d="M36.584 9.61719V52H24.5723V9.61719H0.890625V0.388672H60.3633V9.61719H36.584ZM81.0605 52V0.388672H133.893V9.17773H93.0723V20.7012H116.9V29.4902H93.0723V42.2832H134.381V52H81.0605ZM175.781 31.3945H198.389L187.256 10.3984L175.781 31.3945ZM152.686 52L181.885 0.388672H193.457L223.047 52H209.57L203.369 40.7207H170.654L164.648 52H152.686ZM245.6 52V0.388672H255.316L279.633 31.5898L303.412 0.388672H313.031V52H301.898V20.1152C301.898 19.4967 301.931 18.7155 301.996 17.7715C302.094 16.8275 302.208 15.7695 302.338 14.5977C301.687 15.9323 301.117 17.0391 300.629 17.918C300.141 18.7643 299.701 19.4642 299.311 20.0176L279.926 45.7988H277.533L258.1 19.9199C257.383 18.9434 256.765 18.0319 256.244 17.1855C255.756 16.3066 255.349 15.4603 255.023 14.6465C255.121 15.7207 255.186 16.6973 255.219 17.5762C255.284 18.4551 255.316 19.3014 255.316 20.1152V52H245.6ZM401.057 42.2832H416.584C424.852 42.2832 430.712 40.9974 434.162 38.4258C437.613 35.8542 439.338 31.6061 439.338 25.6816C439.338 20.4082 437.906 16.4206 435.041 13.7188C432.176 10.9844 427.945 9.61719 422.346 9.61719H401.057V42.2832ZM389.045 52V0.388672H422.248C431.721 0.388672 438.996 2.60221 444.074 7.0293C449.185 11.4564 451.74 17.7389 451.74 25.877C451.74 30.6947 450.747 35.0404 448.762 38.9141C446.776 42.7552 443.977 45.7826 440.363 47.9961C438.117 49.3958 435.318 50.4212 431.965 51.0723C428.645 51.6908 424.38 52 419.172 52H389.045ZM479.811 52V0.388672H532.643V9.17773H491.822V20.7012H515.65V29.4902H491.822V42.2832H533.131V52H479.811ZM585.322 9.61719V52H573.311V9.61719H549.629V0.388672H609.102V9.61719H585.322ZM636.195 31.3945H658.803L647.67 10.3984L636.195 31.3945ZM613.1 52L642.299 0.388672H653.871L683.461 52H669.984L663.783 40.7207H631.068L625.062 52H613.1ZM706.111 52V0.388672H718.123V52H706.111ZM750.49 52V0.388672H762.502V42.2832H801.223V52H750.49ZM869.576 9.42188H835.787V20.5059H867.965C873.01 20.5059 876.412 21.3685 878.17 23.0938C879.96 24.819 880.855 28.0254 880.855 32.7129V39.793C880.855 44.4805 879.96 47.6868 878.17 49.4121C876.412 51.1374 873.01 52 867.965 52H836.08C831.035 52 827.617 51.1374 825.826 49.4121C824.068 47.6868 823.189 44.4805 823.189 39.793V38.377L833.785 36.1797V42.2832H870.26V30.5156H838.082C833.069 30.5156 829.684 29.653 827.926 27.9277C826.168 26.2025 825.289 22.9961 825.289 18.3086V12.5957C825.289 7.9082 826.168 4.70182 827.926 2.97656C829.684 1.2513 833.069 0.388672 838.082 0.388672H867.379C872.229 0.388672 875.566 1.21875 877.389 2.87891C879.244 4.53906 880.172 7.48503 880.172 11.7168V12.791L869.576 15.2812V9.42188Z" fill="white"/>
</svg>
