<svg width="406" height="78" viewBox="0 0 406 78" fill="none" xmlns="http://www.w3.org/2000/svg">
<g clip-path="url(#clip0_699_1734)">
<path d="M43.1543 79H35.5029L65.8516 4H73.5029L43.1543 79Z" fill="#D4D4D4"/>
<path d="M43.2041 77.8389H35.5527L65.9014 2.83887H73.5527L43.2041 77.8389Z" fill="#AA0101"/>
<path d="M6.37452 77.8389H-32.4473V77.0386H5.78444L38.5784 2.83887H72.5527V3.63917H39.1686L6.37452 77.8389Z" fill="#AA0101"/>
<path d="M330.603 2.67871H337.454L310.281 77.9991H303.43L330.603 2.67871Z" fill="#AA0101"/>
<path fill-rule="evenodd" clip-rule="evenodd" d="M402.403 0C404.125 0 405.503 1.37781 405.503 3.10008C405.503 4.82234 404.125 6.20016 402.403 6.20016C400.719 6.20016 399.303 4.82234 399.303 3.10008C399.303 1.37781 400.719 0 402.403 0ZM402.403 5.39643C403.666 5.39643 404.699 4.36307 404.699 3.10008C404.699 1.83708 403.666 0.803726 402.403 0.803726C401.14 0.803726 400.145 1.83708 400.145 3.10008C400.145 4.36307 401.14 5.39643 402.403 5.39643Z" fill="#AA0101"/>
<path d="M401.522 3.10018C401.522 2.60264 401.905 2.18164 402.403 2.18164C402.9 2.18164 403.321 2.60264 403.321 3.10018C403.321 3.59772 402.9 3.98045 402.403 3.98045C401.905 3.98045 401.522 3.59772 401.522 3.10018Z" fill="white"/>
<path d="M364.207 2.67871H399.418V3.48244H364.743L334.967 77.9991H304.081V77.1954H334.393L364.207 2.67871Z" fill="#AA0101"/>
<path opacity="0.2" d="M220.908 2.83887H80.1022L49.5527 77.8389H220.908H295.003L325.553 2.83887H220.908Z" fill="#9A0000"/>
<mask id="path-9-inside-1_699_1734" fill="white">
<path d="M101.112 38.1601C101.319 38.1601 101.466 38.0128 101.466 37.8065V33.2098C101.466 33.0036 101.319 32.8562 101.112 32.8562H80.604C80.3978 32.8562 80.2504 33.0036 80.2504 33.2098V34.4769C80.2504 34.5653 80.2799 34.6537 80.3683 34.7421L81.9005 36.2743C81.9889 36.3627 82.0184 36.4511 82.0184 36.5395V37.8065C82.0184 38.0128 82.1657 38.1601 82.372 38.1601H101.112ZM78.4825 46.6464V29.6739C78.4825 29.4676 78.6298 29.3203 78.836 29.3203H100.729C101.201 29.3203 101.643 29.4971 101.996 29.8507L104.472 32.3258C104.825 32.6794 105.002 33.1214 105.002 33.5929V37.4235C105.002 37.8949 104.825 38.3369 104.472 38.6905L101.996 40.871C101.643 41.2246 101.201 41.4014 100.729 41.4014H97.606C97.4292 41.4014 97.3703 41.6666 97.5471 41.755L104.766 44.6132C104.914 44.6722 105.002 44.79 105.002 44.9374V46.6464C105.002 46.8527 104.855 47 104.648 47H101.613C101.525 47 101.407 46.9705 101.319 46.9411L89.0019 41.4604C88.9135 41.4309 88.8251 41.4014 88.7367 41.4014H82.372C82.1657 41.4014 82.0184 41.5488 82.0184 41.755V46.6464C82.0184 46.8527 81.8711 47 81.6648 47H78.836C78.6298 47 78.4825 46.8527 78.4825 46.6464ZM135.955 32.5026C135.955 32.7089 135.808 32.8562 135.602 32.8562H111.557C111.351 32.8562 111.204 33.0036 111.204 33.2098V34.4769C111.204 34.5653 111.233 34.6537 111.322 34.7421L112.854 36.2743C112.942 36.3627 113.031 36.3922 113.119 36.3922H133.834C134.04 36.3922 134.187 36.5395 134.187 36.7458V39.5745C134.187 39.7808 134.04 39.9281 133.834 39.9281H111.557C111.351 39.9281 111.204 40.0754 111.204 40.2817V41.5488C111.204 41.6372 111.233 41.7256 111.322 41.8139L112.854 43.3462C112.942 43.4346 113.031 43.4641 113.119 43.4641H135.602C135.808 43.4641 135.955 43.6114 135.955 43.8177V46.6464C135.955 46.8527 135.808 47 135.602 47H109.789C109.583 47 109.436 46.8527 109.436 46.6464V29.6739C109.436 29.4676 109.583 29.3203 109.789 29.3203H135.602C135.808 29.3203 135.955 29.4676 135.955 29.6739V32.5026ZM144.662 47C144.19 47 143.748 46.8232 143.395 46.4696L140.919 43.9944C140.566 43.6409 140.389 43.1989 140.389 42.7274V33.5929C140.389 33.1214 140.566 32.6794 140.919 32.3258L143.395 29.8507C143.748 29.4971 144.19 29.3203 144.662 29.3203H166.555C166.761 29.3203 166.909 29.4676 166.909 29.6739V34.2706C166.909 34.4769 166.761 34.6242 166.555 34.6242H165.288C165.2 34.6242 165.111 34.5947 165.023 34.5063L163.491 32.9741C163.402 32.8857 163.314 32.8562 163.225 32.8562H144.279C144.072 32.8562 143.925 33.0036 143.925 33.2098V43.1105C143.925 43.3167 144.072 43.4641 144.279 43.4641H163.019C163.225 43.4641 163.373 43.3167 163.373 43.1105V38.5137C163.373 38.3075 163.225 38.1601 163.019 38.1601H158.216C158.128 38.1601 158.039 38.1896 157.951 38.278L156.419 39.8102C156.33 39.8986 156.242 39.9281 156.153 39.9281H147.815C147.608 39.9281 147.461 39.7808 147.461 39.5745V36.7458C147.461 36.5395 147.608 36.3922 147.815 36.3922H166.555C166.761 36.3922 166.909 36.5395 166.909 36.7458V43.3167C166.909 43.4051 166.879 43.4935 166.791 43.5819L163.491 46.8821C163.402 46.9705 163.314 47 163.225 47H144.662ZM174.525 47H171.696C171.49 47 171.342 46.8527 171.342 46.6464V29.6739C171.342 29.4676 171.49 29.3203 171.696 29.3203H174.525C174.731 29.3203 174.878 29.4676 174.878 29.6739V46.6464C174.878 46.8527 174.731 47 174.525 47ZM205.293 39.3977C205.647 39.7513 205.824 40.1933 205.824 40.6648V42.7274C205.824 43.1989 205.647 43.6409 205.293 43.9944L202.818 46.4696C202.464 46.8232 202.022 47 201.551 47H180.542C180.335 47 180.188 46.8527 180.188 46.6464V42.0497C180.188 41.8434 180.335 41.6961 180.542 41.6961H181.809C181.897 41.6961 181.985 41.7256 182.074 41.8139L183.606 43.3462C183.694 43.4346 183.783 43.4641 183.871 43.4641H201.934C202.14 43.4641 202.288 43.3167 202.288 43.1105V40.2817C202.288 40.0754 202.14 39.9281 201.934 39.9281H183.577C183.105 39.9281 182.663 39.7513 182.31 39.3977L179.834 36.9226C179.481 36.569 179.304 36.127 179.304 35.6555V33.5929C179.304 33.1214 179.481 32.6794 179.834 32.3258L182.31 29.8507C182.663 29.4971 183.105 29.3203 183.577 29.3203H204.586C204.792 29.3203 204.94 29.4676 204.94 29.6739V34.2706C204.94 34.4769 204.792 34.6242 204.586 34.6242H203.319C203.231 34.6242 203.142 34.5947 203.054 34.5063L201.522 32.9741C201.433 32.8857 201.345 32.8562 201.256 32.8562H183.194C182.987 32.8562 182.84 33.0036 182.84 33.2098V36.0386C182.84 36.2448 182.987 36.3922 183.194 36.3922H201.551C202.022 36.3922 202.464 36.569 202.818 36.9226L205.293 39.3977ZM235.597 32.9446C235.597 33.1509 235.45 33.2982 235.244 33.2982H227.789C227.7 33.2982 227.612 33.2688 227.523 33.1804L225.991 31.6481C225.903 31.5597 225.814 31.5302 225.726 31.5302H224.459C224.253 31.5302 224.105 31.6776 224.105 31.8838V46.6464C224.105 46.8527 223.958 47 223.752 47H220.923C220.717 47 220.569 46.8527 220.569 46.6464V31.8838C220.569 31.6776 220.422 31.5302 220.216 31.5302H218.949C218.86 31.5302 218.772 31.5597 218.684 31.6481L217.151 33.1804C217.063 33.2688 216.974 33.2982 216.886 33.2982H209.431C209.225 33.2982 209.078 33.1509 209.078 32.9446V29.6739C209.078 29.4676 209.225 29.3203 209.431 29.3203H235.244C235.45 29.3203 235.597 29.4676 235.597 29.6739V32.9446ZM266.55 32.5026C266.55 32.7089 266.403 32.8562 266.197 32.8562H242.152C241.946 32.8562 241.799 33.0036 241.799 33.2098V34.4769C241.799 34.5653 241.828 34.6537 241.917 34.7421L243.449 36.2743C243.537 36.3627 243.626 36.3922 243.714 36.3922H264.429C264.635 36.3922 264.782 36.5395 264.782 36.7458V39.5745C264.782 39.7808 264.635 39.9281 264.429 39.9281H242.152C241.946 39.9281 241.799 40.0754 241.799 40.2817V41.5488C241.799 41.6372 241.828 41.7256 241.917 41.8139L243.449 43.3462C243.537 43.4346 243.626 43.4641 243.714 43.4641H266.197C266.403 43.4641 266.55 43.6114 266.55 43.8177V46.6464C266.55 46.8527 266.403 47 266.197 47H240.384C240.178 47 240.031 46.8527 240.031 46.6464V29.6739C240.031 29.4676 240.178 29.3203 240.384 29.3203H266.197C266.403 29.3203 266.55 29.4676 266.55 29.6739V32.5026ZM293.614 38.1601C293.82 38.1601 293.968 38.0128 293.968 37.8065V33.2098C293.968 33.0036 293.82 32.8562 293.614 32.8562H273.106C272.899 32.8562 272.752 33.0036 272.752 33.2098V34.4769C272.752 34.5653 272.782 34.6537 272.87 34.7421L274.402 36.2743C274.491 36.3627 274.52 36.4511 274.52 36.5395V37.8065C274.52 38.0128 274.667 38.1601 274.874 38.1601H293.614ZM270.984 46.6464V29.6739C270.984 29.4676 271.131 29.3203 271.338 29.3203H293.231C293.703 29.3203 294.145 29.4971 294.498 29.8507L296.973 32.3258C297.327 32.6794 297.504 33.1214 297.504 33.5929V37.4235C297.504 37.8949 297.327 38.3369 296.973 38.6905L294.498 40.871C294.145 41.2246 293.703 41.4014 293.231 41.4014H290.108C289.931 41.4014 289.872 41.6666 290.049 41.755L297.268 44.6132C297.415 44.6722 297.504 44.79 297.504 44.9374V46.6464C297.504 46.8527 297.356 47 297.15 47H294.115C294.027 47 293.909 46.9705 293.82 46.9411L281.504 41.4604C281.415 41.4309 281.327 41.4014 281.238 41.4014H274.874C274.667 41.4014 274.52 41.5488 274.52 41.755V46.6464C274.52 46.8527 274.373 47 274.167 47H271.338C271.131 47 270.984 46.8527 270.984 46.6464Z"/>
</mask>
<path d="M101.112 38.1601C101.319 38.1601 101.466 38.0128 101.466 37.8065V33.2098C101.466 33.0036 101.319 32.8562 101.112 32.8562H80.604C80.3978 32.8562 80.2504 33.0036 80.2504 33.2098V34.4769C80.2504 34.5653 80.2799 34.6537 80.3683 34.7421L81.9005 36.2743C81.9889 36.3627 82.0184 36.4511 82.0184 36.5395V37.8065C82.0184 38.0128 82.1657 38.1601 82.372 38.1601H101.112ZM78.4825 46.6464V29.6739C78.4825 29.4676 78.6298 29.3203 78.836 29.3203H100.729C101.201 29.3203 101.643 29.4971 101.996 29.8507L104.472 32.3258C104.825 32.6794 105.002 33.1214 105.002 33.5929V37.4235C105.002 37.8949 104.825 38.3369 104.472 38.6905L101.996 40.871C101.643 41.2246 101.201 41.4014 100.729 41.4014H97.606C97.4292 41.4014 97.3703 41.6666 97.5471 41.755L104.766 44.6132C104.914 44.6722 105.002 44.79 105.002 44.9374V46.6464C105.002 46.8527 104.855 47 104.648 47H101.613C101.525 47 101.407 46.9705 101.319 46.9411L89.0019 41.4604C88.9135 41.4309 88.8251 41.4014 88.7367 41.4014H82.372C82.1657 41.4014 82.0184 41.5488 82.0184 41.755V46.6464C82.0184 46.8527 81.8711 47 81.6648 47H78.836C78.6298 47 78.4825 46.8527 78.4825 46.6464ZM135.955 32.5026C135.955 32.7089 135.808 32.8562 135.602 32.8562H111.557C111.351 32.8562 111.204 33.0036 111.204 33.2098V34.4769C111.204 34.5653 111.233 34.6537 111.322 34.7421L112.854 36.2743C112.942 36.3627 113.031 36.3922 113.119 36.3922H133.834C134.04 36.3922 134.187 36.5395 134.187 36.7458V39.5745C134.187 39.7808 134.04 39.9281 133.834 39.9281H111.557C111.351 39.9281 111.204 40.0754 111.204 40.2817V41.5488C111.204 41.6372 111.233 41.7256 111.322 41.8139L112.854 43.3462C112.942 43.4346 113.031 43.4641 113.119 43.4641H135.602C135.808 43.4641 135.955 43.6114 135.955 43.8177V46.6464C135.955 46.8527 135.808 47 135.602 47H109.789C109.583 47 109.436 46.8527 109.436 46.6464V29.6739C109.436 29.4676 109.583 29.3203 109.789 29.3203H135.602C135.808 29.3203 135.955 29.4676 135.955 29.6739V32.5026ZM144.662 47C144.19 47 143.748 46.8232 143.395 46.4696L140.919 43.9944C140.566 43.6409 140.389 43.1989 140.389 42.7274V33.5929C140.389 33.1214 140.566 32.6794 140.919 32.3258L143.395 29.8507C143.748 29.4971 144.19 29.3203 144.662 29.3203H166.555C166.761 29.3203 166.909 29.4676 166.909 29.6739V34.2706C166.909 34.4769 166.761 34.6242 166.555 34.6242H165.288C165.2 34.6242 165.111 34.5947 165.023 34.5063L163.491 32.9741C163.402 32.8857 163.314 32.8562 163.225 32.8562H144.279C144.072 32.8562 143.925 33.0036 143.925 33.2098V43.1105C143.925 43.3167 144.072 43.4641 144.279 43.4641H163.019C163.225 43.4641 163.373 43.3167 163.373 43.1105V38.5137C163.373 38.3075 163.225 38.1601 163.019 38.1601H158.216C158.128 38.1601 158.039 38.1896 157.951 38.278L156.419 39.8102C156.33 39.8986 156.242 39.9281 156.153 39.9281H147.815C147.608 39.9281 147.461 39.7808 147.461 39.5745V36.7458C147.461 36.5395 147.608 36.3922 147.815 36.3922H166.555C166.761 36.3922 166.909 36.5395 166.909 36.7458V43.3167C166.909 43.4051 166.879 43.4935 166.791 43.5819L163.491 46.8821C163.402 46.9705 163.314 47 163.225 47H144.662ZM174.525 47H171.696C171.49 47 171.342 46.8527 171.342 46.6464V29.6739C171.342 29.4676 171.49 29.3203 171.696 29.3203H174.525C174.731 29.3203 174.878 29.4676 174.878 29.6739V46.6464C174.878 46.8527 174.731 47 174.525 47ZM205.293 39.3977C205.647 39.7513 205.824 40.1933 205.824 40.6648V42.7274C205.824 43.1989 205.647 43.6409 205.293 43.9944L202.818 46.4696C202.464 46.8232 202.022 47 201.551 47H180.542C180.335 47 180.188 46.8527 180.188 46.6464V42.0497C180.188 41.8434 180.335 41.6961 180.542 41.6961H181.809C181.897 41.6961 181.985 41.7256 182.074 41.8139L183.606 43.3462C183.694 43.4346 183.783 43.4641 183.871 43.4641H201.934C202.14 43.4641 202.288 43.3167 202.288 43.1105V40.2817C202.288 40.0754 202.14 39.9281 201.934 39.9281H183.577C183.105 39.9281 182.663 39.7513 182.31 39.3977L179.834 36.9226C179.481 36.569 179.304 36.127 179.304 35.6555V33.5929C179.304 33.1214 179.481 32.6794 179.834 32.3258L182.31 29.8507C182.663 29.4971 183.105 29.3203 183.577 29.3203H204.586C204.792 29.3203 204.94 29.4676 204.94 29.6739V34.2706C204.94 34.4769 204.792 34.6242 204.586 34.6242H203.319C203.231 34.6242 203.142 34.5947 203.054 34.5063L201.522 32.9741C201.433 32.8857 201.345 32.8562 201.256 32.8562H183.194C182.987 32.8562 182.84 33.0036 182.84 33.2098V36.0386C182.84 36.2448 182.987 36.3922 183.194 36.3922H201.551C202.022 36.3922 202.464 36.569 202.818 36.9226L205.293 39.3977ZM235.597 32.9446C235.597 33.1509 235.45 33.2982 235.244 33.2982H227.789C227.7 33.2982 227.612 33.2688 227.523 33.1804L225.991 31.6481C225.903 31.5597 225.814 31.5302 225.726 31.5302H224.459C224.253 31.5302 224.105 31.6776 224.105 31.8838V46.6464C224.105 46.8527 223.958 47 223.752 47H220.923C220.717 47 220.569 46.8527 220.569 46.6464V31.8838C220.569 31.6776 220.422 31.5302 220.216 31.5302H218.949C218.86 31.5302 218.772 31.5597 218.684 31.6481L217.151 33.1804C217.063 33.2688 216.974 33.2982 216.886 33.2982H209.431C209.225 33.2982 209.078 33.1509 209.078 32.9446V29.6739C209.078 29.4676 209.225 29.3203 209.431 29.3203H235.244C235.45 29.3203 235.597 29.4676 235.597 29.6739V32.9446ZM266.55 32.5026C266.55 32.7089 266.403 32.8562 266.197 32.8562H242.152C241.946 32.8562 241.799 33.0036 241.799 33.2098V34.4769C241.799 34.5653 241.828 34.6537 241.917 34.7421L243.449 36.2743C243.537 36.3627 243.626 36.3922 243.714 36.3922H264.429C264.635 36.3922 264.782 36.5395 264.782 36.7458V39.5745C264.782 39.7808 264.635 39.9281 264.429 39.9281H242.152C241.946 39.9281 241.799 40.0754 241.799 40.2817V41.5488C241.799 41.6372 241.828 41.7256 241.917 41.8139L243.449 43.3462C243.537 43.4346 243.626 43.4641 243.714 43.4641H266.197C266.403 43.4641 266.55 43.6114 266.55 43.8177V46.6464C266.55 46.8527 266.403 47 266.197 47H240.384C240.178 47 240.031 46.8527 240.031 46.6464V29.6739C240.031 29.4676 240.178 29.3203 240.384 29.3203H266.197C266.403 29.3203 266.55 29.4676 266.55 29.6739V32.5026ZM293.614 38.1601C293.82 38.1601 293.968 38.0128 293.968 37.8065V33.2098C293.968 33.0036 293.82 32.8562 293.614 32.8562H273.106C272.899 32.8562 272.752 33.0036 272.752 33.2098V34.4769C272.752 34.5653 272.782 34.6537 272.87 34.7421L274.402 36.2743C274.491 36.3627 274.52 36.4511 274.52 36.5395V37.8065C274.52 38.0128 274.667 38.1601 274.874 38.1601H293.614ZM270.984 46.6464V29.6739C270.984 29.4676 271.131 29.3203 271.338 29.3203H293.231C293.703 29.3203 294.145 29.4971 294.498 29.8507L296.973 32.3258C297.327 32.6794 297.504 33.1214 297.504 33.5929V37.4235C297.504 37.8949 297.327 38.3369 296.973 38.6905L294.498 40.871C294.145 41.2246 293.703 41.4014 293.231 41.4014H290.108C289.931 41.4014 289.872 41.6666 290.049 41.755L297.268 44.6132C297.415 44.6722 297.504 44.79 297.504 44.9374V46.6464C297.504 46.8527 297.356 47 297.15 47H294.115C294.027 47 293.909 46.9705 293.82 46.9411L281.504 41.4604C281.415 41.4309 281.327 41.4014 281.238 41.4014H274.874C274.667 41.4014 274.52 41.5488 274.52 41.755V46.6464C274.52 46.8527 274.373 47 274.167 47H271.338C271.131 47 270.984 46.8527 270.984 46.6464Z" fill="#FF7B7E"/>
<path d="M80.3683 34.7421L80.0854 35.0249L80.0854 35.0249L80.3683 34.7421ZM81.9005 36.2743L81.6177 36.5571L81.6177 36.5571L81.9005 36.2743ZM104.472 32.3258L104.754 32.043L104.754 32.043L104.472 32.3258ZM104.472 38.6905L104.736 38.9907L104.746 38.9823L104.754 38.9734L104.472 38.6905ZM101.996 40.871L101.732 40.5709L101.723 40.5792L101.714 40.5882L101.996 40.871ZM97.5471 41.755L97.3682 42.1128L97.3837 42.1205L97.3998 42.1269L97.5471 41.755ZM104.766 44.6132L104.915 44.2418L104.914 44.2413L104.766 44.6132ZM101.319 46.9411L101.156 47.3065L101.174 47.3144L101.192 47.3205L101.319 46.9411ZM89.0019 41.4604L89.1645 41.0949L89.1468 41.087L89.1284 41.0809L89.0019 41.4604ZM101.112 38.1601V38.5601C101.54 38.5601 101.866 38.2337 101.866 37.8065H101.466H101.066C101.066 37.8102 101.065 37.8077 101.068 37.8009C101.071 37.7942 101.076 37.7857 101.084 37.7779C101.092 37.77 101.1 37.7649 101.107 37.7622C101.114 37.7596 101.116 37.7601 101.112 37.7601V38.1601ZM101.466 37.8065H101.866V33.2098H101.466H101.066V37.8065H101.466ZM101.466 33.2098H101.866C101.866 32.7826 101.54 32.4562 101.112 32.4562V32.8562V33.2562C101.116 33.2562 101.114 33.2568 101.107 33.2541C101.1 33.2514 101.092 33.2464 101.084 33.2385C101.076 33.2306 101.071 33.2222 101.068 33.2154C101.065 33.2087 101.066 33.2061 101.066 33.2098H101.466ZM101.112 32.8562V32.4562H80.604V32.8562V33.2562H101.112V32.8562ZM80.604 32.8562V32.4562C80.1768 32.4562 79.8504 32.7826 79.8504 33.2098H80.2504H80.6504C80.6504 33.2061 80.651 33.2087 80.6483 33.2154C80.6456 33.2222 80.6406 33.2306 80.6327 33.2385C80.6248 33.2464 80.6164 33.2514 80.6096 33.2541C80.6029 33.2568 80.6003 33.2562 80.604 33.2562V32.8562ZM80.2504 33.2098H79.8504V34.4769H80.2504H80.6504V33.2098H80.2504ZM80.2504 34.4769H79.8504C79.8504 34.6726 79.9229 34.8623 80.0854 35.0249L80.3683 34.7421L80.6511 34.4592C80.6448 34.4529 80.6424 34.4494 80.6422 34.4492C80.6421 34.449 80.6436 34.4512 80.6454 34.4556C80.6473 34.46 80.6487 34.4649 80.6496 34.4695C80.6504 34.4739 80.6504 34.4766 80.6504 34.4769H80.2504ZM80.3683 34.7421L80.0854 35.0249L81.6177 36.5571L81.9005 36.2743L82.1834 35.9915L80.6511 34.4592L80.3683 34.7421ZM81.9005 36.2743L81.6177 36.5571C81.624 36.5635 81.6264 36.567 81.6266 36.5672C81.6267 36.5673 81.6252 36.5651 81.6234 36.5607C81.6215 36.5563 81.6201 36.5515 81.6193 36.5469C81.6184 36.5425 81.6184 36.5397 81.6184 36.5395H82.0184H82.4184C82.4184 36.3438 82.3459 36.154 82.1834 35.9915L81.9005 36.2743ZM82.0184 36.5395H81.6184V37.8065H82.0184H82.4184V36.5395H82.0184ZM82.0184 37.8065H81.6184C81.6184 38.2337 81.9448 38.5601 82.372 38.5601V38.1601V37.7601C82.3683 37.7601 82.3709 37.7596 82.3776 37.7622C82.3844 37.7649 82.3928 37.77 82.4007 37.7779C82.4086 37.7857 82.4136 37.7942 82.4163 37.8009C82.419 37.8077 82.4184 37.8102 82.4184 37.8065H82.0184ZM82.372 38.1601V38.5601H101.112V38.1601V37.7601H82.372V38.1601ZM78.4825 46.6464H78.8825V29.6739H78.4825H78.0825V46.6464H78.4825ZM78.4825 29.6739H78.8825C78.8825 29.6702 78.883 29.6728 78.8804 29.6795C78.8777 29.6863 78.8726 29.6947 78.8647 29.7026C78.8569 29.7105 78.8484 29.7155 78.8416 29.7182C78.8349 29.7209 78.8324 29.7203 78.836 29.7203V29.3203V28.9203C78.4089 28.9203 78.0825 29.2467 78.0825 29.6739H78.4825ZM78.836 29.3203V29.7203H100.729V29.3203V28.9203H78.836V29.3203ZM100.729 29.3203V29.7203C101.095 29.7203 101.435 29.8551 101.714 30.1335L101.996 29.8507L102.279 29.5678C101.851 29.1391 101.307 28.9203 100.729 28.9203V29.3203ZM101.996 29.8507L101.714 30.1335L104.189 32.6087L104.472 32.3258L104.754 32.043L102.279 29.5678L101.996 29.8507ZM104.472 32.3258L104.189 32.6087C104.467 32.8871 104.602 33.2273 104.602 33.5929H105.002H105.402C105.402 33.0155 105.183 32.4717 104.754 32.043L104.472 32.3258ZM105.002 33.5929H104.602V37.4235H105.002H105.402V33.5929H105.002ZM105.002 37.4235H104.602C104.602 37.7891 104.467 38.1293 104.189 38.4077L104.472 38.6905L104.754 38.9734C105.183 38.5446 105.402 38.0008 105.402 37.4235H105.002ZM104.472 38.6905L104.207 38.3904L101.732 40.5709L101.996 40.871L102.261 41.1712L104.736 38.9907L104.472 38.6905ZM101.996 40.871L101.714 40.5882C101.435 40.8666 101.095 41.0014 100.729 41.0014V41.4014V41.8014C101.307 41.8014 101.851 41.5826 102.279 41.1539L101.996 40.871ZM100.729 41.4014V41.0014H97.606V41.4014V41.8014H100.729V41.4014ZM97.606 41.4014V41.0014C97.2802 41.0014 97.0924 41.2527 97.051 41.4702C97.0081 41.6956 97.0957 41.9765 97.3682 42.1128L97.5471 41.755L97.726 41.3972C97.8217 41.4451 97.8503 41.5492 97.8369 41.6199C97.8303 41.6545 97.8123 41.6968 97.7729 41.7342C97.7294 41.7755 97.6687 41.8014 97.606 41.8014V41.4014ZM97.5471 41.755L97.3998 42.1269L104.619 44.9852L104.766 44.6132L104.914 44.2413L97.6943 41.3831L97.5471 41.755ZM104.766 44.6132L104.618 44.9846C104.632 44.9902 104.626 44.9917 104.617 44.9787C104.612 44.9724 104.608 44.9647 104.605 44.9561C104.603 44.9476 104.602 44.9409 104.602 44.9374H105.002H105.402C105.402 44.6029 105.191 44.3523 104.915 44.2418L104.766 44.6132ZM105.002 44.9374H104.602V46.6464H105.002H105.402V44.9374H105.002ZM105.002 46.6464H104.602C104.602 46.6501 104.601 46.6475 104.604 46.6408C104.607 46.634 104.612 46.6256 104.62 46.6177C104.628 46.6098 104.636 46.6048 104.643 46.6021C104.65 46.5994 104.652 46.6 104.648 46.6V47V47.4C105.076 47.4 105.402 47.0736 105.402 46.6464H105.002ZM104.648 47V46.6H101.613V47V47.4H104.648V47ZM101.613 47V46.6C101.613 46.6 101.613 46.6 101.612 46.6C101.611 46.5999 101.61 46.5999 101.608 46.5997C101.605 46.5995 101.6 46.599 101.594 46.5983C101.582 46.5967 101.567 46.5941 101.55 46.5905C101.515 46.583 101.478 46.5725 101.445 46.5616L101.319 46.9411L101.192 47.3205C101.292 47.3537 101.459 47.4 101.613 47.4V47ZM101.319 46.9411L101.481 46.5756L89.1645 41.0949L89.0019 41.4604L88.8393 41.8258L101.156 47.3065L101.319 46.9411ZM89.0019 41.4604L89.1284 41.0809C89.0534 41.0559 88.9017 41.0014 88.7367 41.0014V41.4014V41.8014C88.7366 41.8014 88.7392 41.8014 88.7453 41.8023C88.7514 41.8032 88.7601 41.8049 88.7723 41.8079C88.799 41.8146 88.8285 41.8242 88.8754 41.8398L89.0019 41.4604ZM88.7367 41.4014V41.0014H82.372V41.4014V41.8014H88.7367V41.4014ZM82.372 41.4014V41.0014C81.9448 41.0014 81.6184 41.3278 81.6184 41.755H82.0184H82.4184C82.4184 41.7513 82.419 41.7539 82.4163 41.7606C82.4136 41.7674 82.4086 41.7758 82.4007 41.7837C82.3928 41.7916 82.3844 41.7966 82.3776 41.7993C82.3709 41.802 82.3683 41.8014 82.372 41.8014V41.4014ZM82.0184 41.755H81.6184V46.6464H82.0184H82.4184V41.755H82.0184ZM82.0184 46.6464H81.6184C81.6184 46.6501 81.6178 46.6475 81.6205 46.6408C81.6232 46.634 81.6282 46.6256 81.6361 46.6177C81.644 46.6098 81.6524 46.6048 81.6592 46.6021C81.6659 46.5994 81.6685 46.6 81.6648 46.6V47V47.4C82.092 47.4 82.4184 47.0736 82.4184 46.6464H82.0184ZM81.6648 47V46.6H78.836V47V47.4H81.6648V47ZM78.836 47V46.6C78.8324 46.6 78.8349 46.5994 78.8416 46.6021C78.8484 46.6048 78.8568 46.6098 78.8647 46.6177C78.8726 46.6256 78.8777 46.634 78.8804 46.6408C78.883 46.6475 78.8825 46.6501 78.8825 46.6464H78.4825H78.0825C78.0825 47.0736 78.4089 47.4 78.836 47.4V47ZM111.322 34.7421L111.039 35.0249L111.039 35.0249L111.322 34.7421ZM112.854 36.2743L112.571 36.5571L112.571 36.5571L112.854 36.2743ZM111.322 41.8139L111.604 41.5311L111.604 41.5311L111.322 41.8139ZM112.854 43.3462L112.571 43.629L112.571 43.629L112.854 43.3462ZM135.955 32.5026H135.555C135.555 32.5063 135.555 32.5038 135.557 32.497C135.56 32.4902 135.565 32.4818 135.573 32.4739C135.581 32.466 135.589 32.461 135.596 32.4583C135.603 32.4556 135.605 32.4562 135.602 32.4562V32.8562V33.2562C136.029 33.2562 136.355 32.9298 136.355 32.5026H135.955ZM135.602 32.8562V32.4562H111.557V32.8562V33.2562H135.602V32.8562ZM111.557 32.8562V32.4562C111.13 32.4562 110.804 32.7826 110.804 33.2098H111.204H111.604C111.604 33.2061 111.604 33.2087 111.602 33.2154C111.599 33.2222 111.594 33.2306 111.586 33.2385C111.578 33.2464 111.57 33.2514 111.563 33.2541C111.556 33.2568 111.554 33.2562 111.557 33.2562V32.8562ZM111.204 33.2098H110.804V34.4769H111.204H111.604V33.2098H111.204ZM111.204 34.4769H110.804C110.804 34.6726 110.876 34.8623 111.039 35.0249L111.322 34.7421L111.604 34.4592C111.598 34.4529 111.596 34.4494 111.596 34.4492C111.595 34.449 111.597 34.4512 111.599 34.4556C111.601 34.46 111.602 34.4649 111.603 34.4695C111.604 34.4739 111.604 34.4766 111.604 34.4769H111.204ZM111.322 34.7421L111.039 35.0249L112.571 36.5571L112.854 36.2743L113.137 35.9915L111.604 34.4592L111.322 34.7421ZM112.854 36.2743L112.571 36.5571C112.734 36.7197 112.923 36.7922 113.119 36.7922V36.3922V35.9922C113.119 35.9922 113.122 35.9922 113.126 35.993C113.131 35.9939 113.136 35.9953 113.14 35.9972C113.145 35.999 113.147 36.0005 113.147 36.0004C113.146 36.0002 113.143 35.9978 113.137 35.9915L112.854 36.2743ZM113.119 36.3922V36.7922H133.834V36.3922V35.9922H113.119V36.3922ZM133.834 36.3922V36.7922C133.837 36.7922 133.835 36.7928 133.828 36.7901C133.821 36.7874 133.813 36.7824 133.805 36.7745C133.797 36.7666 133.792 36.7582 133.789 36.7514C133.787 36.7446 133.787 36.7421 133.787 36.7458H134.187H134.587C134.587 36.3186 134.261 35.9922 133.834 35.9922V36.3922ZM134.187 36.7458H133.787V39.5745H134.187H134.587V36.7458H134.187ZM134.187 39.5745H133.787C133.787 39.5782 133.787 39.5756 133.789 39.5689C133.792 39.5621 133.797 39.5537 133.805 39.5458C133.813 39.5379 133.821 39.5329 133.828 39.5302C133.835 39.5275 133.837 39.5281 133.834 39.5281V39.9281V40.3281C134.261 40.3281 134.587 40.0017 134.587 39.5745H134.187ZM133.834 39.9281V39.5281H111.557V39.9281V40.3281H133.834V39.9281ZM111.557 39.9281V39.5281C111.13 39.5281 110.804 39.8545 110.804 40.2817H111.204H111.604C111.604 40.278 111.604 40.2806 111.602 40.2873C111.599 40.2941 111.594 40.3025 111.586 40.3104C111.578 40.3183 111.57 40.3233 111.563 40.326C111.556 40.3287 111.554 40.3281 111.557 40.3281V39.9281ZM111.204 40.2817H110.804V41.5488H111.204H111.604V40.2817H111.204ZM111.204 41.5488H110.804C110.804 41.7444 110.876 41.9342 111.039 42.0968L111.322 41.8139L111.604 41.5311C111.598 41.5248 111.596 41.5213 111.596 41.521C111.595 41.5209 111.597 41.5231 111.599 41.5275C111.601 41.5319 111.602 41.5368 111.603 41.5413C111.604 41.5458 111.604 41.5485 111.604 41.5488H111.204ZM111.322 41.8139L111.039 42.0968L112.571 43.629L112.854 43.3462L113.137 43.0633L111.604 41.5311L111.322 41.8139ZM112.854 43.3462L112.571 43.629C112.734 43.7916 112.923 43.8641 113.119 43.8641V43.4641V43.0641C113.119 43.0641 113.122 43.0641 113.126 43.0649C113.131 43.0658 113.136 43.0672 113.14 43.069C113.145 43.0709 113.147 43.0724 113.147 43.0723C113.146 43.0721 113.143 43.0697 113.137 43.0633L112.854 43.3462ZM113.119 43.4641V43.8641H135.602V43.4641V43.0641H113.119V43.4641ZM135.602 43.4641V43.8641C135.605 43.8641 135.603 43.8646 135.596 43.862C135.589 43.8593 135.581 43.8542 135.573 43.8463C135.565 43.8385 135.56 43.83 135.557 43.8233C135.555 43.8165 135.555 43.814 135.555 43.8177H135.955H136.355C136.355 43.3905 136.029 43.0641 135.602 43.0641V43.4641ZM135.955 43.8177H135.555V46.6464H135.955H136.355V43.8177H135.955ZM135.955 46.6464H135.555C135.555 46.6501 135.555 46.6475 135.557 46.6408C135.56 46.634 135.565 46.6256 135.573 46.6177C135.581 46.6098 135.589 46.6048 135.596 46.6021C135.603 46.5994 135.605 46.6 135.602 46.6V47V47.4C136.029 47.4 136.355 47.0736 136.355 46.6464H135.955ZM135.602 47V46.6H109.789V47V47.4H135.602V47ZM109.789 47V46.6C109.786 46.6 109.788 46.5994 109.795 46.6021C109.802 46.6048 109.81 46.6098 109.818 46.6177C109.826 46.6256 109.831 46.634 109.834 46.6408C109.836 46.6475 109.836 46.6501 109.836 46.6464H109.436H109.036C109.036 47.0736 109.362 47.4 109.789 47.4V47ZM109.436 46.6464H109.836V29.6739H109.436H109.036V46.6464H109.436ZM109.436 29.6739H109.836C109.836 29.6702 109.836 29.6728 109.834 29.6795C109.831 29.6863 109.826 29.6947 109.818 29.7026C109.81 29.7105 109.802 29.7155 109.795 29.7182C109.788 29.7209 109.786 29.7203 109.789 29.7203V29.3203V28.9203C109.362 28.9203 109.036 29.2467 109.036 29.6739H109.436ZM109.789 29.3203V29.7203H135.602V29.3203V28.9203H109.789V29.3203ZM135.602 29.3203V29.7203C135.605 29.7203 135.603 29.7209 135.596 29.7182C135.589 29.7155 135.581 29.7105 135.573 29.7026C135.565 29.6947 135.56 29.6863 135.557 29.6795C135.555 29.6728 135.555 29.6702 135.555 29.6739H135.955H136.355C136.355 29.2467 136.029 28.9203 135.602 28.9203V29.3203ZM135.955 29.6739H135.555V32.5026H135.955H136.355V29.6739H135.955ZM143.395 46.4696L143.112 46.7525L143.112 46.7525L143.395 46.4696ZM140.919 43.9944L140.637 44.2773L140.637 44.2773L140.919 43.9944ZM140.919 32.3258L141.202 32.6087L141.202 32.6087L140.919 32.3258ZM143.395 29.8507L143.677 30.1335L143.677 30.1335L143.395 29.8507ZM165.023 34.5063L164.74 34.7892L164.74 34.7892L165.023 34.5063ZM156.419 39.8102L156.702 40.0931L156.702 40.0931L156.419 39.8102ZM166.791 43.5819L166.508 43.2991L166.508 43.2991L166.791 43.5819ZM163.491 46.8821L163.773 47.165L163.773 47.165L163.491 46.8821ZM144.662 47V46.6C144.296 46.6 143.956 46.4652 143.677 46.1868L143.395 46.4696L143.112 46.7525C143.541 47.1812 144.084 47.4 144.662 47.4V47ZM143.395 46.4696L143.677 46.1868L141.202 43.7116L140.919 43.9944L140.637 44.2773L143.112 46.7525L143.395 46.4696ZM140.919 43.9944L141.202 43.7116C140.924 43.4332 140.789 43.093 140.789 42.7274H140.389H139.989C139.989 43.3047 140.208 43.8485 140.637 44.2773L140.919 43.9944ZM140.389 42.7274H140.789V33.5929H140.389H139.989V42.7274H140.389ZM140.389 33.5929H140.789C140.789 33.2273 140.924 32.8871 141.202 32.6087L140.919 32.3258L140.637 32.043C140.208 32.4717 139.989 33.0155 139.989 33.5929H140.389ZM140.919 32.3258L141.202 32.6087L143.677 30.1335L143.395 29.8507L143.112 29.5678L140.637 32.043L140.919 32.3258ZM143.395 29.8507L143.677 30.1335C143.956 29.8551 144.296 29.7203 144.662 29.7203V29.3203V28.9203C144.084 28.9203 143.541 29.1391 143.112 29.5678L143.395 29.8507ZM144.662 29.3203V29.7203H166.555V29.3203V28.9203H144.662V29.3203ZM166.555 29.3203V29.7203C166.559 29.7203 166.556 29.7209 166.549 29.7182C166.543 29.7155 166.534 29.7105 166.526 29.7026C166.518 29.6947 166.513 29.6863 166.511 29.6795C166.508 29.6728 166.509 29.6702 166.509 29.6739H166.909H167.309C167.309 29.2467 166.982 28.9203 166.555 28.9203V29.3203ZM166.909 29.6739H166.509V34.2706H166.909H167.309V29.6739H166.909ZM166.909 34.2706H166.509C166.509 34.2743 166.508 34.2717 166.511 34.265C166.513 34.2582 166.518 34.2498 166.526 34.2419C166.534 34.234 166.543 34.229 166.549 34.2263C166.556 34.2236 166.559 34.2242 166.555 34.2242V34.6242V35.0242C166.982 35.0242 167.309 34.6978 167.309 34.2706H166.909ZM166.555 34.6242V34.2242H165.288V34.6242V35.0242H166.555V34.6242ZM165.288 34.6242V34.2242C165.288 34.2242 165.291 34.2242 165.295 34.2251C165.3 34.2259 165.305 34.2273 165.309 34.2292C165.314 34.231 165.316 34.2325 165.316 34.2324C165.315 34.2323 165.312 34.2298 165.306 34.2235L165.023 34.5063L164.74 34.7892C164.903 34.9517 165.092 35.0242 165.288 35.0242V34.6242ZM165.023 34.5063L165.306 34.2235L163.773 32.6912L163.491 32.9741L163.208 33.2569L164.74 34.7892L165.023 34.5063ZM163.491 32.9741L163.773 32.6912C163.611 32.5287 163.421 32.4562 163.225 32.4562V32.8562V33.2562C163.225 33.2562 163.222 33.2562 163.218 33.2554C163.213 33.2545 163.209 33.2531 163.204 33.2512C163.2 33.2494 163.198 33.2479 163.198 33.248C163.198 33.2482 163.201 33.2506 163.208 33.2569L163.491 32.9741ZM163.225 32.8562V32.4562H144.279V32.8562V33.2562H163.225V32.8562ZM144.279 32.8562V32.4562C143.851 32.4562 143.525 32.7826 143.525 33.2098H143.925H144.325C144.325 33.2061 144.326 33.2087 144.323 33.2154C144.32 33.2222 144.315 33.2306 144.307 33.2385C144.299 33.2464 144.291 33.2514 144.284 33.2541C144.277 33.2568 144.275 33.2562 144.279 33.2562V32.8562ZM143.925 33.2098H143.525V43.1105H143.925H144.325V33.2098H143.925ZM143.925 43.1105H143.525C143.525 43.5376 143.851 43.8641 144.279 43.8641V43.4641V43.0641C144.275 43.0641 144.277 43.0635 144.284 43.0661C144.291 43.0689 144.299 43.0739 144.307 43.0818C144.315 43.0897 144.32 43.0981 144.323 43.1049C144.326 43.1116 144.325 43.1141 144.325 43.1105H143.925ZM144.279 43.4641V43.8641H163.019V43.4641V43.0641H144.279V43.4641ZM163.019 43.4641V43.8641C163.446 43.8641 163.773 43.5376 163.773 43.1105H163.373H162.973C162.973 43.1141 162.972 43.1116 162.975 43.1049C162.978 43.0981 162.983 43.0897 162.99 43.0818C162.998 43.0739 163.007 43.0689 163.014 43.0661C163.02 43.0635 163.023 43.0641 163.019 43.0641V43.4641ZM163.373 43.1105H163.773V38.5137H163.373H162.973V43.1105H163.373ZM163.373 38.5137H163.773C163.773 38.0866 163.446 37.7601 163.019 37.7601V38.1601V38.5601C163.023 38.5601 163.02 38.5607 163.014 38.5581C163.007 38.5553 162.998 38.5503 162.99 38.5424C162.983 38.5345 162.978 38.5261 162.975 38.5193C162.972 38.5126 162.973 38.5101 162.973 38.5137H163.373ZM163.019 38.1601V37.7601H158.216V38.1601V38.5601H163.019V38.1601ZM158.216 38.1601V37.7601C158.02 37.7601 157.831 37.8326 157.668 37.9952L157.951 38.278L158.234 38.5608C158.24 38.5545 158.244 38.5521 158.244 38.5519C158.244 38.5518 158.242 38.5533 158.237 38.5552C158.233 38.557 158.228 38.5584 158.224 38.5593C158.219 38.5601 158.216 38.5601 158.216 38.5601V38.1601ZM157.951 38.278L157.668 37.9952L156.136 39.5274L156.419 39.8102L156.702 40.0931L158.234 38.5608L157.951 38.278ZM156.419 39.8102L156.136 39.5274C156.129 39.5338 156.126 39.5362 156.126 39.5363C156.126 39.5364 156.128 39.5349 156.132 39.5331C156.137 39.5313 156.141 39.5298 156.146 39.529C156.151 39.5281 156.153 39.5281 156.153 39.5281V39.9281V40.3281C156.349 40.3281 156.539 40.2556 156.702 40.0931L156.419 39.8102ZM156.153 39.9281V39.5281H147.815V39.9281V40.3281H156.153V39.9281ZM147.815 39.9281V39.5281C147.811 39.5281 147.813 39.5275 147.82 39.5302C147.827 39.5329 147.835 39.5379 147.843 39.5458C147.851 39.5537 147.856 39.5621 147.859 39.5689C147.862 39.5756 147.861 39.5782 147.861 39.5745H147.461H147.061C147.061 40.0017 147.387 40.3281 147.815 40.3281V39.9281ZM147.461 39.5745H147.861V36.7458H147.461H147.061V39.5745H147.461ZM147.461 36.7458H147.861C147.861 36.7421 147.862 36.7446 147.859 36.7514C147.856 36.7582 147.851 36.7666 147.843 36.7745C147.835 36.7824 147.827 36.7874 147.82 36.7901C147.813 36.7928 147.811 36.7922 147.815 36.7922V36.3922V35.9922C147.387 35.9922 147.061 36.3186 147.061 36.7458H147.461ZM147.815 36.3922V36.7922H166.555V36.3922V35.9922H147.815V36.3922ZM166.555 36.3922V36.7922C166.559 36.7922 166.556 36.7928 166.549 36.7901C166.543 36.7874 166.534 36.7824 166.526 36.7745C166.518 36.7666 166.513 36.7582 166.511 36.7514C166.508 36.7446 166.509 36.7421 166.509 36.7458H166.909H167.309C167.309 36.3186 166.982 35.9922 166.555 35.9922V36.3922ZM166.909 36.7458H166.509V43.3167H166.909H167.309V36.7458H166.909ZM166.909 43.3167H166.509C166.509 43.3165 166.509 43.3138 166.51 43.3093C166.51 43.3047 166.512 43.2999 166.514 43.2955C166.515 43.2911 166.517 43.2889 166.517 43.289C166.517 43.2893 166.514 43.2927 166.508 43.2991L166.791 43.5819L167.074 43.8648C167.236 43.7022 167.309 43.5124 167.309 43.3167H166.909ZM166.791 43.5819L166.508 43.2991L163.208 46.5993L163.491 46.8821L163.773 47.165L167.074 43.8648L166.791 43.5819ZM163.491 46.8821L163.208 46.5993C163.201 46.6056 163.198 46.6081 163.198 46.6082C163.198 46.6083 163.2 46.6068 163.204 46.605C163.209 46.6031 163.213 46.6017 163.218 46.6009C163.222 46.6 163.225 46.6 163.225 46.6V47V47.4C163.421 47.4 163.611 47.3275 163.773 47.165L163.491 46.8821ZM163.225 47V46.6H144.662V47V47.4H163.225V47ZM174.525 47V46.6H171.696V47V47.4H174.525V47ZM171.696 47V46.6C171.692 46.6 171.695 46.5994 171.702 46.6021C171.708 46.6048 171.717 46.6098 171.725 46.6177C171.733 46.6256 171.738 46.634 171.74 46.6408C171.743 46.6475 171.742 46.6501 171.742 46.6464H171.342H170.942C170.942 47.0736 171.269 47.4 171.696 47.4V47ZM171.342 46.6464H171.742V29.6739H171.342H170.942V46.6464H171.342ZM171.342 29.6739H171.742C171.742 29.6702 171.743 29.6728 171.74 29.6795C171.738 29.6863 171.733 29.6947 171.725 29.7026C171.717 29.7105 171.708 29.7155 171.702 29.7182C171.695 29.7209 171.692 29.7203 171.696 29.7203V29.3203V28.9203C171.269 28.9203 170.942 29.2467 170.942 29.6739H171.342ZM171.696 29.3203V29.7203H174.525V29.3203V28.9203H171.696V29.3203ZM174.525 29.3203V29.7203C174.528 29.7203 174.526 29.7209 174.519 29.7182C174.512 29.7155 174.504 29.7105 174.496 29.7026C174.488 29.6947 174.483 29.6863 174.48 29.6795C174.478 29.6728 174.478 29.6702 174.478 29.6739H174.878H175.278C175.278 29.2467 174.952 28.9203 174.525 28.9203V29.3203ZM174.878 29.6739H174.478V46.6464H174.878H175.278V29.6739H174.878ZM174.878 46.6464H174.478C174.478 46.6501 174.478 46.6475 174.48 46.6408C174.483 46.634 174.488 46.6256 174.496 46.6177C174.504 46.6098 174.512 46.6048 174.519 46.6021C174.526 46.5994 174.528 46.6 174.525 46.6V47V47.4C174.952 47.4 175.278 47.0736 175.278 46.6464H174.878ZM205.293 39.3977L205.576 39.1149L205.576 39.1149L205.293 39.3977ZM205.293 43.9944L205.576 44.2773L205.576 44.2773L205.293 43.9944ZM202.818 46.4696L203.101 46.7525L203.101 46.7525L202.818 46.4696ZM182.074 41.8139L182.357 41.5311L182.357 41.5311L182.074 41.8139ZM183.606 43.3462L183.323 43.629L183.323 43.629L183.606 43.3462ZM182.31 39.3977L182.592 39.1149L182.592 39.1149L182.31 39.3977ZM179.834 36.9226L180.117 36.6397L180.117 36.6397L179.834 36.9226ZM179.834 32.3258L180.117 32.6087L180.117 32.6087L179.834 32.3258ZM182.31 29.8507L182.592 30.1335L182.592 30.1335L182.31 29.8507ZM203.054 34.5063L202.771 34.7892L202.771 34.7892L203.054 34.5063ZM202.818 36.9226L203.101 36.6397L203.101 36.6397L202.818 36.9226ZM205.293 39.3977L205.01 39.6806C205.289 39.959 205.424 40.2992 205.424 40.6648H205.824H206.224C206.224 40.0874 206.005 39.5436 205.576 39.1149L205.293 39.3977ZM205.824 40.6648H205.424V42.7274H205.824H206.224V40.6648H205.824ZM205.824 42.7274H205.424C205.424 43.093 205.289 43.4332 205.01 43.7116L205.293 43.9944L205.576 44.2773C206.005 43.8485 206.224 43.3047 206.224 42.7274H205.824ZM205.293 43.9944L205.01 43.7116L202.535 46.1868L202.818 46.4696L203.101 46.7525L205.576 44.2773L205.293 43.9944ZM202.818 46.4696L202.535 46.1868C202.257 46.4652 201.917 46.6 201.551 46.6V47V47.4C202.128 47.4 202.672 47.1812 203.101 46.7525L202.818 46.4696ZM201.551 47V46.6H180.542V47V47.4H201.551V47ZM180.542 47V46.6C180.538 46.6 180.54 46.5994 180.547 46.6021C180.554 46.6048 180.562 46.6098 180.57 46.6177C180.578 46.6256 180.583 46.634 180.586 46.6408C180.589 46.6475 180.588 46.6501 180.588 46.6464H180.188H179.788C179.788 47.0736 180.114 47.4 180.542 47.4V47ZM180.188 46.6464H180.588V42.0497H180.188H179.788V46.6464H180.188ZM180.188 42.0497H180.588C180.588 42.046 180.589 42.0486 180.586 42.0553C180.583 42.0621 180.578 42.0705 180.57 42.0784C180.562 42.0863 180.554 42.0913 180.547 42.094C180.54 42.0967 180.538 42.0961 180.542 42.0961V41.6961V41.2961C180.114 41.2961 179.788 41.6225 179.788 42.0497H180.188ZM180.542 41.6961V42.0961H181.809V41.6961V41.2961H180.542V41.6961ZM181.809 41.6961V42.0961C181.808 42.0961 181.806 42.0961 181.801 42.0952C181.797 42.0944 181.792 42.0929 181.787 42.0911C181.783 42.0893 181.781 42.0878 181.781 42.0879C181.781 42.088 181.785 42.0904 181.791 42.0968L182.074 41.8139L182.357 41.5311C182.194 41.3686 182.004 41.2961 181.809 41.2961V41.6961ZM182.074 41.8139L181.791 42.0968L183.323 43.629L183.606 43.3462L183.889 43.0633L182.357 41.5311L182.074 41.8139ZM183.606 43.3462L183.323 43.629C183.486 43.7916 183.676 43.8641 183.871 43.8641V43.4641V43.0641C183.872 43.0641 183.874 43.0641 183.879 43.0649C183.883 43.0658 183.888 43.0672 183.893 43.069C183.897 43.0709 183.899 43.0724 183.899 43.0723C183.899 43.0721 183.895 43.0697 183.889 43.0633L183.606 43.3462ZM183.871 43.4641V43.8641H201.934V43.4641V43.0641H183.871V43.4641ZM201.934 43.4641V43.8641C202.361 43.8641 202.688 43.5376 202.688 43.1105H202.288H201.888C201.888 43.1141 201.887 43.1116 201.89 43.1049C201.892 43.0981 201.897 43.0897 201.905 43.0818C201.913 43.0739 201.922 43.0689 201.928 43.0661C201.935 43.0635 201.938 43.0641 201.934 43.0641V43.4641ZM202.288 43.1105H202.688V40.2817H202.288H201.888V43.1105H202.288ZM202.288 40.2817H202.688C202.688 39.8545 202.361 39.5281 201.934 39.5281V39.9281V40.3281C201.938 40.3281 201.935 40.3287 201.928 40.326C201.922 40.3233 201.913 40.3183 201.905 40.3104C201.897 40.3025 201.892 40.2941 201.89 40.2873C201.887 40.2806 201.888 40.278 201.888 40.2817H202.288ZM201.934 39.9281V39.5281H183.577V39.9281V40.3281H201.934V39.9281ZM183.577 39.9281V39.5281C183.211 39.5281 182.871 39.3933 182.592 39.1149L182.31 39.3977L182.027 39.6806C182.455 40.1093 182.999 40.3281 183.577 40.3281V39.9281ZM182.31 39.3977L182.592 39.1149L180.117 36.6397L179.834 36.9226L179.552 37.2054L182.027 39.6806L182.31 39.3977ZM179.834 36.9226L180.117 36.6397C179.839 36.3613 179.704 36.0211 179.704 35.6555H179.304H178.904C178.904 36.2329 179.123 36.7766 179.552 37.2054L179.834 36.9226ZM179.304 35.6555H179.704V33.5929H179.304H178.904V35.6555H179.304ZM179.304 33.5929H179.704C179.704 33.2273 179.839 32.8871 180.117 32.6087L179.834 32.3258L179.552 32.043C179.123 32.4717 178.904 33.0155 178.904 33.5929H179.304ZM179.834 32.3258L180.117 32.6087L182.592 30.1335L182.31 29.8507L182.027 29.5678L179.552 32.043L179.834 32.3258ZM182.31 29.8507L182.592 30.1335C182.871 29.8551 183.211 29.7203 183.577 29.7203V29.3203V28.9203C182.999 28.9203 182.455 29.1391 182.027 29.5678L182.31 29.8507ZM183.577 29.3203V29.7203H204.586V29.3203V28.9203H183.577V29.3203ZM204.586 29.3203V29.7203C204.59 29.7203 204.587 29.7209 204.58 29.7182C204.574 29.7155 204.565 29.7105 204.557 29.7026C204.549 29.6947 204.544 29.6863 204.542 29.6795C204.539 29.6728 204.54 29.6702 204.54 29.6739H204.94H205.34C205.34 29.2467 205.013 28.9203 204.586 28.9203V29.3203ZM204.94 29.6739H204.54V34.2706H204.94H205.34V29.6739H204.94ZM204.94 34.2706H204.54C204.54 34.2743 204.539 34.2717 204.542 34.265C204.544 34.2582 204.549 34.2498 204.557 34.2419C204.565 34.234 204.574 34.229 204.58 34.2263C204.587 34.2236 204.59 34.2242 204.586 34.2242V34.6242V35.0242C205.013 35.0242 205.34 34.6978 205.34 34.2706H204.94ZM204.586 34.6242V34.2242H203.319V34.6242V35.0242H204.586V34.6242ZM203.319 34.6242V34.2242C203.319 34.2242 203.322 34.2242 203.326 34.2251C203.331 34.2259 203.336 34.2273 203.34 34.2292C203.345 34.231 203.347 34.2325 203.347 34.2324C203.346 34.2322 203.343 34.2298 203.337 34.2235L203.054 34.5063L202.771 34.7892C202.933 34.9517 203.123 35.0242 203.319 35.0242V34.6242ZM203.054 34.5063L203.337 34.2235L201.804 32.6912L201.522 32.9741L201.239 33.2569L202.771 34.7892L203.054 34.5063ZM201.522 32.9741L201.804 32.6912C201.642 32.5287 201.452 32.4562 201.256 32.4562V32.8562V33.2562C201.256 33.2562 201.253 33.2562 201.249 33.2554C201.244 33.2545 201.24 33.2531 201.235 33.2512C201.231 33.2494 201.228 33.2479 201.229 33.248C201.229 33.2482 201.232 33.2506 201.239 33.2569L201.522 32.9741ZM201.256 32.8562V32.4562H183.194V32.8562V33.2562H201.256V32.8562ZM183.194 32.8562V32.4562C182.766 32.4562 182.44 32.7826 182.44 33.2098H182.84H183.24C183.24 33.2061 183.241 33.2087 183.238 33.2154C183.235 33.2222 183.23 33.2306 183.222 33.2385C183.214 33.2464 183.206 33.2514 183.199 33.2541C183.192 33.2568 183.19 33.2562 183.194 33.2562V32.8562ZM182.84 33.2098H182.44V36.0386H182.84H183.24V33.2098H182.84ZM182.84 36.0386H182.44C182.44 36.4658 182.766 36.7922 183.194 36.7922V36.3922V35.9922C183.19 35.9922 183.192 35.9916 183.199 35.9943C183.206 35.997 183.214 36.002 183.222 36.0099C183.23 36.0178 183.235 36.0262 183.238 36.033C183.241 36.0397 183.24 36.0423 183.24 36.0386H182.84ZM183.194 36.3922V36.7922H201.551V36.3922V35.9922H183.194V36.3922ZM201.551 36.3922V36.7922C201.917 36.7922 202.257 36.927 202.535 37.2054L202.818 36.9226L203.101 36.6397C202.672 36.211 202.128 35.9922 201.551 35.9922V36.3922ZM202.818 36.9226L202.535 37.2054L205.01 39.6806L205.293 39.3977L205.576 39.1149L203.101 36.6397L202.818 36.9226ZM227.523 33.1804L227.241 33.4632L227.241 33.4632L227.523 33.1804ZM225.991 31.6481L226.274 31.3653L226.274 31.3653L225.991 31.6481ZM218.684 31.6481L218.966 31.931L218.966 31.931L218.684 31.6481ZM235.597 32.9446H235.197C235.197 32.9483 235.197 32.9457 235.199 32.939C235.202 32.9322 235.207 32.9238 235.215 32.9159C235.223 32.908 235.231 32.903 235.238 32.9003C235.245 32.8976 235.247 32.8982 235.244 32.8982V33.2982V33.6982C235.671 33.6982 235.997 33.3718 235.997 32.9446H235.597ZM235.244 33.2982V32.8982H227.789V33.2982V33.6982H235.244V33.2982ZM227.789 33.2982V32.8982C227.789 32.8982 227.792 32.8983 227.796 32.8991C227.801 32.8999 227.805 32.9014 227.81 32.9032C227.814 32.905 227.816 32.9065 227.816 32.9064C227.816 32.9063 227.813 32.9039 227.806 32.8975L227.523 33.1804L227.241 33.4632C227.403 33.6258 227.593 33.6982 227.789 33.6982V33.2982ZM227.523 33.1804L227.806 32.8975L226.274 31.3653L225.991 31.6481L225.708 31.931L227.241 33.4632L227.523 33.1804ZM225.991 31.6481L226.274 31.3653C226.111 31.2027 225.922 31.1302 225.726 31.1302V31.5302V31.9302C225.726 31.9302 225.723 31.9302 225.719 31.9294C225.714 31.9285 225.709 31.9271 225.705 31.9253C225.7 31.9234 225.698 31.9219 225.698 31.922C225.698 31.9222 225.702 31.9246 225.708 31.931L225.991 31.6481ZM225.726 31.5302V31.1302H224.459V31.5302V31.9302H225.726V31.5302ZM224.459 31.5302V31.1302C224.032 31.1302 223.705 31.4567 223.705 31.8838H224.105H224.505C224.505 31.8802 224.506 31.8827 224.503 31.8894C224.5 31.8962 224.495 31.9046 224.488 31.9125C224.48 31.9204 224.471 31.9255 224.464 31.9282C224.458 31.9308 224.455 31.9302 224.459 31.9302V31.5302ZM224.105 31.8838H223.705V46.6464H224.105H224.505V31.8838H224.105ZM224.105 46.6464H223.705C223.705 46.6501 223.705 46.6475 223.707 46.6408C223.71 46.634 223.715 46.6256 223.723 46.6177C223.731 46.6098 223.739 46.6048 223.746 46.6021C223.753 46.5994 223.755 46.6 223.752 46.6V47V47.4C224.179 47.4 224.505 47.0736 224.505 46.6464H224.105ZM223.752 47V46.6H220.923V47V47.4H223.752V47ZM220.923 47V46.6C220.919 46.6 220.922 46.5994 220.929 46.6021C220.935 46.6048 220.944 46.6098 220.952 46.6177C220.96 46.6256 220.965 46.634 220.967 46.6408C220.97 46.6475 220.969 46.6501 220.969 46.6464H220.569H220.169C220.169 47.0736 220.496 47.4 220.923 47.4V47ZM220.569 46.6464H220.969V31.8838H220.569H220.169V46.6464H220.569ZM220.569 31.8838H220.969C220.969 31.4567 220.643 31.1302 220.216 31.1302V31.5302V31.9302C220.219 31.9302 220.217 31.9308 220.21 31.9282C220.203 31.9255 220.195 31.9204 220.187 31.9125C220.179 31.9046 220.174 31.8962 220.171 31.8894C220.169 31.8827 220.169 31.8802 220.169 31.8838H220.569ZM220.216 31.5302V31.1302H218.949V31.5302V31.9302H220.216V31.5302ZM218.949 31.5302V31.1302C218.753 31.1302 218.563 31.2027 218.401 31.3653L218.684 31.6481L218.966 31.931C218.973 31.9246 218.976 31.9222 218.976 31.922C218.977 31.9219 218.974 31.9234 218.97 31.9253C218.966 31.9271 218.961 31.9285 218.956 31.9294C218.952 31.9302 218.949 31.9302 218.949 31.9302V31.5302ZM218.684 31.6481L218.401 31.3653L216.868 32.8975L217.151 33.1804L217.434 33.4632L218.966 31.931L218.684 31.6481ZM217.151 33.1804L216.868 32.8975C216.862 32.9039 216.859 32.9063 216.858 32.9064C216.858 32.9065 216.86 32.905 216.865 32.9032C216.869 32.9014 216.874 32.8999 216.879 32.8991C216.883 32.8983 216.886 32.8982 216.886 32.8982V33.2982V33.6982C217.082 33.6982 217.272 33.6258 217.434 33.4632L217.151 33.1804ZM216.886 33.2982V32.8982H209.431V33.2982V33.6982H216.886V33.2982ZM209.431 33.2982V32.8982C209.427 32.8982 209.43 32.8976 209.437 32.9003C209.444 32.903 209.452 32.908 209.46 32.9159C209.468 32.9238 209.473 32.9322 209.475 32.939C209.478 32.9457 209.478 32.9483 209.478 32.9446H209.078H208.678C208.678 33.3718 209.004 33.6982 209.431 33.6982V33.2982ZM209.078 32.9446H209.478V29.6739H209.078H208.678V32.9446H209.078ZM209.078 29.6739H209.478C209.478 29.6702 209.478 29.6728 209.475 29.6795C209.473 29.6863 209.468 29.6947 209.46 29.7026C209.452 29.7105 209.444 29.7155 209.437 29.7182C209.43 29.7209 209.427 29.7203 209.431 29.7203V29.3203V28.9203C209.004 28.9203 208.678 29.2467 208.678 29.6739H209.078ZM209.431 29.3203V29.7203H235.244V29.3203V28.9203H209.431V29.3203ZM235.244 29.3203V29.7203C235.247 29.7203 235.245 29.7209 235.238 29.7182C235.231 29.7155 235.223 29.7105 235.215 29.7026C235.207 29.6947 235.202 29.6863 235.199 29.6795C235.197 29.6728 235.197 29.6702 235.197 29.6739H235.597H235.997C235.997 29.2467 235.671 28.9203 235.244 28.9203V29.3203ZM235.597 29.6739H235.197V32.9446H235.597H235.997V29.6739H235.597ZM241.917 34.7421L241.634 35.0249L241.634 35.0249L241.917 34.7421ZM243.449 36.2743L243.166 36.5571L243.166 36.5571L243.449 36.2743ZM241.917 41.8139L242.2 41.5311L242.2 41.5311L241.917 41.8139ZM243.449 43.3462L243.166 43.629L243.166 43.629L243.449 43.3462ZM266.55 32.5026H266.15C266.15 32.5063 266.15 32.5038 266.153 32.497C266.155 32.4902 266.16 32.4818 266.168 32.4739C266.176 32.466 266.184 32.461 266.191 32.4583C266.198 32.4556 266.201 32.4562 266.197 32.4562V32.8562V33.2562C266.624 33.2562 266.95 32.9298 266.95 32.5026H266.55ZM266.197 32.8562V32.4562H242.152V32.8562V33.2562H266.197V32.8562ZM242.152 32.8562V32.4562C241.725 32.4562 241.399 32.7826 241.399 33.2098H241.799H242.199C242.199 33.2061 242.199 33.2087 242.197 33.2154C242.194 33.2222 242.189 33.2306 242.181 33.2385C242.173 33.2464 242.165 33.2514 242.158 33.2541C242.151 33.2568 242.149 33.2562 242.152 33.2562V32.8562ZM241.799 33.2098H241.399V34.4769H241.799H242.199V33.2098H241.799ZM241.799 34.4769H241.399C241.399 34.6726 241.471 34.8623 241.634 35.0249L241.917 34.7421L242.2 34.4592C242.193 34.4529 242.191 34.4494 242.191 34.4492C242.191 34.449 242.192 34.4512 242.194 34.4556C242.196 34.46 242.197 34.4649 242.198 34.4695C242.199 34.4739 242.199 34.4766 242.199 34.4769H241.799ZM241.917 34.7421L241.634 35.0249L243.166 36.5571L243.449 36.2743L243.732 35.9915L242.2 34.4592L241.917 34.7421ZM243.449 36.2743L243.166 36.5571C243.329 36.7197 243.518 36.7922 243.714 36.7922V36.3922V35.9922C243.714 35.9922 243.717 35.9922 243.722 35.993C243.726 35.9939 243.731 35.9953 243.735 35.9972C243.74 35.999 243.742 36.0005 243.742 36.0004C243.742 36.0002 243.738 35.9978 243.732 35.9915L243.449 36.2743ZM243.714 36.3922V36.7922H264.429V36.3922V35.9922H243.714V36.3922ZM264.429 36.3922V36.7922C264.433 36.7922 264.43 36.7928 264.423 36.7901C264.416 36.7874 264.408 36.7824 264.4 36.7745C264.392 36.7666 264.387 36.7582 264.385 36.7514C264.382 36.7446 264.382 36.7421 264.382 36.7458H264.782H265.182C265.182 36.3186 264.856 35.9922 264.429 35.9922V36.3922ZM264.782 36.7458H264.382V39.5745H264.782H265.182V36.7458H264.782ZM264.782 39.5745H264.382C264.382 39.5782 264.382 39.5756 264.385 39.5689C264.387 39.5621 264.392 39.5537 264.4 39.5458C264.408 39.5379 264.416 39.5329 264.423 39.5302C264.43 39.5275 264.433 39.5281 264.429 39.5281V39.9281V40.3281C264.856 40.3281 265.182 40.0017 265.182 39.5745H264.782ZM264.429 39.9281V39.5281H242.152V39.9281V40.3281H264.429V39.9281ZM242.152 39.9281V39.5281C241.725 39.5281 241.399 39.8545 241.399 40.2817H241.799H242.199C242.199 40.278 242.199 40.2806 242.197 40.2873C242.194 40.2941 242.189 40.3025 242.181 40.3104C242.173 40.3183 242.165 40.3233 242.158 40.326C242.151 40.3287 242.149 40.3281 242.152 40.3281V39.9281ZM241.799 40.2817H241.399V41.5488H241.799H242.199V40.2817H241.799ZM241.799 41.5488H241.399C241.399 41.7444 241.471 41.9342 241.634 42.0968L241.917 41.8139L242.2 41.5311C242.193 41.5248 242.191 41.5213 242.191 41.521C242.191 41.5209 242.192 41.5231 242.194 41.5275C242.196 41.5319 242.197 41.5368 242.198 41.5413C242.199 41.5458 242.199 41.5485 242.199 41.5488H241.799ZM241.917 41.8139L241.634 42.0968L243.166 43.629L243.449 43.3462L243.732 43.0633L242.2 41.5311L241.917 41.8139ZM243.449 43.3462L243.166 43.629C243.329 43.7916 243.518 43.8641 243.714 43.8641V43.4641V43.0641C243.714 43.0641 243.717 43.0641 243.722 43.0649C243.726 43.0658 243.731 43.0672 243.735 43.069C243.74 43.0709 243.742 43.0724 243.742 43.0723C243.742 43.0721 243.738 43.0697 243.732 43.0633L243.449 43.3462ZM243.714 43.4641V43.8641H266.197V43.4641V43.0641H243.714V43.4641ZM266.197 43.4641V43.8641C266.201 43.8641 266.198 43.8646 266.191 43.862C266.184 43.8593 266.176 43.8542 266.168 43.8463C266.16 43.8385 266.155 43.83 266.153 43.8233C266.15 43.8165 266.15 43.814 266.15 43.8177H266.55H266.95C266.95 43.3905 266.624 43.0641 266.197 43.0641V43.4641ZM266.55 43.8177H266.15V46.6464H266.55H266.95V43.8177H266.55ZM266.55 46.6464H266.15C266.15 46.6501 266.15 46.6475 266.153 46.6408C266.155 46.634 266.16 46.6256 266.168 46.6177C266.176 46.6098 266.184 46.6048 266.191 46.6021C266.198 46.5994 266.201 46.6 266.197 46.6V47V47.4C266.624 47.4 266.95 47.0736 266.95 46.6464H266.55ZM266.197 47V46.6H240.384V47V47.4H266.197V47ZM240.384 47V46.6C240.381 46.6 240.383 46.5994 240.39 46.6021C240.397 46.6048 240.405 46.6098 240.413 46.6177C240.421 46.6256 240.426 46.634 240.429 46.6408C240.431 46.6475 240.431 46.6501 240.431 46.6464H240.031H239.631C239.631 47.0736 239.957 47.4 240.384 47.4V47ZM240.031 46.6464H240.431V29.6739H240.031H239.631V46.6464H240.031ZM240.031 29.6739H240.431C240.431 29.6702 240.431 29.6728 240.429 29.6795C240.426 29.6863 240.421 29.6947 240.413 29.7026C240.405 29.7105 240.397 29.7155 240.39 29.7182C240.383 29.7209 240.381 29.7203 240.384 29.7203V29.3203V28.9203C239.957 28.9203 239.631 29.2467 239.631 29.6739H240.031ZM240.384 29.3203V29.7203H266.197V29.3203V28.9203H240.384V29.3203ZM266.197 29.3203V29.7203C266.201 29.7203 266.198 29.7209 266.191 29.7182C266.184 29.7155 266.176 29.7105 266.168 29.7026C266.16 29.6947 266.155 29.6863 266.153 29.6795C266.15 29.6728 266.15 29.6702 266.15 29.6739H266.55H266.95C266.95 29.2467 266.624 28.9203 266.197 28.9203V29.3203ZM266.55 29.6739H266.15V32.5026H266.55H266.95V29.6739H266.55ZM272.87 34.7421L272.587 35.0249L272.587 35.0249L272.87 34.7421ZM274.402 36.2743L274.119 36.5571L274.119 36.5571L274.402 36.2743ZM296.973 32.3258L297.256 32.043L297.256 32.043L296.973 32.3258ZM296.973 38.6905L297.238 38.9907L297.247 38.9823L297.256 38.9734L296.973 38.6905ZM294.498 40.871L294.234 40.5709L294.224 40.5792L294.215 40.5882L294.498 40.871ZM290.049 41.755L289.87 42.1128L289.885 42.1205L289.902 42.1269L290.049 41.755ZM297.268 44.6132L297.417 44.2418L297.415 44.2413L297.268 44.6132ZM293.82 46.9411L293.658 47.3065L293.676 47.3144L293.694 47.3205L293.82 46.9411ZM281.504 41.4604L281.666 41.0949L281.648 41.087L281.63 41.0809L281.504 41.4604ZM293.614 38.1601V38.5601C294.041 38.5601 294.368 38.2337 294.368 37.8065H293.968H293.568C293.568 37.8102 293.567 37.8077 293.57 37.8009C293.573 37.7942 293.578 37.7857 293.585 37.7779C293.593 37.77 293.602 37.7649 293.609 37.7622C293.615 37.7596 293.618 37.7601 293.614 37.7601V38.1601ZM293.968 37.8065H294.368V33.2098H293.968H293.568V37.8065H293.968ZM293.968 33.2098H294.368C294.368 32.7826 294.041 32.4562 293.614 32.4562V32.8562V33.2562C293.618 33.2562 293.615 33.2568 293.609 33.2541C293.602 33.2514 293.593 33.2464 293.585 33.2385C293.578 33.2306 293.573 33.2222 293.57 33.2154C293.567 33.2087 293.568 33.2061 293.568 33.2098H293.968ZM293.614 32.8562V32.4562H273.106V32.8562V33.2562H293.614V32.8562ZM273.106 32.8562V32.4562C272.679 32.4562 272.352 32.7826 272.352 33.2098H272.752H273.152C273.152 33.2061 273.153 33.2087 273.15 33.2154C273.147 33.2222 273.142 33.2306 273.134 33.2385C273.127 33.2464 273.118 33.2514 273.111 33.2541C273.105 33.2568 273.102 33.2562 273.106 33.2562V32.8562ZM272.752 33.2098H272.352V34.4769H272.752H273.152V33.2098H272.752ZM272.752 34.4769H272.352C272.352 34.6726 272.425 34.8623 272.587 35.0249L272.87 34.7421L273.153 34.4592C273.146 34.4529 273.144 34.4494 273.144 34.4492C273.144 34.449 273.145 34.4512 273.147 34.4556C273.149 34.46 273.15 34.4649 273.151 34.4695C273.152 34.4739 273.152 34.4766 273.152 34.4769H272.752ZM272.87 34.7421L272.587 35.0249L274.119 36.5571L274.402 36.2743L274.685 35.9915L273.153 34.4592L272.87 34.7421ZM274.402 36.2743L274.119 36.5571C274.126 36.5635 274.128 36.567 274.128 36.5672C274.128 36.5673 274.127 36.5651 274.125 36.5607C274.123 36.5563 274.122 36.5515 274.121 36.5469C274.12 36.5425 274.12 36.5397 274.12 36.5395H274.52H274.92C274.92 36.3438 274.848 36.154 274.685 35.9915L274.402 36.2743ZM274.52 36.5395H274.12V37.8065H274.52H274.92V36.5395H274.52ZM274.52 37.8065H274.12C274.12 38.2337 274.447 38.5601 274.874 38.5601V38.1601V37.7601C274.87 37.7601 274.873 37.7596 274.879 37.7622C274.886 37.7649 274.895 37.77 274.902 37.7779C274.91 37.7857 274.915 37.7942 274.918 37.8009C274.921 37.8077 274.92 37.8102 274.92 37.8065H274.52ZM274.874 38.1601V38.5601H293.614V38.1601V37.7601H274.874V38.1601ZM270.984 46.6464H271.384V29.6739H270.984H270.584V46.6464H270.984ZM270.984 29.6739H271.384C271.384 29.6702 271.385 29.6728 271.382 29.6795C271.379 29.6863 271.374 29.6947 271.366 29.7026C271.359 29.7105 271.35 29.7155 271.343 29.7182C271.337 29.7209 271.334 29.7203 271.338 29.7203V29.3203V28.9203C270.911 28.9203 270.584 29.2467 270.584 29.6739H270.984ZM271.338 29.3203V29.7203H293.231V29.3203V28.9203H271.338V29.3203ZM293.231 29.3203V29.7203C293.597 29.7203 293.937 29.8551 294.215 30.1335L294.498 29.8507L294.781 29.5678C294.352 29.1391 293.808 28.9203 293.231 28.9203V29.3203ZM294.498 29.8507L294.215 30.1335L296.69 32.6087L296.973 32.3258L297.256 32.043L294.781 29.5678L294.498 29.8507ZM296.973 32.3258L296.69 32.6087C296.969 32.8871 297.104 33.2273 297.104 33.5929H297.504H297.904C297.904 33.0155 297.685 32.4717 297.256 32.043L296.973 32.3258ZM297.504 33.5929H297.104V37.4235H297.504H297.904V33.5929H297.504ZM297.504 37.4235H297.104C297.104 37.7891 296.969 38.1293 296.69 38.4077L296.973 38.6905L297.256 38.9734C297.685 38.5446 297.904 38.0008 297.904 37.4235H297.504ZM296.973 38.6905L296.709 38.3904L294.234 40.5709L294.498 40.871L294.763 41.1712L297.238 38.9907L296.973 38.6905ZM294.498 40.871L294.215 40.5882C293.937 40.8666 293.597 41.0014 293.231 41.0014V41.4014V41.8014C293.808 41.8014 294.352 41.5826 294.781 41.1539L294.498 40.871ZM293.231 41.4014V41.0014H290.108V41.4014V41.8014H293.231V41.4014ZM290.108 41.4014V41.0014C289.782 41.0014 289.594 41.2527 289.553 41.4702C289.51 41.6956 289.597 41.9765 289.87 42.1128L290.049 41.755L290.228 41.3972C290.323 41.4451 290.352 41.5492 290.339 41.6199C290.332 41.6545 290.314 41.6968 290.275 41.7342C290.231 41.7755 290.17 41.8014 290.108 41.8014V41.4014ZM290.049 41.755L289.902 42.1269L297.121 44.9852L297.268 44.6132L297.415 44.2413L290.196 41.3831L290.049 41.755ZM297.268 44.6132L297.119 44.9846C297.133 44.9902 297.128 44.9917 297.119 44.9787C297.114 44.9724 297.11 44.9647 297.107 44.9561C297.104 44.9476 297.104 44.9409 297.104 44.9374H297.504H297.904C297.904 44.6029 297.693 44.3523 297.417 44.2418L297.268 44.6132ZM297.504 44.9374H297.104V46.6464H297.504H297.904V44.9374H297.504ZM297.504 46.6464H297.104C297.104 46.6501 297.103 46.6475 297.106 46.6408C297.109 46.634 297.114 46.6256 297.121 46.6177C297.129 46.6098 297.138 46.6048 297.145 46.6021C297.151 46.5994 297.154 46.6 297.15 46.6V47V47.4C297.577 47.4 297.904 47.0736 297.904 46.6464H297.504ZM297.15 47V46.6H294.115V47V47.4H297.15V47ZM294.115 47V46.6C294.115 46.6 294.115 46.6 294.114 46.6C294.113 46.5999 294.111 46.5999 294.11 46.5997C294.106 46.5995 294.102 46.599 294.096 46.5983C294.084 46.5967 294.069 46.5941 294.052 46.5905C294.017 46.583 293.98 46.5725 293.947 46.5616L293.82 46.9411L293.694 47.3205C293.793 47.3537 293.961 47.4 294.115 47.4V47ZM293.82 46.9411L293.983 46.5756L281.666 41.0949L281.504 41.4604L281.341 41.8258L293.658 47.3065L293.82 46.9411ZM281.504 41.4604L281.63 41.0809C281.555 41.0559 281.403 41.0014 281.238 41.0014V41.4014V41.8014C281.238 41.8014 281.241 41.8014 281.247 41.8023C281.253 41.8032 281.262 41.8049 281.274 41.8079C281.301 41.8146 281.33 41.8242 281.377 41.8398L281.504 41.4604ZM281.238 41.4014V41.0014H274.874V41.4014V41.8014H281.238V41.4014ZM274.874 41.4014V41.0014C274.447 41.0014 274.12 41.3278 274.12 41.755H274.52H274.92C274.92 41.7513 274.921 41.7539 274.918 41.7606C274.915 41.7674 274.91 41.7758 274.902 41.7837C274.895 41.7916 274.886 41.7966 274.879 41.7993C274.873 41.802 274.87 41.8014 274.874 41.8014V41.4014ZM274.52 41.755H274.12V46.6464H274.52H274.92V41.755H274.52ZM274.52 46.6464H274.12C274.12 46.6501 274.12 46.6475 274.122 46.6408C274.125 46.634 274.13 46.6256 274.138 46.6177C274.146 46.6098 274.154 46.6048 274.161 46.6021C274.168 46.5994 274.17 46.6 274.167 46.6V47V47.4C274.594 47.4 274.92 47.0736 274.92 46.6464H274.52ZM274.167 47V46.6H271.338V47V47.4H274.167V47ZM271.338 47V46.6C271.334 46.6 271.337 46.5994 271.343 46.6021C271.35 46.6048 271.359 46.6098 271.366 46.6177C271.374 46.6256 271.379 46.634 271.382 46.6408C271.385 46.6475 271.384 46.6501 271.384 46.6464H270.984H270.584C270.584 47.0736 270.911 47.4 271.338 47.4V47Z" fill="black" mask="url(#path-9-inside-1_699_1734)"/>
</g>
<defs>
<clipPath id="clip0_699_1734">
<rect width="405" height="77.9995" fill="white" transform="translate(0.50293)"/>
</clipPath>
</defs>
</svg>
