<svg width="67" height="10" viewBox="0 0 67 10" fill="none" xmlns="http://www.w3.org/2000/svg">
<path d="M0.3625 10V0.75125H2.515V8.25875H9.45375V10H0.3625ZM11.6237 10V2.4225H19.7525V3.76125H13.4875V5.415H17.1362V6.71875H13.4875V8.5825H19.8487V10H11.6237ZM21.3712 10L25.8687 2.4225H27.645L32.2125 10H30.1387L29.185 8.3375H24.1712L23.2175 10H21.3712ZM24.9587 6.955H28.4325L26.665 3.79625L24.9587 6.955ZM35.975 8.5825H38.355C39.6558 8.5825 40.5658 8.39292 41.085 8.01375C41.6042 7.63458 41.8638 6.99583 41.8638 6.0975C41.8638 5.31583 41.6479 4.73542 41.2163 4.35625C40.7846 3.97125 40.1225 3.77875 39.23 3.77875H35.975V8.5825ZM34.1113 10V2.4225H39.2125C40.6767 2.4225 41.7996 2.74917 42.5813 3.4025C43.3688 4.05 43.7625 4.9775 43.7625 6.185C43.7625 7.45667 43.3454 8.41042 42.5113 9.04625C41.6829 9.68208 40.4288 10 38.7488 10H34.1113ZM46.5537 10V2.4225H54.6825V3.76125H48.4175V5.415H52.0662V6.71875H48.4175V8.5825H54.7787V10H46.5537ZM63.4938 3.72625H59.2763V5.82625H63.4938C63.8146 5.82625 64.0333 5.77958 64.15 5.68625C64.2725 5.59292 64.3338 5.43542 64.3338 5.21375V4.33875C64.3338 4.11708 64.2725 3.95958 64.15 3.86625C64.0333 3.77292 63.8146 3.72625 63.4938 3.72625ZM57.4563 10V2.4225H64.2813C64.9054 2.4225 65.3575 2.53917 65.6375 2.7725C65.9175 3 66.0575 3.37333 66.0575 3.8925V5.6775C66.0575 6.19083 65.9175 6.56125 65.6375 6.78875C65.3575 7.01625 64.9054 7.13 64.2813 7.13H63.24L66.845 10H64.1938L61.0175 7.13H59.2763V10H57.4563Z" fill="#F40004"/>
</svg>
