<svg width="672" height="13" viewBox="0 0 672 13" fill="none" xmlns="http://www.w3.org/2000/svg">
<path d="M6.64453 13V7.45703L0.210938 0.613281H4.05469L8.30859 5.37109L12.5742 0.613281H15.9609L9.55078 7.38672V13H6.64453ZM18.8789 11.0547H27.0586V4.71484H18.8789V11.0547ZM16.4062 5.24219C16.4062 4.32031 16.5859 3.69141 16.9453 3.35547C17.3047 3.01953 18.0039 2.85156 19.043 2.85156H26.8945C27.9414 2.85156 28.6406 3.01953 28.9922 3.35547C29.3516 3.69141 29.5312 4.32031 29.5312 5.24219V10.5977C29.5312 11.5273 29.3477 12.1602 28.9805 12.4961C28.6211 12.832 27.9258 13 26.8945 13H19.043C18.0039 13 17.3047 12.832 16.9453 12.4961C16.5859 12.1602 16.4062 11.5273 16.4062 10.5977V5.24219ZM36.2695 2.85156V11.1016H43.3359V2.85156H45.832V10.5977C45.832 11.5195 45.6445 12.1523 45.2695 12.4961C44.9023 12.832 44.1992 13 43.1602 13H36.4453C35.4141 13 34.7148 12.832 34.3477 12.4961C33.9883 12.1602 33.8086 11.5273 33.8086 10.5977V2.85156H36.2695ZM60.5625 13V0.613281H63.4453V5.41797H72.4453V0.613281H75.3516V13H72.4453V7.66797H63.4453V13H60.5625ZM79.2305 13L85.2539 2.85156H87.6328L93.75 13H90.9727L89.6953 10.7734H82.9805L81.7031 13H79.2305ZM84.0352 8.92188H88.6875L86.3203 4.69141L84.0352 8.92188ZM100.172 13L94.0312 2.85156H96.832L101.133 10.2109L105.188 2.85156H107.754L101.871 13H100.172ZM110.59 13V2.85156H121.477V4.64453H113.086V6.85938H117.973V8.60547H113.086V11.1016H121.605V13H110.59ZM146.133 2.78125H138.023V5.44141H145.746C146.957 5.44141 147.773 5.64844 148.195 6.0625C148.625 6.47656 148.84 7.24609 148.84 8.37109V10.0703C148.84 11.1953 148.625 11.9648 148.195 12.3789C147.773 12.793 146.957 13 145.746 13H138.094C136.883 13 136.062 12.793 135.633 12.3789C135.211 11.9648 135 11.1953 135 10.0703V9.73047L137.543 9.20312V10.668H146.297V7.84375H138.574C137.371 7.84375 136.559 7.63672 136.137 7.22266C135.715 6.80859 135.504 6.03906 135.504 4.91406V3.54297C135.504 2.41797 135.715 1.64844 136.137 1.23438C136.559 0.820313 137.371 0.613281 138.574 0.613281H145.605C146.77 0.613281 147.57 0.8125 148.008 1.21094C148.453 1.60938 148.676 2.31641 148.676 3.33203V3.58984L146.133 4.1875V2.78125ZM156.387 2.85156V11.1016H163.453V2.85156H165.949V10.5977C165.949 11.5195 165.762 12.1523 165.387 12.4961C165.02 12.832 164.316 13 163.277 13H156.562C155.531 13 154.832 12.832 154.465 12.4961C154.105 12.1602 153.926 11.5273 153.926 10.5977V2.85156H156.387ZM179.367 4.71484H172.699V11.0547H179.367V8.89844L181.863 9.40234V10.5977C181.863 11.5195 181.68 12.1523 181.312 12.4961C180.945 12.832 180.242 13 179.203 13H172.863C171.84 13 171.145 12.832 170.777 12.4961C170.41 12.1602 170.227 11.5273 170.227 10.5977V5.24219C170.227 4.32031 170.406 3.69141 170.766 3.35547C171.133 3.01953 171.832 2.85156 172.863 2.85156H179.203C180.25 2.85156 180.953 3.01953 181.312 3.35547C181.68 3.69141 181.863 4.32031 181.863 5.24219V6.22656L179.367 6.58984V4.71484ZM194.836 4.71484H188.168V11.0547H194.836V8.89844L197.332 9.40234V10.5977C197.332 11.5195 197.148 12.1523 196.781 12.4961C196.414 12.832 195.711 13 194.672 13H188.332C187.309 13 186.613 12.832 186.246 12.4961C185.879 12.1602 185.695 11.5273 185.695 10.5977V5.24219C185.695 4.32031 185.875 3.69141 186.234 3.35547C186.602 3.01953 187.301 2.85156 188.332 2.85156H194.672C195.719 2.85156 196.422 3.01953 196.781 3.35547C197.148 3.69141 197.332 4.32031 197.332 5.24219V6.22656L194.836 6.58984V4.71484ZM201.41 13V2.85156H212.297V4.64453H203.906V6.85938H208.793V8.60547H203.906V11.1016H212.426V13H201.41ZM225.387 4.66797H218.402V6.8125H225.012C226.051 6.8125 226.75 6.98047 227.109 7.31641C227.469 7.64453 227.648 8.27344 227.648 9.20312V10.5977C227.648 11.5273 227.465 12.1602 227.098 12.4961C226.73 12.832 226.035 13 225.012 13H218.426C217.379 13 216.668 12.832 216.293 12.4961C215.926 12.1602 215.742 11.5273 215.742 10.5977V10.3164L217.945 9.90625V11.1016H225.41V8.78125H218.836C217.797 8.78125 217.094 8.61328 216.727 8.27734C216.359 7.93359 216.176 7.30078 216.176 6.37891V5.24219C216.176 4.32812 216.359 3.70312 216.727 3.36719C217.094 3.02344 217.797 2.85156 218.836 2.85156H224.859C225.883 2.85156 226.582 3.01562 226.957 3.34375C227.34 3.66406 227.531 4.23438 227.531 5.05469V5.30078L225.387 5.75781V4.66797ZM240.598 4.66797H233.613V6.8125H240.223C241.262 6.8125 241.961 6.98047 242.32 7.31641C242.68 7.64453 242.859 8.27344 242.859 9.20312V10.5977C242.859 11.5273 242.676 12.1602 242.309 12.4961C241.941 12.832 241.246 13 240.223 13H233.637C232.59 13 231.879 12.832 231.504 12.4961C231.137 12.1602 230.953 11.5273 230.953 10.5977V10.3164L233.156 9.90625V11.1016H240.621V8.78125H234.047C233.008 8.78125 232.305 8.61328 231.938 8.27734C231.57 7.93359 231.387 7.30078 231.387 6.37891V5.24219C231.387 4.32812 231.57 3.70312 231.938 3.36719C232.305 3.02344 233.008 2.85156 234.047 2.85156H240.07C241.094 2.85156 241.793 3.01562 242.168 3.34375C242.551 3.66406 242.742 4.23438 242.742 5.05469V5.30078L240.598 5.75781V4.66797ZM247.137 13V2.85156H257.906V4.66797H249.633V7.31641H254.086V9.20312H249.633V13H247.137ZM262.793 2.85156V11.1016H269.859V2.85156H272.355V10.5977C272.355 11.5195 272.168 12.1523 271.793 12.4961C271.426 12.832 270.723 13 269.684 13H262.969C261.938 13 261.238 12.832 260.871 12.4961C260.512 12.1602 260.332 11.5273 260.332 10.5977V2.85156H262.793ZM276.879 13V2.85156H279.375V11.1016H287.332V13H276.879ZM290.121 13V2.85156H292.617V11.1016H300.574V13H290.121ZM304.547 13V8.44141L299.004 2.85156H302.344L305.965 6.63672L309.633 2.85156H312.539L307.02 8.39453V13H304.547ZM334.465 2.75781H327.984V6.20312H334.465C334.965 6.20312 335.305 6.13281 335.484 5.99219C335.672 5.84375 335.766 5.58594 335.766 5.21875V3.73047C335.766 3.37109 335.672 3.12109 335.484 2.98047C335.305 2.83203 334.965 2.75781 334.465 2.75781ZM325.148 13V0.613281H335.742C336.727 0.613281 337.438 0.804687 337.875 1.1875C338.32 1.5625 338.543 2.17188 338.543 3.01562V5.92188C338.543 6.75781 338.32 7.36719 337.875 7.75C337.438 8.13281 336.727 8.32422 335.742 8.32422H334.125L339.844 13H335.707L330.715 8.32422H327.984V13H325.148ZM343.066 13V2.85156H353.953V4.64453H345.562V6.85938H350.449V8.60547H345.562V11.1016H354.082V13H343.066ZM367.617 4.71484H359.895V11.0547H367.617V8.89844H363.586V7.09375H370.043V10.5977C370.043 11.5273 369.859 12.1602 369.492 12.4961C369.133 12.832 368.438 13 367.406 13H360.059C359.027 13 358.328 12.832 357.961 12.4961C357.602 12.1602 357.422 11.5273 357.422 10.5977V5.24219C357.422 4.32031 357.602 3.69141 357.961 3.35547C358.328 3.01953 359.027 2.85156 360.059 2.85156H367.406C368.43 2.85156 369.125 3.01562 369.492 3.34375C369.859 3.67188 370.043 4.26562 370.043 5.125V5.39453L367.617 5.80469V4.71484ZM374.285 13V2.85156H376.746V13H374.285ZM390.645 4.66797H383.66V6.8125H390.27C391.309 6.8125 392.008 6.98047 392.367 7.31641C392.727 7.64453 392.906 8.27344 392.906 9.20312V10.5977C392.906 11.5273 392.723 12.1602 392.355 12.4961C391.988 12.832 391.293 13 390.27 13H383.684C382.637 13 381.926 12.832 381.551 12.4961C381.184 12.1602 381 11.5273 381 10.5977V10.3164L383.203 9.90625V11.1016H390.668V8.78125H384.094C383.055 8.78125 382.352 8.61328 381.984 8.27734C381.617 7.93359 381.434 7.30078 381.434 6.37891V5.24219C381.434 4.32812 381.617 3.70312 381.984 3.36719C382.352 3.02344 383.055 2.85156 384.094 2.85156H390.117C391.141 2.85156 391.84 3.01562 392.215 3.34375C392.598 3.66406 392.789 4.23438 392.789 5.05469V5.30078L390.645 5.75781V4.66797ZM403.23 4.66797V13H400.758V4.66797H395.859V2.85156H408.141V4.66797H403.23ZM411.34 13V2.85156H422.227V4.64453H413.836V6.85938H418.723V8.60547H413.836V11.1016H422.355V13H411.34ZM434.027 4.59766H428.379V7.41016H434.027C434.457 7.41016 434.75 7.34766 434.906 7.22266C435.07 7.09766 435.152 6.88672 435.152 6.58984V5.41797C435.152 5.12109 435.07 4.91016 434.906 4.78516C434.75 4.66016 434.457 4.59766 434.027 4.59766ZM425.941 13V2.85156H435.082C435.918 2.85156 436.523 3.00781 436.898 3.32031C437.273 3.625 437.461 4.125 437.461 4.82031V7.21094C437.461 7.89844 437.273 8.39453 436.898 8.69922C436.523 9.00391 435.918 9.15625 435.082 9.15625H433.688L438.516 13H434.965L430.711 9.15625H428.379V13H425.941ZM441.551 13V2.85156H452.438V4.64453H444.047V6.85938H448.934V8.60547H444.047V11.1016H452.566V13H441.551ZM458.648 11.1016H461.836C463.578 11.1016 464.797 10.8477 465.492 10.3398C466.188 9.83203 466.535 8.97656 466.535 7.77344C466.535 6.72656 466.246 5.94922 465.668 5.44141C465.09 4.92578 464.203 4.66797 463.008 4.66797H458.648V11.1016ZM456.152 13V2.85156H462.984C464.945 2.85156 466.449 3.28906 467.496 4.16406C468.551 5.03125 469.078 6.27344 469.078 7.89062C469.078 9.59375 468.52 10.8711 467.402 11.7227C466.293 12.5742 464.613 13 462.363 13H456.152ZM483.023 13V0.613281H495.551V2.78125H485.906V6.03906H491.121V8.30078H485.906V13H483.023ZM499.137 11.0547H507.316V4.71484H499.137V11.0547ZM496.664 5.24219C496.664 4.32031 496.844 3.69141 497.203 3.35547C497.562 3.01953 498.262 2.85156 499.301 2.85156H507.152C508.199 2.85156 508.898 3.01953 509.25 3.35547C509.609 3.69141 509.789 4.32031 509.789 5.24219V10.5977C509.789 11.5273 509.605 12.1602 509.238 12.4961C508.879 12.832 508.184 13 507.152 13H499.301C498.262 13 497.562 12.832 497.203 12.4961C496.844 12.1602 496.664 11.5273 496.664 10.5977V5.24219ZM522.152 4.59766H516.504V7.41016H522.152C522.582 7.41016 522.875 7.34766 523.031 7.22266C523.195 7.09766 523.277 6.88672 523.277 6.58984V5.41797C523.277 5.12109 523.195 4.91016 523.031 4.78516C522.875 4.66016 522.582 4.59766 522.152 4.59766ZM514.066 13V2.85156H523.207C524.043 2.85156 524.648 3.00781 525.023 3.32031C525.398 3.625 525.586 4.125 525.586 4.82031V7.21094C525.586 7.89844 525.398 8.39453 525.023 8.69922C524.648 9.00391 524.043 9.15625 523.207 9.15625H521.812L526.641 13H523.09L518.836 9.15625H516.504V13H514.066ZM545.648 2.82812V13H542.766V2.82812H537.082V0.613281H551.355V2.82812H545.648ZM553.98 13V2.85156H556.477V6.70703H564.199V2.85156H566.672V13H564.199V8.72266H556.477V13H553.98ZM571.207 13V2.85156H582.094V4.64453H573.703V6.85938H578.59V8.60547H573.703V11.1016H582.223V13H571.207ZM596.016 13V0.613281H608.695V2.72266H598.898V5.48828H604.617V7.59766H598.898V10.668H608.812V13H596.016ZM617.977 13L611.836 2.85156H614.637L618.938 10.2109L622.992 2.85156H625.559L619.676 13H617.977ZM628.395 13V2.85156H639.281V4.64453H630.891V6.85938H635.777V8.60547H630.891V11.1016H639.41V13H628.395ZM642.996 13V2.85156H644.695L653.309 9.58984V2.85156H655.547V13H653.836L645.246 6.15625V13H642.996ZM666.129 4.66797V13H663.656V4.66797H658.758V2.85156H671.039V4.66797H666.129Z" fill="#F40004"/>
</svg>
