<svg width="209" height="26" viewBox="0 0 209 26" fill="none" xmlns="http://www.w3.org/2000/svg">
<path d="M4.28906 8.25781V4.5625L0 0H2.5625L5.39844 3.17188L8.24219 0H10.5L6.22656 4.51562V8.25781H4.28906ZM12.4453 6.96094H17.8984V2.73438H12.4453V6.96094ZM10.7969 3.08594C10.7969 2.47135 10.9167 2.05208 11.1562 1.82812C11.3958 1.60417 11.862 1.49219 12.5547 1.49219H17.7891C18.487 1.49219 18.9531 1.60417 19.1875 1.82812C19.4271 2.05208 19.5469 2.47135 19.5469 3.08594V6.65625C19.5469 7.27604 19.4245 7.69792 19.1797 7.92188C18.9401 8.14583 18.4766 8.25781 17.7891 8.25781H12.5547C11.862 8.25781 11.3958 8.14583 11.1562 7.92188C10.9167 7.69792 10.7969 7.27604 10.7969 6.65625V3.08594ZM24.0391 1.49219V6.99219H28.75V1.49219H30.4141V6.65625C30.4141 7.27083 30.2891 7.69271 30.0391 7.92188C29.7943 8.14583 29.3255 8.25781 28.6328 8.25781H24.1562C23.4688 8.25781 23.0026 8.14583 22.7578 7.92188C22.5182 7.69792 22.3984 7.27604 22.3984 6.65625V1.49219H24.0391ZM40.2344 8.25781V0H42.1562V3.20312H48.1562V0H50.0938V8.25781H48.1562V4.70312H42.1562V8.25781H40.2344ZM52.6797 8.25781L56.6953 1.49219H58.2812L62.3594 8.25781H60.5078L59.6562 6.77344H55.1797L54.3281 8.25781H52.6797ZM55.8828 5.53906H58.9844L57.4062 2.71875L55.8828 5.53906ZM66.6406 8.25781L62.5469 1.49219H64.4141L67.2812 6.39844L69.9844 1.49219H71.6953L67.7734 8.25781H66.6406ZM73.5859 8.25781V1.49219H80.8438V2.6875H75.25V4.16406H78.5078V5.32812H75.25V6.99219H80.9297V8.25781H73.5859ZM97.2812 1.44531H91.875V3.21875H97.0234C97.8307 3.21875 98.375 3.35677 98.6562 3.63281C98.9427 3.90885 99.0859 4.42188 99.0859 5.17188V6.30469C99.0859 7.05469 98.9427 7.56771 98.6562 7.84375C98.375 8.11979 97.8307 8.25781 97.0234 8.25781H91.9219C91.1146 8.25781 90.5677 8.11979 90.2812 7.84375C90 7.56771 89.8594 7.05469 89.8594 6.30469V6.07812L91.5547 5.72656V6.70312H97.3906V4.82031H92.2422C91.4401 4.82031 90.8984 4.68229 90.6172 4.40625C90.3359 4.13021 90.1953 3.61719 90.1953 2.86719V1.95312C90.1953 1.20312 90.3359 0.690104 90.6172 0.414062C90.8984 0.138021 91.4401 0 92.2422 0H96.9297C97.7057 0 98.2396 0.132812 98.5312 0.398438C98.8281 0.664062 98.9766 1.13542 98.9766 1.8125V1.98438L97.2812 2.38281V1.44531ZM104.117 1.49219V6.99219H108.828V1.49219H110.492V6.65625C110.492 7.27083 110.367 7.69271 110.117 7.92188C109.872 8.14583 109.404 8.25781 108.711 8.25781H104.234C103.547 8.25781 103.081 8.14583 102.836 7.92188C102.596 7.69792 102.477 7.27604 102.477 6.65625V1.49219H104.117ZM119.438 2.73438H114.992V6.96094H119.438V5.52344L121.102 5.85938V6.65625C121.102 7.27083 120.979 7.69271 120.734 7.92188C120.49 8.14583 120.021 8.25781 119.328 8.25781H115.102C114.419 8.25781 113.956 8.14583 113.711 7.92188C113.466 7.69792 113.344 7.27604 113.344 6.65625V3.08594C113.344 2.47135 113.464 2.05208 113.703 1.82812C113.948 1.60417 114.414 1.49219 115.102 1.49219H119.328C120.026 1.49219 120.495 1.60417 120.734 1.82812C120.979 2.05208 121.102 2.47135 121.102 3.08594V3.74219L119.438 3.98438V2.73438ZM129.75 2.73438H125.305V6.96094H129.75V5.52344L131.414 5.85938V6.65625C131.414 7.27083 131.292 7.69271 131.047 7.92188C130.802 8.14583 130.333 8.25781 129.641 8.25781H125.414C124.732 8.25781 124.268 8.14583 124.023 7.92188C123.779 7.69792 123.656 7.27604 123.656 6.65625V3.08594C123.656 2.47135 123.776 2.05208 124.016 1.82812C124.26 1.60417 124.727 1.49219 125.414 1.49219H129.641C130.339 1.49219 130.807 1.60417 131.047 1.82812C131.292 2.05208 131.414 2.47135 131.414 3.08594V3.74219L129.75 3.98438V2.73438ZM134.133 8.25781V1.49219H141.391V2.6875H135.797V4.16406H139.055V5.32812H135.797V6.99219H141.477V8.25781H134.133ZM150.117 2.70312H145.461V4.13281H149.867C150.56 4.13281 151.026 4.24479 151.266 4.46875C151.505 4.6875 151.625 5.10677 151.625 5.72656V6.65625C151.625 7.27604 151.503 7.69792 151.258 7.92188C151.013 8.14583 150.549 8.25781 149.867 8.25781H145.477C144.779 8.25781 144.305 8.14583 144.055 7.92188C143.81 7.69792 143.688 7.27604 143.688 6.65625V6.46875L145.156 6.19531V6.99219H150.133V5.44531H145.75C145.057 5.44531 144.589 5.33333 144.344 5.10938C144.099 4.88021 143.977 4.45833 143.977 3.84375V3.08594C143.977 2.47656 144.099 2.0599 144.344 1.83594C144.589 1.60677 145.057 1.49219 145.75 1.49219H149.766C150.448 1.49219 150.914 1.60156 151.164 1.82031C151.419 2.03385 151.547 2.41406 151.547 2.96094V3.125L150.117 3.42969V2.70312ZM160.258 2.70312H155.602V4.13281H160.008C160.701 4.13281 161.167 4.24479 161.406 4.46875C161.646 4.6875 161.766 5.10677 161.766 5.72656V6.65625C161.766 7.27604 161.643 7.69792 161.398 7.92188C161.154 8.14583 160.69 8.25781 160.008 8.25781H155.617C154.919 8.25781 154.445 8.14583 154.195 7.92188C153.951 7.69792 153.828 7.27604 153.828 6.65625V6.46875L155.297 6.19531V6.99219H160.273V5.44531H155.891C155.198 5.44531 154.729 5.33333 154.484 5.10938C154.24 4.88021 154.117 4.45833 154.117 3.84375V3.08594C154.117 2.47656 154.24 2.0599 154.484 1.83594C154.729 1.60677 155.198 1.49219 155.891 1.49219H159.906C160.589 1.49219 161.055 1.60156 161.305 1.82031C161.56 2.03385 161.688 2.41406 161.688 2.96094V3.125L160.258 3.42969V2.70312ZM164.617 8.25781V1.49219H171.797V2.70312H166.281V4.46875H169.25V5.72656H166.281V8.25781H164.617ZM175.055 1.49219V6.99219H179.766V1.49219H181.43V6.65625C181.43 7.27083 181.305 7.69271 181.055 7.92188C180.81 8.14583 180.341 8.25781 179.648 8.25781H175.172C174.484 8.25781 174.018 8.14583 173.773 7.92188C173.534 7.69792 173.414 7.27604 173.414 6.65625V1.49219H175.055ZM184.445 8.25781V1.49219H186.109V6.99219H191.414V8.25781H184.445ZM193.273 8.25781V1.49219H194.938V6.99219H200.242V8.25781H193.273ZM202.891 8.25781V5.21875L199.195 1.49219H201.422L203.836 4.01562L206.281 1.49219H208.219L204.539 5.1875V8.25781H202.891ZM46.1094 18.4297H41.7891V20.6172H46.1094C46.4427 20.6172 46.6693 20.5703 46.7891 20.4766C46.9141 20.3776 46.9766 20.2057 46.9766 19.9609V19.0781C46.9766 18.8385 46.9141 18.6719 46.7891 18.5781C46.6693 18.4792 46.4427 18.4297 46.1094 18.4297ZM39.8984 25.2578V17H46.9609C47.6172 17 48.0911 17.1276 48.3828 17.3828C48.6797 17.6328 48.8281 18.0391 48.8281 18.6016V20.4453C48.8281 21.0026 48.6797 21.4089 48.3828 21.6641C48.0911 21.9141 47.6172 22.0391 46.9609 22.0391H41.7891V25.2578H39.8984ZM48.9844 25.2578L53 18.4922H54.5859L58.6641 25.2578H56.8125L55.9609 23.7734H51.4844L50.6328 25.2578H48.9844ZM52.1875 22.5391H55.2891L53.7109 19.7188L52.1875 22.5391ZM65.75 19.6562H61.9844V21.5312H65.75C66.0365 21.5312 66.2318 21.4896 66.3359 21.4062C66.4453 21.3229 66.5 21.1823 66.5 20.9844V20.2031C66.5 20.0052 66.4453 19.8646 66.3359 19.7812C66.2318 19.6979 66.0365 19.6562 65.75 19.6562ZM60.3594 25.2578V18.4922H66.4531C67.0104 18.4922 67.4141 18.5964 67.6641 18.8047C67.9141 19.0078 68.0391 19.3411 68.0391 19.8047V21.3984C68.0391 21.8568 67.9141 22.1875 67.6641 22.3906C67.4141 22.5938 67.0104 22.6953 66.4531 22.6953H65.5234L68.7422 25.2578H66.375L63.5391 22.6953H61.9844V25.2578H60.3594ZM74.2188 19.7031V25.2578H72.5703V19.7031H69.3047V18.4922H77.4922V19.7031H74.2188ZM79.625 25.2578V18.4922H81.2656V25.2578H79.625ZM90.2109 19.7344H85.7656V23.9609H90.2109V22.5234L91.875 22.8594V23.6562C91.875 24.2708 91.7526 24.6927 91.5078 24.9219C91.263 25.1458 90.7943 25.2578 90.1016 25.2578H85.875C85.1927 25.2578 84.7292 25.1458 84.4844 24.9219C84.2396 24.6979 84.1172 24.276 84.1172 23.6562V20.0859C84.1172 19.4714 84.237 19.0521 84.4766 18.8281C84.7214 18.6042 85.1875 18.4922 85.875 18.4922H90.1016C90.7995 18.4922 91.2682 18.6042 91.5078 18.8281C91.7526 19.0521 91.875 19.4714 91.875 20.0859V20.7422L90.2109 20.9844V19.7344ZM94.5938 25.2578V18.4922H96.2344V25.2578H94.5938ZM99.25 25.2578V18.4922H105.344C105.906 18.4922 106.31 18.5964 106.555 18.8047C106.805 19.0078 106.93 19.3411 106.93 19.8047V21.3047C106.93 21.7682 106.805 22.1042 106.555 22.3125C106.305 22.5156 105.901 22.6172 105.344 22.6172H100.875V25.2578H99.25ZM104.641 19.6562H100.875V21.4531H104.641C104.927 21.4531 105.122 21.4115 105.227 21.3281C105.336 21.2448 105.391 21.1042 105.391 20.9062V20.2031C105.391 20.0052 105.336 19.8646 105.227 19.7812C105.122 19.6979 104.927 19.6562 104.641 19.6562ZM107.391 25.2578L111.406 18.4922H112.992L117.07 25.2578H115.219L114.367 23.7734H109.891L109.039 25.2578H107.391ZM110.594 22.5391H113.695L112.117 19.7188L110.594 22.5391ZM121.922 19.7031V25.2578H120.273V19.7031H117.008V18.4922H125.195V19.7031H121.922ZM127.328 25.2578V18.4922H134.586V19.6875H128.992V21.1641H132.25V22.3281H128.992V23.9922H134.672V25.2578H127.328ZM138.727 23.9922H140.852C142.013 23.9922 142.826 23.8229 143.289 23.4844C143.753 23.1458 143.984 22.5755 143.984 21.7734C143.984 21.0755 143.792 20.5573 143.406 20.2188C143.021 19.875 142.43 19.7031 141.633 19.7031H138.727V23.9922ZM137.062 25.2578V18.4922H141.617C142.924 18.4922 143.927 18.7839 144.625 19.3672C145.328 19.9453 145.68 20.7734 145.68 21.8516C145.68 22.987 145.307 23.8385 144.562 24.4062C143.823 24.974 142.703 25.2578 141.203 25.2578H137.062ZM154.977 25.2578V17H156.898V25.2578H154.977ZM160.516 25.2578V18.4922H161.648L167.391 22.9844V18.4922H168.883V25.2578H167.742L162.016 20.6953V25.2578H160.516Z" fill="#F40004"/>
</svg>
