<svg width="410" height="180" viewBox="0 0 410 180" fill="none" xmlns="http://www.w3.org/2000/svg">
<g filter="url(#filter0_f_467_50438)">
<path d="M335.286 60.1768L349.246 80.6318L313.705 119.823H70.082L60.4033 94.2998L102.778 60.1768H335.286Z" fill="#8B76D9" stroke="black" stroke-width="2.35418"/>
</g>
<g filter="url(#filter1_i_467_50438)">
<path d="M59 93.9195L102.362 59H335.908L350.742 80.7356L314.227 121H69.2699L59 93.9195Z" fill="#8B75D9"/>
</g>
<path d="M336.624 57.6445L337.027 58.2363L351.861 79.9717L352.464 80.8545L351.746 81.6455L315.23 121.91L314.827 122.355H68.335L68.0029 121.48L57.7334 94.4004L57.3848 93.4805L58.1504 92.8643L101.512 57.9443L101.884 57.6445H336.624Z" stroke="#AE9FE5" stroke-width="2.71"/>
<path d="M150.634 86.0508H143.073V90.0703H150.634C151.217 90.0703 151.614 89.9883 151.823 89.8242C152.042 89.651 152.151 89.3503 152.151 88.9219V87.1855C152.151 86.7663 152.042 86.4746 151.823 86.3105C151.614 86.1374 151.217 86.0508 150.634 86.0508ZM139.765 98V83.5488H152.124C153.272 83.5488 154.102 83.7721 154.612 84.2188C155.132 84.6562 155.392 85.3672 155.392 86.3516V89.7422C155.392 90.7174 155.132 91.4284 154.612 91.875C154.102 92.3216 153.272 92.5449 152.124 92.5449H150.237L156.909 98H152.083L146.259 92.5449H143.073V98H139.765ZM160.669 98V86.1602H173.37V88.252H163.581V90.8359H169.282V92.873H163.581V95.7852H173.521V98H160.669ZM189.312 88.334H180.302V95.7305H189.312V93.2148H184.608V91.1094H192.142V95.1973C192.142 96.2819 191.927 97.0202 191.499 97.4121C191.08 97.804 190.269 98 189.065 98H180.493C179.29 98 178.474 97.804 178.046 97.4121C177.627 97.0202 177.417 96.2819 177.417 95.1973V88.9492C177.417 87.8737 177.627 87.14 178.046 86.748C178.474 86.3561 179.29 86.1602 180.493 86.1602H189.065C190.259 86.1602 191.071 86.3516 191.499 86.7344C191.927 87.1172 192.142 87.8099 192.142 88.8125V89.127L189.312 89.6055V88.334ZM197.091 98V86.1602H199.962V98H197.091ZM216.177 88.2793H208.028V90.7812H215.739C216.951 90.7812 217.767 90.9772 218.187 91.3691C218.606 91.752 218.815 92.4857 218.815 93.5703V95.1973C218.815 96.2819 218.601 97.0202 218.173 97.4121C217.744 97.804 216.933 98 215.739 98H208.056C206.834 98 206.005 97.804 205.567 97.4121C205.139 97.0202 204.925 96.2819 204.925 95.1973V94.8691L207.495 94.3906V95.7852H216.204V93.0781H208.534C207.322 93.0781 206.502 92.8822 206.073 92.4902C205.645 92.0892 205.431 91.3509 205.431 90.2754V88.9492C205.431 87.8828 205.645 87.1536 206.073 86.7617C206.502 86.3607 207.322 86.1602 208.534 86.1602H215.562C216.756 86.1602 217.571 86.3516 218.009 86.7344C218.455 87.1081 218.679 87.7734 218.679 88.7305V89.0176L216.177 89.5508V88.2793ZM230.86 88.2793V98H227.976V88.2793H222.261V86.1602H236.589V88.2793H230.86ZM240.321 98V86.1602H253.022V88.252H243.233V90.8359H248.935V92.873H243.233V95.7852H253.173V98H240.321ZM266.79 88.1973H260.2V91.4785H266.79C267.291 91.4785 267.633 91.4056 267.815 91.2598C268.007 91.1139 268.103 90.8678 268.103 90.5215V89.1543C268.103 88.8079 268.007 88.5618 267.815 88.416C267.633 88.2702 267.291 88.1973 266.79 88.1973ZM257.356 98V86.1602H268.021C268.996 86.1602 269.702 86.3424 270.14 86.707C270.577 87.0625 270.796 87.6458 270.796 88.457V91.2461C270.796 92.0482 270.577 92.627 270.14 92.9824C269.702 93.3379 268.996 93.5156 268.021 93.5156H266.394L272.026 98H267.884L262.921 93.5156H260.2V98H257.356Z" fill="black"/>
<defs>
<filter id="filter0_f_467_50438" x="0.145615" y="0.145615" width="409.451" height="179.709" filterUnits="userSpaceOnUse" color-interpolation-filters="sRGB">
<feFlood flood-opacity="0" result="BackgroundImageFix"/>
<feBlend mode="normal" in="SourceGraphic" in2="BackgroundImageFix" result="shape"/>
<feGaussianBlur stdDeviation="29.4272" result="effect1_foregroundBlur_467_50438"/>
</filter>
<filter id="filter1_i_467_50438" x="55.7686" y="56.29" width="298.417" height="79.1908" filterUnits="userSpaceOnUse" color-interpolation-filters="sRGB">
<feFlood flood-opacity="0" result="BackgroundImageFix"/>
<feBlend mode="normal" in="SourceGraphic" in2="BackgroundImageFix" result="shape"/>
<feColorMatrix in="SourceAlpha" type="matrix" values="0 0 0 0 0 0 0 0 0 0 0 0 0 0 0 0 0 0 127 0" result="hardAlpha"/>
<feOffset dy="16.4792"/>
<feGaussianBlur stdDeviation="5.88544"/>
<feComposite in2="hardAlpha" operator="arithmetic" k2="-1" k3="1"/>
<feColorMatrix type="matrix" values="0 0 0 0 0.879584 0 0 0 0 0.872481 0 0 0 0 0.904442 0 0 0 1 0"/>
<feBlend mode="normal" in2="shape" result="effect1_innerShadow_467_50438"/>
</filter>
</defs>
</svg>
