<svg width="361" height="80" fill="none" xmlns="http://www.w3.org/2000/svg"><path d="M320.545 56.64l11.959-12.364-29.901-29.916H193.761l-5.182-5.186c0-.266-.133-.399-.399-.399h-15.947c-.266 0-.399.133-.399.4l-5.182 5.185H57.809l-29.9 29.916 11.96 12.365 9.169 9.174h117.614l5.182 5.186h16.745l5.182-5.186h117.614l9.17-9.174z" fill="#00979C" fill-opacity=".1"/><path fill-rule="evenodd" clip-rule="evenodd" d="M45.052 25.13l1.196-1.197L57.41 12.764h36.68c-.265-.266-.265-.532 0-.798l6.379-6.382h60.6L166.253 0h28.306l5.583 5.584H260.741l5.98 6.382c.266.266.398.532.398.798H303.401l11.162 11.169 1.196 1.197 18.34 18.348h26.711l-13.954 13.96h-25.117l-9.168 9.175H269.911l-6.379 6.382c0 .266-.132.4-.398.4h-62.596l-5.979 5.982h-28.306l-5.98-5.983h-56.615c-.266 0-.397-.133-.397-.399l-6.38-6.382H48.24l-8.77-9.174H13.953L0 43.478h26.712l18.34-18.349zm275.493 31.51l11.959-12.364-29.901-29.916H193.761l-5.182-5.186c0-.266-.133-.399-.399-.399h-15.947c-.266 0-.399.133-.399.4l-5.182 5.185H57.809l-29.9 29.916 11.96 12.365 9.169 9.174h117.614l5.182 5.186h16.745l5.182-5.186h117.614l9.17-9.174z" fill="#0095A5"/></svg>