<svg width="777" height="210" viewBox="0 0 777 210" fill="none" xmlns="http://www.w3.org/2000/svg">
<path d="M249 94.8548L255.896 83L258 85.1452L251.104 97L249 94.8548Z" fill="#006B92"/>
<path d="M243 88.76L249.896 77L252 79.128L245.104 91L243 88.76Z" fill="#006B92"/>
<path d="M237 82.8548L243.896 71L246 73.1452L239.104 85L237 82.8548Z" fill="#006B92"/>
<path d="M231 76.76L237.896 65L240 67.128L233.104 79L231 76.76Z" fill="#006B92"/>
<path d="M226 70.8548L232.896 59L235 61.1452L228.104 73L226 70.8548Z" fill="#006B92"/>
<path d="M220 64.7016L226.896 52L229 54.2984L222.221 67L220 64.7016Z" fill="#006B92"/>
<path d="M214 58.7016L220.896 46L223 48.2984L216.221 61L214 58.7016Z" fill="#006B92"/>
<path d="M208 52.7016L214.896 40L217 42.2984L210.221 55L208 52.7016Z" fill="#006B92"/>
<path d="M202 46.7016L208.896 34L211 36.2984L204.221 49L202 46.7016Z" fill="#006B92"/>
<path d="M197 39.8548L203.896 28L206 30.1452L199.221 42L197 39.8548Z" fill="#006B92"/>
<path d="M191 33.8548L197.896 22L200 24.1452L193.221 36L191 33.8548Z" fill="#006B92"/>
<path d="M179.118 2L179 2.11846V21.7634L198.176 42L205 29.4557L179.118 2Z" fill="#006B92"/>
<path d="M307 156.72L313.869 144L316 146.4L309.132 159L307 156.72Z" fill="#006B92"/>
<path d="M301 149.855L307.869 138L310 140.145L303.132 152L301 149.855Z" fill="#006B92"/>
<path d="M296 143.872L302.105 132L304 134.24L297.895 146L296 143.872Z" fill="#006B92"/>
<path d="M290 137.855L296.869 126L299 128.145L292.132 140L290 137.855Z" fill="#006B92"/>
<path d="M284 131.872L290.869 120L293 122.24L286.132 134L284 131.872Z" fill="#006B92"/>
<path d="M278 125.855L284.869 114L287 116.145L280.132 128L278 125.855Z" fill="#006B92"/>
<path d="M272 119.72L278.869 107L281 109.4L274.132 122L272 119.72Z" fill="#006B92"/>
<path d="M266 113.702L272.869 101L275 103.298L268.132 116L266 113.702Z" fill="#006B92"/>
<path d="M261 107.72L267.105 95L269 97.28L262.895 110L261 107.72Z" fill="#006B92"/>
<path d="M255 101.702L261.869 89L264 91.2984L257.132 104L255 101.702Z" fill="#006B92"/>
<path d="M336 167L308.8 139L302 151.164L317.358 167H336Z" fill="#006B92"/>
<path d="M129 165.5C129 188.465 110.465 207 87.4999 207C64.535 207 46 188.465 46 165.5C46 142.652 64.535 124 87.4999 124C110.465 124 129 142.652 129 165.5Z" stroke="#787878" stroke-width="0.9" stroke-miterlimit="10"/>
<path d="M46 165.5C46 142.652 64.535 124 87.4999 124C110.465 124 129 142.652 129 165.5C129 188.465 110.465 207 87.4999 207C64.535 207 46 188.465 46 165.5Z" stroke="#006B92" stroke-width="5" stroke-miterlimit="10" stroke-dasharray="55.92 55.92"/>
<path d="M109 165.443C109 177.368 99.1441 187 87.0587 187C74.8561 187 65 177.368 65 165.443C65 153.632 74.8561 144 87.0587 144C99.1441 144 109 153.632 109 165.443Z" stroke="#808080" stroke-miterlimit="10" stroke-dasharray="3.1 3.1"/>
<path d="M87.4999 134C104.935 134 119 148.181 119 165.5C119 182.935 104.935 197 87.4999 197C70.0644 197 56 182.935 56 165.5C56 148.181 70.0644 134 87.4999 134Z" stroke="#B0B0B0" stroke-width="3.1" stroke-miterlimit="10" stroke-dasharray="35.38 35.38"/>
<path d="M91 170H83V161H91V170Z" fill="#006B92"/>
<path d="M87 165L9 89" stroke="#006B92" stroke-width="2.5" stroke-miterlimit="10" stroke-dasharray="2.49 2.49"/>
<path d="M20.256 100.17L2.34889 82.8054L2 2H179.558L335.837 165H777" stroke="#006B92" stroke-width="2.5" stroke-miterlimit="10"/>
</svg>
