<svg width="486" height="294" fill="none" xmlns="http://www.w3.org/2000/svg"><path d="M485.17 288.942H17.307V29.117H485.17v259.825z" fill="#0DFF00" opacity=".1"/><path d="M18.066 2L2.405 21.325v240.002L14.782 276.6h266.996l12.529 15.46h167.321l19.299-23.751V45.013l-13.691-16.83H190.843L169.928 2.311 18.066 2z" stroke="#0DFF00" stroke-width="3.6" stroke-miterlimit="10"/><path opacity=".3" d="M189.327 2l12.378 15.273H465.67l11.519-14.151L189.327 2z" fill="#0DFF00"/><path d="M480.826 37.534V10.105l-11.114 13.714 11.114 13.715zM2.405 276.911v14.961h11.62l-11.62-14.961zM277.231 283.145l6.567 8.104h-6.567l-6.062-8.104h6.062zM267.634 283.145l6.567 8.104h-6.567l-6.063-8.104h6.063zM258.033 283.145l6.567 8.104h-6.567l-6.063-8.104h6.063zM248.435 283.145l6.568 8.104h-6.568l-6.062-8.104h6.062zM238.835 283.145l6.567 8.104h-6.567l-6.063-8.104h6.063zM229.237 283.145l6.568 8.104h-6.568l-6.062-8.104h6.062zM219.64 283.145l6.567 8.104h-6.567l-6.063-8.104h6.063zM210.039 283.145l6.568 8.104h-6.568l-6.062-8.104h6.062zM200.44 283.145l6.568 8.104H23.116l-6.062-8.104H200.44zM35.848 2.063l-7.073 8.79h-7.678L8.77 26.062v104.354L2 138.77V21.325l15.358-18.95 18.49-.313z" fill="#0DFF00"/></svg>