<svg width="361" height="80" viewBox="0 0 361 80" fill="none" xmlns="http://www.w3.org/2000/svg">
<path d="M320.545 56.6409L332.504 44.2758L302.603 14.3597H193.761L188.579 9.17424C188.579 8.90833 188.446 8.77536 188.18 8.77536H172.233C171.967 8.77536 171.834 8.90833 171.834 9.17424L166.652 14.3597H57.8092L27.9082 44.2758L39.8687 56.6409L49.0379 65.8153H166.652L171.834 71.0006H172.233H188.18H188.579L193.761 65.8153H311.375L320.545 56.6409Z" fill="#009C00" fill-opacity="0.1"/>
<path fill-rule="evenodd" clip-rule="evenodd" d="M45.0517 25.1295L46.2481 23.9328L57.4104 12.7642H57.8092H94.0908C93.8249 12.4982 93.8249 12.2323 94.0908 11.9664L100.469 5.58432H100.868H161.069L166.253 0H166.652H194.16H194.559L200.142 5.58432H259.943H260.741L266.721 11.9664C266.987 12.2323 267.119 12.4982 267.119 12.7642H303.002H303.401L314.563 23.9328L315.759 25.1295L334.099 43.478H360.81L346.856 57.4387H321.739L312.571 66.613H312.172H269.911L263.532 72.9951C263.532 73.2611 263.4 73.3941 263.134 73.3941H200.538L194.559 79.3772H194.16H166.652H166.253L160.273 73.3941H103.658C103.392 73.3941 103.261 73.2611 103.261 72.9951L96.8802 66.613H49.0379H48.2414L39.4701 57.4387H13.9541L0 43.478H26.7124L45.0517 25.1295ZM320.545 56.6409L332.504 44.2758L302.603 14.3597H193.761L188.579 9.17424C188.579 8.90833 188.446 8.77536 188.18 8.77536H172.233C171.967 8.77536 171.834 8.90833 171.834 9.17424L166.652 14.3597H57.8092L27.9082 44.2758L39.8687 56.6409L49.0379 65.8153H166.652L171.834 71.0006H172.233H188.18H188.579L193.761 65.8153H311.375L320.545 56.6409Z" fill="#00A50B"/>
</svg>
