<svg width="486" height="294" viewBox="0 0 486 294" fill="none" xmlns="http://www.w3.org/2000/svg">
<g opacity="0.1">
<path d="M485.17 288.942H17.3073V29.1167H485.17V288.942Z" fill="#0DFF00"/>
</g>
<path d="M18.0656 2L2.40454 21.3248V261.327L14.7819 276.6H281.778L294.307 292.06H461.628L480.927 268.309V45.0134L467.236 28.1821H190.843L169.928 2.31169L18.0656 2Z" stroke="#0DFF00" stroke-width="3.6" stroke-miterlimit="10"/>
<path opacity="0.3" d="M189.327 2L201.705 17.2729H465.67L477.189 3.12204L189.327 2Z" fill="#0DFF00"/>
<path d="M480.826 37.5338V10.105L469.712 23.8194L480.826 37.5338Z" fill="#0DFF00"/>
<path d="M2.40454 276.911V291.872H14.0241L2.40454 276.911Z" fill="#0DFF00"/>
<path d="M277.231 283.145L283.798 291.249H277.231L271.169 283.145H277.231Z" fill="#0DFF00"/>
<path d="M267.634 283.145L274.201 291.249H267.634L261.571 283.145H267.634Z" fill="#0DFF00"/>
<path d="M258.033 283.145L264.6 291.249H258.033L251.97 283.145H258.033Z" fill="#0DFF00"/>
<path d="M248.435 283.145L255.003 291.249H248.435L242.373 283.145H248.435Z" fill="#0DFF00"/>
<path d="M238.835 283.145L245.402 291.249H238.835L232.772 283.145H238.835Z" fill="#0DFF00"/>
<path d="M229.237 283.145L235.805 291.249H229.237L223.175 283.145H229.237Z" fill="#0DFF00"/>
<path d="M219.64 283.145L226.207 291.249H219.64L213.577 283.145H219.64Z" fill="#0DFF00"/>
<path d="M210.039 283.145L216.607 291.249H210.039L203.977 283.145H210.039Z" fill="#0DFF00"/>
<path d="M200.44 283.145L207.008 291.249H23.1163L17.054 283.145H200.44Z" fill="#0DFF00"/>
<path d="M35.8482 2.0625L28.7754 10.8522H21.0965L8.76959 26.0627V130.417L2 138.77V21.325L17.3579 2.37419L35.8482 2.0625Z" fill="#0DFF00"/>
</svg>
