<svg width="777" height="210" fill="none" xmlns="http://www.w3.org/2000/svg"><path d="M528 94.855L521.104 83 519 85.145 525.896 97 528 94.855zM534 88.76L527.104 77 525 79.128 531.896 91 534 88.76zM540 82.855L533.104 71 531 73.145 537.896 85 540 82.855zM546 76.76L539.104 65 537 67.128 543.896 79 546 76.76zM551 70.855L544.104 59 542 61.145 548.896 73 551 70.855zM557 64.702L550.104 52 548 54.298 554.779 67 557 64.702zM563 58.702L556.104 46 554 48.298 560.779 61 563 58.702zM569 52.702L562.104 40 560 42.298 566.779 55 569 52.702zM575 46.702L568.104 34 566 36.298 572.779 49 575 46.702zM580 39.855L573.104 28 571 30.145 577.779 42 580 39.855zM586 33.855L579.104 22 577 24.145 583.779 36 586 33.855z" fill="#920000"/><path d="M597.882 2l.118.118v19.645L578.824 42 572 29.456 597.882 2zM470 156.72L463.131 144 461 146.4l6.868 12.6 2.132-2.28zM476 149.855L469.131 138 467 140.145 473.868 152l2.132-2.145zM481 143.872L474.895 132 473 134.24l6.105 11.76 1.895-2.128zM487 137.855L480.131 126 478 128.145 484.868 140l2.132-2.145zM493 131.872L486.131 120 484 122.24l6.868 11.76 2.132-2.128zM499 125.855L492.131 114 490 116.145 496.868 128l2.132-2.145zM505 119.72L498.131 107 496 109.4l6.868 12.6 2.132-2.28zM511 113.702L504.131 101 502 103.298 508.868 116l2.132-2.298zM516 107.72L509.895 95 508 97.28l6.105 12.72 1.895-2.28zM522 101.702L515.131 89 513 91.298 519.868 104l2.132-2.298z" fill="#920000"/><path d="M441 167l27.2-28 6.8 12.164L459.642 167H441z" fill="#920000"/><path d="M648 165.5c0 22.965 18.535 41.5 41.5 41.5s41.5-18.535 41.5-41.5c0-22.848-18.535-41.5-41.5-41.5S648 142.652 648 165.5z" stroke="#787878" stroke-width=".9" stroke-miterlimit="10"/><path d="M731 165.5c0-22.848-18.535-41.5-41.5-41.5S648 142.652 648 165.5c0 22.965 18.535 41.5 41.5 41.5s41.5-18.535 41.5-41.5z" stroke="#920000" stroke-width="5" stroke-miterlimit="10" stroke-dasharray="55.92 55.92"/><path d="M668 165.443c0 11.925 9.856 21.557 21.941 21.557 12.203 0 22.059-9.632 22.059-21.557 0-11.811-9.856-21.443-22.059-21.443-12.085 0-21.941 9.632-21.941 21.443z" stroke="gray" stroke-miterlimit="10" stroke-dasharray="3.1 3.1"/><path d="M689.5 134c-17.435 0-31.5 14.181-31.5 31.5 0 17.435 14.065 31.5 31.5 31.5 17.436 0 31.5-14.065 31.5-31.5 0-17.319-14.064-31.5-31.5-31.5z" stroke="#B0B0B0" stroke-width="3.1" stroke-miterlimit="10" stroke-dasharray="35.38 35.38"/><path d="M686 170h8v-9h-8v9z" fill="#920000"/><path d="M690 165l78-76" stroke="#920000" stroke-width="2.5" stroke-miterlimit="10" stroke-dasharray="2.49 2.49"/><path d="M756.744 100.17l17.907-17.365L775 2H597.442L441.163 165H0" stroke="#920000" stroke-width="2.5" stroke-miterlimit="10"/></svg>