<svg width="777" height="210" viewBox="0 0 777 210" fill="none" xmlns="http://www.w3.org/2000/svg">
<path d="M528 94.8548L521.104 83L519 85.1452L525.896 97L528 94.8548Z" fill="#920000"/>
<path d="M534 88.76L527.104 77L525 79.128L531.896 91L534 88.76Z" fill="#920000"/>
<path d="M540 82.8548L533.104 71L531 73.1452L537.896 85L540 82.8548Z" fill="#920000"/>
<path d="M546 76.76L539.104 65L537 67.128L543.896 79L546 76.76Z" fill="#920000"/>
<path d="M551 70.8548L544.104 59L542 61.1452L548.896 73L551 70.8548Z" fill="#920000"/>
<path d="M557 64.7016L550.104 52L548 54.2984L554.779 67L557 64.7016Z" fill="#920000"/>
<path d="M563 58.7016L556.104 46L554 48.2984L560.779 61L563 58.7016Z" fill="#920000"/>
<path d="M569 52.7016L562.104 40L560 42.2984L566.779 55L569 52.7016Z" fill="#920000"/>
<path d="M575 46.7016L568.104 34L566 36.2984L572.779 49L575 46.7016Z" fill="#920000"/>
<path d="M580 39.8548L573.104 28L571 30.1452L577.779 42L580 39.8548Z" fill="#920000"/>
<path d="M586 33.8548L579.104 22L577 24.1452L583.779 36L586 33.8548Z" fill="#920000"/>
<path d="M597.882 2L598 2.11846V21.7634L578.824 42L572 29.4557L597.882 2Z" fill="#920000"/>
<path d="M470 156.72L463.131 144L461 146.4L467.868 159L470 156.72Z" fill="#920000"/>
<path d="M476 149.855L469.131 138L467 140.145L473.868 152L476 149.855Z" fill="#920000"/>
<path d="M481 143.872L474.895 132L473 134.24L479.105 146L481 143.872Z" fill="#920000"/>
<path d="M487 137.855L480.131 126L478 128.145L484.868 140L487 137.855Z" fill="#920000"/>
<path d="M493 131.872L486.131 120L484 122.24L490.868 134L493 131.872Z" fill="#920000"/>
<path d="M499 125.855L492.131 114L490 116.145L496.868 128L499 125.855Z" fill="#920000"/>
<path d="M505 119.72L498.131 107L496 109.4L502.868 122L505 119.72Z" fill="#920000"/>
<path d="M511 113.702L504.131 101L502 103.298L508.868 116L511 113.702Z" fill="#920000"/>
<path d="M516 107.72L509.895 95L508 97.28L514.105 110L516 107.72Z" fill="#920000"/>
<path d="M522 101.702L515.131 89L513 91.2984L519.868 104L522 101.702Z" fill="#920000"/>
<path d="M441 167L468.2 139L475 151.164L459.642 167H441Z" fill="#920000"/>
<path d="M648 165.5C648 188.465 666.535 207 689.5 207C712.465 207 731 188.465 731 165.5C731 142.652 712.465 124 689.5 124C666.535 124 648 142.652 648 165.5Z" stroke="#787878" stroke-width="0.9" stroke-miterlimit="10"/>
<path d="M731 165.5C731 142.652 712.465 124 689.5 124C666.535 124 648 142.652 648 165.5C648 188.465 666.535 207 689.5 207C712.465 207 731 188.465 731 165.5Z" stroke="#920000" stroke-width="5" stroke-miterlimit="10" stroke-dasharray="55.92 55.92"/>
<path d="M668 165.443C668 177.368 677.856 187 689.941 187C702.144 187 712 177.368 712 165.443C712 153.632 702.144 144 689.941 144C677.856 144 668 153.632 668 165.443Z" stroke="#808080" stroke-miterlimit="10" stroke-dasharray="3.1 3.1"/>
<path d="M689.5 134C672.065 134 658 148.181 658 165.5C658 182.935 672.065 197 689.5 197C706.936 197 721 182.935 721 165.5C721 148.181 706.936 134 689.5 134Z" stroke="#B0B0B0" stroke-width="3.1" stroke-miterlimit="10" stroke-dasharray="35.38 35.38"/>
<path d="M686 170H694V161H686V170Z" fill="#920000"/>
<path d="M690 165L768 89" stroke="#920000" stroke-width="2.5" stroke-miterlimit="10" stroke-dasharray="2.49 2.49"/>
<path d="M756.744 100.17L774.651 82.8054L775 2H597.442L441.163 165H2.77162e-05" stroke="#920000" stroke-width="2.5" stroke-miterlimit="10"/>
</svg>
