<svg width="777" height="210" fill="none" xmlns="http://www.w3.org/2000/svg"><path d="M249 94.855L255.896 83 258 85.145 251.104 97 249 94.855zM243 88.76L249.896 77 252 79.128 245.104 91 243 88.76zM237 82.855L243.896 71 246 73.145 239.104 85 237 82.855zM231 76.76L237.896 65 240 67.128 233.104 79 231 76.76zM226 70.855L232.896 59 235 61.145 228.104 73 226 70.855zM220 64.702L226.896 52 229 54.298 222.221 67 220 64.702zM214 58.702L220.896 46 223 48.298 216.221 61 214 58.702zM208 52.702L214.896 40 217 42.298 210.221 55 208 52.702zM202 46.702L208.896 34 211 36.298 204.221 49 202 46.702zM197 39.855L203.896 28 206 30.145 199.221 42 197 39.855zM191 33.855L197.896 22 200 24.145 193.221 36 191 33.855z" fill="#846A01"/><path d="M179.118 2l-.118.118v19.645L198.176 42 205 29.456 179.118 2zM307 156.72l6.869-12.72 2.131 2.4-6.868 12.6-2.132-2.28zM301 149.855L307.869 138l2.131 2.145L303.132 152 301 149.855zM296 143.872L302.105 132l1.895 2.24-6.105 11.76-1.895-2.128zM290 137.855L296.869 126l2.131 2.145L292.132 140 290 137.855zM284 131.872L290.869 120l2.131 2.24-6.868 11.76-2.132-2.128zM278 125.855L284.869 114l2.131 2.145L280.132 128 278 125.855zM272 119.72l6.869-12.72 2.131 2.4-6.868 12.6-2.132-2.28zM266 113.702L272.869 101l2.131 2.298L268.132 116 266 113.702zM261 107.72L267.105 95 269 97.28 262.895 110 261 107.72zM255 101.702L261.869 89 264 91.298 257.132 104 255 101.702z" fill="#846A01"/><path d="M336 167l-27.2-28-6.8 12.164L317.358 167H336z" fill="#846A01"/><path d="M129 165.5c0 22.965-18.535 41.5-41.5 41.5S46 188.465 46 165.5c0-22.848 18.535-41.5 41.5-41.5s41.5 18.652 41.5 41.5z" stroke="#787878" stroke-width=".9" stroke-miterlimit="10"/><path d="M46 165.5c0-22.848 18.535-41.5 41.5-41.5s41.5 18.652 41.5 41.5c0 22.965-18.535 41.5-41.5 41.5S46 188.465 46 165.5z" stroke="#846A01" stroke-width="5" stroke-miterlimit="10" stroke-dasharray="55.92 55.92"/><path d="M109 165.443C109 177.368 99.144 187 87.059 187 74.856 187 65 177.368 65 165.443 65 153.632 74.856 144 87.059 144 99.144 144 109 153.632 109 165.443z" stroke="gray" stroke-miterlimit="10" stroke-dasharray="3.1 3.1"/><path d="M87.5 134c17.435 0 31.5 14.181 31.5 31.5 0 17.435-14.065 31.5-31.5 31.5-17.436 0-31.5-14.065-31.5-31.5 0-17.319 14.064-31.5 31.5-31.5z" stroke="#B0B0B0" stroke-width="3.1" stroke-miterlimit="10" stroke-dasharray="35.38 35.38"/><path d="M91 170h-8v-9h8v9z" fill="#846A01"/><path d="M87 165L9 89" stroke="#846A01" stroke-width="2.5" stroke-miterlimit="10" stroke-dasharray="2.49 2.49"/><path d="M20.256 100.17L2.349 82.805 2 2h177.558l156.279 163H777" stroke="#846A01" stroke-width="2.5" stroke-miterlimit="10"/></svg>