<svg width="1920" height="347" viewBox="0 0 1920 347" fill="none" xmlns="http://www.w3.org/2000/svg">
<path d="M1616.09 249.863L1566.45 185.17L1561.65 205.026L1605.52 262.033L1611.29 269.719L1663.81 337.935L1669.9 345.941H1677.9L1668.61 334.091L1670.22 332.81L1613.85 259.471L1616.09 249.863ZM1649.4 303.026L1682.07 345.941H1701.92L1659.97 290.856L1654.2 283.17L1601.68 215.275L1569.65 173L1568.05 181.647L1596.88 219.118L1595.27 220.078L1651.64 293.739L1649.4 303.026ZM1607.12 278.046L1557.48 213.353L1553 233.209L1596.88 290.216L1602.64 297.902L1639.15 345.621H1649.72L1604.88 287.654L1607.12 278.046Z" fill="#4DAFFF"/>
<path d="M1766.2 306.53H1685.52L1698.23 322.095H1769.38H1779.23H1864.36H1916.77L1911.37 315.742H1864.36V313.836H1772.24L1766.2 306.53Z" fill="#4DAFFF"/>
<path d="M1783.36 330.671H1702.36L1715.38 346.236H1786.53H1796.38H1881.51H1933.92L1928.52 339.883H1881.51V338.295H1789.39L1783.36 330.671Z" fill="#4DAFFF"/>
<path d="M1828.46 312.565H1909.46L1896.44 297H1825.29H1815.44H1730.31H1677.9L1683.61 303.353H1730.31V305.259H1822.43L1828.46 312.565Z" fill="#4DAFFF"/>
<path d="M301.83 249.301L351.471 184.608L356.275 204.465L312.399 261.471L306.634 269.157L254.111 337.373L248.026 345.38H240.02L249.307 333.53L247.706 332.249L304.072 258.909L301.83 249.301ZM268.523 302.465L235.856 345.38H216L257.954 290.295L263.719 282.608L316.242 214.713L348.268 172.438L349.869 181.086L321.046 218.556L322.647 219.517L266.281 293.177L268.523 302.465ZM310.797 277.484L360.438 212.791L364.922 232.648L321.046 289.654L315.281 297.34L278.771 345.059H268.203L313.039 287.092L310.797 277.484Z" fill="#4DAFFF"/>
<path d="M151.718 305.969H232.4L219.695 321.533H148.542H138.695H53.5651H1.15332L6.55332 315.18H53.5651V313.275H145.683L151.718 305.969Z" fill="#4DAFFF"/>
<path d="M134.565 330.109H215.565L202.541 345.674H131.388H121.541H36.4118H-16L-10.6 339.321H36.4118V337.733H128.529L134.565 330.109Z" fill="#4DAFFF"/>
<path d="M89.46 312.003H8.45996L21.4835 296.438H92.6364H102.483H187.613H240.025L234.307 302.791H187.613V304.697H95.4953L89.46 312.003Z" fill="#4DAFFF"/>
<path d="M953.159 44.2559C902.209 44.2559 825.969 51.6939 782.085 76.2394C764.234 86.2807 748.614 101.529 758.655 119.752C772.044 145.041 825.597 158.801 854.234 164.38L879.523 150.248C809.234 136.859 785.06 107.479 825.597 84.4212C868.366 60.6195 959.853 54.2972 1026.8 66.9418L1052.08 52.8096C1021.96 47.2311 987.746 44.2559 953.159 44.2559Z" fill="#163C5B"/>
<path d="M1150.64 108.594H1100.43C1100.43 117.147 1093.37 125.329 1080.72 132.395C1047.62 150.99 991.094 156.569 953.16 156.569V172.933C1003.74 172.933 1079.98 165.495 1124.23 140.577C1141.71 130.908 1150.64 119.751 1150.64 108.594Z" fill="#163C5B"/>
<path d="M898.488 42.3965C857.579 46.1155 792.868 56.9006 760.141 81.4461L762.372 81.818C787.29 62.8511 838.612 48.3469 899.232 43.1403L898.488 42.3965Z" fill="#163C5B"/>
<path d="M751.961 88.5117C746.01 94.958 743.035 101.652 743.035 108.594H745.266C745.266 101.9 748.242 95.3299 754.192 88.8836L751.961 88.5117Z" fill="#163C5B"/>
<path d="M786.176 148.76L784.316 149.504C797.705 155.082 813.325 159.917 831.176 164.38L832.664 163.636C814.812 159.545 799.192 154.71 786.176 148.76Z" fill="#163C5B"/>
<path d="M1042.41 169.586C995.555 177.024 943.489 177.768 897.002 173.677L896.258 174.421C943.489 178.512 995.927 177.768 1043.53 170.33L1042.41 169.586Z" fill="#163C5B"/>
<path d="M1103.03 155.454C1092.25 158.801 1080.72 162.148 1068.07 164.752L1069.19 165.495C1081.83 162.892 1093.74 159.545 1104.52 155.826L1103.03 155.454Z" fill="#163C5B"/>
<path d="M1160.31 97.0654L1158.08 97.4373C1170.72 121.983 1139.48 141.322 1113.82 151.363L1115.68 151.735C1141.71 141.322 1172.95 122.355 1160.31 97.0654Z" fill="#163C5B"/>
<path d="M1106.01 61.7344L1104.52 62.1062C1126.47 69.9162 1143.2 79.2137 1152.13 89.255L1154.36 88.8831C1145.06 78.8418 1128.32 69.5443 1106.01 61.7344Z" fill="#163C5B"/>
<path d="M953.159 40.1641C947.952 40.1641 942.746 40.1641 937.539 40.1641L937.911 40.9079C971.382 40.1641 1005.97 42.0236 1038.7 46.8583L1039.81 46.1144C1012.66 42.0235 983.283 40.1641 953.159 40.1641Z" fill="#163C5B"/>
<path d="M1031.63 145.412C1024.94 146.9 1017.87 148.263 1010.43 149.503L1011.55 150.247C1018.99 149.007 1026.18 147.643 1033.12 146.156L1031.63 145.412Z" fill="#163C5B"/>
<path d="M1077 128.678C1066.59 135 1053.2 139.835 1041.3 143.182L1042.79 143.554C1054.69 140.579 1068.45 135.744 1078.86 128.678H1077Z" fill="#163C5B"/>
<path d="M995.927 65.082L995.184 65.8258C1016.38 68.0572 1034.98 71.7763 1050.6 76.611L1052.46 76.2391C1036.46 71.0324 1017.5 67.3134 995.927 65.082Z" fill="#163C5B"/>
<path d="M953.157 62.8506C947.455 62.8506 941.876 62.9746 936.422 63.2225L936.794 63.9663C952.785 63.2225 968.777 63.5944 983.653 64.7101L984.397 63.9663C973.984 63.2225 963.571 62.8506 953.157 62.8506Z" fill="#163C5B"/>
<path d="M897.003 74.3789C886.59 76.2384 877.292 78.4698 868.738 81.0731L870.598 81.8169C878.78 78.8417 888.077 76.6103 898.119 75.1227L897.003 74.3789Z" fill="#163C5B"/>
<path d="M1169.6 174.049C1167.37 178.264 1164.03 182.355 1159.56 186.322H1161.42C1165.88 182.355 1169.36 178.264 1171.84 174.049H1169.6Z" fill="#163C5B"/>
<path d="M1163.66 138.347H1161.8C1170.35 146.528 1175.56 156.57 1172.21 167.727H1174.44C1177.42 156.57 1172.21 146.528 1163.66 138.347Z" fill="#163C5B"/>
<path d="M836.383 100.412C814.813 104.503 795.846 110.082 780.227 116.776L781.714 117.148C797.334 110.825 815.929 105.247 837.499 100.784L836.383 100.412Z" fill="#163C5B"/>
<path d="M756.051 191.9L754.191 192.272C758.902 195.495 764.357 198.595 770.555 201.57L772.043 201.198C766.092 198.223 760.762 195.124 756.051 191.9Z" fill="#163C5B"/>
<path d="M782.456 205.66L780.969 206.032C801.051 214.214 826.713 221.28 855.349 225.743L856.465 224.999C827.828 220.536 802.539 213.842 782.456 205.66Z" fill="#163C5B"/>
<path d="M1121.63 88.5117L1115.31 90.3712C1136.5 97.4373 1153.24 105.619 1164.77 114.545C1187.83 132.768 1187.83 153.222 1164.77 171.446L1168.86 171.818H1168.12C1164.89 174.297 1161.3 176.776 1157.33 179.256C1155.84 177.768 1154.73 177.396 1153.98 176.652C1124.6 194.503 1083.32 203.801 1049.11 209.379C1052.08 209.751 1054.31 210.123 1057.29 210.495C1055.55 210.743 1053.69 210.991 1051.71 211.239C1049.48 210.867 1046.88 210.495 1044.27 210.123C1043.53 210.495 1043.16 210.867 1043.16 210.867C1045.39 211.115 1047.37 211.363 1049.11 211.611C1047.37 211.859 1045.51 212.107 1043.53 212.355C1041.3 211.983 1039.07 211.611 1036.09 211.239C1036.09 211.239 1034.98 211.983 1035.35 211.983C1037.33 212.231 1039.19 212.479 1040.93 212.727C1039.19 212.975 1037.33 213.222 1035.35 213.47C1031.63 213.098 1032.37 213.099 1027.91 212.355L1027.17 212.727C1031.63 213.842 1030.51 213.47 1032.74 213.842C1030.76 214.09 1028.78 214.338 1026.79 214.586C1024.56 214.09 1022.21 213.594 1019.73 213.098C1019.36 213.098 1018.61 213.842 1018.61 213.47C1020.6 213.966 1022.45 214.462 1024.19 214.958C1022.21 214.958 1020.22 215.082 1018.24 215.33C1016.01 214.834 1013.78 214.338 1011.55 213.842C1011.17 213.842 1010.06 214.586 1010.43 214.214C1012.17 214.71 1013.9 215.206 1015.64 215.702C1013.65 215.95 1011.67 216.074 1009.69 216.074C1007.45 215.578 1005.22 215.082 1002.99 214.586L1002.62 214.958L1002.25 214.586C958.364 217.561 911.132 216.446 867.992 210.495L867.248 211.239C911.132 217.189 958.736 218.305 1002.25 214.958C1003.98 215.454 1005.6 215.95 1007.08 216.446C939.769 221.652 854.232 217.189 790.265 196.363C768.694 189.297 751.587 181.115 740.058 171.818H738.942L743.033 171.446C720.719 153.594 719.603 133.14 743.033 114.545C754.562 105.619 771.298 97.4373 792.496 90.3712L786.546 88.5117C764.231 95.5778 746.752 104.132 734.851 113.429C711.05 132.396 711.05 153.594 734.851 172.561L738.198 172.189C799.562 220.536 987.372 233.925 1106.01 200.826C1109.73 200.826 1112.7 200.826 1114.93 201.198C1127.58 197.479 1139.48 193.388 1151.38 187.809C1150.64 186.817 1149.89 185.826 1149.15 184.834C1157.33 180.867 1164.27 176.652 1169.98 172.189L1172.95 172.561C1197.12 153.594 1197.12 132.396 1172.95 113.429C1161.05 104.132 1143.57 95.5778 1121.63 88.5117Z" fill="#4DAFFF"/>
<path d="M982.911 71.0322L982.539 71.4041C1001.13 73.2636 1037.21 78.8421 1049.11 93.3463L1051.34 92.9744C1039.07 78.4702 1001.88 72.5198 982.911 71.0322Z" fill="#4DAFFF"/>
<path d="M933.077 71.0322C914.11 72.5198 876.92 78.4702 865.02 92.9744L867.251 93.3463C878.78 78.8421 915.226 73.2636 933.821 71.4041L933.077 71.0322Z" fill="#4DAFFF"/>
<path d="M867.251 108.967L865.02 109.339C876.92 123.843 914.11 129.793 933.077 131.653L933.821 130.909C915.226 129.049 878.78 123.471 867.251 108.967Z" fill="#4DAFFF"/>
<path d="M1049.11 108.967C1037.21 123.471 1001.13 129.049 982.539 130.909L982.911 131.653C1002.25 129.793 1039.07 123.843 1051.34 109.339L1049.11 108.967Z" fill="#4DAFFF"/>
<path d="M957.995 222.768H955.02L955.391 226.859H958.367L957.995 222.768Z" fill="#4DAFFF"/>
<path d="M968.406 222.396H965.059L965.802 226.859H969.149L968.406 222.396Z" fill="#4DAFFF"/>
<path d="M978.449 222.024L975.102 222.396L976.589 226.487H979.564L978.449 222.024Z" fill="#4DAFFF"/>
<path d="M988.116 221.652L985.141 222.024L987 226.115L990.347 225.743L988.116 221.652Z" fill="#4DAFFF"/>
<path d="M998.159 221.28H994.812L997.416 225.371H1000.76L998.159 221.28Z" fill="#4DAFFF"/>
<path d="M847.54 214.586L841.59 218.305L844.565 218.677L850.516 214.958L847.54 214.586Z" fill="#4DAFFF"/>
<path d="M856.465 216.074L851.258 219.793L854.233 220.165L859.44 216.446L856.465 216.074Z" fill="#4DAFFF"/>
<path d="M865.76 217.189L860.926 221.28L864.273 221.652L868.736 217.561L865.76 217.189Z" fill="#4DAFFF"/>
<path d="M875.431 218.305L870.969 222.396L874.316 222.767L878.407 218.676L875.431 218.305Z" fill="#4DAFFF"/>
<path d="M884.73 219.421L881.383 223.512L884.358 223.884L888.077 219.793L884.73 219.421Z" fill="#4DAFFF"/>
<path d="M894.397 220.537L891.422 224.628H894.769L897.744 220.537H894.397Z" fill="#4DAFFF"/>
<path d="M904.439 221.28L901.836 225.371H905.183L907.414 221.28H904.439Z" fill="#4DAFFF"/>
<path d="M914.481 221.652L912.25 225.743L915.597 226.115L917.457 222.024L914.481 221.652Z" fill="#4DAFFF"/>
<path d="M924.152 222.024L922.664 226.487H926.011L927.499 222.396L924.152 222.024Z" fill="#4DAFFF"/>
<path d="M934.193 222.396L933.449 226.859H936.796L937.54 222.396H934.193Z" fill="#4DAFFF"/>
<path d="M944.234 222.768V226.859H947.21L947.582 222.768H944.234Z" fill="#4DAFFF"/>
<path d="M861.3 77.3555L827.457 86.653C830.928 87.8927 834.399 89.1323 837.87 90.372L868.366 79.9588C865.887 79.215 863.531 78.3472 861.3 77.3555Z" fill="#4DAFFF"/>
<path d="M920.802 90L907.785 103.388C910.017 103.636 912.124 103.884 914.108 104.132L924.521 90.3719C923.281 90.124 922.041 90 920.802 90Z" fill="#4DAFFF"/>
<path d="M787.664 49.834C787.416 52.8092 787.912 55.6604 789.151 58.3877L832.292 56.5282C831.548 54.2968 831.176 52.1894 831.176 50.2059L787.664 49.834Z" fill="#4DAFFF"/>
<path d="M905.554 88.1396L887.703 101.156C890.182 101.404 892.786 101.776 895.513 102.272L910.761 88.8834C909.025 88.6355 907.29 88.3876 905.554 88.1396Z" fill="#4DAFFF"/>
<path d="M913.365 89.2559L898.117 102.644C900.597 102.892 902.952 103.14 905.183 103.388L918.2 89.6278C916.464 89.3798 914.853 89.2559 913.365 89.2559Z" fill="#4DAFFF"/>
<path d="M852.373 73.6357L815.555 81.4456C818.778 82.9332 822.125 84.4209 825.596 85.9085L859.439 76.611C856.96 75.6192 854.604 74.6275 852.373 73.6357Z" fill="#4DAFFF"/>
<path d="M837.498 63.5938L795.473 67.6846C797.704 69.916 800.308 72.1474 803.283 74.3789L843.076 68.0565C840.845 66.5689 838.985 65.0814 837.498 63.5938Z" fill="#4DAFFF"/>
<path d="M844.191 68.8008L804.77 75.1231C807.497 77.1066 810.596 78.9661 814.067 80.7016L850.885 72.8917C848.406 71.652 846.175 70.2884 844.191 68.8008Z" fill="#4DAFFF"/>
<path d="M832.664 57.2715L789.523 59.5029C790.763 61.9823 792.499 64.4616 794.73 66.9409L836.755 62.85C835.019 61.1145 833.656 59.255 832.664 57.2715Z" fill="#4DAFFF"/>
<path d="M897.373 86.6523L876.547 99.2969C879.274 99.7928 882.125 100.289 885.101 100.785L903.324 87.7681C901.34 87.5201 899.357 87.1482 897.373 86.6523Z" fill="#4DAFFF"/>
<path d="M949.069 91.4863L946.094 105.619C947.085 105.619 948.077 105.619 949.069 105.619L950.557 91.4863C950.061 91.4863 949.565 91.4863 949.069 91.4863Z" fill="#4DAFFF"/>
<path d="M944.232 91.4863L939.77 105.619C941.009 105.619 942.125 105.619 943.117 105.619L946.092 91.4863C945.596 91.4863 944.976 91.4863 944.232 91.4863Z" fill="#4DAFFF"/>
<path d="M953.16 91.4863L951.672 105.619C952.664 105.619 953.531 105.619 954.275 105.619V91.4863C954.027 91.4863 953.655 91.4863 953.16 91.4863Z" fill="#4DAFFF"/>
<path d="M939.025 91.1152L932.703 105.247C933.943 105.247 935.306 105.371 936.794 105.619L941.629 91.1152C940.637 91.1152 939.769 91.1152 939.025 91.1152Z" fill="#4DAFFF"/>
<path d="M933.447 90.7432L925.266 104.875C926.753 104.875 928.365 104.999 930.1 105.247L936.423 91.1151C935.431 91.1151 934.439 90.9911 933.447 90.7432Z" fill="#4DAFFF"/>
<path d="M888.818 85.1641L864.645 97.0649C867.868 97.8087 870.967 98.4286 873.942 98.9244L895.14 86.2798C892.909 86.0318 890.802 85.6599 888.818 85.1641Z" fill="#4DAFFF"/>
<path d="M879.896 82.9336L852.375 94.4625C855.598 95.2063 858.945 95.9501 862.416 96.6939L886.59 84.7931C884.358 84.2972 882.127 83.6774 879.896 82.9336Z" fill="#4DAFFF"/>
<path d="M927.496 90.3711L916.711 104.503C918.694 104.503 920.554 104.627 922.289 104.875L930.843 90.743C929.603 90.743 928.488 90.619 927.496 90.3711Z" fill="#4DAFFF"/>
<path d="M870.597 80.7012L840.102 90.7425C843.325 91.7342 846.796 92.726 850.515 93.7177L877.664 82.5607C875.184 81.8169 872.829 81.197 870.597 80.7012Z" fill="#4DAFFF"/>
<path d="M1094.11 33.8418L1084.81 35.7013C1086.05 36.4451 1087.29 37.1889 1088.53 37.9327L1098.57 36.0732C1097.09 35.3294 1095.6 34.5856 1094.11 33.8418Z" fill="#4DAFFF"/>
<path d="M1082.58 28.6357L1073.66 30.8672C1075.14 31.363 1076.38 31.8589 1077.38 32.3548L1086.67 30.1234C1085.19 29.6275 1083.82 29.1316 1082.58 28.6357Z" fill="#4DAFFF"/>
<path d="M1088.16 30.8672L1079.23 33.0986C1080.47 33.5944 1081.71 34.2143 1082.95 34.9581L1092.62 33.0986C1091.14 32.3548 1089.65 31.611 1088.16 30.8672Z" fill="#4DAFFF"/>
<path d="M1105.27 40.5371L1095.23 42.0247C1096.71 43.0165 1098.08 44.0082 1099.32 45L1109.73 43.8843C1108.24 42.6446 1106.76 41.5288 1105.27 40.5371Z" fill="#4DAFFF"/>
<path d="M1099.69 36.8174L1090.02 38.6769C1091.51 39.4207 1092.87 40.2885 1094.11 41.2802L1104.15 39.7926C1102.91 38.8009 1101.42 37.8091 1099.69 36.8174Z" fill="#4DAFFF"/>
<path d="M1066.59 23.0566L1058.78 25.6599C1059.77 26.1558 1060.76 26.5277 1061.75 26.7756L1069.93 24.1724C1068.94 23.6765 1067.83 23.3046 1066.59 23.0566Z" fill="#4DAFFF"/>
<path d="M1061.75 21.5703L1054.32 24.5455C1055.31 24.7935 1056.18 25.0414 1056.92 25.2893L1064.73 22.3141C1063.74 22.0662 1062.75 21.8182 1061.75 21.5703Z" fill="#4DAFFF"/>
<path d="M1053.2 19.3379L1046.5 22.3131C1047 22.561 1047.5 22.809 1047.99 23.0569L1055.43 20.0817C1054.69 19.8337 1053.94 19.5858 1053.2 19.3379Z" fill="#4DAFFF"/>
<path d="M1110.47 44.627L1100.06 45.7427C1101.3 46.9823 1102.54 48.222 1103.78 49.4617L1114.19 48.346C1113.2 47.1063 1111.96 45.8666 1110.47 44.627Z" fill="#4DAFFF"/>
<path d="M1071.8 24.5449L1063.61 27.1482C1064.61 27.6441 1065.6 28.016 1066.59 28.2639L1075.14 25.6606C1073.9 25.4126 1072.79 25.0408 1071.8 24.5449Z" fill="#4DAFFF"/>
<path d="M1077 26.4043L1068.82 29.0076C1069.81 29.5035 1070.93 29.8754 1072.17 30.1233L1080.72 27.8919C1079.48 27.396 1078.24 26.9002 1077 26.4043Z" fill="#4DAFFF"/>
<path d="M1106.38 73.2637C1105.14 75.2471 1103.53 77.3546 1101.55 79.586L1111.96 80.7017C1114.19 78.4703 1116.05 76.2389 1117.54 74.0075L1106.38 73.2637Z" fill="#4DAFFF"/>
<path d="M1057.29 20.4541L1050.23 23.4293C1050.97 23.6773 1051.71 23.8012 1052.46 23.8012L1059.9 21.1979C1059.15 20.95 1058.28 20.702 1057.29 20.4541Z" fill="#4DAFFF"/>
<path d="M1109.36 66.5703C1108.86 68.5538 1108.12 70.5373 1107.12 72.5207L1117.91 72.8927C1119.15 70.9092 1120.02 68.9257 1120.51 66.9422L1109.36 66.5703Z" fill="#4DAFFF"/>
<path d="M1120.51 60.2471L1109.36 60.619C1109.6 62.3545 1109.6 64.09 1109.36 65.8256H1120.51C1120.76 64.09 1120.76 62.2305 1120.51 60.2471Z" fill="#4DAFFF"/>
<path d="M1090.39 87.7676C1086.42 89.999 1081.84 92.1064 1076.63 94.0899L1085.93 96.6932C1090.76 94.4618 1095.6 92.2304 1100.43 89.2552L1090.39 87.7676Z" fill="#4DAFFF"/>
<path d="M1100.43 80.3301C1097.95 82.5615 1094.98 84.7928 1091.51 87.0242L1101.55 88.5119C1105.27 86.2805 1108.49 83.9251 1111.22 81.4457L1100.43 80.3301Z" fill="#4DAFFF"/>
<path d="M1118.65 54.2969L1107.5 55.0407C1108.24 56.5283 1108.86 58.0159 1109.36 59.5035H1120.14C1119.89 57.7679 1119.4 56.0324 1118.65 54.2969Z" fill="#4DAFFF"/>
<path d="M1114.94 49.0898L1104.52 50.2056C1105.52 51.4452 1106.38 52.8089 1107.13 54.2965L1117.91 53.5526C1117.17 52.065 1116.18 50.5774 1114.94 49.0898Z" fill="#4DAFFF"/>
<path d="M1167 50.2061C1166.75 50.2061 1166.51 50.2061 1166.26 50.2061C1161.8 53.5532 1161.42 53.5531 1161.42 53.5531C1166.88 58.7598 1170.6 64.0903 1172.58 69.5449C1172.95 70.6606 1172.95 70.6606 1173.32 71.0325C1173.32 71.4044 1173.7 73.2639 1173.7 73.2639C1173.7 74.0077 1173.7 74.0077 1174.07 77.3548L1173.7 81.0738C1173.32 84.4209 1173.32 84.049 1172.95 84.4209L1172.58 85.5366C1172.58 85.5366 1172.95 85.5366 1179.28 88.1399C1172.21 104.504 1150.64 116.033 1134.28 122.727C1113.08 131.652 1089.28 137.975 1066.59 142.066C1056.18 140.95 1056.92 140.95 1056.18 141.322C1019.36 147.272 1030.89 142.809 1021.59 148.388C1021.22 148.76 1022.33 149.132 1023.08 149.132C1059.52 145.413 1102.29 137.603 1135.76 123.471C1146.18 123.099 1146.55 123.099 1146.92 122.727C1155.1 119.008 1158.82 116.776 1158.45 117.148C1171.09 110.082 1178.16 103.388 1178.16 103.388C1183.74 98.1813 1188.94 91.8589 1190.8 84.4209L1191.18 81.8176C1191.18 81.8176 1191.55 81.8176 1184.11 79.2143V77.3548L1183.74 73.6358L1182.99 70.2887L1181.51 66.5697C1178.53 60.6193 1176.67 58.3879 1170.72 52.4375C1168.12 50.2061 1168.12 50.2061 1167 50.2061Z" fill="#4DAFFF"/>
<path d="M749.731 43.5117C749.235 43.5117 748.863 43.5117 748.615 43.5117C742.293 47.6026 735.971 52.8092 731.508 58.3878C724.07 67.3134 721.466 76.9828 725.929 87.768C724.07 88.5118 721.094 89.6274 719.607 90.7431C719.235 90.7431 719.607 90.7431 720.351 92.6026L722.954 96.3216C724.441 98.1811 727.789 102.644 735.599 108.222C744.524 115.289 754.937 120.123 754.937 120.123C759.772 122.355 768.698 126.074 768.698 126.074C769.442 126.446 775.392 128.677 775.392 128.677C778.367 129.793 778.367 129.793 779.111 129.793C782.582 130.041 786.053 130.165 789.524 130.165C822.623 140.95 858.698 145.784 856.466 145.413C858.946 145.908 861.301 146.28 863.532 146.528C864.276 146.528 865.392 146.528 865.02 146.156C860.557 142.437 861.301 142.809 860.557 142.437C830.805 137.974 804.4 131.28 783.202 123.099C782.83 122.727 783.202 123.098 772.417 122.355C740.433 108.966 711.797 85.5365 733.367 58.7597C742.665 56.9002 742.665 57.2721 743.037 56.9002L745.268 54.2969C745.64 53.925 749.731 50.5778 749.359 50.9497C753.822 47.2307 754.565 47.2308 754.194 46.8589C750.103 43.5118 750.846 43.5117 749.731 43.5117Z" fill="#4DAFFF"/>
<path d="M942 1.85938C924.521 2.60318 920.43 2.60317 920.43 2.60317C891.05 4.09077 867.248 6.6941 845.306 10.4131C836.009 10.0412 836.752 10.0412 836.38 10.0412C810.719 14.8759 793.612 20.0825 793.612 20.4544C793.116 21.1982 792.744 22.066 792.496 23.0577C791.752 24.5453 791.381 24.9172 790.637 29.38C814.066 21.5701 830.058 18.223 830.058 18.223C855.348 12.6445 888.075 8.18168 927.868 6.32217C931.959 4.83457 932.703 4.83458 942 1.85938Z" fill="#4DAFFF"/>
<path d="M965.432 0C964.688 0 961.341 1.1157 957.994 1.8595C952.415 3.34711 951.672 3.34713 942.746 5.95044C992.953 5.57854 1040.93 8.92561 1090.02 21.1983C1094.85 21.1983 1095.6 21.1984 1109.73 21.5703C1082.21 13.7603 1056.92 8.5537 1022.7 5.20659C1019.73 3.71899 1017.5 2.97522 1017.5 2.97522C1016.75 2.60332 981.424 0 965.432 0Z" fill="#4DAFFF"/>
<path fill-rule="evenodd" clip-rule="evenodd" d="M944.978 161.404L944.234 166.982C914.854 166.61 886.589 164.007 857.953 158.8L865.391 153.594C891.796 158.428 918.201 161.032 944.978 161.404ZM942.746 162.148C915.97 161.776 889.565 158.8 866.507 154.71L860.928 158.429C887.333 163.263 915.598 165.867 942.003 166.238L942.746 162.148Z" fill="#4DAFFF"/>
<path d="M956.504 20.8262H954.645L955.016 22.6857H956.504V20.8262Z" fill="#4DAFFF"/>
<path d="M951.301 20.8262H949.441L950.185 23.0575L951.673 22.6857L951.301 20.8262Z" fill="#4DAFFF"/>
<path d="M946.094 20.8262H944.234L944.978 23.0575H946.838L946.094 20.8262Z" fill="#4DAFFF"/>
<path d="M940.886 21.1973H939.398L940.142 23.4287L941.63 23.0568L940.886 21.1973Z" fill="#4DAFFF"/>
<path d="M935.679 21.5703H934.191L935.307 23.4298H936.795L935.679 21.5703Z" fill="#4DAFFF"/>
<path d="M930.472 21.9414H928.984L930.472 23.8009H931.96L930.472 21.9414Z" fill="#4DAFFF"/>
<path d="M925.64 22.3135H924.152L925.64 24.5449L927.499 24.173L925.64 22.3135Z" fill="#4DAFFF"/>
<path d="M920.433 22.6855L918.945 23.0574L921.177 24.9169L922.664 24.5451L920.433 22.6855Z" fill="#4DAFFF"/>
<path d="M915.597 23.4297H914.109L916.341 25.2892H917.828L915.597 23.4297Z" fill="#4DAFFF"/>
<path d="M910.761 23.8008L909.273 24.1727L911.877 26.0322H913.364L910.761 23.8008Z" fill="#4DAFFF"/>
<path d="M905.928 24.5449L904.812 24.9168L907.416 26.7763L908.903 26.4044L905.928 24.5449Z" fill="#4DAFFF"/>
<path d="M1010.8 24.5449L1007.83 26.4044L1009.32 26.7763L1011.92 24.9168L1010.8 24.5449Z" fill="#4DAFFF"/>
<path d="M1005.97 23.8008L1003.37 26.0322H1004.85L1007.46 24.1727L1005.97 23.8008Z" fill="#4DAFFF"/>
<path d="M1001.13 23.4297L998.902 25.2892H1000.39L1002.62 23.4297H1001.13Z" fill="#4DAFFF"/>
<path d="M996.298 22.6855L994.066 24.5451L995.554 24.9169L997.785 23.0574L996.298 22.6855Z" fill="#4DAFFF"/>
<path d="M991.094 22.3135L989.234 24.173L991.094 24.5449L992.581 22.3135H991.094Z" fill="#4DAFFF"/>
<path d="M986.257 21.9414L984.77 23.8009H986.257L987.745 21.9414H986.257Z" fill="#4DAFFF"/>
<path d="M981.053 21.5703L979.938 23.4298H981.425L982.541 21.5703H981.053Z" fill="#4DAFFF"/>
<path d="M975.846 21.1973L974.73 23.0568L976.59 23.4287L977.334 21.1973H975.846Z" fill="#4DAFFF"/>
<path d="M970.638 20.8262L969.895 23.0575H971.754L972.126 20.8262H970.638Z" fill="#4DAFFF"/>
<path d="M965.43 20.8262L965.059 22.6857L966.546 23.0575L966.918 20.8262H965.43Z" fill="#4DAFFF"/>
<path d="M960.227 20.8262V22.6857H961.714V20.8262H960.227Z" fill="#4DAFFF"/>
<path d="M1208.89 159.808C1206.93 159.808 1205.34 161.397 1205.34 163.267C1205.34 165.23 1206.93 166.819 1208.89 166.819C1210.85 166.819 1212.44 165.23 1212.44 163.267C1212.44 161.397 1210.85 159.808 1208.89 159.808Z" fill="#00AEEF"/>
<path d="M1208.55 159.388C1210.52 159.388 1212.1 160.977 1212.1 162.847C1212.1 164.81 1210.52 166.4 1208.55 166.4C1206.59 166.4 1205 164.81 1205 162.847C1205 160.977 1206.59 159.388 1208.55 159.388Z" fill="#00AEEF"/>
<path d="M1565.54 178.412C1567.5 178.412 1569 176.823 1569 174.86C1569 172.896 1567.5 171.307 1565.54 171.307C1563.58 171.307 1561.99 172.896 1561.99 174.86C1561.99 176.823 1563.58 178.412 1565.54 178.412Z" fill="#00AEEF"/>
<path d="M1339.49 168.876H1301.63L1289.66 156.91H1217.49V155.975H1290.04L1302 167.941H1339.49V168.876Z" fill="#00AEEF"/>
<path d="M1339.3 171.961C1341.27 171.961 1342.76 170.372 1342.76 168.409C1342.76 166.446 1341.27 164.856 1339.3 164.856C1337.34 164.856 1335.75 166.446 1335.75 168.409C1335.75 170.372 1337.34 171.961 1339.3 171.961Z" fill="#00AEEF"/>
<path d="M1308.64 175.607H1291.16L1279.38 163.734H1208.7V162.799H1279.75L1291.53 174.672H1308.64V175.607Z" fill="#00AEEF"/>
<path d="M1423.63 158.966H1398.67L1388.39 148.683H1362.12L1354.17 156.629H1305.37V155.694H1353.8L1361.74 147.748H1388.76L1399.04 158.032H1423.63V158.966Z" fill="#00AEEF"/>
<path d="M1353.52 153.357H1305.37V147H1360.25L1353.52 153.357Z" fill="#00AEEF"/>
<path fill-rule="evenodd" clip-rule="evenodd" d="M1363.14 157.003H1355.2L1362.86 149.711H1370.81L1363.14 157.003ZM1357.53 156.069H1362.77L1368.38 150.74H1363.24L1357.53 156.069Z" fill="#00AEEF"/>
<path fill-rule="evenodd" clip-rule="evenodd" d="M1312.1 166.071H1304.25L1311.91 158.779H1319.77L1312.1 166.071ZM1306.59 165.136H1311.73L1317.43 159.714H1312.19L1306.59 165.136Z" fill="#00AEEF"/>
<path fill-rule="evenodd" clip-rule="evenodd" d="M1321.36 166.071H1313.5L1321.17 158.779H1329.02L1321.36 166.071ZM1315.84 165.136H1320.98L1326.68 159.714H1321.45L1315.84 165.136Z" fill="#00AEEF"/>
<path fill-rule="evenodd" clip-rule="evenodd" d="M1330.61 166.071H1322.76L1330.42 158.779H1338.28L1330.61 166.071ZM1325.09 165.136H1330.24L1335.94 159.714H1330.7L1325.09 165.136Z" fill="#00AEEF"/>
<path d="M1378.76 150.179H1387.54L1398.2 160.93H1436.25L1434.1 163.08H1403.25L1399.6 166.726H1395.02L1378.76 150.179Z" fill="#00AEEF"/>
<path d="M1218.33 155.227H1217.49V151.021H1218.33V155.227Z" fill="#00AEEF"/>
<path d="M1219.46 155.227H1218.61V151.021H1219.46V155.227Z" fill="#00AEEF"/>
<path d="M1220.48 155.227H1219.64V151.021H1220.48V155.227Z" fill="#00AEEF"/>
<path d="M1221.61 155.227H1220.76V151.021H1221.61V155.227Z" fill="#00AEEF"/>
<path d="M1222.63 155.227H1221.79V151.021H1222.63V155.227Z" fill="#00AEEF"/>
<path d="M1223.66 155.227H1222.91V151.021H1223.66V155.227Z" fill="#00AEEF"/>
<path d="M1224.78 155.227H1223.94V151.021H1224.78V155.227Z" fill="#00AEEF"/>
<path d="M1225.81 155.227H1225.06V151.021H1225.81V155.227Z" fill="#00AEEF"/>
<path d="M1226.93 155.227H1226.09V151.021H1226.93V155.227Z" fill="#00AEEF"/>
<path d="M1227.96 155.227H1227.21V151.021H1227.96V155.227Z" fill="#00AEEF"/>
<path d="M1229.08 155.227H1228.24V151.021H1229.08V155.227Z" fill="#00AEEF"/>
<path d="M1230.11 155.227H1229.27V151.021H1230.11V155.227Z" fill="#00AEEF"/>
<path d="M1231.23 155.227H1230.39V151.021H1231.23V155.227Z" fill="#00AEEF"/>
<path d="M1232.26 155.227H1231.42V151.021H1232.26V155.227Z" fill="#00AEEF"/>
<path d="M1233.38 155.227H1232.54V151.021H1233.38V155.227Z" fill="#00AEEF"/>
<path d="M1234.41 155.227H1233.57V151.021H1234.41V155.227Z" fill="#00AEEF"/>
<path d="M1235.53 155.227H1234.69V151.021H1235.53V155.227Z" fill="#00AEEF"/>
<path d="M1236.56 155.227H1235.72V151.021H1236.56V155.227Z" fill="#00AEEF"/>
<path d="M1237.59 155.227H1236.84V151.021H1237.59V155.227Z" fill="#00AEEF"/>
<path d="M1238.71 155.227H1237.87V151.021H1238.71V155.227Z" fill="#00AEEF"/>
<path d="M1239.74 155.227H1238.99V151.021H1239.74V155.227Z" fill="#00AEEF"/>
<path d="M1240.86 155.227H1240.02V151.021H1240.86V155.227Z" fill="#00AEEF"/>
<path d="M1241.89 155.227H1241.14V151.021H1241.89V155.227Z" fill="#00AEEF"/>
<path d="M1243.01 155.227H1242.17V151.021H1243.01V155.227Z" fill="#00AEEF"/>
<path d="M1244.04 155.227L1251.33 147.935H1290.32V150.179H1263.02L1258.06 155.134L1244.04 155.227Z" fill="#00AEEF"/>
<path d="M1426.62 158.499C1426.62 159.06 1426.15 159.434 1425.59 159.434C1425.03 159.434 1424.56 159.06 1424.56 158.499C1424.56 157.938 1425.03 157.471 1425.59 157.471C1426.15 157.471 1426.62 157.938 1426.62 158.499Z" fill="#00AEEF"/>
<path d="M1429.33 158.499C1429.33 159.06 1428.87 159.434 1428.3 159.434C1427.74 159.434 1427.28 159.06 1427.28 158.499C1427.28 157.938 1427.74 157.471 1428.3 157.471C1428.87 157.471 1429.33 157.938 1429.33 158.499Z" fill="#00AEEF"/>
<path d="M1432.04 158.499C1432.04 159.06 1431.57 159.434 1431.01 159.434C1430.45 159.434 1430.08 159.06 1430.08 158.499C1430.08 157.938 1430.45 157.471 1431.01 157.471C1431.57 157.471 1432.04 157.938 1432.04 158.499Z" fill="#00AEEF"/>
<path d="M1434.75 158.499C1434.75 159.06 1434.29 159.434 1433.73 159.434C1433.16 159.434 1432.79 159.06 1432.79 158.499C1432.79 157.938 1433.16 157.471 1433.73 157.471C1434.29 157.471 1434.75 157.938 1434.75 158.499Z" fill="#00AEEF"/>
<path d="M1445.32 168.876H1407.55V167.941H1444.94L1450.18 162.706H1482.99V163.641H1450.65L1445.32 168.876Z" fill="#00AEEF"/>
<path d="M1565.73 175.327H1528.15L1511.79 158.967H1441.39V158.032H1512.16L1528.61 174.392H1565.73V175.327Z" fill="#00AEEF"/>
<path d="M1519.9 174.805V172H1408L1411.74 174.805H1519.9Z" fill="#00AEEF"/>
<path d="M712.108 159.808C714.071 159.808 715.661 161.397 715.661 163.267C715.661 165.23 714.071 166.819 712.108 166.819C710.145 166.819 708.556 165.23 708.556 163.267C708.556 161.397 710.145 159.808 712.108 159.808Z" fill="#00AEEF"/>
<path d="M712.447 159.388C710.484 159.388 708.895 160.977 708.895 162.847C708.895 164.81 710.484 166.4 712.447 166.4C714.41 166.4 716 164.81 716 162.847C716 160.977 714.41 159.388 712.447 159.388Z" fill="#00AEEF"/>
<path d="M355.459 178.412C353.496 178.412 352 176.823 352 174.86C352 172.896 353.496 171.307 355.459 171.307C357.422 171.307 359.012 172.896 359.012 174.86C359.012 176.823 357.422 178.412 355.459 178.412Z" fill="#00AEEF"/>
<path d="M581.508 168.876H619.37L631.336 156.91H703.508V155.975H630.962L618.996 167.941H581.508V168.876Z" fill="#00AEEF"/>
<path d="M581.695 171.961C579.731 171.961 578.236 170.372 578.236 168.409C578.236 166.446 579.731 164.856 581.695 164.856C583.658 164.856 585.247 166.446 585.247 168.409C585.247 170.372 583.658 171.961 581.695 171.961Z" fill="#00AEEF"/>
<path d="M612.358 175.607H629.84L641.62 163.734H712.295V162.799H641.246L629.466 174.672H612.358V175.607Z" fill="#00AEEF"/>
<path d="M497.369 158.966H522.33L532.614 148.683H558.883L566.83 156.629H615.63V155.694H567.204L559.257 147.748H532.24L521.956 158.032H497.369V158.966Z" fill="#00AEEF"/>
<path d="M567.484 153.357H615.63V147H560.753L567.484 153.357Z" fill="#00AEEF"/>
<path fill-rule="evenodd" clip-rule="evenodd" d="M557.857 157.003H565.803L558.137 149.711H550.191L557.857 157.003ZM563.466 156.069H558.231L552.622 150.74H557.763L563.466 156.069Z" fill="#00AEEF"/>
<path fill-rule="evenodd" clip-rule="evenodd" d="M608.899 166.071H616.751L609.086 158.779H601.233L608.899 166.071ZM614.414 165.136H609.273L603.57 159.714H608.805L614.414 165.136Z" fill="#00AEEF"/>
<path fill-rule="evenodd" clip-rule="evenodd" d="M599.644 166.071H607.497L599.831 158.779H591.978L599.644 166.071ZM605.159 165.136H600.018L594.315 159.714H599.55L605.159 165.136Z" fill="#00AEEF"/>
<path fill-rule="evenodd" clip-rule="evenodd" d="M590.389 166.071H598.242L590.576 158.779H582.723L590.389 166.071ZM595.905 165.136H590.763L585.061 159.714H590.296L595.905 165.136Z" fill="#00AEEF"/>
<path d="M542.243 150.179H533.455L522.797 160.93H484.748L486.899 163.08H517.749L521.395 166.726H525.976L542.243 150.179Z" fill="#00AEEF"/>
<path d="M702.666 155.227H703.508V151.021H702.666V155.227Z" fill="#00AEEF"/>
<path d="M701.544 155.227H702.386V151.021H701.544V155.227Z" fill="#00AEEF"/>
<path d="M700.517 155.227H701.358V151.021H700.517V155.227Z" fill="#00AEEF"/>
<path d="M699.394 155.227H700.236V151.021H699.394V155.227Z" fill="#00AEEF"/>
<path d="M698.366 155.227H699.208V151.021H698.366V155.227Z" fill="#00AEEF"/>
<path d="M697.338 155.227H698.085V151.021H697.338V155.227Z" fill="#00AEEF"/>
<path d="M696.216 155.227H697.057V151.021H696.216V155.227Z" fill="#00AEEF"/>
<path d="M695.187 155.227H695.935V151.021H695.187V155.227Z" fill="#00AEEF"/>
<path d="M694.065 155.227H694.907V151.021H694.065V155.227Z" fill="#00AEEF"/>
<path d="M693.037 155.227H693.785V151.021H693.037V155.227Z" fill="#00AEEF"/>
<path d="M691.915 155.227H692.756V151.021H691.915V155.227Z" fill="#00AEEF"/>
<path d="M690.887 155.227H691.729V151.021H690.887V155.227Z" fill="#00AEEF"/>
<path d="M689.765 155.227H690.606V151.021H689.765V155.227Z" fill="#00AEEF"/>
<path d="M688.737 155.227H689.578V151.021H688.737V155.227Z" fill="#00AEEF"/>
<path d="M687.615 155.227H688.456V151.021H687.615V155.227Z" fill="#00AEEF"/>
<path d="M686.586 155.227H687.428V151.021H686.586V155.227Z" fill="#00AEEF"/>
<path d="M685.465 155.227H686.306V151.021H685.465V155.227Z" fill="#00AEEF"/>
<path d="M684.436 155.227H685.278V151.021H684.436V155.227Z" fill="#00AEEF"/>
<path d="M683.409 155.227H684.157V151.021H683.409V155.227Z" fill="#00AEEF"/>
<path d="M682.286 155.227H683.127V151.021H682.286V155.227Z" fill="#00AEEF"/>
<path d="M681.258 155.227H682.006V151.021H681.258V155.227Z" fill="#00AEEF"/>
<path d="M680.136 155.227H680.977V151.021H680.136V155.227Z" fill="#00AEEF"/>
<path d="M679.108 155.227H679.856V151.021H679.108V155.227Z" fill="#00AEEF"/>
<path d="M677.985 155.227H678.827V151.021H677.985V155.227Z" fill="#00AEEF"/>
<path d="M676.958 155.227L669.666 147.935H630.682V150.179H657.98L662.935 155.134L676.958 155.227Z" fill="#00AEEF"/>
<path d="M494.38 158.499C494.38 159.06 494.847 159.434 495.408 159.434C495.969 159.434 496.437 159.06 496.437 158.499C496.437 157.938 495.969 157.471 495.408 157.471C494.847 157.471 494.38 157.938 494.38 158.499Z" fill="#00AEEF"/>
<path d="M491.667 158.499C491.667 159.06 492.134 159.434 492.695 159.434C493.256 159.434 493.724 159.06 493.724 158.499C493.724 157.938 493.256 157.471 492.695 157.471C492.134 157.471 491.667 157.938 491.667 158.499Z" fill="#00AEEF"/>
<path d="M488.958 158.499C488.958 159.06 489.426 159.434 489.987 159.434C490.547 159.434 490.921 159.06 490.921 158.499C490.921 157.938 490.547 157.471 489.987 157.471C489.426 157.471 488.958 157.938 488.958 158.499Z" fill="#00AEEF"/>
<path d="M486.245 158.499C486.245 159.06 486.713 159.434 487.274 159.434C487.835 159.434 488.208 159.06 488.208 158.499C488.208 157.938 487.835 157.471 487.274 157.471C486.713 157.471 486.245 157.938 486.245 158.499Z" fill="#00AEEF"/>
<path d="M475.681 168.876H513.45V167.941H476.055L470.82 162.706H438.006V163.641H470.352L475.681 168.876Z" fill="#00AEEF"/>
<path d="M355.272 175.327H392.854L409.214 158.967H479.609V158.032H408.84L392.386 174.392H355.272V175.327Z" fill="#00AEEF"/>
<path d="M401.096 174.805V172H513L509.26 174.805H401.096Z" fill="#00AEEF"/>
</svg>
