<svg width="405" height="78" viewBox="0 0 405 78" fill="none" xmlns="http://www.w3.org/2000/svg">
<g clip-path="url(#clip0_888_46879)">
<path d="M309.721 79.3629L302.262 79.6119L329.347 3.66588L336.806 3.41683L309.721 79.3629Z" fill="#D4D4D4"/>
<path d="M42.7009 77.8392H35.0496L65.3982 2.83923H73.0496L42.7009 77.8392Z" fill="#AA0101"/>
<path d="M5.87134 77.8392H-32.9504V77.0389H5.28126L38.0752 2.83923H72.0496V3.63954H38.6654L5.87134 77.8392Z" fill="#AA0101"/>
<path d="M330.1 2.67908H336.951L309.778 77.9995H302.927L330.1 2.67908Z" fill="#AA0101"/>
<path fill-rule="evenodd" clip-rule="evenodd" d="M401.9 0C403.622 0 405 1.37781 405 3.10008C405 4.82234 403.622 6.20016 401.9 6.20016C400.216 6.20016 398.8 4.82234 398.8 3.10008C398.8 1.37781 400.216 0 401.9 0ZM401.9 5.39643C403.163 5.39643 404.196 4.36307 404.196 3.10008C404.196 1.83708 403.163 0.803726 401.9 0.803726C400.637 0.803726 399.642 1.83708 399.642 3.10008C399.642 4.36307 400.637 5.39643 401.9 5.39643Z" fill="#AA0101"/>
<path d="M401.02 3.10006C401.02 2.60251 401.402 2.18152 401.9 2.18152C402.397 2.18152 402.818 2.60251 402.818 3.10006C402.818 3.5976 402.397 3.98033 401.9 3.98033C401.402 3.98033 401.02 3.5976 401.02 3.10006Z" fill="white"/>
<path d="M363.704 2.67908H398.915V3.4828H364.24L334.464 77.9995H303.578V77.1957H333.89L363.704 2.67908Z" fill="#AA0101"/>
<path opacity="0.2" d="M220.405 2.83923H79.599L49.0496 77.8392H220.405H294.5L325.05 2.83923H220.405Z" fill="#9A0000"/>
<mask id="path-9-inside-1_888_46879" fill="white">
<path d="M100.61 38.1599C100.816 38.1599 100.963 38.0126 100.963 37.8063V33.2096C100.963 33.0033 100.816 32.856 100.61 32.856H80.1011C79.8948 32.856 79.7475 33.0033 79.7475 33.2096V34.4766C79.7475 34.565 79.777 34.6534 79.8654 34.7418L81.3976 36.2741C81.486 36.3625 81.5155 36.4509 81.5155 36.5393V37.8063C81.5155 38.0126 81.6628 38.1599 81.8691 38.1599H100.61ZM77.9795 46.6462V29.6736C77.9795 29.4674 78.1269 29.32 78.3331 29.32H100.226C100.698 29.32 101.14 29.4968 101.494 29.8504L103.969 32.3256C104.322 32.6792 104.499 33.1212 104.499 33.5926V37.4232C104.499 37.8947 104.322 38.3367 103.969 38.6903L101.494 40.8708C101.14 41.2244 100.698 41.4012 100.226 41.4012H97.1031C96.9263 41.4012 96.8674 41.6664 97.0441 41.7548L104.263 44.613C104.411 44.6719 104.499 44.7898 104.499 44.9371V46.6462C104.499 46.8524 104.352 46.9998 104.146 46.9998H101.11C101.022 46.9998 100.904 46.9703 100.816 46.9408L88.499 41.4601C88.4106 41.4306 88.3222 41.4012 88.2338 41.4012H81.8691C81.6628 41.4012 81.5155 41.5485 81.5155 41.7548V46.6462C81.5155 46.8524 81.3681 46.9998 81.1619 46.9998H78.3331C78.1269 46.9998 77.9795 46.8524 77.9795 46.6462ZM135.452 32.5024C135.452 32.7087 135.305 32.856 135.099 32.856H111.054C110.848 32.856 110.701 33.0033 110.701 33.2096V34.4766C110.701 34.565 110.73 34.6534 110.819 34.7418L112.351 36.2741C112.439 36.3625 112.528 36.3919 112.616 36.3919H133.331C133.537 36.3919 133.684 36.5393 133.684 36.7455V39.5743C133.684 39.7805 133.537 39.9279 133.331 39.9279H111.054C110.848 39.9279 110.701 40.0752 110.701 40.2815V41.5485C110.701 41.6369 110.73 41.7253 110.819 41.8137L112.351 43.3459C112.439 43.4343 112.528 43.4638 112.616 43.4638H135.099C135.305 43.4638 135.452 43.6111 135.452 43.8174V46.6462C135.452 46.8524 135.305 46.9998 135.099 46.9998H109.286C109.08 46.9998 108.933 46.8524 108.933 46.6462V29.6736C108.933 29.4674 109.08 29.32 109.286 29.32H135.099C135.305 29.32 135.452 29.4674 135.452 29.6736V32.5024ZM144.159 46.9998C143.687 46.9998 143.245 46.823 142.892 46.4694L140.417 43.9942C140.063 43.6406 139.886 43.1986 139.886 42.7272V33.5926C139.886 33.1212 140.063 32.6792 140.417 32.3256L142.892 29.8504C143.245 29.4968 143.687 29.32 144.159 29.32H166.052C166.258 29.32 166.406 29.4674 166.406 29.6736V34.2704C166.406 34.4766 166.258 34.624 166.052 34.624H164.785C164.697 34.624 164.608 34.5945 164.52 34.5061L162.988 32.9738C162.899 32.8854 162.811 32.856 162.722 32.856H143.776C143.569 32.856 143.422 33.0033 143.422 33.2096V43.1102C143.422 43.3165 143.569 43.4638 143.776 43.4638H162.516C162.722 43.4638 162.87 43.3165 162.87 43.1102V38.5135C162.87 38.3072 162.722 38.1599 162.516 38.1599H157.713C157.625 38.1599 157.536 38.1894 157.448 38.2778L155.916 39.81C155.827 39.8984 155.739 39.9279 155.651 39.9279H147.312C147.105 39.9279 146.958 39.7805 146.958 39.5743V36.7455C146.958 36.5393 147.105 36.3919 147.312 36.3919H166.052C166.258 36.3919 166.406 36.5393 166.406 36.7455V43.3165C166.406 43.4049 166.376 43.4933 166.288 43.5817L162.988 46.8819C162.899 46.9703 162.811 46.9998 162.722 46.9998H144.159ZM174.022 46.9998H171.193C170.987 46.9998 170.839 46.8524 170.839 46.6462V29.6736C170.839 29.4674 170.987 29.32 171.193 29.32H174.022C174.228 29.32 174.375 29.4674 174.375 29.6736V46.6462C174.375 46.8524 174.228 46.9998 174.022 46.9998ZM204.79 39.3975C205.144 39.7511 205.321 40.1931 205.321 40.6645V42.7272C205.321 43.1986 205.144 43.6406 204.79 43.9942L202.315 46.4694C201.962 46.823 201.52 46.9998 201.048 46.9998H180.039C179.832 46.9998 179.685 46.8524 179.685 46.6462V42.0494C179.685 41.8432 179.832 41.6958 180.039 41.6958H181.306C181.394 41.6958 181.483 41.7253 181.571 41.8137L183.103 43.3459C183.192 43.4343 183.28 43.4638 183.368 43.4638H201.431C201.637 43.4638 201.785 43.3165 201.785 43.1102V40.2815C201.785 40.0752 201.637 39.9279 201.431 39.9279H183.074C182.602 39.9279 182.16 39.7511 181.807 39.3975L179.331 36.9223C178.978 36.5687 178.801 36.1267 178.801 35.6553V33.5926C178.801 33.1212 178.978 32.6792 179.331 32.3256L181.807 29.8504C182.16 29.4968 182.602 29.32 183.074 29.32H204.083C204.289 29.32 204.437 29.4674 204.437 29.6736V34.2704C204.437 34.4766 204.289 34.624 204.083 34.624H202.816C202.728 34.624 202.639 34.5945 202.551 34.5061L201.019 32.9738C200.93 32.8854 200.842 32.856 200.753 32.856H182.691C182.484 32.856 182.337 33.0033 182.337 33.2096V36.0383C182.337 36.2446 182.484 36.3919 182.691 36.3919H201.048C201.52 36.3919 201.962 36.5687 202.315 36.9223L204.79 39.3975ZM235.094 32.9444C235.094 33.1506 234.947 33.298 234.741 33.298H227.286C227.197 33.298 227.109 33.2685 227.02 33.1801L225.488 31.6479C225.4 31.5595 225.311 31.53 225.223 31.53H223.956C223.75 31.53 223.602 31.6773 223.602 31.8836V46.6462C223.602 46.8524 223.455 46.9998 223.249 46.9998H220.42C220.214 46.9998 220.066 46.8524 220.066 46.6462V31.8836C220.066 31.6773 219.919 31.53 219.713 31.53H218.446C218.357 31.53 218.269 31.5595 218.181 31.6479L216.648 33.1801C216.56 33.2685 216.472 33.298 216.383 33.298H208.928C208.722 33.298 208.575 33.1506 208.575 32.9444V29.6736C208.575 29.4674 208.722 29.32 208.928 29.32H234.741C234.947 29.32 235.094 29.4674 235.094 29.6736V32.9444ZM266.047 32.5024C266.047 32.7087 265.9 32.856 265.694 32.856H241.649C241.443 32.856 241.296 33.0033 241.296 33.2096V34.4766C241.296 34.565 241.325 34.6534 241.414 34.7418L242.946 36.2741C243.034 36.3625 243.123 36.3919 243.211 36.3919H263.926C264.132 36.3919 264.28 36.5393 264.28 36.7455V39.5743C264.28 39.7805 264.132 39.9279 263.926 39.9279H241.649C241.443 39.9279 241.296 40.0752 241.296 40.2815V41.5485C241.296 41.6369 241.325 41.7253 241.414 41.8137L242.946 43.3459C243.034 43.4343 243.123 43.4638 243.211 43.4638H265.694C265.9 43.4638 266.047 43.6111 266.047 43.8174V46.6462C266.047 46.8524 265.9 46.9998 265.694 46.9998H239.882C239.675 46.9998 239.528 46.8524 239.528 46.6462V29.6736C239.528 29.4674 239.675 29.32 239.882 29.32H265.694C265.9 29.32 266.047 29.4674 266.047 29.6736V32.5024ZM293.111 38.1599C293.318 38.1599 293.465 38.0126 293.465 37.8063V33.2096C293.465 33.0033 293.318 32.856 293.111 32.856H272.603C272.397 32.856 272.249 33.0033 272.249 33.2096V34.4766C272.249 34.565 272.279 34.6534 272.367 34.7418L273.899 36.2741C273.988 36.3625 274.017 36.4509 274.017 36.5393V37.8063C274.017 38.0126 274.165 38.1599 274.371 38.1599H293.111ZM270.481 46.6462V29.6736C270.481 29.4674 270.629 29.32 270.835 29.32H292.728C293.2 29.32 293.642 29.4968 293.995 29.8504L296.47 32.3256C296.824 32.6792 297.001 33.1212 297.001 33.5926V37.4232C297.001 37.8947 296.824 38.3367 296.47 38.6903L293.995 40.8708C293.642 41.2244 293.2 41.4012 292.728 41.4012H289.605C289.428 41.4012 289.369 41.6664 289.546 41.7548L296.765 44.613C296.912 44.6719 297.001 44.7898 297.001 44.9371V46.6462C297.001 46.8524 296.853 46.9998 296.647 46.9998H293.612C293.524 46.9998 293.406 46.9703 293.318 46.9408L281.001 41.4601C280.912 41.4306 280.824 41.4012 280.735 41.4012H274.371C274.165 41.4012 274.017 41.5485 274.017 41.7548V46.6462C274.017 46.8524 273.87 46.9998 273.664 46.9998H270.835C270.629 46.9998 270.481 46.8524 270.481 46.6462Z"/>
</mask>
<path d="M100.61 38.1599C100.816 38.1599 100.963 38.0126 100.963 37.8063V33.2096C100.963 33.0033 100.816 32.856 100.61 32.856H80.1011C79.8948 32.856 79.7475 33.0033 79.7475 33.2096V34.4766C79.7475 34.565 79.777 34.6534 79.8654 34.7418L81.3976 36.2741C81.486 36.3625 81.5155 36.4509 81.5155 36.5393V37.8063C81.5155 38.0126 81.6628 38.1599 81.8691 38.1599H100.61ZM77.9795 46.6462V29.6736C77.9795 29.4674 78.1269 29.32 78.3331 29.32H100.226C100.698 29.32 101.14 29.4968 101.494 29.8504L103.969 32.3256C104.322 32.6792 104.499 33.1212 104.499 33.5926V37.4232C104.499 37.8947 104.322 38.3367 103.969 38.6903L101.494 40.8708C101.14 41.2244 100.698 41.4012 100.226 41.4012H97.1031C96.9263 41.4012 96.8674 41.6664 97.0441 41.7548L104.263 44.613C104.411 44.6719 104.499 44.7898 104.499 44.9371V46.6462C104.499 46.8524 104.352 46.9998 104.146 46.9998H101.11C101.022 46.9998 100.904 46.9703 100.816 46.9408L88.499 41.4601C88.4106 41.4306 88.3222 41.4012 88.2338 41.4012H81.8691C81.6628 41.4012 81.5155 41.5485 81.5155 41.7548V46.6462C81.5155 46.8524 81.3681 46.9998 81.1619 46.9998H78.3331C78.1269 46.9998 77.9795 46.8524 77.9795 46.6462ZM135.452 32.5024C135.452 32.7087 135.305 32.856 135.099 32.856H111.054C110.848 32.856 110.701 33.0033 110.701 33.2096V34.4766C110.701 34.565 110.73 34.6534 110.819 34.7418L112.351 36.2741C112.439 36.3625 112.528 36.3919 112.616 36.3919H133.331C133.537 36.3919 133.684 36.5393 133.684 36.7455V39.5743C133.684 39.7805 133.537 39.9279 133.331 39.9279H111.054C110.848 39.9279 110.701 40.0752 110.701 40.2815V41.5485C110.701 41.6369 110.73 41.7253 110.819 41.8137L112.351 43.3459C112.439 43.4343 112.528 43.4638 112.616 43.4638H135.099C135.305 43.4638 135.452 43.6111 135.452 43.8174V46.6462C135.452 46.8524 135.305 46.9998 135.099 46.9998H109.286C109.08 46.9998 108.933 46.8524 108.933 46.6462V29.6736C108.933 29.4674 109.08 29.32 109.286 29.32H135.099C135.305 29.32 135.452 29.4674 135.452 29.6736V32.5024ZM144.159 46.9998C143.687 46.9998 143.245 46.823 142.892 46.4694L140.417 43.9942C140.063 43.6406 139.886 43.1986 139.886 42.7272V33.5926C139.886 33.1212 140.063 32.6792 140.417 32.3256L142.892 29.8504C143.245 29.4968 143.687 29.32 144.159 29.32H166.052C166.258 29.32 166.406 29.4674 166.406 29.6736V34.2704C166.406 34.4766 166.258 34.624 166.052 34.624H164.785C164.697 34.624 164.608 34.5945 164.52 34.5061L162.988 32.9738C162.899 32.8854 162.811 32.856 162.722 32.856H143.776C143.569 32.856 143.422 33.0033 143.422 33.2096V43.1102C143.422 43.3165 143.569 43.4638 143.776 43.4638H162.516C162.722 43.4638 162.87 43.3165 162.87 43.1102V38.5135C162.87 38.3072 162.722 38.1599 162.516 38.1599H157.713C157.625 38.1599 157.536 38.1894 157.448 38.2778L155.916 39.81C155.827 39.8984 155.739 39.9279 155.651 39.9279H147.312C147.105 39.9279 146.958 39.7805 146.958 39.5743V36.7455C146.958 36.5393 147.105 36.3919 147.312 36.3919H166.052C166.258 36.3919 166.406 36.5393 166.406 36.7455V43.3165C166.406 43.4049 166.376 43.4933 166.288 43.5817L162.988 46.8819C162.899 46.9703 162.811 46.9998 162.722 46.9998H144.159ZM174.022 46.9998H171.193C170.987 46.9998 170.839 46.8524 170.839 46.6462V29.6736C170.839 29.4674 170.987 29.32 171.193 29.32H174.022C174.228 29.32 174.375 29.4674 174.375 29.6736V46.6462C174.375 46.8524 174.228 46.9998 174.022 46.9998ZM204.79 39.3975C205.144 39.7511 205.321 40.1931 205.321 40.6645V42.7272C205.321 43.1986 205.144 43.6406 204.79 43.9942L202.315 46.4694C201.962 46.823 201.52 46.9998 201.048 46.9998H180.039C179.832 46.9998 179.685 46.8524 179.685 46.6462V42.0494C179.685 41.8432 179.832 41.6958 180.039 41.6958H181.306C181.394 41.6958 181.483 41.7253 181.571 41.8137L183.103 43.3459C183.192 43.4343 183.28 43.4638 183.368 43.4638H201.431C201.637 43.4638 201.785 43.3165 201.785 43.1102V40.2815C201.785 40.0752 201.637 39.9279 201.431 39.9279H183.074C182.602 39.9279 182.16 39.7511 181.807 39.3975L179.331 36.9223C178.978 36.5687 178.801 36.1267 178.801 35.6553V33.5926C178.801 33.1212 178.978 32.6792 179.331 32.3256L181.807 29.8504C182.16 29.4968 182.602 29.32 183.074 29.32H204.083C204.289 29.32 204.437 29.4674 204.437 29.6736V34.2704C204.437 34.4766 204.289 34.624 204.083 34.624H202.816C202.728 34.624 202.639 34.5945 202.551 34.5061L201.019 32.9738C200.93 32.8854 200.842 32.856 200.753 32.856H182.691C182.484 32.856 182.337 33.0033 182.337 33.2096V36.0383C182.337 36.2446 182.484 36.3919 182.691 36.3919H201.048C201.52 36.3919 201.962 36.5687 202.315 36.9223L204.79 39.3975ZM235.094 32.9444C235.094 33.1506 234.947 33.298 234.741 33.298H227.286C227.197 33.298 227.109 33.2685 227.02 33.1801L225.488 31.6479C225.4 31.5595 225.311 31.53 225.223 31.53H223.956C223.75 31.53 223.602 31.6773 223.602 31.8836V46.6462C223.602 46.8524 223.455 46.9998 223.249 46.9998H220.42C220.214 46.9998 220.066 46.8524 220.066 46.6462V31.8836C220.066 31.6773 219.919 31.53 219.713 31.53H218.446C218.357 31.53 218.269 31.5595 218.181 31.6479L216.648 33.1801C216.56 33.2685 216.472 33.298 216.383 33.298H208.928C208.722 33.298 208.575 33.1506 208.575 32.9444V29.6736C208.575 29.4674 208.722 29.32 208.928 29.32H234.741C234.947 29.32 235.094 29.4674 235.094 29.6736V32.9444ZM266.047 32.5024C266.047 32.7087 265.9 32.856 265.694 32.856H241.649C241.443 32.856 241.296 33.0033 241.296 33.2096V34.4766C241.296 34.565 241.325 34.6534 241.414 34.7418L242.946 36.2741C243.034 36.3625 243.123 36.3919 243.211 36.3919H263.926C264.132 36.3919 264.28 36.5393 264.28 36.7455V39.5743C264.28 39.7805 264.132 39.9279 263.926 39.9279H241.649C241.443 39.9279 241.296 40.0752 241.296 40.2815V41.5485C241.296 41.6369 241.325 41.7253 241.414 41.8137L242.946 43.3459C243.034 43.4343 243.123 43.4638 243.211 43.4638H265.694C265.9 43.4638 266.047 43.6111 266.047 43.8174V46.6462C266.047 46.8524 265.9 46.9998 265.694 46.9998H239.882C239.675 46.9998 239.528 46.8524 239.528 46.6462V29.6736C239.528 29.4674 239.675 29.32 239.882 29.32H265.694C265.9 29.32 266.047 29.4674 266.047 29.6736V32.5024ZM293.111 38.1599C293.318 38.1599 293.465 38.0126 293.465 37.8063V33.2096C293.465 33.0033 293.318 32.856 293.111 32.856H272.603C272.397 32.856 272.249 33.0033 272.249 33.2096V34.4766C272.249 34.565 272.279 34.6534 272.367 34.7418L273.899 36.2741C273.988 36.3625 274.017 36.4509 274.017 36.5393V37.8063C274.017 38.0126 274.165 38.1599 274.371 38.1599H293.111ZM270.481 46.6462V29.6736C270.481 29.4674 270.629 29.32 270.835 29.32H292.728C293.2 29.32 293.642 29.4968 293.995 29.8504L296.47 32.3256C296.824 32.6792 297.001 33.1212 297.001 33.5926V37.4232C297.001 37.8947 296.824 38.3367 296.47 38.6903L293.995 40.8708C293.642 41.2244 293.2 41.4012 292.728 41.4012H289.605C289.428 41.4012 289.369 41.6664 289.546 41.7548L296.765 44.613C296.912 44.6719 297.001 44.7898 297.001 44.9371V46.6462C297.001 46.8524 296.853 46.9998 296.647 46.9998H293.612C293.524 46.9998 293.406 46.9703 293.318 46.9408L281.001 41.4601C280.912 41.4306 280.824 41.4012 280.735 41.4012H274.371C274.165 41.4012 274.017 41.5485 274.017 41.7548V46.6462C274.017 46.8524 273.87 46.9998 273.664 46.9998H270.835C270.629 46.9998 270.481 46.8524 270.481 46.6462Z" fill="white"/>
<path d="M79.8654 34.7418L79.5825 35.0247L79.5825 35.0247L79.8654 34.7418ZM81.3976 36.2741L81.1148 36.5569L81.1148 36.5569L81.3976 36.2741ZM103.969 32.3256L104.252 32.0427V32.0427L103.969 32.3256ZM103.969 38.6903L104.233 38.9904L104.243 38.9821L104.252 38.9731L103.969 38.6903ZM101.494 40.8708L101.229 40.5706L101.22 40.579L101.211 40.5879L101.494 40.8708ZM97.0441 41.7548L96.8653 42.1125L96.8808 42.1203L96.8969 42.1267L97.0441 41.7548ZM104.263 44.613L104.412 44.2416L104.411 44.2411L104.263 44.613ZM100.816 46.9408L100.653 47.3063L100.671 47.3142L100.689 47.3203L100.816 46.9408ZM88.499 41.4601L88.6616 41.0947L88.6438 41.0868L88.6254 41.0806L88.499 41.4601ZM100.61 38.1599V38.5599C101.037 38.5599 101.363 38.2335 101.363 37.8063H100.963H100.563C100.563 37.81 100.563 37.8074 100.565 37.8007C100.568 37.7939 100.573 37.7855 100.581 37.7776C100.589 37.7697 100.597 37.7647 100.604 37.762C100.611 37.7593 100.613 37.7599 100.61 37.7599V38.1599ZM100.963 37.8063H101.363V33.2096H100.963H100.563V37.8063H100.963ZM100.963 33.2096H101.363C101.363 32.7824 101.037 32.456 100.61 32.456V32.856V33.256C100.613 33.256 100.611 33.2566 100.604 33.2539C100.597 33.2512 100.589 33.2462 100.581 33.2383C100.573 33.2304 100.568 33.222 100.565 33.2152C100.563 33.2085 100.563 33.2059 100.563 33.2096H100.963ZM100.61 32.856V32.456H80.1011V32.856V33.256H100.61V32.856ZM80.1011 32.856V32.456C79.6739 32.456 79.3475 32.7824 79.3475 33.2096H79.7475H80.1475C80.1475 33.2059 80.1481 33.2085 80.1454 33.2152C80.1427 33.222 80.1377 33.2304 80.1298 33.2383C80.1219 33.2462 80.1135 33.2512 80.1067 33.2539C80.1 33.2566 80.0974 33.256 80.1011 33.256V32.856ZM79.7475 33.2096H79.3475V34.4766H79.7475H80.1475V33.2096H79.7475ZM79.7475 34.4766H79.3475C79.3475 34.6723 79.42 34.8621 79.5825 35.0247L79.8654 34.7418L80.1482 34.459C80.1418 34.4526 80.1394 34.4492 80.1393 34.4489C80.1392 34.4488 80.1407 34.451 80.1425 34.4554C80.1444 34.4598 80.1458 34.4646 80.1466 34.4692C80.1475 34.4737 80.1475 34.4764 80.1475 34.4766H79.7475ZM79.8654 34.7418L79.5825 35.0247L81.1148 36.5569L81.3976 36.2741L81.6804 35.9912L80.1482 34.459L79.8654 34.7418ZM81.3976 36.2741L81.1148 36.5569C81.1211 36.5633 81.1235 36.5667 81.1237 36.567C81.1238 36.5671 81.1223 36.5649 81.1205 36.5605C81.1186 36.5561 81.1172 36.5513 81.1163 36.5467C81.1155 36.5422 81.1155 36.5395 81.1155 36.5393H81.5155H81.9155C81.9155 36.3436 81.843 36.1538 81.6804 35.9912L81.3976 36.2741ZM81.5155 36.5393H81.1155V37.8063H81.5155H81.9155V36.5393H81.5155ZM81.5155 37.8063H81.1155C81.1155 38.2335 81.4419 38.5599 81.8691 38.5599V38.1599V37.7599C81.8654 37.7599 81.8679 37.7593 81.8747 37.762C81.8815 37.7647 81.8899 37.7697 81.8978 37.7776C81.9056 37.7855 81.9107 37.7939 81.9134 37.8007C81.916 37.8074 81.9155 37.81 81.9155 37.8063H81.5155ZM81.8691 38.1599V38.5599H100.61V38.1599V37.7599H81.8691V38.1599ZM77.9795 46.6462H78.3795V29.6736H77.9795H77.5795V46.6462H77.9795ZM77.9795 29.6736H78.3795C78.3795 29.67 78.3801 29.6725 78.3774 29.6792C78.3747 29.686 78.3697 29.6944 78.3618 29.7023C78.3539 29.7102 78.3455 29.7152 78.3387 29.7179C78.332 29.7206 78.3294 29.72 78.3331 29.72V29.32V28.92C77.9059 28.92 77.5795 29.2465 77.5795 29.6736H77.9795ZM78.3331 29.32V29.72H100.226V29.32V28.92H78.3331V29.32ZM100.226 29.32V29.72C100.592 29.72 100.932 29.8548 101.211 30.1333L101.494 29.8504L101.776 29.5676C101.348 29.1388 100.804 28.92 100.226 28.92V29.32ZM101.494 29.8504L101.211 30.1333L103.686 32.6084L103.969 32.3256L104.252 32.0427L101.776 29.5676L101.494 29.8504ZM103.969 32.3256L103.686 32.6084C103.964 32.8869 104.099 33.2271 104.099 33.5926H104.499H104.899C104.899 33.0153 104.68 32.4715 104.252 32.0427L103.969 32.3256ZM104.499 33.5926H104.099V37.4232H104.499H104.899V33.5926H104.499ZM104.499 37.4232H104.099C104.099 37.7888 103.964 38.129 103.686 38.4074L103.969 38.6903L104.252 38.9731C104.68 38.5444 104.899 38.0006 104.899 37.4232H104.499ZM103.969 38.6903L103.704 38.3901L101.229 40.5706L101.494 40.8708L101.758 41.1709L104.233 38.9904L103.969 38.6903ZM101.494 40.8708L101.211 40.5879C100.932 40.8664 100.592 41.0012 100.226 41.0012V41.4012V41.8012C100.804 41.8012 101.348 41.5824 101.776 41.1536L101.494 40.8708ZM100.226 41.4012V41.0012H97.1031V41.4012V41.8012H100.226V41.4012ZM97.1031 41.4012V41.0012C96.7772 41.0012 96.5895 41.2524 96.5481 41.47C96.5052 41.6954 96.5928 41.9763 96.8653 42.1125L97.0441 41.7548L97.223 41.397C97.3187 41.4449 97.3474 41.549 97.334 41.6197C97.3274 41.6542 97.3093 41.6966 97.2699 41.734C97.2264 41.7753 97.1658 41.8012 97.1031 41.8012V41.4012ZM97.0441 41.7548L96.8969 42.1267L104.116 44.9849L104.263 44.613L104.411 44.2411L97.1914 41.3829L97.0441 41.7548ZM104.263 44.613L104.115 44.9844C104.129 44.99 104.123 44.9915 104.114 44.9785C104.109 44.9722 104.105 44.9644 104.102 44.9559C104.1 44.9474 104.099 44.9406 104.099 44.9371H104.499H104.899C104.899 44.6027 104.688 44.352 104.412 44.2416L104.263 44.613ZM104.499 44.9371H104.099V46.6462H104.499H104.899V44.9371H104.499ZM104.499 46.6462H104.099C104.099 46.6498 104.099 46.6473 104.101 46.6406C104.104 46.6338 104.109 46.6254 104.117 46.6175C104.125 46.6096 104.133 46.6045 104.14 46.6018C104.147 46.5992 104.149 46.5998 104.146 46.5998V46.9998V47.3998C104.573 47.3998 104.899 47.0733 104.899 46.6462H104.499ZM104.146 46.9998V46.5998H101.11V46.9998V47.3998H104.146V46.9998ZM101.11 46.9998V46.5998C101.11 46.5998 101.11 46.5998 101.109 46.5997C101.108 46.5997 101.107 46.5996 101.105 46.5995C101.102 46.5992 101.097 46.5988 101.091 46.598C101.079 46.5965 101.064 46.5939 101.047 46.5902C101.012 46.5827 100.975 46.5722 100.942 46.5613L100.816 46.9408L100.689 47.3203C100.789 47.3535 100.956 47.3998 101.11 47.3998V46.9998ZM100.816 46.9408L100.978 46.5754L88.6616 41.0947L88.499 41.4601L88.3363 41.8256L100.653 47.3063L100.816 46.9408ZM88.499 41.4601L88.6254 41.0806C88.5505 41.0557 88.3988 41.0012 88.2338 41.0012V41.4012V41.8012C88.2337 41.8012 88.2363 41.8012 88.2423 41.8021C88.2485 41.803 88.2572 41.8046 88.2693 41.8077C88.2961 41.8143 88.3256 41.824 88.3725 41.8396L88.499 41.4601ZM88.2338 41.4012V41.0012H81.8691V41.4012V41.8012H88.2338V41.4012ZM81.8691 41.4012V41.0012C81.4419 41.0012 81.1155 41.3276 81.1155 41.7548H81.5155H81.9155C81.9155 41.7511 81.916 41.7537 81.9134 41.7604C81.9107 41.7672 81.9056 41.7756 81.8978 41.7835C81.8899 41.7914 81.8815 41.7964 81.8747 41.7991C81.8679 41.8018 81.8654 41.8012 81.8691 41.8012V41.4012ZM81.5155 41.7548H81.1155V46.6462H81.5155H81.9155V41.7548H81.5155ZM81.5155 46.6462H81.1155C81.1155 46.6498 81.1149 46.6473 81.1176 46.6406C81.1203 46.6338 81.1253 46.6254 81.1332 46.6175C81.1411 46.6096 81.1495 46.6046 81.1563 46.6018C81.163 46.5992 81.1655 46.5998 81.1619 46.5998V46.9998V47.3998C81.589 47.3998 81.9155 47.0733 81.9155 46.6462H81.5155ZM81.1619 46.9998V46.5998H78.3331V46.9998V47.3998H81.1619V46.9998ZM78.3331 46.9998V46.5998C78.3294 46.5998 78.332 46.5992 78.3387 46.6018C78.3455 46.6046 78.3539 46.6096 78.3618 46.6175C78.3697 46.6254 78.3747 46.6338 78.3774 46.6406C78.3801 46.6473 78.3795 46.6498 78.3795 46.6462H77.9795H77.5795C77.5795 47.0733 77.9059 47.3998 78.3331 47.3998V46.9998ZM110.819 34.7418L110.536 35.0247V35.0247L110.819 34.7418ZM112.351 36.2741L112.068 36.5569V36.5569L112.351 36.2741ZM110.819 41.8137L111.102 41.5309L110.819 41.8137ZM112.351 43.3459L112.068 43.6288L112.351 43.3459ZM135.452 32.5024H135.052C135.052 32.5061 135.052 32.5035 135.055 32.4968C135.057 32.49 135.062 32.4816 135.07 32.4737C135.078 32.4658 135.086 32.4608 135.093 32.4581C135.1 32.4554 135.102 32.456 135.099 32.456V32.856V33.256C135.526 33.256 135.852 32.9296 135.852 32.5024H135.452ZM135.099 32.856V32.456H111.054V32.856V33.256H135.099V32.856ZM111.054 32.856V32.456C110.627 32.456 110.301 32.7824 110.301 33.2096H110.701H111.101C111.101 33.2059 111.101 33.2085 111.099 33.2152C111.096 33.222 111.091 33.2304 111.083 33.2383C111.075 33.2462 111.067 33.2512 111.06 33.2539C111.053 33.2566 111.051 33.256 111.054 33.256V32.856ZM110.701 33.2096H110.301V34.4766H110.701H111.101V33.2096H110.701ZM110.701 34.4766H110.301C110.301 34.6723 110.373 34.8621 110.536 35.0247L110.819 34.7418L111.102 34.459C111.095 34.4526 111.093 34.4492 111.093 34.4489C111.092 34.4488 111.094 34.451 111.096 34.4554C111.098 34.4598 111.099 34.4646 111.1 34.4692C111.101 34.4737 111.101 34.4764 111.101 34.4766H110.701ZM110.819 34.7418L110.536 35.0247L112.068 36.5569L112.351 36.2741L112.634 35.9912L111.102 34.459L110.819 34.7418ZM112.351 36.2741L112.068 36.5569C112.231 36.7195 112.42 36.7919 112.616 36.7919V36.3919V35.9919C112.616 35.9919 112.619 35.992 112.624 35.9928C112.628 35.9937 112.633 35.9951 112.637 35.9969C112.642 35.9987 112.644 36.0002 112.644 36.0002C112.644 36 112.64 35.9976 112.634 35.9912L112.351 36.2741ZM112.616 36.3919V36.7919H133.331V36.3919V35.9919H112.616V36.3919ZM133.331 36.3919V36.7919C133.335 36.7919 133.332 36.7925 133.325 36.7898C133.318 36.7871 133.31 36.7821 133.302 36.7742C133.294 36.7663 133.289 36.7579 133.287 36.7511C133.284 36.7444 133.284 36.7418 133.284 36.7455H133.684H134.084C134.084 36.3183 133.758 35.9919 133.331 35.9919V36.3919ZM133.684 36.7455H133.284V39.5743H133.684H134.084V36.7455H133.684ZM133.684 39.5743H133.284C133.284 39.578 133.284 39.5754 133.287 39.5687C133.289 39.5619 133.294 39.5535 133.302 39.5456C133.31 39.5377 133.318 39.5327 133.325 39.53C133.332 39.5273 133.335 39.5279 133.331 39.5279V39.9279V40.3279C133.758 40.3279 134.084 40.0015 134.084 39.5743H133.684ZM133.331 39.9279V39.5279H111.054V39.9279V40.3279H133.331V39.9279ZM111.054 39.9279V39.5279C110.627 39.5279 110.301 39.8543 110.301 40.2815H110.701H111.101C111.101 40.2778 111.101 40.2803 111.099 40.2871C111.096 40.2939 111.091 40.3023 111.083 40.3102C111.075 40.3181 111.067 40.3231 111.06 40.3258C111.053 40.3285 111.051 40.3279 111.054 40.3279V39.9279ZM110.701 40.2815H110.301V41.5485H110.701H111.101V40.2815H110.701ZM110.701 41.5485H110.301C110.301 41.7442 110.373 41.934 110.536 42.0965L110.819 41.8137L111.102 41.5309C111.095 41.5245 111.093 41.5211 111.093 41.5208C111.092 41.5207 111.094 41.5229 111.096 41.5273C111.098 41.5317 111.099 41.5365 111.1 41.5411C111.101 41.5455 111.101 41.5483 111.101 41.5485H110.701ZM110.819 41.8137L110.536 42.0965L112.068 43.6288L112.351 43.3459L112.634 43.0631L111.102 41.5309L110.819 41.8137ZM112.351 43.3459L112.068 43.6288C112.231 43.7913 112.42 43.8638 112.616 43.8638V43.4638V43.0638C112.616 43.0638 112.619 43.0638 112.624 43.0647C112.628 43.0655 112.633 43.067 112.637 43.0688C112.642 43.0706 112.644 43.0721 112.644 43.072C112.644 43.0719 112.64 43.0695 112.634 43.0631L112.351 43.3459ZM112.616 43.4638V43.8638H135.099V43.4638V43.0638H112.616V43.4638ZM135.099 43.4638V43.8638C135.102 43.8638 135.1 43.8644 135.093 43.8617C135.086 43.859 135.078 43.854 135.07 43.8461C135.062 43.8382 135.057 43.8298 135.055 43.823C135.052 43.8163 135.052 43.8137 135.052 43.8174H135.452H135.852C135.852 43.3902 135.526 43.0638 135.099 43.0638V43.4638ZM135.452 43.8174H135.052V46.6462H135.452H135.852V43.8174H135.452ZM135.452 46.6462H135.052C135.052 46.6498 135.052 46.6473 135.055 46.6406C135.057 46.6338 135.062 46.6254 135.07 46.6175C135.078 46.6096 135.086 46.6045 135.093 46.6018C135.1 46.5992 135.102 46.5998 135.099 46.5998V46.9998V47.3998C135.526 47.3998 135.852 47.0733 135.852 46.6462H135.452ZM135.099 46.9998V46.5998H109.286V46.9998V47.3998H135.099V46.9998ZM109.286 46.9998V46.5998C109.283 46.5998 109.285 46.5992 109.292 46.6018C109.299 46.6046 109.307 46.6096 109.315 46.6175C109.323 46.6254 109.328 46.6338 109.331 46.6406C109.333 46.6473 109.333 46.6498 109.333 46.6462H108.933H108.533C108.533 47.0733 108.859 47.3998 109.286 47.3998V46.9998ZM108.933 46.6462H109.333V29.6736H108.933H108.533V46.6462H108.933ZM108.933 29.6736H109.333C109.333 29.67 109.333 29.6725 109.331 29.6792C109.328 29.686 109.323 29.6944 109.315 29.7023C109.307 29.7102 109.299 29.7152 109.292 29.7179C109.285 29.7206 109.283 29.72 109.286 29.72V29.32V28.92C108.859 28.92 108.533 29.2465 108.533 29.6736H108.933ZM109.286 29.32V29.72H135.099V29.32V28.92H109.286V29.32ZM135.099 29.32V29.72C135.102 29.72 135.1 29.7206 135.093 29.7179C135.086 29.7152 135.078 29.7102 135.07 29.7023C135.062 29.6944 135.057 29.686 135.055 29.6792C135.052 29.6725 135.052 29.67 135.052 29.6736H135.452H135.852C135.852 29.2465 135.526 28.92 135.099 28.92V29.32ZM135.452 29.6736H135.052V32.5024H135.452H135.852V29.6736H135.452ZM142.892 46.4694L142.609 46.7522L142.892 46.4694ZM140.417 43.9942L140.134 44.277L140.417 43.9942ZM140.417 32.3256L140.699 32.6084L140.417 32.3256ZM142.892 29.8504L143.175 30.1333V30.1333L142.892 29.8504ZM164.52 34.5061L164.237 34.7889V34.7889L164.52 34.5061ZM155.916 39.81L156.199 40.0928V40.0928L155.916 39.81ZM166.288 43.5817L166.005 43.2988V43.2988L166.288 43.5817ZM162.988 46.8819L163.27 47.1647L162.988 46.8819ZM144.159 46.9998V46.5998C143.793 46.5998 143.453 46.465 143.175 46.1865L142.892 46.4694L142.609 46.7522C143.038 47.181 143.581 47.3998 144.159 47.3998V46.9998ZM142.892 46.4694L143.175 46.1865L140.699 43.7114L140.417 43.9942L140.134 44.277L142.609 46.7522L142.892 46.4694ZM140.417 43.9942L140.699 43.7114C140.421 43.4329 140.286 43.0927 140.286 42.7272H139.886H139.486C139.486 43.3045 139.705 43.8483 140.134 44.277L140.417 43.9942ZM139.886 42.7272H140.286V33.5926H139.886H139.486V42.7272H139.886ZM139.886 33.5926H140.286C140.286 33.2271 140.421 32.8869 140.699 32.6084L140.417 32.3256L140.134 32.0427C139.705 32.4715 139.486 33.0153 139.486 33.5926H139.886ZM140.417 32.3256L140.699 32.6084L143.175 30.1333L142.892 29.8504L142.609 29.5676L140.134 32.0427L140.417 32.3256ZM142.892 29.8504L143.175 30.1333C143.453 29.8548 143.793 29.72 144.159 29.72V29.32V28.92C143.581 28.92 143.038 29.1388 142.609 29.5676L142.892 29.8504ZM144.159 29.32V29.72H166.052V29.32V28.92H144.159V29.32ZM166.052 29.32V29.72C166.056 29.72 166.053 29.7206 166.047 29.7179C166.04 29.7152 166.031 29.7102 166.023 29.7023C166.016 29.6944 166.011 29.686 166.008 29.6792C166.005 29.6725 166.006 29.67 166.006 29.6736H166.406H166.806C166.806 29.2465 166.479 28.92 166.052 28.92V29.32ZM166.406 29.6736H166.006V34.2704H166.406H166.806V29.6736H166.406ZM166.406 34.2704H166.006C166.006 34.274 166.005 34.2715 166.008 34.2648C166.011 34.258 166.016 34.2496 166.023 34.2417C166.031 34.2338 166.04 34.2287 166.047 34.226C166.053 34.2234 166.056 34.224 166.052 34.224V34.624V35.024C166.479 35.024 166.806 34.6975 166.806 34.2704H166.406ZM166.052 34.624V34.224H164.785V34.624V35.024H166.052V34.624ZM164.785 34.624V34.224C164.785 34.224 164.788 34.224 164.792 34.2248C164.797 34.2257 164.802 34.2271 164.806 34.2289C164.811 34.2308 164.813 34.2323 164.813 34.2322C164.813 34.232 164.809 34.2296 164.803 34.2232L164.52 34.5061L164.237 34.7889C164.4 34.9515 164.589 35.024 164.785 35.024V34.624ZM164.52 34.5061L164.803 34.2232L163.27 32.691L162.988 32.9738L162.705 33.2567L164.237 34.7889L164.52 34.5061ZM162.988 32.9738L163.27 32.691C163.108 32.5284 162.918 32.456 162.722 32.456V32.856V33.256C162.722 33.256 162.719 33.256 162.715 33.2551C162.71 33.2543 162.706 33.2528 162.701 33.251C162.697 33.2492 162.695 33.2477 162.695 33.2478C162.695 33.2479 162.698 33.2503 162.705 33.2567L162.988 32.9738ZM162.722 32.856V32.456H143.776V32.856V33.256H162.722V32.856ZM143.776 32.856V32.456C143.349 32.456 143.022 32.7824 143.022 33.2096H143.422H143.822C143.822 33.2059 143.823 33.2085 143.82 33.2152C143.817 33.222 143.812 33.2304 143.804 33.2383C143.796 33.2462 143.788 33.2512 143.781 33.2539C143.775 33.2566 143.772 33.256 143.776 33.256V32.856ZM143.422 33.2096H143.022V43.1102H143.422H143.822V33.2096H143.422ZM143.422 43.1102H143.022C143.022 43.5374 143.349 43.8638 143.776 43.8638V43.4638V43.0638C143.772 43.0638 143.775 43.0632 143.781 43.0659C143.788 43.0686 143.796 43.0736 143.804 43.0815C143.812 43.0894 143.817 43.0978 143.82 43.1046C143.823 43.1113 143.822 43.1139 143.822 43.1102H143.422ZM143.776 43.4638V43.8638H162.516V43.4638V43.0638H143.776V43.4638ZM162.516 43.4638V43.8638C162.943 43.8638 163.27 43.5374 163.27 43.1102H162.87H162.47C162.47 43.1139 162.469 43.1113 162.472 43.1046C162.475 43.0978 162.48 43.0894 162.487 43.0815C162.495 43.0736 162.504 43.0686 162.511 43.0659C162.517 43.0632 162.52 43.0638 162.516 43.0638V43.4638ZM162.87 43.1102H163.27V38.5135H162.87H162.47V43.1102H162.87ZM162.87 38.5135H163.27C163.27 38.0863 162.943 37.7599 162.516 37.7599V38.1599V38.5599C162.52 38.5599 162.517 38.5605 162.511 38.5578C162.504 38.5551 162.495 38.5501 162.487 38.5422C162.48 38.5343 162.475 38.5259 162.472 38.5191C162.469 38.5124 162.47 38.5098 162.47 38.5135H162.87ZM162.516 38.1599V37.7599H157.713V38.1599V38.5599H162.516V38.1599ZM157.713 38.1599V37.7599C157.518 37.7599 157.328 37.8324 157.165 37.9949L157.448 38.2778L157.731 38.5606C157.737 38.5542 157.741 38.5518 157.741 38.5517C157.741 38.5516 157.739 38.5531 157.734 38.5549C157.73 38.5568 157.725 38.5582 157.721 38.559C157.716 38.5599 157.713 38.5599 157.713 38.5599V38.1599ZM157.448 38.2778L157.165 37.9949L155.633 39.5272L155.916 39.81L156.199 40.0928L157.731 38.5606L157.448 38.2778ZM155.916 39.81L155.633 39.5272C155.627 39.5335 155.623 39.5359 155.623 39.5361C155.623 39.5362 155.625 39.5347 155.629 39.5329C155.634 39.531 155.639 39.5296 155.643 39.5287C155.648 39.5279 155.65 39.5279 155.651 39.5279V39.9279V40.3279C155.846 40.3279 156.036 40.2554 156.199 40.0928L155.916 39.81ZM155.651 39.9279V39.5279H147.312V39.9279V40.3279H155.651V39.9279ZM147.312 39.9279V39.5279C147.308 39.5279 147.311 39.5273 147.317 39.53C147.324 39.5327 147.332 39.5377 147.34 39.5456C147.348 39.5535 147.353 39.5619 147.356 39.5687C147.359 39.5754 147.358 39.578 147.358 39.5743H146.958H146.558C146.558 40.0015 146.884 40.3279 147.312 40.3279V39.9279ZM146.958 39.5743H147.358V36.7455H146.958H146.558V39.5743H146.958ZM146.958 36.7455H147.358C147.358 36.7418 147.359 36.7444 147.356 36.7511C147.353 36.7579 147.348 36.7663 147.34 36.7742C147.332 36.7821 147.324 36.7871 147.317 36.7898C147.311 36.7925 147.308 36.7919 147.312 36.7919V36.3919V35.9919C146.884 35.9919 146.558 36.3183 146.558 36.7455H146.958ZM147.312 36.3919V36.7919H166.052V36.3919V35.9919H147.312V36.3919ZM166.052 36.3919V36.7919C166.056 36.7919 166.053 36.7925 166.047 36.7898C166.04 36.7871 166.031 36.7821 166.023 36.7742C166.016 36.7663 166.011 36.7579 166.008 36.7511C166.005 36.7444 166.006 36.7418 166.006 36.7455H166.406H166.806C166.806 36.3183 166.479 35.9919 166.052 35.9919V36.3919ZM166.406 36.7455H166.006V43.3165H166.406H166.806V36.7455H166.406ZM166.406 43.3165H166.006C166.006 43.3162 166.006 43.3135 166.007 43.3091C166.007 43.3045 166.009 43.2997 166.011 43.2952C166.013 43.2908 166.014 43.2886 166.014 43.2888C166.014 43.289 166.011 43.2925 166.005 43.2988L166.288 43.5817L166.571 43.8645C166.733 43.702 166.806 43.5122 166.806 43.3165H166.406ZM166.288 43.5817L166.005 43.2988L162.705 46.599L162.988 46.8819L163.27 47.1647L166.571 43.8645L166.288 43.5817ZM162.988 46.8819L162.705 46.599C162.698 46.6054 162.695 46.6078 162.695 46.608C162.695 46.6081 162.697 46.6066 162.701 46.6047C162.706 46.6029 162.71 46.6015 162.715 46.6006C162.719 46.5998 162.722 46.5998 162.722 46.5998V46.9998V47.3998C162.918 47.3998 163.108 47.3273 163.27 47.1647L162.988 46.8819ZM162.722 46.9998V46.5998H144.159V46.9998V47.3998H162.722V46.9998ZM174.022 46.9998V46.5998H171.193V46.9998V47.3998H174.022V46.9998ZM171.193 46.9998V46.5998C171.189 46.5998 171.192 46.5992 171.199 46.6018C171.205 46.6046 171.214 46.6096 171.222 46.6175C171.23 46.6254 171.235 46.6338 171.237 46.6406C171.24 46.6473 171.239 46.6498 171.239 46.6462H170.839H170.439C170.439 47.0733 170.766 47.3998 171.193 47.3998V46.9998ZM170.839 46.6462H171.239V29.6736H170.839H170.439V46.6462H170.839ZM170.839 29.6736H171.239C171.239 29.67 171.24 29.6725 171.237 29.6792C171.235 29.686 171.23 29.6944 171.222 29.7023C171.214 29.7102 171.205 29.7152 171.199 29.7179C171.192 29.7206 171.189 29.72 171.193 29.72V29.32V28.92C170.766 28.92 170.439 29.2465 170.439 29.6736H170.839ZM171.193 29.32V29.72H174.022V29.32V28.92H171.193V29.32ZM174.022 29.32V29.72C174.025 29.72 174.023 29.7206 174.016 29.7179C174.009 29.7152 174.001 29.7102 173.993 29.7023C173.985 29.6944 173.98 29.686 173.977 29.6792C173.975 29.6725 173.975 29.67 173.975 29.6736H174.375H174.775C174.775 29.2465 174.449 28.92 174.022 28.92V29.32ZM174.375 29.6736H173.975V46.6462H174.375H174.775V29.6736H174.375ZM174.375 46.6462H173.975C173.975 46.6498 173.975 46.6473 173.977 46.6406C173.98 46.6338 173.985 46.6254 173.993 46.6175C174.001 46.6096 174.009 46.6046 174.016 46.6018C174.023 46.5992 174.025 46.5998 174.022 46.5998V46.9998V47.3998C174.449 47.3998 174.775 47.0733 174.775 46.6462H174.375ZM204.79 39.3975L205.073 39.1146L204.79 39.3975ZM204.79 43.9942L205.073 44.277V44.277L204.79 43.9942ZM202.315 46.4694L202.598 46.7522H202.598L202.315 46.4694ZM181.571 41.8137L181.854 41.5309L181.571 41.8137ZM183.103 43.3459L182.82 43.6288L183.103 43.3459ZM181.807 39.3975L182.089 39.1146L181.807 39.3975ZM179.331 36.9223L179.614 36.6395L179.331 36.9223ZM179.331 32.3256L179.614 32.6084L179.331 32.3256ZM181.807 29.8504L182.089 30.1333V30.1333L181.807 29.8504ZM202.551 34.5061L202.268 34.7889L202.268 34.7889L202.551 34.5061ZM202.315 36.9223L202.598 36.6395L202.598 36.6395L202.315 36.9223ZM204.79 39.3975L204.507 39.6803C204.786 39.9588 204.921 40.2989 204.921 40.6645H205.321H205.721C205.721 40.0872 205.502 39.5434 205.073 39.1146L204.79 39.3975ZM205.321 40.6645H204.921V42.7272H205.321H205.721V40.6645H205.321ZM205.321 42.7272H204.921C204.921 43.0927 204.786 43.4329 204.507 43.7114L204.79 43.9942L205.073 44.277C205.502 43.8483 205.721 43.3045 205.721 42.7272H205.321ZM204.79 43.9942L204.507 43.7114L202.032 46.1865L202.315 46.4694L202.598 46.7522L205.073 44.277L204.79 43.9942ZM202.315 46.4694L202.032 46.1865C201.754 46.465 201.414 46.5998 201.048 46.5998V46.9998V47.3998C201.625 47.3998 202.169 47.181 202.598 46.7522L202.315 46.4694ZM201.048 46.9998V46.5998H180.039V46.9998V47.3998H201.048V46.9998ZM180.039 46.9998V46.5998C180.035 46.5998 180.038 46.5992 180.044 46.6018C180.051 46.6046 180.059 46.6096 180.067 46.6175C180.075 46.6254 180.08 46.6338 180.083 46.6406C180.086 46.6473 180.085 46.6498 180.085 46.6462H179.685H179.285C179.285 47.0733 179.611 47.3998 180.039 47.3998V46.9998ZM179.685 46.6462H180.085V42.0494H179.685H179.285V46.6462H179.685ZM179.685 42.0494H180.085C180.085 42.0458 180.086 42.0483 180.083 42.055C180.08 42.0618 180.075 42.0702 180.067 42.0781C180.059 42.086 180.051 42.091 180.044 42.0938C180.038 42.0964 180.035 42.0958 180.039 42.0958V41.6958V41.2958C179.611 41.2958 179.285 41.6223 179.285 42.0494H179.685ZM180.039 41.6958V42.0958H181.306V41.6958V41.2958H180.039V41.6958ZM181.306 41.6958V42.0958C181.305 42.0958 181.303 42.0958 181.298 42.095C181.294 42.0941 181.289 42.0927 181.284 42.0909C181.28 42.089 181.278 42.0875 181.278 42.0876C181.278 42.0878 181.282 42.0902 181.288 42.0965L181.571 41.8137L181.854 41.5309C181.691 41.3683 181.501 41.2958 181.306 41.2958V41.6958ZM181.571 41.8137L181.288 42.0965L182.82 43.6288L183.103 43.3459L183.386 43.0631L181.854 41.5309L181.571 41.8137ZM183.103 43.3459L182.82 43.6288C182.983 43.7913 183.173 43.8638 183.368 43.8638V43.4638V43.0638C183.369 43.0638 183.371 43.0638 183.376 43.0647C183.38 43.0655 183.385 43.067 183.39 43.0688C183.394 43.0706 183.396 43.0721 183.396 43.072C183.396 43.0719 183.392 43.0695 183.386 43.0631L183.103 43.3459ZM183.368 43.4638V43.8638H201.431V43.4638V43.0638H183.368V43.4638ZM201.431 43.4638V43.8638C201.858 43.8638 202.185 43.5374 202.185 43.1102H201.785H201.385C201.385 43.1139 201.384 43.1113 201.387 43.1046C201.39 43.0978 201.395 43.0894 201.402 43.0815C201.41 43.0736 201.419 43.0686 201.426 43.0659C201.432 43.0632 201.435 43.0638 201.431 43.0638V43.4638ZM201.785 43.1102H202.185V40.2815H201.785H201.385V43.1102H201.785ZM201.785 40.2815H202.185C202.185 39.8543 201.858 39.5279 201.431 39.5279V39.9279V40.3279C201.435 40.3279 201.432 40.3285 201.426 40.3258C201.419 40.3231 201.41 40.3181 201.402 40.3102C201.395 40.3023 201.39 40.2939 201.387 40.2871C201.384 40.2803 201.385 40.2778 201.385 40.2815H201.785ZM201.431 39.9279V39.5279H183.074V39.9279V40.3279H201.431V39.9279ZM183.074 39.9279V39.5279C182.708 39.5279 182.368 39.3931 182.089 39.1146L181.807 39.3975L181.524 39.6803C181.953 40.1091 182.496 40.3279 183.074 40.3279V39.9279ZM181.807 39.3975L182.089 39.1146L179.614 36.6395L179.331 36.9223L179.049 37.2052L181.524 39.6803L181.807 39.3975ZM179.331 36.9223L179.614 36.6395C179.336 36.361 179.201 36.0209 179.201 35.6553H178.801H178.401C178.401 36.2326 178.62 36.7764 179.049 37.2052L179.331 36.9223ZM178.801 35.6553H179.201V33.5926H178.801H178.401V35.6553H178.801ZM178.801 33.5926H179.201C179.201 33.2271 179.336 32.8869 179.614 32.6084L179.331 32.3256L179.049 32.0427C178.62 32.4715 178.401 33.0153 178.401 33.5926H178.801ZM179.331 32.3256L179.614 32.6084L182.089 30.1333L181.807 29.8504L181.524 29.5676L179.049 32.0427L179.331 32.3256ZM181.807 29.8504L182.089 30.1333C182.368 29.8548 182.708 29.72 183.074 29.72V29.32V28.92C182.496 28.92 181.953 29.1388 181.524 29.5676L181.807 29.8504ZM183.074 29.32V29.72H204.083V29.32V28.92H183.074V29.32ZM204.083 29.32V29.72C204.087 29.72 204.084 29.7206 204.077 29.7179C204.071 29.7152 204.062 29.7102 204.054 29.7023C204.046 29.6944 204.041 29.686 204.039 29.6792C204.036 29.6725 204.037 29.67 204.037 29.6736H204.437H204.837C204.837 29.2465 204.51 28.92 204.083 28.92V29.32ZM204.437 29.6736H204.037V34.2704H204.437H204.837V29.6736H204.437ZM204.437 34.2704H204.037C204.037 34.274 204.036 34.2715 204.039 34.2648C204.041 34.258 204.046 34.2496 204.054 34.2417C204.062 34.2338 204.071 34.2287 204.077 34.226C204.084 34.2234 204.087 34.224 204.083 34.224V34.624V35.024C204.51 35.024 204.837 34.6975 204.837 34.2704H204.437ZM204.083 34.624V34.224H202.816V34.624V35.024H204.083V34.624ZM202.816 34.624V34.224C202.816 34.224 202.819 34.224 202.823 34.2248C202.828 34.2257 202.833 34.2271 202.837 34.2289C202.842 34.2308 202.844 34.2323 202.844 34.2322C202.843 34.232 202.84 34.2296 202.834 34.2232L202.551 34.5061L202.268 34.7889C202.431 34.9515 202.62 35.024 202.816 35.024V34.624ZM202.551 34.5061L202.834 34.2232L201.301 32.691L201.019 32.9738L200.736 33.2567L202.268 34.7889L202.551 34.5061ZM201.019 32.9738L201.301 32.691C201.139 32.5284 200.949 32.456 200.753 32.456V32.856V33.256C200.753 33.256 200.75 33.256 200.746 33.2551C200.741 33.2543 200.737 33.2528 200.732 33.251C200.728 33.2492 200.726 33.2477 200.726 33.2478C200.726 33.2479 200.729 33.2503 200.736 33.2567L201.019 32.9738ZM200.753 32.856V32.456H182.691V32.856V33.256H200.753V32.856ZM182.691 32.856V32.456C182.263 32.456 181.937 32.7824 181.937 33.2096H182.337H182.737C182.737 33.2059 182.738 33.2085 182.735 33.2152C182.732 33.222 182.727 33.2304 182.719 33.2383C182.711 33.2462 182.703 33.2512 182.696 33.2539C182.69 33.2566 182.687 33.256 182.691 33.256V32.856ZM182.337 33.2096H181.937V36.0383H182.337H182.737V33.2096H182.337ZM182.337 36.0383H181.937C181.937 36.4655 182.263 36.7919 182.691 36.7919V36.3919V35.9919C182.687 35.9919 182.69 35.9913 182.696 35.994C182.703 35.9967 182.711 36.0017 182.719 36.0096C182.727 36.0175 182.732 36.0259 182.735 36.0327C182.738 36.0395 182.737 36.042 182.737 36.0383H182.337ZM182.691 36.3919V36.7919H201.048V36.3919V35.9919H182.691V36.3919ZM201.048 36.3919V36.7919C201.414 36.7919 201.754 36.9267 202.032 37.2052L202.315 36.9223L202.598 36.6395C202.169 36.2107 201.625 35.9919 201.048 35.9919V36.3919ZM202.315 36.9223L202.032 37.2052L204.507 39.6803L204.79 39.3975L205.073 39.1146L202.598 36.6395L202.315 36.9223ZM227.02 33.1801L226.738 33.463V33.463L227.02 33.1801ZM225.488 31.6479L225.771 31.365L225.488 31.6479ZM218.181 31.6479L218.463 31.9307V31.9307L218.181 31.6479ZM235.094 32.9444H234.694C234.694 32.9481 234.694 32.9455 234.696 32.9388C234.699 32.932 234.704 32.9236 234.712 32.9157C234.72 32.9078 234.728 32.9028 234.735 32.9001C234.742 32.8974 234.744 32.898 234.741 32.898V33.298V33.698C235.168 33.698 235.494 33.3716 235.494 32.9444H235.094ZM234.741 33.298V32.898H227.286V33.298V33.698H234.741V33.298ZM227.286 33.298V32.898C227.286 32.898 227.289 32.898 227.293 32.8988C227.298 32.8997 227.302 32.9011 227.307 32.903C227.311 32.9048 227.313 32.9063 227.313 32.9062C227.313 32.906 227.31 32.9036 227.303 32.8973L227.02 33.1801L226.738 33.463C226.9 33.6255 227.09 33.698 227.286 33.698V33.298ZM227.02 33.1801L227.303 32.8973L225.771 31.365L225.488 31.6479L225.205 31.9307L226.738 33.463L227.02 33.1801ZM225.488 31.6479L225.771 31.365C225.608 31.2025 225.419 31.13 225.223 31.13V31.53V31.93C225.223 31.93 225.22 31.93 225.216 31.9291C225.211 31.9283 225.206 31.9269 225.202 31.925C225.197 31.9232 225.195 31.9217 225.195 31.9218C225.196 31.922 225.199 31.9244 225.205 31.9307L225.488 31.6479ZM225.223 31.53V31.13H223.956V31.53V31.93H225.223V31.53ZM223.956 31.53V31.13C223.529 31.13 223.202 31.4564 223.202 31.8836H223.602H224.002C224.002 31.8799 224.003 31.8825 224 31.8892C223.998 31.896 223.993 31.9044 223.985 31.9123C223.977 31.9202 223.968 31.9252 223.962 31.9279C223.955 31.9306 223.952 31.93 223.956 31.93V31.53ZM223.602 31.8836H223.202V46.6462H223.602H224.002V31.8836H223.602ZM223.602 46.6462H223.202C223.202 46.6498 223.202 46.6473 223.204 46.6406C223.207 46.6338 223.212 46.6254 223.22 46.6175C223.228 46.6096 223.236 46.6046 223.243 46.6018C223.25 46.5992 223.252 46.5998 223.249 46.5998V46.9998V47.3998C223.676 47.3998 224.002 47.0733 224.002 46.6462H223.602ZM223.249 46.9998V46.5998H220.42V46.9998V47.3998H223.249V46.9998ZM220.42 46.9998V46.5998C220.416 46.5998 220.419 46.5992 220.426 46.6018C220.432 46.6045 220.441 46.6096 220.449 46.6175C220.457 46.6254 220.462 46.6338 220.464 46.6406C220.467 46.6473 220.466 46.6498 220.466 46.6462H220.066H219.666C219.666 47.0733 219.993 47.3998 220.42 47.3998V46.9998ZM220.066 46.6462H220.466V31.8836H220.066H219.666V46.6462H220.066ZM220.066 31.8836H220.466C220.466 31.4564 220.14 31.13 219.713 31.13V31.53V31.93C219.716 31.93 219.714 31.9306 219.707 31.9279C219.7 31.9252 219.692 31.9202 219.684 31.9123C219.676 31.9044 219.671 31.896 219.669 31.8892C219.666 31.8825 219.666 31.8799 219.666 31.8836H220.066ZM219.713 31.53V31.13H218.446V31.53V31.93H219.713V31.53ZM218.446 31.53V31.13C218.25 31.13 218.06 31.2025 217.898 31.365L218.181 31.6479L218.463 31.9307C218.47 31.9244 218.473 31.922 218.473 31.9218C218.474 31.9217 218.471 31.9232 218.467 31.925C218.463 31.9269 218.458 31.9283 218.453 31.9291C218.449 31.93 218.446 31.93 218.446 31.93V31.53ZM218.181 31.6479L217.898 31.365L216.365 32.8973L216.648 33.1801L216.931 33.463L218.463 31.9307L218.181 31.6479ZM216.648 33.1801L216.365 32.8973C216.359 32.9036 216.356 32.906 216.355 32.9062C216.355 32.9063 216.357 32.9048 216.362 32.903C216.366 32.9011 216.371 32.8997 216.376 32.8988C216.38 32.898 216.383 32.898 216.383 32.898V33.298V33.698C216.579 33.698 216.769 33.6255 216.931 33.463L216.648 33.1801ZM216.383 33.298V32.898H208.928V33.298V33.698H216.383V33.298ZM208.928 33.298V32.898C208.925 32.898 208.927 32.8974 208.934 32.9001C208.941 32.9028 208.949 32.9078 208.957 32.9157C208.965 32.9236 208.97 32.932 208.973 32.9388C208.975 32.9455 208.975 32.9481 208.975 32.9444H208.575H208.175C208.175 33.3716 208.501 33.698 208.928 33.698V33.298ZM208.575 32.9444H208.975V29.6736H208.575H208.175V32.9444H208.575ZM208.575 29.6736H208.975C208.975 29.67 208.975 29.6725 208.973 29.6792C208.97 29.686 208.965 29.6944 208.957 29.7023C208.949 29.7102 208.941 29.7152 208.934 29.7179C208.927 29.7206 208.925 29.72 208.928 29.72V29.32V28.92C208.501 28.92 208.175 29.2465 208.175 29.6736H208.575ZM208.928 29.32V29.72H234.741V29.32V28.92H208.928V29.32ZM234.741 29.32V29.72C234.744 29.72 234.742 29.7206 234.735 29.7179C234.728 29.7152 234.72 29.7102 234.712 29.7023C234.704 29.6944 234.699 29.686 234.696 29.6792C234.694 29.6725 234.694 29.67 234.694 29.6736H235.094H235.494C235.494 29.2465 235.168 28.92 234.741 28.92V29.32ZM235.094 29.6736H234.694V32.9444H235.094H235.494V29.6736H235.094ZM241.414 34.7418L241.131 35.0247V35.0247L241.414 34.7418ZM242.946 36.2741L242.663 36.5569V36.5569L242.946 36.2741ZM241.414 41.8137L241.697 41.5309L241.414 41.8137ZM242.946 43.3459L242.663 43.6288L242.946 43.3459ZM266.048 32.5024H265.647C265.647 32.5061 265.647 32.5035 265.65 32.4968C265.652 32.49 265.657 32.4816 265.665 32.4737C265.673 32.4658 265.682 32.4608 265.688 32.4581C265.695 32.4554 265.698 32.456 265.694 32.456V32.856V33.256C266.121 33.256 266.447 32.9296 266.447 32.5024H266.048ZM265.694 32.856V32.456H241.649V32.856V33.256H265.694V32.856ZM241.649 32.856V32.456C241.222 32.456 240.896 32.7824 240.896 33.2096H241.296H241.696C241.696 33.2059 241.696 33.2085 241.694 33.2152C241.691 33.222 241.686 33.2304 241.678 33.2383C241.67 33.2462 241.662 33.2512 241.655 33.2539C241.648 33.2566 241.646 33.256 241.649 33.256V32.856ZM241.296 33.2096H240.896V34.4766H241.296H241.696V33.2096H241.296ZM241.296 34.4766H240.896C240.896 34.6723 240.968 34.8621 241.131 35.0247L241.414 34.7418L241.697 34.459C241.69 34.4526 241.688 34.4492 241.688 34.4489C241.688 34.4488 241.689 34.451 241.691 34.4554C241.693 34.4598 241.694 34.4646 241.695 34.4692C241.696 34.4737 241.696 34.4764 241.696 34.4766H241.296ZM241.414 34.7418L241.131 35.0247L242.663 36.5569L242.946 36.2741L243.229 35.9912L241.697 34.459L241.414 34.7418ZM242.946 36.2741L242.663 36.5569C242.826 36.7195 243.016 36.7919 243.211 36.7919V36.3919V35.9919C243.211 35.9919 243.214 35.992 243.219 35.9928C243.223 35.9937 243.228 35.9951 243.232 35.9969C243.237 35.9987 243.239 36.0002 243.239 36.0002C243.239 36 243.235 35.9976 243.229 35.9912L242.946 36.2741ZM243.211 36.3919V36.7919H263.926V36.3919V35.9919H243.211V36.3919ZM263.926 36.3919V36.7919C263.93 36.7919 263.927 36.7925 263.92 36.7898C263.914 36.7871 263.905 36.7821 263.897 36.7742C263.889 36.7663 263.884 36.7579 263.882 36.7511C263.879 36.7444 263.88 36.7418 263.88 36.7455H264.28H264.68C264.68 36.3183 264.353 35.9919 263.926 35.9919V36.3919ZM264.28 36.7455H263.88V39.5743H264.28H264.68V36.7455H264.28ZM264.28 39.5743H263.88C263.88 39.578 263.879 39.5754 263.882 39.5687C263.884 39.5619 263.889 39.5535 263.897 39.5456C263.905 39.5377 263.914 39.5327 263.92 39.53C263.927 39.5273 263.93 39.5279 263.926 39.5279V39.9279V40.3279C264.353 40.3279 264.68 40.0015 264.68 39.5743H264.28ZM263.926 39.9279V39.5279H241.649V39.9279V40.3279H263.926V39.9279ZM241.649 39.9279V39.5279C241.222 39.5279 240.896 39.8543 240.896 40.2815H241.296H241.696C241.696 40.2778 241.696 40.2803 241.694 40.2871C241.691 40.2939 241.686 40.3023 241.678 40.3102C241.67 40.3181 241.662 40.3231 241.655 40.3258C241.648 40.3285 241.646 40.3279 241.649 40.3279V39.9279ZM241.296 40.2815H240.896V41.5485H241.296H241.696V40.2815H241.296ZM241.296 41.5485H240.896C240.896 41.7442 240.968 41.934 241.131 42.0965L241.414 41.8137L241.697 41.5309C241.69 41.5245 241.688 41.5211 241.688 41.5208C241.688 41.5207 241.689 41.5229 241.691 41.5273C241.693 41.5317 241.694 41.5365 241.695 41.5411C241.696 41.5455 241.696 41.5483 241.696 41.5485H241.296ZM241.414 41.8137L241.131 42.0965L242.663 43.6288L242.946 43.3459L243.229 43.0631L241.697 41.5309L241.414 41.8137ZM242.946 43.3459L242.663 43.6288C242.826 43.7913 243.016 43.8638 243.211 43.8638V43.4638V43.0638C243.211 43.0638 243.214 43.0638 243.219 43.0647C243.223 43.0655 243.228 43.067 243.232 43.0688C243.237 43.0706 243.239 43.0721 243.239 43.072C243.239 43.0719 243.235 43.0695 243.229 43.0631L242.946 43.3459ZM243.211 43.4638V43.8638H265.694V43.4638V43.0638H243.211V43.4638ZM265.694 43.4638V43.8638C265.698 43.8638 265.695 43.8644 265.688 43.8617C265.682 43.859 265.673 43.854 265.665 43.8461C265.657 43.8382 265.652 43.8298 265.65 43.823C265.647 43.8163 265.647 43.8137 265.647 43.8174H266.048H266.447C266.447 43.3902 266.121 43.0638 265.694 43.0638V43.4638ZM266.048 43.8174H265.647V46.6462H266.048H266.447V43.8174H266.048ZM266.048 46.6462H265.647C265.647 46.6498 265.647 46.6473 265.65 46.6406C265.652 46.6338 265.657 46.6254 265.665 46.6175C265.673 46.6096 265.682 46.6045 265.688 46.6018C265.695 46.5992 265.698 46.5998 265.694 46.5998V46.9998V47.3998C266.121 47.3998 266.447 47.0733 266.447 46.6462H266.048ZM265.694 46.9998V46.5998H239.882V46.9998V47.3998H265.694V46.9998ZM239.882 46.9998V46.5998C239.878 46.5998 239.88 46.5992 239.887 46.6018C239.894 46.6046 239.902 46.6096 239.91 46.6175C239.918 46.6254 239.923 46.6338 239.926 46.6406C239.929 46.6473 239.928 46.6498 239.928 46.6462H239.528H239.128C239.128 47.0733 239.454 47.3998 239.882 47.3998V46.9998ZM239.528 46.6462H239.928V29.6736H239.528H239.128V46.6462H239.528ZM239.528 29.6736H239.928C239.928 29.67 239.929 29.6725 239.926 29.6792C239.923 29.686 239.918 29.6944 239.91 29.7023C239.902 29.7102 239.894 29.7152 239.887 29.7179C239.88 29.7206 239.878 29.72 239.882 29.72V29.32V28.92C239.454 28.92 239.128 29.2465 239.128 29.6736H239.528ZM239.882 29.32V29.72H265.694V29.32V28.92H239.882V29.32ZM265.694 29.32V29.72C265.698 29.72 265.695 29.7206 265.688 29.7179C265.682 29.7152 265.673 29.7102 265.665 29.7023C265.657 29.6944 265.652 29.686 265.65 29.6792C265.647 29.6725 265.647 29.67 265.647 29.6736H266.048H266.447C266.447 29.2465 266.121 28.92 265.694 28.92V29.32ZM266.048 29.6736H265.647V32.5024H266.048H266.447V29.6736H266.048ZM272.367 34.7418L272.084 35.0247V35.0247L272.367 34.7418ZM273.899 36.2741L273.616 36.5569V36.5569L273.899 36.2741ZM296.47 32.3256L296.753 32.0427V32.0427L296.47 32.3256ZM296.47 38.6903L296.735 38.9904L296.744 38.9821L296.753 38.9731L296.47 38.6903ZM293.995 40.8708L293.731 40.5706L293.721 40.579L293.712 40.5879L293.995 40.8708ZM289.546 41.7548L289.367 42.1125L289.382 42.1203L289.399 42.1267L289.546 41.7548ZM296.765 44.613L296.914 44.2416L296.912 44.2411L296.765 44.613ZM293.318 46.9408L293.155 47.3063L293.173 47.3142L293.191 47.3203L293.318 46.9408ZM281.001 41.4601L281.163 41.0947L281.146 41.0868L281.127 41.0806L281.001 41.4601ZM293.111 38.1599V38.5599C293.538 38.5599 293.865 38.2335 293.865 37.8063H293.465H293.065C293.065 37.81 293.064 37.8074 293.067 37.8007C293.07 37.7939 293.075 37.7855 293.083 37.7776C293.09 37.7697 293.099 37.7647 293.106 37.762C293.112 37.7593 293.115 37.7599 293.111 37.7599V38.1599ZM293.465 37.8063H293.865V33.2096H293.465H293.065V37.8063H293.465ZM293.465 33.2096H293.865C293.865 32.7824 293.538 32.456 293.111 32.456V32.856V33.256C293.115 33.256 293.112 33.2566 293.106 33.2539C293.099 33.2512 293.09 33.2462 293.083 33.2383C293.075 33.2304 293.07 33.222 293.067 33.2152C293.064 33.2085 293.065 33.2059 293.065 33.2096H293.465ZM293.111 32.856V32.456H272.603V32.856V33.256H293.111V32.856ZM272.603 32.856V32.456C272.176 32.456 271.849 32.7824 271.849 33.2096H272.249H272.649C272.649 33.2059 272.65 33.2085 272.647 33.2152C272.644 33.222 272.639 33.2304 272.631 33.2383C272.624 33.2462 272.615 33.2512 272.608 33.2539C272.602 33.2566 272.599 33.256 272.603 33.256V32.856ZM272.249 33.2096H271.849V34.4766H272.249H272.649V33.2096H272.249ZM272.249 34.4766H271.849C271.849 34.6723 271.922 34.8621 272.084 35.0247L272.367 34.7418L272.65 34.459C272.644 34.4526 272.641 34.4492 272.641 34.4489C272.641 34.4488 272.642 34.451 272.644 34.4554C272.646 34.4598 272.647 34.4646 272.648 34.4692C272.649 34.4737 272.649 34.4764 272.649 34.4766H272.249ZM272.367 34.7418L272.084 35.0247L273.616 36.5569L273.899 36.2741L274.182 35.9912L272.65 34.459L272.367 34.7418ZM273.899 36.2741L273.616 36.5569C273.623 36.5633 273.625 36.5667 273.625 36.567C273.625 36.5671 273.624 36.5649 273.622 36.5605C273.62 36.5561 273.619 36.5513 273.618 36.5467C273.617 36.5422 273.617 36.5395 273.617 36.5393H274.017H274.417C274.417 36.3436 274.345 36.1538 274.182 35.9912L273.899 36.2741ZM274.017 36.5393H273.617V37.8063H274.017H274.417V36.5393H274.017ZM274.017 37.8063H273.617C273.617 38.2335 273.944 38.5599 274.371 38.5599V38.1599V37.7599C274.367 37.7599 274.37 37.7593 274.376 37.762C274.383 37.7647 274.392 37.7697 274.399 37.7776C274.407 37.7855 274.412 37.7939 274.415 37.8007C274.418 37.8074 274.417 37.81 274.417 37.8063H274.017ZM274.371 38.1599V38.5599H293.111V38.1599V37.7599H274.371V38.1599ZM270.481 46.6462H270.881V29.6736H270.481H270.081V46.6462H270.481ZM270.481 29.6736H270.881C270.881 29.67 270.882 29.6725 270.879 29.6792C270.876 29.686 270.871 29.6944 270.864 29.7023C270.856 29.7102 270.847 29.7152 270.84 29.7179C270.834 29.7206 270.831 29.72 270.835 29.72V29.32V28.92C270.408 28.92 270.081 29.2465 270.081 29.6736H270.481ZM270.835 29.32V29.72H292.728V29.32V28.92H270.835V29.32ZM292.728 29.32V29.72C293.094 29.72 293.434 29.8548 293.712 30.1333L293.995 29.8504L294.278 29.5676C293.849 29.1388 293.306 28.92 292.728 28.92V29.32ZM293.995 29.8504L293.712 30.1333L296.188 32.6084L296.47 32.3256L296.753 32.0427L294.278 29.5676L293.995 29.8504ZM296.47 32.3256L296.188 32.6084C296.466 32.8869 296.601 33.2271 296.601 33.5926H297.001H297.401C297.401 33.0153 297.182 32.4715 296.753 32.0427L296.47 32.3256ZM297.001 33.5926H296.601V37.4232H297.001H297.401V33.5926H297.001ZM297.001 37.4232H296.601C296.601 37.7888 296.466 38.129 296.188 38.4074L296.47 38.6903L296.753 38.9731C297.182 38.5444 297.401 38.0006 297.401 37.4232H297.001ZM296.47 38.6903L296.206 38.3901L293.731 40.5706L293.995 40.8708L294.26 41.1709L296.735 38.9904L296.47 38.6903ZM293.995 40.8708L293.712 40.5879C293.434 40.8664 293.094 41.0012 292.728 41.0012V41.4012V41.8012C293.306 41.8012 293.849 41.5824 294.278 41.1536L293.995 40.8708ZM292.728 41.4012V41.0012H289.605V41.4012V41.8012H292.728V41.4012ZM289.605 41.4012V41.0012C289.279 41.0012 289.091 41.2524 289.05 41.47C289.007 41.6954 289.094 41.9763 289.367 42.1125L289.546 41.7548L289.725 41.397C289.82 41.4449 289.849 41.549 289.836 41.6197C289.829 41.6542 289.811 41.6966 289.772 41.734C289.728 41.7753 289.668 41.8012 289.605 41.8012V41.4012ZM289.546 41.7548L289.399 42.1267L296.618 44.9849L296.765 44.613L296.912 44.2411L289.693 41.3829L289.546 41.7548ZM296.765 44.613L296.617 44.9844C296.63 44.99 296.625 44.9915 296.616 44.9785C296.611 44.9722 296.607 44.9644 296.604 44.9559C296.601 44.9474 296.601 44.9406 296.601 44.9371H297.001H297.401C297.401 44.6027 297.19 44.352 296.914 44.2416L296.765 44.613ZM297.001 44.9371H296.601V46.6462H297.001H297.401V44.9371H297.001ZM297.001 46.6462H296.601C296.601 46.6498 296.6 46.6473 296.603 46.6406C296.606 46.6338 296.611 46.6254 296.619 46.6175C296.626 46.6096 296.635 46.6045 296.642 46.6018C296.648 46.5992 296.651 46.5998 296.647 46.5998V46.9998V47.3998C297.074 47.3998 297.401 47.0733 297.401 46.6462H297.001ZM296.647 46.9998V46.5998H293.612V46.9998V47.3998H296.647V46.9998ZM293.612 46.9998V46.5998C293.612 46.5998 293.612 46.5998 293.611 46.5997C293.61 46.5997 293.609 46.5996 293.607 46.5995C293.603 46.5992 293.599 46.5988 293.593 46.598C293.581 46.5965 293.566 46.5939 293.549 46.5902C293.514 46.5827 293.477 46.5722 293.444 46.5613L293.318 46.9408L293.191 47.3203C293.291 47.3535 293.458 47.3998 293.612 47.3998V46.9998ZM293.318 46.9408L293.48 46.5754L281.163 41.0947L281.001 41.4601L280.838 41.8256L293.155 47.3063L293.318 46.9408ZM281.001 41.4601L281.127 41.0806C281.052 41.0557 280.9 41.0012 280.735 41.0012V41.4012V41.8012C280.735 41.8012 280.738 41.8012 280.744 41.8021C280.75 41.803 280.759 41.8046 280.771 41.8077C280.798 41.8143 280.827 41.824 280.874 41.8396L281.001 41.4601ZM280.735 41.4012V41.0012H274.371V41.4012V41.8012H280.735V41.4012ZM274.371 41.4012V41.0012C273.944 41.0012 273.617 41.3276 273.617 41.7548H274.017H274.417C274.417 41.7511 274.418 41.7537 274.415 41.7604C274.412 41.7672 274.407 41.7756 274.399 41.7835C274.392 41.7914 274.383 41.7964 274.376 41.7991C274.37 41.8018 274.367 41.8012 274.371 41.8012V41.4012ZM274.017 41.7548H273.617V46.6462H274.017H274.417V41.7548H274.017ZM274.017 46.6462H273.617C273.617 46.6498 273.617 46.6473 273.619 46.6406C273.622 46.6338 273.627 46.6254 273.635 46.6175C273.643 46.6096 273.651 46.6046 273.658 46.6018C273.665 46.5992 273.667 46.5998 273.664 46.5998V46.9998V47.3998C274.091 47.3998 274.417 47.0733 274.417 46.6462H274.017ZM273.664 46.9998V46.5998H270.835V46.9998V47.3998H273.664V46.9998ZM270.835 46.9998V46.5998C270.831 46.5998 270.834 46.5992 270.84 46.6018C270.847 46.6046 270.856 46.6096 270.864 46.6175C270.871 46.6254 270.876 46.6338 270.879 46.6406C270.882 46.6473 270.881 46.6498 270.881 46.6462H270.481H270.081C270.081 47.0733 270.408 47.3998 270.835 47.3998V46.9998Z" fill="black" mask="url(#path-9-inside-1_888_46879)"/>
</g>
<defs>
<clipPath id="clip0_888_46879">
<rect width="405" height="77.9995" fill="white"/>
</clipPath>
</defs>
</svg>
