<svg width="158" height="169" viewBox="0 0 158 169" fill="none" xmlns="http://www.w3.org/2000/svg">
<style>
  .hide {
    visibility: hidden;
  }
</style>
    <path fill-rule="evenodd" clip-rule="evenodd" d="M22.2121 66.6872H23.6416C23.1651 60.4931 23.1652 56.5226 24.1181 51.4402L19.671 50.0108C22.371 35.2402 31.1064 21.2637 43.8123 12.6872L47.3063 17.2931C52.7063 13.6402 61.2828 9.51078 69.3828 8.55784L69.2241 6.96961C73.8299 6.33431 79.3887 6.17548 83.2004 6.81077L83.9945 2.04607C80.3945 1.62254 76.7416 1.51666 73.0357 1.72842L72.8769 0.140189C89.5534 -0.971575 105.118 4.58724 116.712 14.7519C128.306 24.9167 136.089 39.5284 137.2 56.0461C138.312 72.7225 132.595 88.1284 122.43 99.7225C112.265 111.317 97.6533 119.099 80.9768 120.211H80.8181C64.3004 121.323 48.7357 115.605 37.1416 105.44C25.5475 95.4343 17.7651 80.8226 16.6533 64.1461V63.9872L17.4474 64.1461H18.4005C19.5123 80.1873 26.977 94.3225 38.2535 104.17C49.5299 114.017 64.6181 119.575 80.8181 118.464C91.4592 117.828 101.306 114.334 109.565 108.775L107.183 105.917C100.989 109.728 95.9064 112.587 85.2652 114.334V116.081C54.6123 118.781 25.7063 100.993 22.2121 66.6872ZM70.9711 10.3049C67.3711 10.7284 63.9299 11.4696 60.6476 12.5284L60.9651 13.4814C48.2592 17.9284 38.4123 26.9814 32.8534 38.2578C27.2946 49.5343 26.024 62.8755 30.4711 75.7402C34.7593 88.4461 43.971 98.2931 55.2475 103.852C66.524 109.252 79.8652 110.523 92.571 106.234C105.436 101.787 115.124 92.7343 120.683 81.4578C126.242 70.1814 127.512 56.8402 123.065 44.1343L123.542 43.9755C119.571 32.3814 111.312 22.2167 99.5593 16.0225L100.036 15.3872C91.3004 10.9402 81.2946 9.0343 70.9711 10.3049ZM121.795 44.4519C126.083 56.999 124.971 69.8637 119.571 80.8226C114.171 91.7814 104.642 100.675 92.0945 104.964C79.7063 109.252 66.6829 107.981 55.7241 102.581C44.9241 97.1814 36.0298 87.652 31.7416 75.2637C27.4533 62.8755 28.7239 49.8519 33.9651 38.8931C39.3651 27.9343 48.8946 19.0402 61.4417 14.7519C73.8299 10.4637 86.8535 11.7343 97.8123 17.1343C108.771 22.5343 117.665 32.0637 121.795 44.4519ZM119.253 80.6637C124.495 69.8637 125.765 56.999 121.477 44.6108C117.347 32.2225 108.453 22.8519 97.6533 17.4519C86.6945 12.0519 73.8299 10.9402 61.6005 15.0696C49.2122 19.3578 39.6828 28.252 34.4417 39.052C29.0417 49.852 27.9299 62.7167 32.0593 75.1049C36.3476 87.4931 45.0828 97.0225 55.8828 102.264C66.8417 107.664 79.7063 108.775 92.0945 104.646C104.324 100.358 113.853 91.6225 119.253 80.6637ZM121 44.7696C125.13 56.999 124.018 69.7049 118.777 80.5049C113.536 91.1461 104.165 99.8814 91.9357 104.17C79.7063 108.299 67.0004 107.028 56.2004 101.787C45.4004 96.5461 36.6651 87.1755 32.5357 74.9461C28.4063 62.7167 29.518 50.0108 34.918 39.2108C40.1592 28.5696 49.5298 19.8343 61.7592 15.7049C73.9887 11.4167 86.6946 12.6872 97.3357 17.9284C108.136 23.1696 116.871 32.5402 121 44.7696ZM117.824 80.0284C123.065 69.5461 124.177 56.999 120.206 45.0873C116.077 33.1755 107.501 23.9637 97.0182 18.7225C86.5358 13.6402 73.9888 12.3696 62.077 16.499C50.0064 20.6284 40.7945 29.2049 35.7121 39.6872C30.471 50.1696 29.3594 62.7167 33.4888 74.6284C37.4594 86.699 46.0358 95.752 56.5182 100.993C67.1594 106.075 79.5476 107.346 91.6181 103.217C103.53 99.0872 112.742 90.5108 117.824 80.0284ZM124.336 25.552L121.318 27.9343C127.512 36.5108 130.689 44.6108 131.483 57.1578H130.689C131.006 62.0814 130.689 67.1637 129.736 71.2931L134.183 72.8814C135.453 67.6402 135.93 61.9226 135.453 56.2049C134.818 44.7696 130.689 34.2872 124.336 25.552Z" fill="#67e8f9"/>
<path d="M94.4276 59.1715C95.0143 59.568 95.0143 60.432 94.4276 60.8285L66.4633 79.7302C65.7992 80.1791 64.9033 79.7033 64.9033 78.9017V41.0983C64.9033 40.2967 65.7992 39.8209 66.4633 40.2698L94.4276 59.1715Z" fill="white"/>
<path class="hide" d="M152.286 163.979H157.307V169H152.286V163.979Z" fill="#67e8f9"/>
<path class="hide" d="M152.286 158.123H157.307V162.306H152.286V158.123Z" fill="#67e8f9"/>
<path class="hide" d="M145.592 163.979H150.612V169H145.592V163.979Z" fill="#67e8f9"/>
<path class="hide" d="M145.592 158.123H150.612V162.306H145.592V158.123Z" fill="#67e8f9"/>
<path class="hide" d="M145.592 151.429H150.612V156.449H145.592V151.429Z" fill="#67e8f9"/>
<path class="hide" d="M145.592 145.571H150.612V150.592H145.592V145.571Z" fill="#67e8f9"/>
<path class="hide" d="M145.592 139.714H150.612V144.735H145.592V139.714Z" fill="#67e8f9"/>
<path class="hide" d="M139.735 163.979H144.756V169H139.735V163.979Z" fill="#67e8f9"/>
<path class="hide" d="M133.041 163.979H138.061V169H133.041V163.979Z" fill="#67e8f9"/>
<path class="hide" d="M133.041 158.123H138.061V162.306H133.041V158.123Z" fill="#67e8f9"/>
<path class="hide" d="M133.041 151.429H138.061V156.449H133.041V151.429Z" fill="#67e8f9"/>
<path class="hide" d="M133.041 145.571H138.061V150.592H133.041V145.571Z" fill="#67e8f9"/>
<path class="hide" d="M127.184 163.979H131.367V169H127.184V163.979Z" fill="#67e8f9"/>
<path class="hide" d="M120.49 163.979H125.511V169H120.49V163.979Z" fill="#67e8f9"/>
<path class="hide" d="M120.49 158.123H125.511V162.306H120.49V158.123Z" fill="#67e8f9"/>
<path class="hide" d="M120.49 151.429H125.511V156.449H120.49V151.429Z" fill="#67e8f9"/>
<path class="hide" d="M120.49 145.571H125.511V150.592H120.49V145.571Z" fill="#67e8f9"/>
<path class="hide" d="M113.796 163.979H118.816V169H113.796V163.979Z" fill="#67e8f9"/>
<path class="hide" d="M107.939 163.979H112.96V169H107.939V163.979Z" fill="#67e8f9"/>
<path class="hide" d="M107.939 158.123H112.96V162.306H107.939V158.123Z" fill="#67e8f9"/>
<path class="hide" d="M102.082 163.979H106.266V169H102.082V163.979Z" fill="#67e8f9"/>
<path class="hide" d="M102.082 158.123H106.266V162.306H102.082V158.123Z" fill="#67e8f9"/>
<path class="hide" d="M102.082 151.429H106.266V156.449H102.082V151.429Z" fill="#67e8f9"/>
<path class="hide" d="M95.3877 163.979H100.408V169H95.3877V163.979Z" fill="#67e8f9"/>
<path class="hide" d="M95.3877 158.123H100.408V162.306H95.3877V158.123Z" fill="#67e8f9"/>
<path class="hide" d="M88.6943 163.979H93.7147V169H88.6943V163.979Z" fill="#67e8f9"/>
<path class="hide" d="M88.6943 158.123H93.7147V162.306H88.6943V158.123Z" fill="#67e8f9"/>
<path class="hide" d="M82.8369 163.979H87.0206V169H82.8369V163.979Z" fill="#67e8f9"/>
<path class="hide" d="M82.8369 158.123H87.0206V162.306H82.8369V158.123Z" fill="#67e8f9"/>
<path class="hide" d="M82.8369 151.429H87.0206V156.449H82.8369V151.429Z" fill="#67e8f9"/>
<path class="hide" d="M82.8369 145.571H87.0206V150.592H82.8369V145.571Z" fill="#67e8f9"/>
<path class="hide" d="M82.8369 139.714H87.0206V144.735H82.8369V139.714Z" fill="#67e8f9"/>
<path class="hide" d="M76.1436 163.979H81.164V169H76.1436V163.979Z" fill="#67e8f9"/>
<path class="hide" d="M76.1436 158.123H81.164V162.306H76.1436V158.123Z" fill="#67e8f9"/>
<path class="hide" d="M76.1436 151.429H81.164V156.449H76.1436V151.429Z" fill="#67e8f9"/>
<path class="hide" d="M76.1436 145.571H81.164V150.592H76.1436V145.571Z" fill="#67e8f9"/>
<path class="hide" d="M69.4492 163.979H74.4696V169H69.4492V163.979Z" fill="#67e8f9"/>
<path class="hide" d="M69.4492 158.123H74.4696V162.306H69.4492V158.123Z" fill="#67e8f9"/>
<path class="hide" d="M63.5918 163.979H68.6122V169H63.5918V163.979Z" fill="#67e8f9"/>
<path class="hide" d="M63.5918 158.123H68.6122V162.306H63.5918V158.123Z" fill="#67e8f9"/>
<path class="hide" d="M63.5918 151.429H68.6122V156.449H63.5918V151.429Z" fill="#67e8f9"/>
<path class="hide" d="M63.5918 145.571H68.6122V150.592H63.5918V145.571Z" fill="#67e8f9"/>
<path class="hide" d="M63.5918 139.714H68.6122V144.735H63.5918V139.714Z" fill="#67e8f9"/>
<path class="hide" d="M63.5918 133.857H68.6122V138.877H63.5918V133.857Z" fill="#67e8f9"/>
<path class="hide" d="M63.5918 128H68.6122V133.02H63.5918V128Z" fill="#67e8f9"/>
<path class="hide" d="M56.8984 163.979H61.9188V169H56.8984V163.979Z" fill="#67e8f9"/>
<path class="hide" d="M56.8984 158.123H61.9188V162.306H56.8984V158.123Z" fill="#67e8f9"/>
<path class="hide" d="M56.8984 151.429H61.9188V156.449H56.8984V151.429Z" fill="#67e8f9"/>
<path class="hide" d="M51.041 163.979H55.2247V169H51.041V163.979Z" fill="#67e8f9"/>
<path class="hide" d="M51.041 158.123H55.2247V162.306H51.041V158.123Z" fill="#67e8f9"/>
<path class="hide" d="M51.041 151.429H55.2247V156.449H51.041V151.429Z" fill="#67e8f9"/>
<path class="hide" d="M51.041 145.571H55.2247V150.592H51.041V145.571Z" fill="#67e8f9"/>
<path class="hide" d="M51.041 139.714H55.2247V144.735H51.041V139.714Z" fill="#67e8f9"/>
<path class="hide" d="M44.3467 163.979H49.3671V169H44.3467V163.979Z" fill="#67e8f9"/>
<path class="hide" d="M44.3467 158.123H49.3671V162.306H44.3467V158.123Z" fill="#67e8f9"/>
<path class="hide" d="M37.6533 163.979H42.6737V169H37.6533V163.979Z" fill="#67e8f9"/>
<path class="hide" d="M37.6533 158.123H42.6737V162.306H37.6533V158.123Z" fill="#67e8f9"/>
<path class="hide" d="M31.7959 163.979H36.8163V169H31.7959V163.979Z" fill="#67e8f9"/>
<path class="hide" d="M31.7959 158.123H36.8163V162.306H31.7959V158.123Z" fill="#67e8f9"/>
<path class="hide" d="M31.7959 151.429H36.8163V156.449H31.7959V151.429Z" fill="#67e8f9"/>
<path class="hide" d="M31.7959 145.571H36.8163V150.592H31.7959V145.571Z" fill="#67e8f9"/>
<path class="hide" d="M31.7959 139.714H36.8163V144.735H31.7959V139.714Z" fill="#67e8f9"/>
<path class="hide" d="M25.1025 163.979H30.1229V169H25.1025V163.979Z" fill="#67e8f9"/>
<path class="hide" d="M25.1025 158.123H30.1229V162.306H25.1025V158.123Z" fill="#67e8f9"/>
<path class="hide" d="M25.1025 151.429H30.1229V156.449H25.1025V151.429Z" fill="#67e8f9"/>
<path class="hide" d="M25.1025 145.571H30.1229V150.592H25.1025V145.571Z" fill="#67e8f9"/>
<path class="hide" d="M19.2451 163.979H23.4288V169H19.2451V163.979Z" fill="#67e8f9"/>
<path class="hide" d="M19.2451 158.123H23.4288V162.306H19.2451V158.123Z" fill="#67e8f9"/>
<path class="hide" d="M19.2451 151.429H23.4288V156.449H19.2451V151.429Z" fill="#67e8f9"/>
<path class="hide" d="M19.2451 145.571H23.4288V150.592H19.2451V145.571Z" fill="#67e8f9"/>
<path class="hide" d="M12.5518 163.979H17.5722V169H12.5518V163.979Z" fill="#67e8f9"/>
<path class="hide" d="M5.85742 163.979H10.8778V169H5.85742V163.979Z" fill="#67e8f9"/>
<path class="hide" d="M5.85742 158.123H10.8778V162.306H5.85742V158.123Z" fill="#67e8f9"/>
<path class="hide" d="M5.85742 151.429H10.8778V156.449H5.85742V151.429Z" fill="#67e8f9"/>
<path class="hide" d="M5.85742 145.571H10.8778V150.592H5.85742V145.571Z" fill="#67e8f9"/>
<path class="hide" d="M0 163.979H5.02041V169H0V163.979Z" fill="#67e8f9"/>
</svg>
