<svg width="243" height="32" viewBox="0 0 243 32" fill="none" xmlns="http://www.w3.org/2000/svg">
<path d="M18.1352 24.775L9.68359 16.2588L18.6514 7.29102L19.5546 8.19425L11.49 16.2588L19.0385 23.8718L18.1352 24.775Z" fill="#F40004"/>
<path d="M51.2255 32.0003H29.9352L14.3867 16.4518L30.8384 0H51.2255V3.871H32.3868L19.8706 16.4518L31.5481 28.1293H51.2255V32.0003Z" fill="#F40004"/>
<path d="M10.5807 16.9024H0V15.6121H10.5807V16.9024Z" fill="#F40004"/>
<path d="M121.289 30.7098H48.0625V29.4194H121.289V30.7098Z" fill="#F40004"/>
<path d="M121.289 2.57671H48.0625V1.28638H121.289V2.57671Z" fill="#F40004"/>
<path d="M224.001 24.775L223.098 23.8718L231.162 15.7427L223.614 8.19425L224.517 7.29102L232.969 15.7427L224.001 24.775Z" fill="#F40004"/>
<path d="M211.813 32.0003H191.426V28.1293H210.265L222.781 15.613L211.103 3.871H191.426V0H212.716L228.265 15.613L211.813 32.0003Z" fill="#F40004"/>
<path d="M242.583 16.3836H232.066V15.0933H242.583V16.3836Z" fill="#F40004"/>
<path d="M194.58 2.57671H121.289V1.28638H194.58V2.57671Z" fill="#F40004"/>
<path d="M194.58 30.7098H121.289V29.4194H194.58V30.7098Z" fill="#F40004"/>
</svg>
