<svg width="977" height="55" viewBox="0 0 977 55" fill="none" xmlns="http://www.w3.org/2000/svg">
<g filter="url(#filter0_i_1456_48220)">
<path d="M2.63495 32.1166H30.7333H196.843L219.156 49.4733H234.031L211.718 32.1166H230.726L253.866 49.4733H268.741L245.602 32.1166H265.435L287.749 49.4733C288.299 49.4733 288.575 49.4733 288.575 49.4733H456.338C456.889 49.4733 457.439 49.4733 457.99 49.4733L479.477 32.1166H572.036L600.134 54.4321C600.134 54.4321 600.41 54.4321 600.961 54.4321H695.998C696.549 54.4321 696.825 54.4321 696.825 54.4321L724.923 32.1166H894.338L882.768 41.2082H787.73V43.6876H882.768C883.319 43.6876 883.87 43.6876 884.421 43.6876L899.297 32.1166H975.327C976.153 32.1166 976.98 31.2899 976.98 30.4634V21.3718C976.98 20.5453 976.153 19.7189 975.327 19.7189H736.493C735.942 19.7189 735.391 19.7189 734.84 19.7189L723.27 29.6369L695.172 51.9527H601.787L572.862 29.6369C572.862 29.0859 572.587 28.8106 572.036 28.8106H507.575L499.311 19.7189C498.76 19.7189 498.209 19.7189 497.659 19.7189H381.134C380.583 19.7189 380.307 19.7189 380.307 19.7189L372.043 28.8106H265.435C264.884 28.8106 264.609 28.8106 264.609 28.8106H242.296H241.469H227.42H207.586H192.711H31.5595L3.46118 0.709095C2.91022 0.709095 2.63495 0.709095 2.63495 0.709095C2.08398 0.709095 1.80872 0.709095 1.80872 0.709095C1.25781 0.709095 0.982056 1.2602 0.982056 2.36221V30.4634C0.982056 31.2899 1.80853 32.1166 2.63495 32.1166Z" fill="#F40004"/>
</g>
<path d="M572.505 29.812L572.644 29.9194L601.569 52.2358L601.666 52.3101H695.296L695.394 52.2319L723.492 29.9165L723.27 29.6372L723.493 29.9165L723.502 29.9077L734.971 20.0757H975.327C975.624 20.0757 975.952 20.228 976.211 20.4878C976.471 20.7475 976.622 21.0746 976.623 21.3716V30.4634C976.623 30.7605 976.47 31.0873 976.21 31.3472C975.951 31.607 975.624 31.7593 975.327 31.7593H899.174L899.078 31.8345L884.298 43.3306H788.087V41.5649H882.892L882.989 41.4888L894.559 32.397L895.371 31.7593H724.798L724.701 31.8374L696.702 54.0747H600.257L572.258 31.8374L572.161 31.7593H479.351L479.252 31.8384L457.866 49.1157H287.871L265.655 31.8345L265.558 31.7593H244.531L245.387 32.4019L267.668 49.1157H253.983L230.94 31.8306L230.844 31.7593H210.677L211.499 32.3979L232.99 49.1157H219.278L197.062 31.8345L196.965 31.7593H2.63525C2.33821 31.7593 2.01128 31.607 1.75146 31.3472C1.49165 31.0873 1.33936 30.7605 1.33936 30.4634V2.36182C1.33939 1.82931 1.40784 1.48261 1.5083 1.28174C1.55585 1.18679 1.60454 1.13694 1.64502 1.10986C1.68337 1.08429 1.73386 1.06592 1.80908 1.06592H3.31299L31.3071 29.063L31.4116 29.1675H372.201L372.307 29.0503L380.466 20.0757H499.152L507.311 29.0503L507.417 29.1675H572.036C572.256 29.1675 572.356 29.2229 572.403 29.27C572.45 29.3171 572.505 29.4167 572.505 29.6372V29.812Z" stroke="#F40004" stroke-width="0.714145"/>
<defs>
<filter id="filter0_i_1456_48220" x="0.981934" y="0.709106" width="978.855" height="56.5796" filterUnits="userSpaceOnUse" color-interpolation-filters="sRGB">
<feFlood flood-opacity="0" result="BackgroundImageFix"/>
<feBlend mode="normal" in="SourceGraphic" in2="BackgroundImageFix" result="shape"/>
<feColorMatrix in="SourceAlpha" type="matrix" values="0 0 0 0 0 0 0 0 0 0 0 0 0 0 0 0 0 0 127 0" result="hardAlpha"/>
<feOffset dx="3.57072" dy="4.99901"/>
<feGaussianBlur stdDeviation="1.42829"/>
<feComposite in2="hardAlpha" operator="arithmetic" k2="-1" k3="1"/>
<feColorMatrix type="matrix" values="0 0 0 0 0.893349 0 0 0 0 0.883654 0 0 0 0 1 0 0 0 0.25 0"/>
<feBlend mode="normal" in2="shape" result="effect1_innerShadow_1456_48220"/>
</filter>
</defs>
</svg>
