<svg viewBox="0 0 1296.86 873.634" xmlns="http://www.w3.org/2000/svg" width="1296.863" height="873.634" fill="none"><defs><linearGradient id="prefix__a" x1="60.889" x2="1233.954" y1="14.342" y2="14.342" gradientUnits="userSpaceOnUse"><stop stop-color="red" offset="0"/><stop stop-color="#00B2FF" offset="1"/></linearGradient><linearGradient id="prefix__b" x1="-.137" x2="1296.863" y1="15" y2="874" gradientUnits="userSpaceOnUse"><stop stop-color="red" offset="0"/><stop stop-color="#00B2FF" offset="1"/></linearGradient><radialGradient id="prefix__c" cx="0" cy="0" r="1" gradientUnits="userSpaceOnUse" gradientTransform="scale(177578 114797) rotate(-90 .215 .034)"><stop stop-color="#84DEFF" offset=".01" stop-opacity=".5"/><stop stop-color="#4F5F9F" offset="1" stop-opacity=".5"/></radialGradient></defs><path d="M1233.95 28.685H857.527L839.913 6.039H458.956l-17.613 22.646H60.889v-6.039h377.434L456.44 0h385.989l18.117 22.646h373.404v6.039z" fill="url(#prefix__a)"/><path d="M1296.86 92.094v682.903l-35.22 37.744v36.234h-123.3l-25.66 24.659H184.188l-25.666-24.659H35.227v-36.234L0 774.997V92.094l30.195-30.698h.503l23.15-24.156h392.027l17.614-22.646h369.885l17.614 22.646h392.032l23.65 24.156 30.19 30.698zm-12.07 141.915l-12.59-17.614V108.701l-20.63-24.156v-21.64l-13.59-13.587H845.452l-17.613-22.646H469.528l-18.117 22.646H58.88L45.292 62.905v21.64L25.162 108.7v107.694l-13.084 17.614V643.65l14.594 23.653v116.753l20.13 23.652v16.607l.503.504v12.078h116.25l25.665 24.659h918.93l25.66-24.659h116.25v-29.189l20.63-23.652V667.303l14.1-23.653V234.009z" fill="url(#prefix__b)" fill-rule="evenodd"/><path d="M196.265 843.941l-25.666-24.659H64.918v-18.116l-20.633-23.653V662.27l-14.091-23.653v-398.57l12.58-18.117V115.242l20.634-24.156V70.454l3.02-3.522h393.537l18.117-22.646h341.2l17.614 22.646h393.534l3.53 3.522v20.633l20.13 24.156V221.93l13.08 18.117v398.57l-14.59 23.653v115.243l-20.13 23.653v18.116h-106.19l-25.66 24.659H196.265z" opacity=".3" fill="url(#prefix__c)"/></svg>