<svg viewBox="0 0 1296.86 873.634" xmlns="http://www.w3.org/2000/svg" xmlns:xlink="http://www.w3.org/1999/xlink" width="1296.863281" height="873.633789" fill="none" customFrame="#000000">
	<defs>
		<linearGradient id="paint_linear_70" x1="60.8894043" x2="1233.95422" y1="14.3424883" y2="14.3424883" gradientUnits="userSpaceOnUse">
			<stop stop-color="rgb(255,0,0)" offset="0" stop-opacity="1" />
			<stop stop-color="rgb(0,178,255)" offset="1" stop-opacity="1" />
		</linearGradient>
		<linearGradient id="paint_linear_71" x1="-0.136779785" x2="1296.86328" y1="15.000061" y2="874.000122" gradientUnits="userSpaceOnUse">
			<stop stop-color="rgb(255,0,0)" offset="0" stop-opacity="1" />
			<stop stop-color="rgb(0,178.5,255)" offset="1" stop-opacity="1" />
		</linearGradient>
		<radialGradient id="paint_radial_0" cx="0" cy="0" r="1" gradientUnits="userSpaceOnUse" gradientTransform="matrix(0,-114797,177578,0,32105.6,28529.8)">
			<stop stop-color="rgb(132,222.2,255)" offset="0.00999999978" stop-opacity="0.5" />
			<stop stop-color="rgb(79.6875,95.625,159.375)" offset="1" stop-opacity="0.5" />
		</radialGradient>
	</defs>
	<g id="Group 1171279797">
		<path id="Vector" d="M1233.95 28.685L857.527 28.685L839.913 6.03894L458.956 6.03894L441.343 28.685L60.8894 28.685L60.8894 22.646L438.323 22.646L456.44 0L842.429 0L860.546 22.646L1233.95 22.646L1233.95 28.685Z" fill="url(#paint_linear_70)" fill-rule="nonzero" />
		<path id="Vector" d="M1296.86 92.0935L1296.86 774.997L1261.64 812.741L1261.64 848.975L1138.34 848.975L1112.68 873.634L184.188 873.634L158.522 848.975L35.2272 848.975L35.2272 812.741L0 774.997L0 92.0935L30.1947 61.3956L30.698 61.3956L53.8473 37.2398L445.875 37.2398L463.489 14.5938L833.374 14.5938L850.988 37.2398L1243.02 37.2398L1266.67 61.3956L1296.86 92.0935ZM1284.79 234.009L1272.2 216.395L1272.2 108.701L1251.57 84.5449L1251.57 62.9053L1237.98 49.3177L845.452 49.3177L827.839 26.6716L469.528 26.6716L451.411 49.3177L58.8797 49.3177L45.2921 62.9053L45.2921 84.5449L25.1623 108.701L25.1623 216.395L12.0779 234.009L12.0779 643.65L26.672 667.303L26.672 784.056L46.8018 807.708L46.8018 824.315L47.3051 824.819L47.3051 836.897L163.555 836.897L189.22 861.556L1108.15 861.556L1133.81 836.897L1250.06 836.897L1250.06 824.819L1250.06 824.315L1250.06 807.708L1270.69 784.056L1270.69 667.303L1284.79 643.65L1284.79 234.009Z" fill="url(#paint_linear_71)" fill-rule="evenodd" />
		<path id="Vector" d="M196.265 843.941L170.599 819.282L64.9177 819.282L64.9177 801.166L44.2846 777.513L44.2846 662.27L30.1937 638.617L30.1937 240.047L42.7749 221.93L42.7749 115.242L63.4079 91.0865L63.4079 70.4534L66.4274 66.9307L459.965 66.9307L478.082 44.2847L819.282 44.2847L836.896 66.9307L1230.43 66.9307L1233.96 70.4534L1233.96 91.0865L1254.09 115.242L1254.09 221.93L1267.17 240.047L1267.17 638.617L1252.58 662.27L1252.58 777.513L1232.45 801.166L1232.45 819.282L1126.26 819.282L1100.6 843.941L196.265 843.941Z" opacity="0.300000012" fill="url(#paint_radial_0)" fill-rule="nonzero" />
	</g>
</svg>
