<svg viewBox="0 0 1296.86 859.04" xmlns="http://www.w3.org/2000/svg" xmlns:xlink="http://www.w3.org/1999/xlink" width="1296.863281" height="859.039795" fill="none" customFrame="#000000">
	<defs>
		<linearGradient id="paint_linear_0" x1="-0.136779785" x2="1296.86328" y1="0.406066895" y2="859.406128" gradientUnits="userSpaceOnUse">
			<stop stop-color="rgb(255,0,0)" offset="0" stop-opacity="1" />
			<stop stop-color="rgb(0,178.5,255)" offset="1" stop-opacity="1" />
		</linearGradient>
	</defs>
	<path id="Vector" d="M1296.86 77.4995L1296.86 760.404L1261.64 798.147L1261.64 834.381L1138.34 834.381L1112.68 859.04L184.188 859.04L158.522 834.381L35.2272 834.381L35.2272 798.147L0 760.404L0 77.4995L30.1947 46.8016L30.698 46.8016L53.8473 22.6458L445.875 22.6458L463.489 -0.000244141L833.374 -0.000244141L850.988 22.6458L1243.02 22.6458L1266.67 46.8016L1296.86 77.4995ZM1284.79 219.415L1272.2 201.801L1272.2 94.1066L1251.57 69.9509L1251.57 48.3113L1237.98 34.7237L845.452 34.7237L827.839 12.0777L469.528 12.0777L451.411 34.7237L58.8797 34.7237L45.2921 48.3113L45.2921 69.9509L25.1623 94.1066L25.1623 201.801L12.0779 219.415L12.0779 629.056L26.672 652.709L26.672 769.462L46.8018 793.114L46.8018 809.721L47.3051 810.225L47.3051 822.303L163.555 822.303L189.22 846.962L1108.15 846.962L1133.81 822.303L1250.06 822.303L1250.06 810.225L1250.06 809.721L1250.06 793.114L1270.69 769.462L1270.69 652.709L1284.79 629.056L1284.79 219.415Z" fill="url(#paint_linear_0)" fill-rule="evenodd" />
</svg>
