<svg width="126" height="162" viewBox="0 0 126 162" fill="none" xmlns="http://www.w3.org/2000/svg">
<g filter="url(#filter0_f_880_40)">
<path d="M63.7067 11.0794L63.7984 151.329L58.5249 147.384L58.8965 14.8553L63.7067 11.0794Z" fill="#F40004"/>
<path fill-rule="evenodd" clip-rule="evenodd" d="M63.2842 10.3237L58.474 14.0996C58.2244 14.2437 58.0468 14.5127 57.9413 14.9065L58.1602 147.593C58.1602 147.593 58.2323 147.718 58.3764 147.968L63.0594 151.754C63.2035 152.004 63.4006 152.057 63.6502 151.913C63.8999 151.768 64.0772 151.5 64.1827 151.106L64.3072 11.2309C64.4127 10.8371 64.2685 10.5875 63.8747 10.4819C63.7306 10.2323 63.5339 10.1796 63.2842 10.3237ZM59.4973 15.0067L63.0257 12.4702L62.9436 149.824L59.4998 147.319L59.4973 15.0067Z" fill="#F40004"/>
<path d="M73.8031 37.2064L73.5468 87.7833C70.0184 90.3199 67.6134 92.2077 63.9268 95.335L63.8463 29.4744C68.0969 32.5124 69.9269 33.9521 73.8031 37.2064Z" fill="#F40004"/>
<path fill-rule="evenodd" clip-rule="evenodd" d="M63.6579 29.0898C63.6579 29.0898 63.6053 29.2867 63.4998 29.6805L63.3641 95.1667C63.5082 95.4163 63.6523 95.6659 63.7965 95.9156C64.1903 96.0211 64.5118 96.0019 64.7614 95.8577L74.1655 87.9315C74.1655 87.9315 74.2902 87.8595 74.5399 87.7153L74.2053 36.9802C74.4549 36.836 74.3829 36.7113 73.9891 36.6058L64.6231 29.0319C64.479 28.7822 64.2821 28.7294 64.0325 28.8736C64.0325 28.8736 63.9075 28.9457 63.6579 29.0898ZM65.0202 93.7112L64.7389 30.9621L73.082 37.6288L72.7679 87.2406L65.0202 93.7112Z" fill="#F40004"/>
<path d="M73.6406 95.7151L64.0204 103.267L64.0361 106.753L73.6562 99.2013L73.6406 95.7151Z" fill="#F40004"/>
<path fill-rule="evenodd" clip-rule="evenodd" d="M74.3506 94.3234L63.2327 102.74L63.3643 108.156L74.2658 99.3654L74.3506 94.3234ZM64.8465 103.805L72.9686 97.1187L73.0847 99.0488L64.7461 105.361L64.8465 103.805Z" fill="#F40004"/>
<path d="M73.5311 106.77L64.1273 114.696L63.9268 117.808L73.5468 110.256L73.5311 106.77Z" fill="#F40004"/>
<path fill-rule="evenodd" clip-rule="evenodd" d="M74.244 105.371L63.3422 114.162L63.4736 119.578L74.3754 110.787L74.244 105.371ZM64.7398 114.853L72.8619 108.166L72.7616 109.722L64.6395 116.408L64.7398 114.853Z" fill="#F40004"/>
</g>
<path d="M63.7067 11.0794L63.7984 151.329L58.5249 147.384L58.8965 14.8553L63.7067 11.0794Z" fill="#F40004"/>
<path fill-rule="evenodd" clip-rule="evenodd" d="M63.2842 10.3237L58.474 14.0996C58.2244 14.2437 58.0468 14.5127 57.9413 14.9065L58.1602 147.593C58.1602 147.593 58.2323 147.718 58.3764 147.968L63.0594 151.754C63.2035 152.004 63.4006 152.057 63.6502 151.913C63.8999 151.768 64.0772 151.5 64.1827 151.106L64.3072 11.2309C64.4127 10.8371 64.2685 10.5875 63.8747 10.4819C63.7306 10.2323 63.5339 10.1796 63.2842 10.3237ZM59.4973 15.0067L63.0257 12.4702L62.9436 149.824L59.4998 147.319L59.4973 15.0067Z" fill="#F40004"/>
<path d="M73.8031 37.2064L73.5468 87.7833C70.0184 90.3199 67.6134 92.2077 63.9268 95.335L63.8463 29.4744C68.0969 32.5124 69.9269 33.9521 73.8031 37.2064Z" fill="#F40004"/>
<path fill-rule="evenodd" clip-rule="evenodd" d="M63.6579 29.0898C63.6579 29.0898 63.6053 29.2867 63.4998 29.6805L63.3641 95.1667C63.5082 95.4163 63.6523 95.6659 63.7965 95.9156C64.1903 96.0211 64.5118 96.0019 64.7614 95.8577L74.1655 87.9315C74.1655 87.9315 74.2902 87.8595 74.5399 87.7153L74.2053 36.9802C74.4549 36.836 74.3829 36.7113 73.9891 36.6058L64.6231 29.0319C64.479 28.7822 64.2821 28.7294 64.0325 28.8736C64.0325 28.8736 63.9075 28.9457 63.6579 29.0898ZM65.0202 93.7112L64.7389 30.9621L73.082 37.6288L72.7679 87.2406L65.0202 93.7112Z" fill="#F40004"/>
<path d="M73.6406 95.7151L64.0204 103.267L64.0361 106.753L73.6562 99.2013L73.6406 95.7151Z" fill="#F40004"/>
<path fill-rule="evenodd" clip-rule="evenodd" d="M74.3506 94.3234L63.2327 102.74L63.3643 108.156L74.2658 99.3654L74.3506 94.3234ZM64.8465 103.805L72.9686 97.1187L73.0847 99.0488L64.7461 105.361L64.8465 103.805Z" fill="#F40004"/>
<path d="M73.5311 106.77L64.1273 114.696L63.9268 117.808L73.5468 110.256L73.5311 106.77Z" fill="#F40004"/>
<path fill-rule="evenodd" clip-rule="evenodd" d="M74.244 105.371L63.3422 114.162L63.4736 119.578L74.3754 110.787L74.244 105.371ZM64.7398 114.853L72.8619 108.166L72.7616 109.722L64.6395 116.408L64.7398 114.853Z" fill="#F40004"/>
<defs>
<filter id="filter0_f_880_40" x="47.9414" y="0.244629" width="36.5986" height="161.747" filterUnits="userSpaceOnUse" color-interpolation-filters="sRGB">
<feFlood flood-opacity="0" result="BackgroundImageFix"/>
<feBlend mode="normal" in="SourceGraphic" in2="BackgroundImageFix" result="shape"/>
<feGaussianBlur stdDeviation="5" result="effect1_foregroundBlur_880_40"/>
</filter>
</defs>
</svg>
