<svg width="126" height="162" viewBox="0 0 126 162" fill="none" xmlns="http://www.w3.org/2000/svg">
<path d="M61.5375 151.131L61.4457 10.8812L66.7193 14.8264L66.3476 147.355L61.5375 151.131Z" fill="#F40004"/>
<path fill-rule="evenodd" clip-rule="evenodd" d="M61.9599 151.886L66.7701 148.11C67.0197 147.966 67.1973 147.697 67.3028 147.303L67.0839 14.6169C67.0839 14.6169 67.0119 14.4921 66.8677 14.2424L62.1847 10.4555C62.0406 10.2059 61.8436 10.1532 61.5939 10.2973C61.3443 10.4415 61.1669 10.7103 61.0614 11.1041L60.937 150.979C60.8314 151.373 60.9756 151.623 61.3694 151.728C61.5135 151.978 61.7103 152.03 61.9599 151.886ZM65.7468 147.203L62.2184 149.74L62.3006 12.3858L65.7444 14.891L65.7468 147.203Z" fill="#F40004"/>
<path d="M51.4411 125.004L51.6973 74.4266C55.2257 71.8901 57.6307 70.0022 61.3174 66.875L61.3979 132.736C57.1473 129.698 55.3172 128.258 51.4411 125.004Z" fill="#F40004"/>
<path fill-rule="evenodd" clip-rule="evenodd" d="M61.5862 133.12C61.5862 133.12 61.6389 132.923 61.7444 132.529L61.88 67.0433C61.7359 66.7936 61.5918 66.544 61.4477 66.2944C61.0539 66.1889 60.7323 66.2081 60.4827 66.3522L51.0786 74.2785C51.0786 74.2785 50.9539 74.3505 50.7043 74.4946L51.0388 125.23C50.7892 125.374 50.8612 125.499 51.255 125.604L60.621 133.178C60.7652 133.428 60.962 133.481 61.2116 133.336C61.2116 133.336 61.3366 133.264 61.5862 133.12ZM60.224 68.4988L60.5052 131.248L52.1622 124.581L52.4762 74.9694L60.224 68.4988Z" fill="#F40004"/>
<path d="M51.6035 66.4948L61.2238 58.9431L61.208 55.457L51.588 63.0087L51.6035 66.4948Z" fill="white"/>
<path fill-rule="evenodd" clip-rule="evenodd" d="M50.9013 67.8865L62.0193 59.4699L61.8877 54.0537L50.9862 62.8446L50.9013 67.8865ZM60.4055 58.4045L52.2834 65.0913L52.1673 63.1611L60.5058 56.8487L60.4055 58.4045Z" fill="white"/>
<path d="M51.713 55.4399L61.1169 47.5138L61.3174 44.4023L51.6973 51.954L51.713 55.4399Z" fill="white"/>
<path fill-rule="evenodd" clip-rule="evenodd" d="M51.008 56.8393L61.9097 48.0483L61.7783 42.6318L50.8766 51.4228L51.008 56.8393ZM60.5122 47.3574L52.39 54.0441L52.4903 52.4882L60.6125 45.8015L60.5122 47.3574Z" fill="white"/>
<g filter="url(#filter0_f_880_59)">
<path d="M61.5297 151.131L61.4379 10.8812L66.7115 14.8264L66.3398 147.355L61.5297 151.131Z" fill="#F40004"/>
<path fill-rule="evenodd" clip-rule="evenodd" d="M61.9599 151.886L66.7701 148.11C67.0197 147.966 67.1973 147.697 67.3028 147.303L67.0839 14.6169C67.0839 14.6169 67.0119 14.4921 66.8677 14.2424L62.1847 10.4555C62.0406 10.2059 61.8436 10.1532 61.5939 10.2973C61.3443 10.4415 61.1669 10.7103 61.0614 11.1041L60.937 150.979C60.8314 151.373 60.9756 151.623 61.3694 151.728C61.5135 151.978 61.7103 152.03 61.9599 151.886ZM65.7468 147.203L62.2184 149.74L62.3006 12.3858L65.7444 14.891L65.7468 147.203Z" fill="#F40004"/>
<path d="M51.4333 125.004L51.6895 74.4266C55.2179 71.8901 57.6229 70.0022 61.3096 66.875L61.3901 132.736C57.1395 129.698 55.3094 128.258 51.4333 125.004Z" fill="#F40004"/>
<path fill-rule="evenodd" clip-rule="evenodd" d="M61.5784 133.12C61.5784 133.12 61.6311 132.923 61.7366 132.529L61.8722 67.0433C61.7281 66.7936 61.584 66.544 61.4399 66.2944C61.0461 66.1889 60.7245 66.2081 60.4749 66.3522L51.0708 74.2785C51.0708 74.2785 50.9461 74.3505 50.6965 74.4946L51.031 125.23C50.7814 125.374 50.8534 125.499 51.2472 125.604L60.6132 133.178C60.7574 133.428 60.9542 133.481 61.2038 133.336C61.2038 133.336 61.3288 133.264 61.5784 133.12ZM60.2161 68.4988L60.4974 131.248L52.1544 124.581L52.4684 74.9694L60.2161 68.4988Z" fill="#F40004"/>
<path d="M51.6035 66.4948L61.2238 58.9431L61.208 55.457L51.588 63.0087L51.6035 66.4948Z" fill="white"/>
<path fill-rule="evenodd" clip-rule="evenodd" d="M50.8935 67.8865L62.0114 59.4699L61.8799 54.0537L50.9783 62.8446L50.8935 67.8865ZM60.3977 58.4045L52.2755 65.0913L52.1595 63.1611L60.498 56.8487L60.3977 58.4045Z" fill="white"/>
<path d="M51.7052 55.4399L61.1091 47.5138L61.3096 44.4023L51.6895 51.954L51.7052 55.4399Z" fill="white"/>
<path fill-rule="evenodd" clip-rule="evenodd" d="M51.0001 56.8393L61.9019 48.0483L61.7705 42.6318L50.8687 51.4228L51.0001 56.8393ZM60.5043 47.3574L52.3822 54.0441L52.4825 52.4882L60.6046 45.8015L60.5043 47.3574Z" fill="white"/>
</g>
<defs>
<filter id="filter0_f_880_59" x="40.6963" y="0.218262" width="36.6064" height="161.747" filterUnits="userSpaceOnUse" color-interpolation-filters="sRGB">
<feFlood flood-opacity="0" result="BackgroundImageFix"/>
<feBlend mode="normal" in="SourceGraphic" in2="BackgroundImageFix" result="shape"/>
<feGaussianBlur stdDeviation="5" result="effect1_foregroundBlur_880_59"/>
</filter>
</defs>
</svg>
