<svg width="401" height="264" viewBox="0 0 401 264" fill="none" xmlns="http://www.w3.org/2000/svg" xmlns:xlink="http://www.w3.org/1999/xlink">
<g clip-path="url(#clip0_888_46917)">
<path d="M5.78516 5.93652H31.3616L5.78516 31.5891V5.93652Z" fill="#FFFBFB"/>
<path d="M395.065 31.5892L369.488 5.93665H395.065V31.5892Z" fill="#FFFBFB"/>
<path d="M31.0586 7.61182C33.4183 7.61182 35.8542 7.61182 36.1587 7.61182C38.3662 7.61182 40.4975 7.61182 40.802 7.61182C40.8781 7.61182 41.6393 6.92672 42.8572 5.78491H32.8855L31.0586 7.61182Z" fill="#FFFBFB"/>
<path d="M44.9111 7.61157C47.2709 7.61157 49.7067 7.61157 50.0112 7.61157C52.2187 7.61157 54.35 7.61157 54.6545 7.61157C54.7306 7.61157 55.4919 6.92647 56.7098 5.78467H46.738L44.9111 7.61157Z" fill="#FFFBFB"/>
<path d="M344.141 5.78491C346.501 5.78491 348.936 5.78491 349.241 5.78491C351.448 5.78491 353.58 5.78491 353.884 5.78491C353.96 5.78491 354.722 6.47001 355.94 7.61182H345.968L344.141 5.78491Z" fill="#FFFBFB"/>
<path d="M357.994 5.78491C360.354 5.78491 362.79 5.78491 363.094 5.78491C365.302 5.78491 367.433 5.78491 367.737 5.78491C367.814 5.78491 368.575 6.47001 369.793 7.61182H359.821L357.994 5.78491Z" fill="#FFFBFB"/>
<path d="M152.468 12.0267H248.38L258.275 3.27289L260.787 1.06543H140.061L142.573 3.27289L152.468 12.0267Z" fill="#FFFBFB"/>
<path d="M340.714 5.78467H272.434L254.927 21.3893L255.46 21.9983L265.508 13.0161H272.815L280.046 6.62202H282.102L274.946 13.0161H282.863L290.094 6.62202H292.15L284.994 13.0161H292.911L300.142 6.62202H302.198L294.966 13.0161H302.959L310.19 6.62202H340.562C340.79 6.62202 341.019 6.39363 341.095 6.16527C341.095 5.93691 340.943 5.78467 340.714 5.78467Z" fill="#FFFBFB"/>
<path d="M330.438 8.90564H311.56L304.176 15.5281H266.877C266.649 15.5281 266.497 15.6803 266.421 15.9848C266.421 16.2132 266.573 16.3654 266.801 16.3654H304.405L311.788 9.74294H330.362C330.59 9.74294 330.819 9.5907 330.819 9.36234C330.895 9.13398 330.742 8.90564 330.438 8.90564Z" fill="#FFFBFB"/>
<path d="M60.1345 5.78467H128.414L145.922 21.3893L145.389 21.9983L135.341 13.0161H128.034L120.802 6.62202H118.747L125.902 13.0161H117.986L110.755 6.62202H108.699L115.855 13.0161H107.938L100.707 6.62202H98.6514L105.807 13.0161H97.8902L90.6587 6.62202H60.2867C60.0584 6.62202 59.83 6.39363 59.7539 6.16527C59.7539 5.93691 59.9061 5.78467 60.1345 5.78467Z" fill="#FFFBFB"/>
<path d="M70.335 8.90576H89.289L96.6727 15.5282H133.972C134.2 15.5282 134.352 15.6805 134.428 15.9849C134.428 16.2133 134.276 16.3655 134.048 16.3655H96.4443L89.0606 9.74307H70.4872C70.2589 9.74307 70.0305 9.59083 70.0305 9.36247C69.9544 9.1341 70.1067 8.90576 70.335 8.90576Z" fill="#FFFBFB"/>
<path d="M7.45978 2.13136H130.166L149.729 19.4107H251.121L270.684 2.13136H386.463H398.718H400.85V0H269.847L250.36 17.2793H150.49L131.003 0H0V2.13136H2.13136H7.45978Z" fill="#FFFBFB"/>
<path d="M369.793 256.221C367.433 256.221 364.997 256.221 364.693 256.221C362.485 256.221 360.354 256.221 360.049 256.221C359.973 256.221 359.212 256.907 357.994 258.048H367.966L369.793 256.221Z" fill="#FFFBFB"/>
<path d="M355.94 256.221C353.58 256.221 351.144 256.221 350.839 256.221C348.632 256.221 346.501 256.221 346.196 256.221C346.12 256.221 345.359 256.907 344.141 258.048H354.113L355.94 256.221Z" fill="#FFFBFB"/>
<path d="M56.7098 258.049C54.3501 258.049 51.9142 258.049 51.6097 258.049C49.4022 258.049 47.2708 258.049 46.9664 258.049C46.8902 258.049 46.1291 257.363 44.9111 256.222H54.8829L56.7098 258.049Z" fill="#FFFBFB"/>
<path d="M42.8572 258.048C40.4975 258.048 38.0617 258.048 37.7572 258.048C35.5497 258.048 33.4183 258.048 33.1139 258.048C33.0377 258.048 32.2765 257.363 31.0586 256.221H41.0304L42.8572 258.048Z" fill="#FFFBFB"/>
<path d="M248.38 251.729H152.468L142.573 260.483L140.061 262.767H260.787L258.275 260.483L248.38 251.729Z" fill="#FFFBFB"/>
<path d="M60.1345 258.048H128.414L145.922 242.443L145.389 241.834L135.341 250.816L128.034 250.74L120.802 257.21H118.747L125.902 250.816L117.986 250.74L110.755 257.21H108.699L115.855 250.816L107.938 250.74L100.707 257.21H98.6514L105.807 250.816L97.8902 250.74L90.6587 257.21H60.2867C60.0584 257.21 59.83 257.363 59.7539 257.591C59.7539 257.819 59.9061 258.048 60.1345 258.048Z" fill="#FFFBFB"/>
<path d="M70.335 254.85H89.289L96.6727 248.304H133.972C134.2 248.304 134.352 248.076 134.428 247.847C134.428 247.619 134.276 247.467 134.048 247.467H96.4443L89.0606 254.013H70.4872C70.2589 254.013 70.0305 254.242 70.0305 254.47C69.9544 254.698 70.1067 254.85 70.335 254.85Z" fill="#FFFBFB"/>
<path d="M340.714 258.048H272.434L254.927 242.443L255.46 241.834L265.508 250.816L272.815 250.74L280.046 257.21H282.102L274.946 250.816L282.863 250.74L290.094 257.21H292.15L284.994 250.816L292.911 250.74L300.142 257.21H302.198L294.966 250.816L302.959 250.74L310.19 257.21H340.562C340.79 257.21 341.019 257.363 341.095 257.591C341.095 257.819 340.943 258.048 340.714 258.048Z" fill="#FFFBFB"/>
<path d="M330.438 254.85H311.56L304.176 248.304H266.877C266.649 248.304 266.497 248.076 266.421 247.847C266.421 247.619 266.573 247.467 266.801 247.467H304.405L311.788 254.013H330.362C330.59 254.013 330.819 254.242 330.819 254.47C330.895 254.698 330.742 254.85 330.438 254.85Z" fill="#FFFBFB"/>
<path d="M393.39 261.701H270.684L251.121 244.422H149.729L130.166 261.701H14.3867H2.13136H0V263.833H131.003L150.49 246.553H250.36L269.847 263.833H400.85V261.701H398.718H393.39Z" fill="#FFFBFB"/>
<path d="M0.98938 262.996H1.90283V1.29443H0.98938V262.996Z" fill="#FFFBFB"/>
<path d="M398.946 262.996H399.86V1.29443H398.946V262.996Z" fill="#FFFBFB"/>
<rect x="31" y="-55" width="333" height="373.859" fill="url(#pattern0_888_46917)"/>
</g>
<defs>
<pattern id="pattern0_888_46917" patternContentUnits="objectBoundingBox" width="1" height="1">
<use xlink:href="#image0_888_46917" transform="matrix(0.00280675 0 0 0.0025 -0.0613497 0)"/>
</pattern>
<clipPath id="clip0_888_46917">
<rect width="400.85" height="263.832" fill="white"/>
</clipPath>
</defs>
</svg>
