<svg width="579" height="579" viewBox="0 0 579 579" fill="none" xmlns="http://www.w3.org/2000/svg">
<g clip-path="url(#clip0_285_2653)">
<rect width="579" height="579" rx="289.5" fill="#0A0A0A"/>
<path d="M579 289.485C579 449.371 449.386 578.985 289.5 578.985C129.614 578.985 0 449.371 0 289.485C0 129.598 129.614 -0.0151367 289.5 -0.0151367C449.386 -0.0151367 579 129.598 579 289.485ZM149.447 289.485C149.447 366.834 212.151 429.538 289.5 429.538C366.849 429.538 429.553 366.834 429.553 289.485C429.553 212.136 366.849 149.431 289.5 149.431C212.151 149.431 149.447 212.136 149.447 289.485Z" fill="url(#paint0_radial_285_2653)"/>
<path d="M267.766 6.06762C259.076 6.78576 238.681 9.5865 237.676 10.2328C237.317 10.4483 235.952 10.6637 234.588 10.8073C224.606 11.7409 181.446 25.0983 179.65 27.8991C179.363 28.3299 179.076 28.4736 179.076 28.1863C179.076 27.4682 175.126 29.1917 163.492 34.9368L153.223 39.9638V72.9264C153.223 99.1385 153.438 105.889 154.156 105.458C154.587 105.171 156.957 103.591 159.327 101.939C179.722 87.6482 208.304 74.7217 233.295 68.6176C245.36 65.6732 245.36 65.6732 247.299 66.6068C251.392 68.6176 251.464 74.5781 247.443 76.4453C246.365 76.948 241.195 78.3842 236.024 79.7487C208.448 86.7147 182.379 99.2821 158.465 117.236L153.223 121.114V135.476V149.839L158.824 144.884C208.878 100 274.947 83.483 339.293 99.7848C369.598 107.469 398.108 122.765 421.807 144.022L428.27 149.767V135.835V121.832L425.254 119.39C420.442 115.44 404.859 105.099 397.749 101.006C381.16 91.6698 362.848 84.273 344.75 79.7487C339.58 78.3842 334.409 76.948 333.332 76.4453C329.31 74.5781 329.382 68.6176 333.476 66.6068C335.415 65.6732 335.415 65.6732 347.479 68.6176C373.045 74.8654 399.616 86.8583 421.663 102.083L428.27 106.679V74.0754V41.4001L425.613 39.8202C424.105 38.8866 422.453 38.1684 422.022 38.1684C421.52 38.1684 421.089 37.8812 421.089 37.5221C421.089 37.163 420.801 37.0912 420.371 37.3067C420.011 37.5221 419.652 37.4503 419.652 37.0194C419.652 36.3013 416.923 35.0804 415.918 35.3677C415.559 35.4395 415.344 35.1523 415.344 34.7214C415.344 34.3623 415.056 34.2187 414.625 34.4341C414.266 34.6496 413.907 34.5059 413.907 34.0751C413.907 33.6442 413.62 33.5005 413.189 33.716C412.83 33.9314 412.471 33.8596 412.471 33.5005C412.471 32.8542 406.51 30.2689 405.577 30.4844C405.29 30.5562 404.859 30.3407 404.643 29.9817C404.212 29.2635 392.219 24.2365 390.209 23.8775C389.634 23.7338 388.988 23.4466 388.772 23.2311C388.27 22.5848 366.007 15.4034 363.709 15.188C362.632 15.0444 361.339 14.6853 360.837 14.398C360.334 14.1108 359.76 14.039 359.544 14.2544C359.329 14.4698 358.682 14.3262 358.108 13.8235C357.605 13.3926 356.959 13.249 356.672 13.4645C356.456 13.7517 355.882 13.6799 355.379 13.249C354.948 12.8899 353.44 12.4591 352.075 12.3154C350.711 12.1718 349.203 11.8845 348.772 11.5973C348.341 11.31 346.761 10.951 345.253 10.8073C343.673 10.6637 341.95 10.3765 341.375 10.161C340.801 9.94557 339.795 9.73013 339.221 9.73013C338.646 9.65831 336.995 9.44287 335.63 9.22743C334.266 9.01199 332.183 8.72473 330.962 8.5811C329.813 8.50929 328.305 8.22203 327.731 8.00659C322.991 6.21124 282.272 4.91859 267.766 6.06762Z" fill="black"/>
<path d="M148.924 42.568C147.919 43.2143 146.913 44.0043 146.698 44.3634C146.483 44.7224 145.98 45.0097 145.621 45.0097C145.262 45.0097 143.754 45.656 142.317 46.5178L139.588 48.0259V76.9669V105.98L136.931 108.278C117.182 125.298 100.737 144.328 89.1032 163.718C74.0223 188.853 66.0509 207.237 59.8749 231.08C44.6504 289.823 52.4781 353.666 81.2755 405.013C91.2576 422.823 93.053 425.695 100.163 435.175C110.073 448.317 123.502 462.536 136.931 474.098L139.588 476.396V503.685V530.903L144.759 533.919C147.632 535.642 150.217 537.151 150.576 537.294C150.863 537.438 151.079 523.219 151.079 505.696V473.739L143.754 467.778C133.987 459.879 118.475 444.295 110.791 434.672C83.8608 400.92 68.1335 364.582 61.8139 321.709C59.7313 307.346 59.5877 275.532 61.5267 262.103C68.0617 217.435 83.1427 181.887 110.001 147.919C117.757 138.081 134.705 120.989 144.472 113.161L151.079 107.775V74.5252C151.079 56.2127 151.007 41.2754 150.935 41.3472C150.791 41.3472 149.93 41.9217 148.924 42.568Z" fill="black"/>
<path d="M430.436 75.5447V108.435L436.325 113.103C445.373 120.285 463.255 138.382 470.795 147.933C497.654 181.901 512.735 217.449 519.27 262.117C521.209 275.546 521.065 307.36 518.983 321.723C512.663 364.596 496.936 400.934 470.006 434.686C462.537 444.022 446.091 460.539 437.115 467.792L430.436 473.107V504.633C430.436 521.94 430.651 536.087 430.867 536.087C431.082 536.087 433.524 534.723 436.253 533.143L441.208 530.199V503.34V476.41L443.865 474.112C463.04 457.523 482.86 434.83 491.262 419.749C492.483 417.594 496.074 411.131 499.306 405.386C516.182 375.368 525.949 341.113 528.175 304.703C530.473 267.791 523.579 229.657 508.354 194.971C503.614 184.127 495.14 168.687 487.313 156.551C477.833 141.829 460.598 122.655 443.865 108.292L441.208 105.994V77.1246C441.208 61.2537 440.993 48.399 440.777 48.6863C440.562 48.9017 439.772 48.5427 438.982 47.8963C438.264 47.25 436.038 45.7419 434.099 44.6647L430.436 42.6539V75.5447Z" fill="black"/>
<path d="M131.709 53.2052C129.123 54.9288 126.897 56.7241 126.825 57.0832C126.682 57.5141 126.323 57.6577 126.035 57.5141C125.748 57.2986 124.527 58.0886 123.307 59.1658C122.086 60.243 120.578 61.392 119.931 61.6075C119.285 61.8947 118.782 62.3974 118.782 62.8283C118.782 63.1874 118.423 63.5464 117.992 63.5464C117.202 63.5464 113.037 66.7063 109.016 70.3688C108.082 71.1587 105.999 72.9541 104.276 74.3185C100.972 76.9757 77.9201 99.8125 74.9757 103.403C73.9703 104.624 71.2414 107.999 68.8715 110.944C66.5017 113.888 64.2755 116.689 63.8446 117.12C63.4855 117.622 60.3975 121.859 57.0222 126.671C36.7707 155.468 21.7616 188.287 13.5748 221.609C4.88533 256.941 3.08998 294.141 8.26058 330.335C18.53 402.221 57.3095 468.864 114.617 513.317C123.737 520.355 135.946 528.901 136.879 528.901C137.167 528.901 137.454 517.339 137.454 503.191V477.554L133.073 473.963C127.328 469.223 109.446 450.911 103.989 444.16C78.7101 412.85 62.1928 378.092 54.1497 339.168C47.9737 309.222 47.9737 273.171 54.1497 243.225C62.1928 204.302 78.7101 169.544 103.989 138.233C109.446 131.482 127.328 113.17 133.073 108.43L137.454 104.839V77.3347C137.454 62.2538 137.238 49.9018 136.951 49.9736C136.592 49.9736 134.294 51.4099 131.709 53.2052Z" fill="black"/>
<path d="M443.41 78.0449V104.831L447.79 108.422C453.535 113.162 471.417 131.474 476.875 138.225C502.153 169.536 518.671 204.294 526.714 243.217C532.89 273.163 532.89 309.214 526.714 339.16C518.671 378.084 502.153 412.841 476.875 444.152C471.417 450.903 453.535 469.215 447.79 473.955L443.41 477.546V502.824C443.41 516.756 443.625 528.175 443.841 528.175C444.056 528.175 447.431 526.02 451.237 523.435C504.595 486.594 543.877 432.519 562.549 370.184C571.023 341.889 574.614 314.528 573.896 283.648C573.465 265.479 572.316 253.343 569.371 237.328C558.599 178.369 527.073 121.636 482.189 80.4147C475.439 74.2387 469.406 69.0681 468.042 68.35C467.467 67.9909 466.39 67.1291 465.672 66.411C463.446 64.1848 456.623 59.2296 455.762 59.2296C455.259 59.2296 454.9 58.9423 454.9 58.5833C454.9 57.8651 445.205 51.3301 444.128 51.3301C443.625 51.3301 443.41 60.5223 443.41 78.0449Z" fill="black"/>
<path d="M276.807 95.5811C238.171 98.4537 200.11 113.391 169.876 137.52C165.998 140.608 160.756 145.061 158.242 147.503L153.646 151.811L158.673 156.91L163.772 162.009L166.429 160.86C170.02 159.352 171.887 159.496 175.549 161.435C180.648 164.092 182.659 169.909 180.289 175.223C179.355 177.377 179.355 177.449 184.67 182.907L190.127 188.365L196.303 182.979C245.209 140.608 316.448 136.012 369.95 171.776C376.916 176.372 386.251 183.84 389.483 187.359L391.278 189.298L396.449 184.128L401.548 179.029L400.112 175.582C397.742 169.909 400.183 163.876 405.857 161.506C409.016 160.142 411.027 160.214 414.331 161.937L417.131 163.374L422.805 157.844L428.406 152.242L422.517 146.641C395.228 120.931 357.669 102.978 318.962 97.2328C309.698 95.8684 285.712 94.9348 276.807 95.5811Z" fill="black"/>
<path d="M142.123 130.852C132.643 139.541 130.992 141.265 122.661 151.175C50.4882 237.136 55.587 363.601 134.367 443.17C138.604 447.479 144.134 452.722 146.647 454.876L151.1 458.682V444.176V429.741L145.067 423.063C118.568 393.762 102.194 358.215 96.0183 316.993C94.5102 306.652 94.2948 276.778 95.6592 267.154C102.051 223.348 117.347 189.954 145.929 157.854L151.1 151.965L150.956 137.53L150.741 123.024L142.123 130.852Z" fill="black"/>
<path d="M430.436 137.851V151.998L436.109 158.174C453.273 176.989 467.995 201.909 476.397 226.182C484.368 249.449 487.744 271.927 486.882 297.278C485.948 327.655 479.054 354.441 465.481 380.941C457.366 396.668 446.091 412.826 434.817 424.963L430.436 429.631V443.778V457.925L434.17 454.765C436.253 453.114 441.567 448.015 446.02 443.563C503.614 385.68 523.651 301.227 498.3 223.094C490.113 197.672 476.397 173.111 458.228 151.136C452.698 144.386 436.253 127.94 432.447 125.139L430.436 123.775V137.851Z" fill="black"/>
<path d="M145.63 160.254C118.987 190.703 103.331 224.814 97.5143 264.958C95.5753 278.1 95.7189 305.461 97.8016 318.819C103.762 357.168 118.771 390.13 143.26 418.64C152.237 429.125 150.944 428.766 157.263 422.518L162.578 417.204L161.07 413.541C158.556 407.581 160.854 401.549 166.671 399.179C169.903 397.814 171.626 397.886 175.361 399.681L178.52 401.261L183.26 396.522L188.072 391.71L184.768 388.335C176.151 379.358 168.036 367.509 161.429 354.008C153.888 338.64 149.292 322.338 147.497 304.887C144.337 273.145 152.883 238.962 170.621 212.175C174.642 206.215 183.619 194.868 186.564 192.067L188.503 190.344L182.973 184.814L177.515 179.284L175.073 180.29C166.025 184.096 157.192 175.694 160.711 166.717L161.86 163.773L157.048 158.889C154.391 156.232 151.949 154.006 151.662 154.006C151.375 154.006 148.646 156.807 145.63 160.254Z" fill="black"/>
<path d="M424.144 159.251L418.901 164.494L419.763 167.725C422.205 176.918 415.311 183.812 406.119 181.37L402.887 180.508L397.86 185.535L392.833 190.634L395.706 193.65C412.51 211.245 426.226 237.744 431.11 262.089C435.49 283.777 434.844 306.973 429.314 327.799C423.569 349.63 411.936 371.318 397.645 386.758C395.562 388.984 393.838 391.139 393.838 391.498C393.838 391.857 395.562 393.868 397.716 395.95L401.522 399.756L404.539 398.823C412.654 396.381 419.979 403.778 417.681 412.18L416.891 415.053L423.282 421.516L429.745 427.907L432.331 425.466C441.451 416.704 455.886 396.381 463.642 381.3C474.414 360.259 480.159 342.233 484.109 317.386C485.688 307.332 485.904 276.883 484.468 267.116C479.082 230.706 467.879 202.412 448.058 175.194C442.672 167.797 431.397 154.655 430.104 154.224C429.674 154.081 427.016 156.379 424.144 159.251Z" fill="black"/>
<path d="M165.12 165.045C158.657 171.508 165.551 181.418 174.097 177.971C179.698 175.745 180.991 169.282 176.754 165.045C174.671 162.962 173.81 162.603 170.937 162.603C168.064 162.603 167.203 162.962 165.12 165.045ZM175.677 166.122C181.063 171.508 175.246 179.695 168.208 176.679C165.264 175.458 164.115 173.663 164.115 170.359C164.187 164.47 171.368 161.813 175.677 166.122Z" fill="black"/>
<path d="M404.168 165.819C397.705 172.282 404.599 182.192 413.145 178.745C418.747 176.519 420.039 170.056 415.802 165.819C413.72 163.736 412.858 163.377 409.985 163.377C407.113 163.377 406.251 163.736 404.168 165.819ZM414.725 166.896C420.111 172.282 414.294 180.469 407.256 177.453C404.312 176.232 403.163 174.436 403.163 171.133C403.235 165.244 410.416 162.587 414.725 166.896Z" fill="black"/>
<path d="M184.811 398.67C180.215 403.482 180.143 403.625 180.789 406.139C183.015 414.326 175.834 421.435 167.575 419.209L164.846 418.491L159.317 424.092L153.715 429.766L156.516 432.71C160.897 437.162 172.746 446.857 180.502 452.1C246.714 497.702 334.04 497.989 399.965 452.89C408.583 447.001 420.576 437.378 425.1 432.71L427.901 429.766L421.581 423.374L415.262 417.055L412.676 418.347C407.147 421.22 401.114 419.353 398.385 413.967C396.375 410.089 396.303 407.934 398.17 404.272L399.606 401.399L395.656 397.521L391.779 393.571L389.983 394.936C389.05 395.726 385.746 398.527 382.658 401.184C379.642 403.913 373.897 408.221 369.947 410.879C322.334 442.548 259.856 442.764 212.172 411.525C204.847 406.713 195.87 399.676 192.495 396.085C191.274 394.864 190.197 393.859 189.91 393.859C189.694 393.859 187.396 396.013 184.811 398.67Z" fill="black"/>
<path d="M165.12 403.492C158.657 409.955 165.551 419.866 174.097 416.419C179.698 414.192 180.991 407.729 176.754 403.492C174.671 401.41 173.81 401.05 170.937 401.05C168.064 401.05 167.203 401.41 165.12 403.492ZM175.677 404.569C181.063 409.955 175.246 418.142 168.208 415.126C165.264 413.905 164.115 412.11 164.115 408.806C164.187 402.918 171.368 400.261 175.677 404.569Z" fill="black"/>
<path d="M402.073 403.492C395.61 409.955 402.504 419.866 411.05 416.419C416.651 414.192 417.944 407.729 413.707 403.492C411.624 401.41 410.763 401.05 407.89 401.05C405.018 401.05 404.156 401.41 402.073 403.492ZM412.63 404.569C418.016 409.955 412.199 418.142 405.161 415.126C400.422 413.187 399.488 407.586 403.294 404.354C406.382 401.769 409.829 401.84 412.63 404.569Z" fill="black"/>
<path d="M153.223 446.18V460.543L159.542 465.139C186.903 485.247 215.629 497.887 248.735 504.422C273.511 509.305 307.264 509.305 332.039 504.422C365.289 497.887 394.374 485.032 421.663 464.852L428.27 459.969V445.965V431.89L421.089 438.353C383.53 472.034 334.912 489.484 283.565 487.689C236.599 486.109 192.146 467.868 157.747 435.983L153.223 431.818V446.18Z" fill="black"/>
<path d="M422.166 479.048C354.086 526.732 262.236 533.411 187.622 496.14C177.855 491.256 168.95 486.086 160.619 480.341C156.957 477.827 153.797 475.744 153.582 475.744C153.366 475.744 153.223 489.964 153.223 507.343V538.941L163.133 543.896C192.361 558.546 223.888 567.738 259.507 572.119C271.141 573.555 311.285 573.34 323.063 571.76C357.964 567.092 384.751 559.192 414.841 544.542L428.27 538.007V506.481C428.27 489.174 428.198 475.026 428.055 475.026C427.983 475.026 425.326 476.822 422.166 479.048Z" fill="black"/>
</g>
<rect x="2.56" y="2.56" width="573.88" height="573.88" rx="286.94" stroke="url(#paint1_radial_285_2653)" stroke-width="5.12"/>
<defs>
<radialGradient id="paint0_radial_285_2653" cx="0" cy="0" r="1" gradientUnits="userSpaceOnUse" gradientTransform="translate(289.5 289.485) rotate(90) scale(289.5)">
<stop stop-color="#1D0000"/>
<stop offset="1" stop-color="#AC0003"/>
</radialGradient>
<radialGradient id="paint1_radial_285_2653" cx="0" cy="0" r="1" gradientUnits="userSpaceOnUse" gradientTransform="translate(289.5 289.5) rotate(90) scale(289.5)">
<stop stop-color="#1D0000"/>
<stop offset="1" stop-color="#AC0003"/>
</radialGradient>
<clipPath id="clip0_285_2653">
<rect width="579" height="579" rx="289.5" fill="white"/>
</clipPath>
</defs>
</svg>
