<svg width="1920" height="373" fill="none" xmlns="http://www.w3.org/2000/svg"><g filter="url(#prefix__filter0_i_174_12618)"><g filter="url(#prefix__filter1_f_174_12618)"><path d="M0 199.273h359.5L441 100h1357.5l51.5 43.5-117 80H347L307.5 273H268l-18-15.5h-78L153.5 273H60L0 199.273z" fill="#F40004"/></g><path d="M1798.13 101l50.22 42.416-115.66 79.084H346.519l-.3.376-39.2 49.124h-38.648l-18-15.5h-78.734l-.28.233L153.136 272h-98.63L1.973 200.272h358.001l.299-.365L441.473 101H1798.13z" fill="url(#prefix__paint0_linear_174_12618)" stroke="#FFFEFE" stroke-width="2"/></g><defs><filter id="prefix__filter0_i_174_12618" x="0" y="100" width="1850" height="177" filterUnits="userSpaceOnUse" color-interpolation-filters="sRGB"><feFlood flood-opacity="0" result="BackgroundImageFix"/><feBlend in="SourceGraphic" in2="BackgroundImageFix" result="shape"/><feColorMatrix in="SourceAlpha" values="0 0 0 0 0 0 0 0 0 0 0 0 0 0 0 0 0 0 127 0" result="hardAlpha"/><feOffset dy="6"/><feGaussianBlur stdDeviation="2"/><feComposite in2="hardAlpha" operator="arithmetic" k2="-1" k3="1"/><feColorMatrix values="0 0 0 0 1 0 0 0 0 1 0 0 0 0 1 0 0 0 1 0"/><feBlend in2="shape" result="effect1_innerShadow_174_12618"/></filter><filter id="prefix__filter1_f_174_12618" x="-100" y="0" width="2050" height="373" filterUnits="userSpaceOnUse" color-interpolation-filters="sRGB"><feFlood flood-opacity="0" result="BackgroundImageFix"/><feBlend in="SourceGraphic" in2="BackgroundImageFix" result="shape"/><feGaussianBlur stdDeviation="50" result="effect1_foregroundBlur_174_12618"/></filter><linearGradient id="prefix__paint0_linear_174_12618" x1="0" y1="186.5" x2="1850" y2="186.5" gradientUnits="userSpaceOnUse"><stop stop-color="#FF0004"/><stop offset="1" stop-color="#990003"/></linearGradient></defs></svg>