<svg width="1920" height="373" viewBox="0 0 1920 373" fill="none" xmlns="http://www.w3.org/2000/svg">
<g filter="url(#filter0_i_174_12618)">
<g filter="url(#filter1_f_174_12618)">
<path d="M0 199.273H359.5L441 100H1798.5L1850 143.5L1733 223.5H347L307.5 273H268L250 257.5H172L153.5 273H60L0 199.273Z" fill="#F40004"/>
</g>
<path d="M1798.13 101L1848.35 143.416L1732.69 222.5H346.519L346.219 222.876L307.019 272H268.371L250.371 256.5H171.637L171.357 256.733L153.136 272H54.5068L1.97168 200.272H359.973L360.272 199.907L441.473 101H1798.13Z" fill="url(#paint0_linear_174_12618)" stroke="#FFFEFE" stroke-width="2"/>
</g>
<defs>
<filter id="filter0_i_174_12618" x="0" y="100" width="1850" height="177" filterUnits="userSpaceOnUse" color-interpolation-filters="sRGB">
<feFlood flood-opacity="0" result="BackgroundImageFix"/>
<feBlend mode="normal" in="SourceGraphic" in2="BackgroundImageFix" result="shape"/>
<feColorMatrix in="SourceAlpha" type="matrix" values="0 0 0 0 0 0 0 0 0 0 0 0 0 0 0 0 0 0 127 0" result="hardAlpha"/>
<feOffset dy="6"/>
<feGaussianBlur stdDeviation="2"/>
<feComposite in2="hardAlpha" operator="arithmetic" k2="-1" k3="1"/>
<feColorMatrix type="matrix" values="0 0 0 0 1 0 0 0 0 1 0 0 0 0 1 0 0 0 1 0"/>
<feBlend mode="normal" in2="shape" result="effect1_innerShadow_174_12618"/>
</filter>
<filter id="filter1_f_174_12618" x="-100" y="0" width="2050" height="373" filterUnits="userSpaceOnUse" color-interpolation-filters="sRGB">
<feFlood flood-opacity="0" result="BackgroundImageFix"/>
<feBlend mode="normal" in="SourceGraphic" in2="BackgroundImageFix" result="shape"/>
<feGaussianBlur stdDeviation="50" result="effect1_foregroundBlur_174_12618"/>
</filter>
<linearGradient id="paint0_linear_174_12618" x1="0" y1="186.5" x2="1850" y2="186.5" gradientUnits="userSpaceOnUse">
<stop stop-color="#FF0004"/>
<stop offset="1" stop-color="#990003"/>
</linearGradient>
</defs>
</svg>
