<svg width="159" height="79" viewBox="0 0 159 79" fill="none" xmlns="http://www.w3.org/2000/svg">
<g clip-path="url(#clip0_249_22697)">
<rect x="67" y="15" width="91.1687" height="63.2521" rx="5.2" fill="black" fill-opacity="0.01"/>
<path d="M137.705 74.2562H140.027L142.511 70.3682H140.189L137.705 74.2562Z" fill="#8B75D9"/>
<path d="M141.555 74.2562H143.877L146.361 70.3682H144.039L141.555 74.2562Z" fill="#8B75D9"/>
<path d="M145.408 74.2562H147.73L150.214 70.3682H147.892L145.408 74.2562Z" fill="#8B75D9"/>
<path d="M154.067 70.3682H151.727L149.261 74.2562H151.583L154.067 70.3682Z" fill="#8B75D9"/>
<path d="M153.111 74.2562H155.433L157.917 70.3682H155.577L153.111 74.2562Z" fill="#8B75D9"/>
<path fill-rule="evenodd" clip-rule="evenodd" d="M67.0015 68.6762V22.5602H116.861L121.829 15.0002H153.491L155.813 17.5382L158.135 20.0762V29.2562L154.679 30.9122V39.5702L158.135 41.3522V69.4143H139.253L136.067 74.2202H102.173L99.1135 78.1982H86.5135L82.8235 74.2202H72.5275L69.7375 71.4123L67.0015 68.6762ZM85.0915 72.5823L87.5215 75.3902H98.0875L100.031 72.5823H85.0915Z" fill="#8B75D9"/>
<path d="M80.5015 75.1565L83.3095 78.2525H85.2715L82.4635 75.1565H80.5015Z" fill="#8B75D9"/>
<path d="M76.936 75.1565L79.744 78.2525H81.706L78.898 75.1565H76.936Z" fill="#8B75D9"/>
<path d="M73.3735 75.1565L76.1815 78.2525H78.1435L75.3355 75.1565H73.3735Z" fill="#8B75D9"/>
<path d="M100.533 78.2525H152.661L154.983 75.1565H102.873L100.533 78.2525Z" fill="#8B75D9"/>
<path d="M155.505 39.0666L158.169 40.3626V30.0846L155.505 31.3446V39.0666Z" fill="#8B75D9"/>
<path d="M70.311 26.7001V24.9721H70.563V26.4481H70.959V26.7001H70.311Z" fill="black"/>
<path fill-rule="evenodd" clip-rule="evenodd" d="M71.8059 26.4126C71.8059 26.6166 71.6859 26.7186 71.4459 26.7186C71.2059 26.7186 71.0859 26.6166 71.0859 26.4126V25.4766C71.0859 25.2606 71.2059 25.1526 71.4459 25.1526C71.6859 25.1526 71.8059 25.2606 71.8059 25.4766V26.4126ZM71.5539 25.4766C71.5539 25.4046 71.5179 25.3686 71.4459 25.3686C71.3739 25.3686 71.3379 25.4046 71.3379 25.4766V26.4126C71.3379 26.4846 71.3739 26.5206 71.4459 26.5206C71.5179 26.5206 71.5539 26.4846 71.5539 26.4126V25.4766Z" fill="black"/>
<path fill-rule="evenodd" clip-rule="evenodd" d="M72.0234 25.1706H72.3834C72.5994 25.1706 72.7074 25.2786 72.7074 25.4946V25.7286C72.7074 25.8606 72.6414 25.9506 72.5094 25.9986L72.7974 26.7006H72.5274L72.2934 26.0346H72.2754V26.7006H72.0234V25.1706ZM72.2754 25.3866V25.8186H72.3294C72.3654 25.8186 72.3894 25.8186 72.4014 25.8186C72.4494 25.8066 72.4734 25.7706 72.4734 25.7106V25.4946C72.4734 25.4226 72.4374 25.3866 72.3654 25.3866H72.2754Z" fill="black"/>
<path d="M72.886 25.1706H73.534V25.3866H73.138V25.8366H73.48V26.0526H73.138V26.4846H73.534V26.7006H72.886V25.1706Z" fill="black"/>
<path d="M74.2541 26.2146L74.5421 25.1706H74.7941V26.7006H74.5601V25.8366L74.3441 26.7006H74.1821L73.9661 25.8366V26.7006H73.7141V25.1706H73.9661L74.2541 26.2146Z" fill="black"/>
<path d="M75.4766 25.1706H75.7286V26.7006H75.4766V25.1706Z" fill="black"/>
<path fill-rule="evenodd" clip-rule="evenodd" d="M75.9641 25.1706H76.3241C76.5401 25.1706 76.6481 25.2786 76.6481 25.4946V25.7286C76.6481 25.8846 76.5701 25.9866 76.4141 26.0346C76.3781 26.0466 76.3241 26.0526 76.2521 26.0526H76.2161V26.7006H75.9641V25.1706ZM76.2161 25.3866V25.8186H76.2701C76.3061 25.8186 76.3301 25.8186 76.3421 25.8186C76.3781 25.8066 76.3961 25.7706 76.3961 25.7106V25.4946C76.3961 25.4226 76.3601 25.3866 76.2881 25.3866H76.2161Z" fill="black"/>
<path d="M76.8267 25.4766C76.8267 25.2606 76.9407 25.1526 77.1687 25.1526C77.4087 25.1526 77.5287 25.2606 77.5287 25.4766V25.6746H77.2767V25.4766C77.2767 25.4046 77.2407 25.3686 77.1687 25.3686C77.0967 25.3686 77.0607 25.4046 77.0607 25.4766V25.6206C77.0607 25.6806 77.1387 25.7586 77.2947 25.8546C77.4507 25.9626 77.5287 26.0826 77.5287 26.2146V26.4126C77.5287 26.6166 77.4087 26.7186 77.1687 26.7186C76.9407 26.7186 76.8267 26.6166 76.8267 26.4126V26.1966H77.0607V26.4126C77.0607 26.4726 77.0967 26.5026 77.1687 26.5026C77.2407 26.5026 77.2767 26.4726 77.2767 26.4126V26.2326C77.2767 26.1606 77.1987 26.0766 77.0427 25.9806C76.8987 25.8726 76.8267 25.7526 76.8267 25.6206V25.4766Z" fill="black"/>
<path d="M78.4466 26.4126C78.4466 26.6166 78.3266 26.7186 78.0866 26.7186C77.8466 26.7186 77.7266 26.6166 77.7266 26.4126V25.1706H77.9786V26.4126C77.9786 26.4726 78.0146 26.5026 78.0866 26.5026C78.1586 26.5026 78.1946 26.4726 78.1946 26.4126V25.1706H78.4466V26.4126Z" fill="black"/>
<path d="M79.2041 26.2146L79.5101 25.1706H79.7441V26.7006H79.5101V25.8366L79.2941 26.7006H79.1321L78.9161 25.8366V26.7006H78.6641V25.1706H78.9161L79.2041 26.2146Z" fill="black"/>
<path fill-rule="evenodd" clip-rule="evenodd" d="M80.4265 25.1706H80.8045C81.0325 25.1706 81.1465 25.2786 81.1465 25.4946V26.3766C81.1465 26.5926 81.0265 26.7006 80.7865 26.7006H80.4265V25.1706ZM80.6785 25.3866V26.4846H80.7865C80.8585 26.4846 80.8945 26.4486 80.8945 26.3766V25.4946C80.8945 25.4226 80.8585 25.3866 80.7865 25.3866H80.6785Z" fill="black"/>
<path fill-rule="evenodd" clip-rule="evenodd" d="M82.0467 26.4126C82.0467 26.6166 81.9267 26.7186 81.6867 26.7186C81.4467 26.7186 81.3267 26.6166 81.3267 26.4126V25.4766C81.3267 25.2606 81.4467 25.1526 81.6867 25.1526C81.9267 25.1526 82.0467 25.2606 82.0467 25.4766V26.4126ZM81.7947 25.4766C81.7947 25.4046 81.7587 25.3686 81.6867 25.3686C81.6147 25.3686 81.5787 25.4046 81.5787 25.4766V26.4126C81.5787 26.4846 81.6147 26.5206 81.6867 26.5206C81.7587 26.5206 81.7947 26.4846 81.7947 26.4126V25.4766Z" fill="black"/>
<path d="M82.2642 26.7006V25.1706H82.5162V26.4846H82.9122V26.7006H82.2642Z" fill="black"/>
<path fill-rule="evenodd" clip-rule="evenodd" d="M83.7591 26.4126C83.7591 26.6166 83.6391 26.7186 83.3991 26.7186C83.1591 26.7186 83.0391 26.6166 83.0391 26.4126V25.4766C83.0391 25.2606 83.1591 25.1526 83.3991 25.1526C83.6391 25.1526 83.7591 25.2606 83.7591 25.4766V26.4126ZM83.5071 25.4766C83.5071 25.4046 83.4711 25.3686 83.3991 25.3686C83.3271 25.3686 83.2911 25.4046 83.2911 25.4766V26.4126C83.2911 26.4846 83.3271 26.5206 83.3991 26.5206C83.4711 26.5206 83.5071 26.4846 83.5071 26.4126V25.4766Z" fill="black"/>
<path fill-rule="evenodd" clip-rule="evenodd" d="M83.9546 25.1706H84.3146C84.5426 25.1706 84.6566 25.2786 84.6566 25.4946V25.7286C84.6566 25.8606 84.5906 25.9506 84.4586 25.9986L84.7286 26.7006H84.4586L84.2426 26.0346H84.2066V26.7006H83.9546V25.1706ZM84.2066 25.3866V25.8186H84.2606C84.2966 25.8186 84.3206 25.8186 84.3326 25.8186C84.3806 25.8066 84.4046 25.7706 84.4046 25.7106V25.4946C84.4046 25.4226 84.3686 25.3866 84.2966 25.3866H84.2066Z" fill="black"/>
<path d="M85.2891 25.4766C85.2891 25.2606 85.4031 25.1526 85.6311 25.1526C85.8711 25.1526 85.9911 25.2606 85.9911 25.4766V25.6746H85.7391V25.4766C85.7391 25.4046 85.7031 25.3686 85.6311 25.3686C85.5591 25.3686 85.5231 25.4046 85.5231 25.4766V25.6206C85.5231 25.6806 85.6011 25.7586 85.7571 25.8546C85.9131 25.9626 85.9911 26.0826 85.9911 26.2146V26.4126C85.9911 26.6166 85.8711 26.7186 85.6311 26.7186C85.4031 26.7186 85.2891 26.6166 85.2891 26.4126V26.1966H85.5231V26.4126C85.5231 26.4726 85.5591 26.5026 85.6311 26.5026C85.7031 26.5026 85.7391 26.4726 85.7391 26.4126V26.2326C85.7391 26.1606 85.6671 26.0766 85.5231 25.9806C85.3671 25.8726 85.2891 25.7526 85.2891 25.6206V25.4766Z" fill="black"/>
<path d="M86.2046 25.1706H86.4566V26.7006H86.2046V25.1706Z" fill="black"/>
<path d="M87.3404 25.1706V25.3866H87.1064V26.7006H86.8544V25.3866H86.6204V25.1706H87.3404Z" fill="black"/>
<path fill-rule="evenodd" clip-rule="evenodd" d="M88.6348 26.1606L88.7068 26.7006H88.4548L88.4188 26.3766H88.1668L88.1128 26.7006H87.8608L87.9328 26.1606L88.1128 25.1706H88.4548L88.6348 26.1606ZM88.3828 26.1606L88.2928 25.5306L88.2028 26.1606H88.3828Z" fill="black"/>
<path d="M89.4104 26.2146L89.6984 25.1706H89.9504V26.7006H89.6984V25.8366L89.5004 26.7006H89.3204L89.1044 25.8366V26.7006H88.8704V25.1706H89.1224L89.4104 26.2146Z" fill="black"/>
<path d="M90.1672 25.1706H90.8152V25.3866H90.4192V25.8366H90.7612V26.0526H90.4192V26.4846H90.8152V26.7006H90.1672V25.1706Z" fill="black"/>
<path d="M91.641 25.1706V25.3866H91.407V26.7006H91.155V25.3866H90.939V25.1706H91.641Z" fill="black"/>
<path d="M91.8047 26.4128H92.1107V26.6648L92.0027 26.9887H91.8407L91.8947 26.7007H91.8047V26.4128Z" fill="black"/>
<path d="M93.4598 26.4126C93.4598 26.6166 93.3458 26.7186 93.1178 26.7186C92.8778 26.7186 92.7578 26.6166 92.7578 26.4126V25.4766C92.7578 25.2606 92.8778 25.1526 93.1178 25.1526C93.3458 25.1526 93.4598 25.2606 93.4598 25.4766V25.6746H93.2258V25.4766C93.2258 25.4046 93.1898 25.3686 93.1178 25.3686H93.0998C93.0398 25.3686 93.0098 25.4046 93.0098 25.4766V26.4126C93.0098 26.4726 93.0458 26.5026 93.1178 26.5026C93.1898 26.5026 93.2258 26.4726 93.2258 26.4126V26.1966H93.4598V26.4126Z" fill="black"/>
<path fill-rule="evenodd" clip-rule="evenodd" d="M94.3597 26.4126C94.3597 26.6166 94.2397 26.7186 93.9997 26.7186C93.7717 26.7186 93.6577 26.6166 93.6577 26.4126V25.4766C93.6577 25.2606 93.7717 25.1526 93.9997 25.1526C94.2397 25.1526 94.3597 25.2606 94.3597 25.4766V26.4126ZM94.1257 25.4766C94.1257 25.4046 94.0897 25.3686 94.0177 25.3686H93.9997C93.9277 25.3686 93.8917 25.4046 93.8917 25.4766V26.4126C93.8917 26.4846 93.9277 26.5206 93.9997 26.5206C94.0837 26.5206 94.1257 26.4846 94.1257 26.4126V25.4766Z" fill="black"/>
<path d="M94.5767 25.1706H94.8287L95.0627 26.0526V25.1706H95.2967V26.7006H95.0447L94.8107 25.8366V26.7006H94.5767V25.1706Z" fill="black"/>
<path d="M95.4954 25.4766C95.4954 25.2606 95.6154 25.1526 95.8554 25.1526C96.0954 25.1526 96.2154 25.2606 96.2154 25.4766V25.6746H95.9634V25.4766C95.9634 25.4046 95.9274 25.3686 95.8554 25.3686C95.7834 25.3686 95.7474 25.4046 95.7474 25.4766V25.6206C95.7474 25.6806 95.8254 25.7586 95.9814 25.8546C96.1374 25.9626 96.2154 26.0826 96.2154 26.2146V26.4126C96.2154 26.6166 96.0954 26.7186 95.8554 26.7186C95.6154 26.7186 95.4954 26.6166 95.4954 26.4126V26.1966H95.7474V26.4126C95.7474 26.4726 95.7834 26.5026 95.8554 26.5026C95.9274 26.5026 95.9634 26.4726 95.9634 26.4126V26.2326C95.9634 26.1606 95.8854 26.0766 95.7294 25.9806C95.5734 25.8726 95.4954 25.7526 95.4954 25.6206V25.4766Z" fill="black"/>
<path d="M96.4297 25.1706H97.0777V25.3866H96.6817V25.8366H97.0237V26.0526H96.6817V26.4846H97.0777V26.7006H96.4297V25.1706Z" fill="black"/>
<path d="M97.959 26.4126C97.959 26.6166 97.839 26.7186 97.599 26.7186C97.359 26.7186 97.239 26.6166 97.239 26.4126V25.4766C97.239 25.2606 97.359 25.1526 97.599 25.1526C97.839 25.1526 97.959 25.2606 97.959 25.4766V25.6746H97.707V25.4766C97.707 25.4046 97.671 25.3686 97.599 25.3686C97.527 25.3686 97.491 25.4046 97.491 25.4766V26.4126C97.491 26.4726 97.527 26.5026 97.599 26.5026C97.671 26.5026 97.707 26.4726 97.707 26.4126V26.1966H97.959V26.4126Z" fill="black"/>
<path d="M98.8059 25.1706V25.3866H98.5719V26.7006H98.3199V25.3866H98.0859V25.1706H98.8059Z" fill="black"/>
<path d="M98.9673 25.1706H99.5973V25.3866H99.2013V25.8366H99.5433V26.0526H99.2013V26.4846H99.5973V26.7006H98.9673V25.1706Z" fill="black"/>
<path d="M100.425 25.1706V25.3866H100.191V26.7006H99.9574V25.3866H99.7234V25.1706H100.425Z" fill="black"/>
<path d="M101.291 26.4126C101.291 26.6166 101.177 26.7186 100.949 26.7186C100.709 26.7186 100.589 26.6166 100.589 26.4126V25.1706H100.841V26.4126C100.841 26.4726 100.877 26.5026 100.949 26.5026C101.021 26.5026 101.057 26.4726 101.057 26.4126V25.1706H101.291V26.4126Z" fill="black"/>
<path d="M101.523 25.1706H102.153V25.3866H101.757V25.8366H102.099V26.0526H101.757V26.4846H102.153V26.7006H101.523V25.1706Z" fill="black"/>
<path fill-rule="evenodd" clip-rule="evenodd" d="M102.352 25.1706H102.712C102.928 25.1706 103.036 25.2786 103.036 25.4946V25.7286C103.036 25.8606 102.97 25.9506 102.838 25.9986L103.126 26.7006H102.856L102.622 26.0346H102.604V26.7006H102.352V25.1706ZM102.604 25.3866V25.8186H102.658C102.694 25.8186 102.718 25.8186 102.73 25.8186C102.766 25.8066 102.784 25.7706 102.784 25.7106V25.4946C102.784 25.4226 102.748 25.3866 102.676 25.3866H102.604Z" fill="black"/>
<path fill-rule="evenodd" clip-rule="evenodd" d="M104.385 26.1606L104.457 26.7006H104.205L104.151 26.3766H103.899L103.863 26.7006H103.611L103.683 26.1606L103.863 25.1706H104.205L104.385 26.1606ZM104.133 26.1606L104.043 25.5306L103.935 26.1606H104.133Z" fill="black"/>
<path fill-rule="evenodd" clip-rule="evenodd" d="M104.602 25.1706H104.998C105.214 25.1706 105.322 25.2786 105.322 25.4946V26.3766C105.322 26.5926 105.208 26.7006 104.98 26.7006H104.602V25.1706ZM104.854 25.3866V26.4846H104.962C105.034 26.4846 105.07 26.4486 105.07 26.3766V25.4946C105.07 25.4226 105.034 25.3866 104.962 25.3866H104.854Z" fill="black"/>
<path d="M105.539 25.1706H105.791V26.7006H105.539V25.1706Z" fill="black"/>
<path fill-rule="evenodd" clip-rule="evenodd" d="M106.023 25.1706H106.383C106.599 25.1706 106.707 25.2786 106.707 25.4946V25.7286C106.707 25.8846 106.629 25.9866 106.473 26.0346C106.437 26.0466 106.383 26.0526 106.311 26.0526H106.275V26.7006H106.023V25.1706ZM106.275 25.3866V25.8186H106.329C106.365 25.8186 106.389 25.8186 106.401 25.8186C106.437 25.8066 106.455 25.7706 106.455 25.7106V25.4946C106.455 25.4226 106.419 25.3866 106.347 25.3866H106.275Z" fill="black"/>
<path d="M106.905 25.1706H107.157V26.7006H106.905V25.1706Z" fill="black"/>
<path d="M107.374 25.4766C107.374 25.2606 107.488 25.1526 107.716 25.1526C107.956 25.1526 108.076 25.2606 108.076 25.4766V25.6746H107.824V25.4766C107.824 25.4046 107.788 25.3686 107.716 25.3686C107.644 25.3686 107.608 25.4046 107.608 25.4766V25.6206C107.608 25.6806 107.686 25.7586 107.842 25.8546C107.998 25.9626 108.076 26.0826 108.076 26.2146V26.4126C108.076 26.6166 107.956 26.7186 107.716 26.7186C107.488 26.7186 107.374 26.6166 107.374 26.4126V26.1966H107.608V26.4126C107.608 26.4726 107.644 26.5026 107.716 26.5026C107.788 26.5026 107.824 26.4726 107.824 26.4126V26.2326C107.824 26.1606 107.746 26.0766 107.59 25.9806C107.446 25.8726 107.374 25.7526 107.374 25.6206V25.4766Z" fill="black"/>
<path d="M108.993 26.4126C108.993 26.6166 108.873 26.7186 108.633 26.7186C108.393 26.7186 108.273 26.6166 108.273 26.4126V25.4766C108.273 25.2606 108.393 25.1526 108.633 25.1526C108.873 25.1526 108.993 25.2606 108.993 25.4766V25.6746H108.741V25.4766C108.741 25.4046 108.705 25.3686 108.633 25.3686C108.561 25.3686 108.525 25.4046 108.525 25.4766V26.4126C108.525 26.4726 108.561 26.5026 108.633 26.5026C108.705 26.5026 108.741 26.4726 108.741 26.4126V26.1966H108.993V26.4126Z" fill="black"/>
<path d="M109.192 25.1706H109.444V26.7006H109.192V25.1706Z" fill="black"/>
<path d="M109.677 25.1706H109.929L110.163 26.0526V25.1706H110.397V26.7006H110.145L109.911 25.8366V26.7006H109.677V25.1706Z" fill="black"/>
<path d="M111.315 26.4126C111.315 26.6166 111.195 26.7186 110.955 26.7186C110.715 26.7186 110.595 26.6166 110.595 26.4126V25.4766C110.595 25.2606 110.715 25.1526 110.955 25.1526C111.195 25.1526 111.315 25.2606 111.315 25.4766V25.6746H111.063V25.4766C111.063 25.4046 111.027 25.3686 110.955 25.3686C110.883 25.3686 110.847 25.4046 110.847 25.4766V26.4126C110.847 26.4726 110.883 26.5026 110.955 26.5026C111.027 26.5026 111.063 26.4726 111.063 26.4126V26.0526H110.937V25.8366H111.315V26.4126Z" fill="black"/>
<path d="M111.983 25.1706H112.613V25.3866H112.217V25.8366H112.559V26.0526H112.217V26.4846H112.613V26.7006H111.983V25.1706Z" fill="black"/>
<path d="M112.811 26.7006V25.1706H113.045V26.4846H113.441V26.7006H112.811Z" fill="black"/>
<path d="M113.602 25.1706H113.854V26.7006H113.602V25.1706Z" fill="black"/>
<path d="M114.737 25.1706V25.3866H114.503V26.7006H114.251V25.3866H114.017V25.1706H114.737Z" fill="black"/>
<path d="M114.88 26.4128H115.186V26.6648L115.096 26.9887H114.934L114.988 26.7007H114.88V26.4128Z" fill="black"/>
<path d="M69.4109 27.6367C69.4109 27.4207 69.5309 27.3127 69.7709 27.3127C70.0109 27.3127 70.1309 27.4207 70.1309 27.6367V27.8347H69.8789V27.6367C69.8789 27.5647 69.8429 27.5287 69.7709 27.5287C69.6989 27.5287 69.6629 27.5647 69.6629 27.6367V27.7807C69.6629 27.8407 69.7409 27.9187 69.8969 28.0147C70.0529 28.1227 70.1309 28.2427 70.1309 28.3747V28.5727C70.1309 28.7767 70.0109 28.8787 69.7709 28.8787C69.5309 28.8787 69.4109 28.7767 69.4109 28.5727V28.3567H69.6629V28.5727C69.6629 28.6327 69.6989 28.6627 69.7709 28.6627C69.8429 28.6627 69.8789 28.6327 69.8789 28.5727V28.3927C69.8789 28.3207 69.8009 28.2367 69.6449 28.1407C69.4889 28.0327 69.4109 27.9127 69.4109 27.7807V27.6367Z" fill="black"/>
<path d="M70.3296 27.3307H70.9776V27.5467H70.5816V27.9967H70.9236V28.2127H70.5816V28.6447H70.9776V28.8607H70.3296V27.3307Z" fill="black"/>
<path fill-rule="evenodd" clip-rule="evenodd" d="M71.1577 27.3307H71.5537C71.7697 27.3307 71.8777 27.4387 71.8777 27.6547V28.5367C71.8777 28.7527 71.7637 28.8607 71.5357 28.8607H71.1577V27.3307ZM71.4097 27.5467V28.6447H71.5177C71.5897 28.6447 71.6257 28.6087 71.6257 28.5367V27.6547C71.6257 27.5827 71.5897 27.5467 71.5177 27.5467H71.4097Z" fill="black"/>
<path fill-rule="evenodd" clip-rule="evenodd" d="M72.5454 27.3307H72.9234C73.1394 27.3307 73.2474 27.4387 73.2474 27.6547V28.5367C73.2474 28.7527 73.1334 28.8607 72.9054 28.8607H72.5454V27.3307ZM72.7974 27.5467V28.6447H72.9054C72.9774 28.6447 73.0134 28.6087 73.0134 28.5367V27.6547C73.0134 27.5827 72.9774 27.5467 72.9054 27.5467H72.7974Z" fill="black"/>
<path d="M73.4609 27.3307H73.7129V28.8607H73.4609V27.3307Z" fill="black"/>
<path fill-rule="evenodd" clip-rule="evenodd" d="M74.6505 28.3207L74.7225 28.8607H74.4705L74.4165 28.5367H74.1645L74.1285 28.8607H73.8765L73.9485 28.3207L74.1285 27.3307H74.4705L74.6505 28.3207ZM74.3985 28.3207L74.3085 27.6907L74.2005 28.3207H74.3985Z" fill="black"/>
<path d="M75.4252 28.3747L75.7132 27.3307H75.9472V28.8607H75.7132V27.9967L75.4972 28.8607H75.3352L75.1192 27.9967V28.8607H74.8672V27.3307H75.1192L75.4252 28.3747Z" fill="black"/>
<path d="M76.6296 27.3307H76.8816L77.1156 28.2127V27.3307H77.3496V28.8607H77.0976L76.8636 27.9967V28.8607H76.6296V27.3307Z" fill="black"/>
<path fill-rule="evenodd" clip-rule="evenodd" d="M78.2683 28.5727C78.2683 28.7767 78.1483 28.8787 77.9083 28.8787C77.6683 28.8787 77.5483 28.7767 77.5483 28.5727V27.6367C77.5483 27.4207 77.6683 27.3127 77.9083 27.3127C78.1483 27.3127 78.2683 27.4207 78.2683 27.6367V28.5727ZM78.0163 27.6367C78.0163 27.5647 77.9803 27.5287 77.9083 27.5287C77.8363 27.5287 77.8003 27.5647 77.8003 27.6367V28.5727C77.8003 28.6447 77.8363 28.6807 77.9083 28.6807C77.9803 28.6807 78.0163 28.6447 78.0163 28.5727V27.6367Z" fill="black"/>
<path d="M78.4829 27.3307H78.7349L78.9689 28.2127V27.3307H79.1849V28.8607H78.9509L78.7169 27.9967V28.8607H78.4829V27.3307Z" fill="black"/>
<path d="M80.1224 28.5727C80.1224 28.7767 80.0024 28.8787 79.7624 28.8787C79.5344 28.8787 79.4204 28.7767 79.4204 28.5727V27.3307H79.6544V28.5727C79.6544 28.6327 79.6904 28.6627 79.7624 28.6627C79.8464 28.6627 79.8884 28.6327 79.8884 28.5727V27.3307H80.1224V28.5727Z" fill="black"/>
<path d="M80.8947 28.3747L81.1827 27.3307H81.4347V28.8607H81.1827V27.9967L80.9667 28.8607H80.8047L80.5887 27.9967V28.8607H80.3547V27.3307H80.5887L80.8947 28.3747Z" fill="black"/>
<path d="M82.1916 28.3747L82.4796 27.3307H82.7316V28.8607H82.4976V27.9967L82.2816 28.8607H82.1196L81.9036 27.9967V28.8607H81.6516V27.3307H81.9036L82.1916 28.3747Z" fill="black"/>
<path d="M83.1465 27.3307L83.3265 27.9247L83.4885 27.3307H83.7585L83.4525 28.1947L83.4345 28.2127V28.8607H83.2005V28.2127L83.1825 28.1947L82.8765 27.3307H83.1465Z" fill="black"/>
<path d="M84.3516 27.3307H84.6036L84.8376 28.2127V27.3307H85.0536V28.8607H84.8196L84.5856 27.9967V28.8607H84.3516V27.3307Z" fill="black"/>
<path d="M85.2891 27.3307H85.5411V28.8607H85.2891V27.3307Z" fill="black"/>
<path fill-rule="evenodd" clip-rule="evenodd" d="M85.7734 27.3307H86.1514C86.3794 27.3307 86.4934 27.4387 86.4934 27.6547V27.8887C86.4934 27.9847 86.4454 28.0567 86.3494 28.1047C86.4454 28.1407 86.4934 28.2067 86.4934 28.3027V28.5367C86.4934 28.7527 86.3794 28.8607 86.1514 28.8607H85.7734V27.3307ZM86.0254 27.5467V27.9787H86.0974C86.1334 27.9787 86.1574 27.9787 86.1694 27.9787C86.2174 27.9667 86.2414 27.9307 86.2414 27.8707V27.6547C86.2414 27.5827 86.2054 27.5467 86.1334 27.5467H86.0254ZM86.0254 28.1947V28.6447H86.1334C86.2054 28.6447 86.2414 28.6087 86.2414 28.5367V28.3027C86.2414 28.2547 86.2174 28.2247 86.1694 28.2127C86.1574 28.2007 86.1334 28.1947 86.0974 28.1947H86.0254Z" fill="black"/>
<path d="M86.6921 27.3307H86.9441V27.9967H87.1601V27.3307H87.4121V28.8607H87.1601V28.2127H86.9441V28.8607H86.6921V27.3307Z" fill="black"/>
<path d="M88.0767 27.3307H88.7247V27.5467H88.3287V27.9967H88.6707V28.2127H88.3287V28.6447H88.7247V28.8607H88.0767V27.3307Z" fill="black"/>
<path d="M89.6248 28.5727C89.6248 28.7767 89.5048 28.8787 89.2648 28.8787C89.0248 28.8787 88.9048 28.7767 88.9048 28.5727V27.3307H89.1568V28.5727C89.1568 28.6327 89.1928 28.6627 89.2648 28.6627C89.3368 28.6627 89.3728 28.6327 89.3728 28.5727V27.3307H89.6248V28.5727Z" fill="black"/>
<path d="M89.8423 27.3307H90.0943V28.8607H89.8423V27.3307Z" fill="black"/>
<path d="M90.311 27.6367C90.311 27.4207 90.431 27.3127 90.671 27.3127C90.899 27.3127 91.013 27.4207 91.013 27.6367V27.8347H90.779V27.6367C90.779 27.5647 90.743 27.5287 90.671 27.5287C90.599 27.5287 90.563 27.5647 90.563 27.6367V27.7807C90.563 27.8407 90.641 27.9187 90.797 28.0147C90.941 28.1227 91.013 28.2427 91.013 28.3747V28.5727C91.013 28.7767 90.899 28.8787 90.671 28.8787C90.431 28.8787 90.311 28.7767 90.311 28.5727V28.3567H90.563V28.5727C90.563 28.6327 90.599 28.6627 90.671 28.6627C90.743 28.6627 90.779 28.6327 90.779 28.5727V28.3927C90.779 28.3207 90.701 28.2367 90.545 28.1407C90.389 28.0327 90.311 27.9127 90.311 27.7807V27.6367Z" fill="black"/>
<path d="M91.7666 28.3747L92.0546 27.3307H92.3066V28.8607H92.0726V27.9967L91.8566 28.8607H91.6946L91.4786 27.9967V28.8607H91.2266V27.3307H91.4786L91.7666 28.3747Z" fill="black"/>
<path fill-rule="evenodd" clip-rule="evenodd" d="M93.2434 28.5727C93.2434 28.7767 93.1234 28.8787 92.8834 28.8787C92.6434 28.8787 92.5234 28.7767 92.5234 28.5727V27.6367C92.5234 27.4207 92.6434 27.3127 92.8834 27.3127C93.1234 27.3127 93.2434 27.4207 93.2434 27.6367V28.5727ZM92.9914 27.6367C92.9914 27.5647 92.9554 27.5287 92.8834 27.5287C92.8114 27.5287 92.7754 27.5647 92.7754 27.6367V28.5727C92.7754 28.6447 92.8114 28.6807 92.8834 28.6807C92.9554 28.6807 92.9914 28.6447 92.9914 28.5727V27.6367Z" fill="black"/>
<path fill-rule="evenodd" clip-rule="evenodd" d="M93.4421 27.3307H93.8381C94.0541 27.3307 94.1621 27.4387 94.1621 27.6547V28.5367C94.1621 28.7527 94.0481 28.8607 93.8201 28.8607H93.4421V27.3307ZM93.6941 27.5467V28.6447H93.8021C93.8741 28.6447 93.9101 28.6087 93.9101 28.5367V27.6547C93.9101 27.5827 93.8741 27.5467 93.8021 27.5467H93.6941Z" fill="black"/>
<path d="M95.4566 27.3307V27.5467H95.2226V28.8607H94.9886V27.5467H94.7546V27.3307H95.4566Z" fill="black"/>
<path d="M95.6204 27.3307H95.8724V28.8607H95.6204V27.3307Z" fill="black"/>
<path d="M96.1047 27.3307H96.3567L96.5907 28.2127V27.3307H96.8247V28.8607H96.5727L96.3387 27.9967V28.8607H96.1047V27.3307Z" fill="black"/>
<path d="M97.7442 28.5727C97.7442 28.7767 97.6242 28.8787 97.3842 28.8787C97.1562 28.8787 97.0422 28.7767 97.0422 28.5727V27.6367C97.0422 27.4207 97.1562 27.3127 97.3842 27.3127C97.6242 27.3127 97.7442 27.4207 97.7442 27.6367V27.8347H97.4922V27.6367C97.4922 27.5647 97.4562 27.5287 97.3842 27.5287C97.3122 27.5287 97.2762 27.5647 97.2762 27.6367V28.5727C97.2762 28.6327 97.3122 28.6627 97.3842 28.6627C97.4562 28.6627 97.4922 28.6327 97.4922 28.5727V28.3567H97.7442V28.5727Z" fill="black"/>
<path d="M97.9609 27.3307H98.1949V28.8607H97.9609V27.3307Z" fill="black"/>
<path fill-rule="evenodd" clip-rule="evenodd" d="M98.4265 27.3307H98.8225C99.0385 27.3307 99.1465 27.4387 99.1465 27.6547V28.5367C99.1465 28.7527 99.0325 28.8607 98.8045 28.8607H98.4265V27.3307ZM98.6785 27.5467V28.6447H98.7865C98.8585 28.6447 98.8945 28.6087 98.8945 28.5367V27.6547C98.8945 27.5827 98.8585 27.5467 98.7865 27.5467H98.6785Z" fill="black"/>
<path d="M100.065 28.5727C100.065 28.7767 99.9452 28.8787 99.7052 28.8787C99.4652 28.8787 99.3452 28.7767 99.3452 28.5727V27.3307H99.5972V28.5727C99.5972 28.6327 99.6332 28.6627 99.7052 28.6627C99.7772 28.6627 99.8132 28.6327 99.8132 28.5727V27.3307H100.065V28.5727Z" fill="black"/>
<path d="M100.283 27.3307H100.535L100.769 28.2127V27.3307H101.003V28.8607H100.751L100.535 27.9967V28.8607H100.283V27.3307Z" fill="black"/>
<path d="M101.866 27.3307V27.5467H101.65V28.8607H101.398V27.5467H101.164V27.3307H101.866Z" fill="black"/>
<path d="M103.179 28.5727C103.179 28.7767 103.059 28.8787 102.819 28.8787C102.591 28.8787 102.477 28.7767 102.477 28.5727V27.3307H102.711V28.5727C102.711 28.6327 102.747 28.6627 102.819 28.6627C102.891 28.6627 102.927 28.6327 102.927 28.5727V27.3307H103.179V28.5727Z" fill="black"/>
<path d="M104.044 27.3307V27.5467H103.81V28.8607H103.558V27.5467H103.342V27.3307H104.044Z" fill="black"/>
<path d="M104.655 28.8607V27.3307H104.907V28.6447H105.303V28.8607H104.655Z" fill="black"/>
<path fill-rule="evenodd" clip-rule="evenodd" d="M106.15 28.3207L106.222 28.8607H105.97L105.916 28.5367H105.664L105.628 28.8607H105.376L105.448 28.3207L105.628 27.3307H105.97L106.15 28.3207ZM105.898 28.3207L105.808 27.6907L105.7 28.3207H105.898Z" fill="black"/>
<path fill-rule="evenodd" clip-rule="evenodd" d="M107.068 28.5727C107.068 28.7767 106.948 28.8787 106.708 28.8787C106.468 28.8787 106.348 28.7767 106.348 28.5727V27.6367C106.348 27.4207 106.468 27.3127 106.708 27.3127C106.948 27.3127 107.068 27.4207 107.068 27.6367V28.5727ZM106.816 27.6367C106.816 27.5647 106.78 27.5287 106.708 27.5287C106.636 27.5287 106.6 27.5647 106.6 27.6367V28.5727C106.6 28.6447 106.636 28.6807 106.708 28.6807C106.78 28.6807 106.816 28.6447 106.816 28.5727V27.6367Z" fill="black"/>
<path fill-rule="evenodd" clip-rule="evenodd" d="M107.283 27.3307H107.643C107.859 27.3307 107.967 27.4387 107.967 27.6547V27.8887C107.967 28.0207 107.901 28.1107 107.769 28.1587L108.057 28.8607H107.787L107.553 28.1947H107.535V28.8607H107.283V27.3307ZM107.535 27.5467V27.9787H107.589C107.625 27.9787 107.649 27.9787 107.661 27.9787C107.697 27.9667 107.715 27.9307 107.715 27.8707V27.6547C107.715 27.5827 107.679 27.5467 107.607 27.5467H107.535Z" fill="black"/>
<path d="M108.148 27.3307H108.796V27.5467H108.4V27.9967H108.742V28.2127H108.4V28.6447H108.796V28.8607H108.148V27.3307Z" fill="black"/>
<path d="M108.977 27.3307H109.625V27.5467H109.229V27.9967H109.571V28.2127H109.229V28.6447H109.625V28.8607H108.977V27.3307Z" fill="black"/>
<path d="M110.453 27.3307V27.5467H110.219V28.8607H109.967V27.5467H109.733V27.3307H110.453Z" fill="black"/>
<path fill-rule="evenodd" clip-rule="evenodd" d="M111.064 27.3307H111.442C111.658 27.3307 111.766 27.4387 111.766 27.6547V28.5367C111.766 28.7527 111.652 28.8607 111.424 28.8607H111.064V27.3307ZM111.298 27.5467V28.6447H111.424C111.496 28.6447 111.532 28.6087 111.532 28.5367V27.6547C111.532 27.5827 111.496 27.5467 111.424 27.5467H111.298Z" fill="black"/>
<path fill-rule="evenodd" clip-rule="evenodd" d="M112.684 28.5727C112.684 28.7767 112.564 28.8787 112.324 28.8787C112.084 28.8787 111.964 28.7767 111.964 28.5727V27.6367C111.964 27.4207 112.084 27.3127 112.324 27.3127C112.564 27.3127 112.684 27.4207 112.684 27.6367V28.5727ZM112.432 27.6367C112.432 27.5647 112.396 27.5287 112.324 27.5287C112.252 27.5287 112.216 27.5647 112.216 27.6367V28.5727C112.216 28.6447 112.252 28.6807 112.324 28.6807C112.396 28.6807 112.432 28.6447 112.432 28.5727V27.6367Z" fill="black"/>
<path d="M112.902 28.8607V27.3307H113.136V28.6447H113.532V28.8607H112.902Z" fill="black"/>
<path fill-rule="evenodd" clip-rule="evenodd" d="M114.375 28.5727C114.375 28.7767 114.261 28.8787 114.033 28.8787C113.793 28.8787 113.673 28.7767 113.673 28.5727V27.6367C113.673 27.4207 113.793 27.3127 114.033 27.3127C114.261 27.3127 114.375 27.4207 114.375 27.6367V28.5727ZM114.141 27.6367C114.141 27.5647 114.105 27.5287 114.033 27.5287H114.015C113.943 27.5287 113.907 27.5647 113.907 27.6367V28.5727C113.907 28.6447 113.949 28.6807 114.033 28.6807C114.105 28.6807 114.141 28.6447 114.141 28.5727V27.6367Z" fill="black"/>
<path fill-rule="evenodd" clip-rule="evenodd" d="M114.592 27.3307H114.952C115.18 27.3307 115.294 27.4387 115.294 27.6547V27.8887C115.294 28.0207 115.228 28.1107 115.096 28.1587L115.366 28.8607H115.096L114.88 28.1947H114.844V28.8607H114.592V27.3307ZM114.844 27.5467V27.9787H114.898C114.934 27.9787 114.958 27.9787 114.97 27.9787C115.018 27.9667 115.042 27.9307 115.042 27.8707V27.6547C115.042 27.5827 115.006 27.5467 114.934 27.5467H114.844Z" fill="black"/>
<path d="M115.455 27.3307H116.103V27.5467H115.707V27.9967H116.049V28.2127H115.707V28.6447H116.103V28.8607H115.455V27.3307Z" fill="black"/>
<path d="M69.8259 30.5341L70.1139 29.4901H70.3659V31.0201H70.1319V30.1561L69.9159 31.0201H69.7539L69.5199 30.1561V31.0201H69.2859V29.4901H69.5379L69.8259 30.5341Z" fill="black"/>
<path fill-rule="evenodd" clip-rule="evenodd" d="M71.285 30.4801L71.375 31.0201H71.123L71.069 30.6961H70.817L70.763 31.0201H70.511L70.601 30.4801L70.781 29.4901H71.105L71.285 30.4801ZM71.051 30.4801L70.943 29.8501L70.853 30.4801H71.051Z" fill="black"/>
<path d="M72.2215 30.7321C72.2215 30.9361 72.1015 31.0381 71.8615 31.0381C71.6215 31.0381 71.5015 30.9361 71.5015 30.7321V29.7961C71.5015 29.5801 71.6215 29.4721 71.8615 29.4721C72.1015 29.4721 72.2215 29.5801 72.2215 29.7961V29.9941H71.9695V29.7961C71.9695 29.7241 71.9335 29.6881 71.8615 29.6881C71.7895 29.6881 71.7535 29.7241 71.7535 29.7961V30.7321C71.7535 30.7921 71.7895 30.8221 71.8615 30.8221C71.9335 30.8221 71.9695 30.7921 71.9695 30.7321V30.3721H71.8435V30.1561H72.2215V30.7321Z" fill="black"/>
<path d="M72.4172 29.4901H72.6692L72.9032 30.3721V29.4901H73.1372V31.0201H72.8852L72.6692 30.1561V31.0201H72.4172V29.4901Z" fill="black"/>
<path fill-rule="evenodd" clip-rule="evenodd" d="M74.0567 30.4801L74.1467 31.0201H73.8947L73.8407 30.6961H73.5887L73.5347 31.0201H73.2827L73.3727 30.4801L73.5527 29.4901H73.8947L74.0567 30.4801ZM73.8047 30.4801L73.6967 29.8501L73.6067 30.4801H73.8047Z" fill="black"/>
<path fill-rule="evenodd" clip-rule="evenodd" d="M75.4232 30.4801L75.5132 31.0201H75.2612L75.2072 30.6961H74.9552L74.9012 31.0201H74.6672L74.7392 30.4801L74.9192 29.4901H75.2612L75.4232 30.4801ZM75.1712 30.4801L75.0812 29.8501L74.9732 30.4801H75.1712Z" fill="black"/>
<path d="M75.6577 31.0201V29.4901H75.9097V30.8041H76.3057V31.0201H75.6577Z" fill="black"/>
<path d="M76.4673 29.4901H76.7013V31.0201H76.4673V29.4901Z" fill="black"/>
<path fill-rule="evenodd" clip-rule="evenodd" d="M77.6372 30.7501C77.6372 30.9421 77.5472 31.0501 77.3672 31.0741C77.3672 31.1101 77.4572 31.1281 77.6372 31.1281V31.3081C77.4932 31.3081 77.3912 31.2961 77.3312 31.2721C77.2592 31.2361 77.2232 31.1701 77.2232 31.0741C77.0192 31.0621 76.9172 30.9541 76.9172 30.7501V29.8321C76.9172 29.6161 77.0372 29.5081 77.2772 29.5081C77.5172 29.5081 77.6372 29.6161 77.6372 29.8321V30.7501ZM77.3852 29.8141C77.3852 29.7421 77.3492 29.7061 77.2772 29.7061C77.2052 29.7061 77.1692 29.7421 77.1692 29.8141V30.7501C77.1692 30.8101 77.2052 30.8401 77.2772 30.8401C77.3492 30.8401 77.3852 30.8101 77.3852 30.7501V29.8141Z" fill="black"/>
<path d="M78.5559 30.7321C78.5559 30.9361 78.4359 31.0381 78.1959 31.0381C77.9559 31.0381 77.8359 30.9361 77.8359 30.7321V29.4901H78.0879V30.7321C78.0879 30.7921 78.1239 30.8221 78.1959 30.8221C78.2679 30.8221 78.3039 30.7921 78.3039 30.7321V29.4901H78.5559V30.7321Z" fill="black"/>
<path fill-rule="evenodd" clip-rule="evenodd" d="M79.4757 30.4801L79.5477 31.0201H79.2957L79.2597 30.6961H79.0077L78.9537 31.0201H78.7017L78.7737 30.4801L78.9537 29.4901H79.2957L79.4757 30.4801ZM79.2237 30.4801L79.1337 29.8501L79.0437 30.4801H79.2237Z" fill="black"/>
<path d="M80.2478 30.5341L80.5358 29.4901H80.7878V31.0201H80.5358V30.1561L80.3198 31.0201H80.1578L79.9418 30.1561V31.0201H79.7078V29.4901H79.9418L80.2478 30.5341Z" fill="black"/>
<path d="M81.4546 29.4901H82.1026V29.7061H81.7066V30.1561H82.0486V30.3721H81.7066V30.8041H82.1026V31.0201H81.4546V29.4901Z" fill="black"/>
<path fill-rule="evenodd" clip-rule="evenodd" d="M82.2827 29.4901H82.6427C82.8707 29.4901 82.9847 29.5981 82.9847 29.8141V30.0481C82.9847 30.1801 82.9187 30.2701 82.7867 30.3181L83.0567 31.0201H82.7867L82.5707 30.3541H82.5347V31.0201H82.2827V29.4901ZM82.5347 29.7061V30.1381H82.5887C82.6247 30.1381 82.6487 30.1381 82.6607 30.1381C82.7087 30.1261 82.7327 30.0901 82.7327 30.0301V29.8141C82.7327 29.7421 82.6967 29.7061 82.6247 29.7061H82.5347Z" fill="black"/>
<path fill-rule="evenodd" clip-rule="evenodd" d="M83.9005 30.4801L83.9725 31.0201H83.7205L83.6665 30.6961H83.4145L83.3785 31.0201H83.1265L83.1985 30.4801L83.3785 29.4901H83.7205L83.9005 30.4801ZM83.6485 30.4801L83.5585 29.8501L83.4505 30.4801H83.6485Z" fill="black"/>
<path d="M84.731 29.4901V29.7061H84.497V31.0201H84.245V29.7061H84.011V29.4901H84.731Z" fill="black"/>
<path d="M85.8455 31.0201H85.5035L85.3415 30.0301L85.2515 29.4901H85.5035L85.6835 30.6601L85.8635 29.4901H86.1155L86.0255 30.0301L85.8455 31.0201Z" fill="black"/>
<path fill-rule="evenodd" clip-rule="evenodd" d="M86.9622 30.7321C86.9622 30.9361 86.8422 31.0381 86.6022 31.0381C86.3622 31.0381 86.2422 30.9361 86.2422 30.7321V29.7961C86.2422 29.5801 86.3622 29.4721 86.6022 29.4721C86.8422 29.4721 86.9622 29.5801 86.9622 29.7961V30.7321ZM86.7102 29.7961C86.7102 29.7241 86.6742 29.6881 86.6022 29.6881C86.5302 29.6881 86.4942 29.7241 86.4942 29.7961V30.7321C86.4942 30.8041 86.5302 30.8401 86.6022 30.8401C86.6742 30.8401 86.7102 30.8041 86.7102 30.7321V29.7961Z" fill="black"/>
<path d="M87.1609 31.0201V29.4901H87.4129V30.8041H87.8089V31.0201H87.1609Z" fill="black"/>
<path d="M88.6717 30.7321C88.6717 30.9361 88.5517 31.0381 88.3117 31.0381C88.0717 31.0381 87.9517 30.9361 87.9517 30.7321V29.4901H88.2037V30.7321C88.2037 30.7921 88.2397 30.8221 88.3117 30.8221C88.3837 30.8221 88.4197 30.7921 88.4197 30.7321V29.4901H88.6717V30.7321Z" fill="black"/>
<path d="M89.5371 29.4901V29.7061H89.3031V31.0201H89.0511V29.7061H88.8171V29.4901H89.5371Z" fill="black"/>
<path fill-rule="evenodd" clip-rule="evenodd" d="M89.6797 29.4901H90.0577C90.2737 29.4901 90.3817 29.5981 90.3817 29.8141V30.0481C90.3817 30.2041 90.3037 30.3061 90.1477 30.3541C90.1117 30.3661 90.0517 30.3721 89.9677 30.3721H89.9317V31.0201H89.6797V29.4901ZM89.9317 29.7061V30.1381H89.9857C90.0217 30.1381 90.0457 30.1381 90.0577 30.1381C90.1057 30.1261 90.1297 30.0901 90.1297 30.0301V29.8141C90.1297 29.7421 90.0937 29.7061 90.0217 29.7061H89.9317Z" fill="black"/>
<path fill-rule="evenodd" clip-rule="evenodd" d="M91.263 30.4801L91.335 31.0201H91.083L91.047 30.6961H90.777L90.741 31.0201H90.489L90.561 30.4801L90.741 29.4901H91.083L91.263 30.4801ZM91.011 30.4801L90.921 29.8501L90.813 30.4801H91.011Z" fill="black"/>
<path d="M92.0935 29.4901V29.7061H91.8595V31.0201H91.6075V29.7061H91.3735V29.4901H92.0935Z" fill="black"/>
<path d="M92.2358 30.7323H92.5238V31.0203H92.2358V30.7323Z" fill="black"/>
<path d="M93.891 30.6784C93.891 30.9184 93.777 31.0384 93.549 31.0384C93.309 31.0384 93.189 30.9184 93.189 30.6784V29.2924H93.441V30.6784C93.441 30.7624 93.477 30.8045 93.549 30.8045C93.621 30.8045 93.657 30.7624 93.657 30.6784V29.2924H93.891V30.6784Z" fill="black"/>
<path d="M94.7567 29.4901V29.7061H94.5227V31.0201H94.2887V29.7061H94.0547V29.4901H94.7567Z" fill="black"/>
<path d="M96.3214 30.6601L96.4834 29.4901H96.7354L96.6634 30.0301L96.4834 31.0201H96.1414L96.0154 30.2281L95.8894 31.0201H95.5474L95.3674 30.0301L95.2954 29.4901H95.5474L95.7094 30.6601L95.8894 29.4901H96.1414L96.3214 30.6601Z" fill="black"/>
<path d="M96.8984 29.4901H97.1504V31.0201H96.8984V29.4901Z" fill="black"/>
<path d="M97.3672 29.7961C97.3672 29.5801 97.4812 29.4721 97.7092 29.4721C97.9492 29.4721 98.0692 29.5801 98.0692 29.7961V29.9941H97.8172V29.7961C97.8172 29.7241 97.7812 29.6881 97.7092 29.6881C97.6372 29.6881 97.6012 29.7241 97.6012 29.7961V29.9401C97.6012 30.0001 97.6792 30.0781 97.8352 30.1741C97.9912 30.2821 98.0692 30.4021 98.0692 30.5341V30.7321C98.0692 30.9361 97.9492 31.0381 97.7092 31.0381C97.4812 31.0381 97.3672 30.9361 97.3672 30.7321V30.5161H97.6012V30.7321C97.6012 30.7921 97.6372 30.8221 97.7092 30.8221C97.7812 30.8221 97.8172 30.7921 97.8172 30.7321V30.5521C97.8172 30.4801 97.7452 30.3961 97.6012 30.3001C97.4452 30.1921 97.3672 30.0721 97.3672 29.9401V29.7961Z" fill="black"/>
<path d="M98.2827 29.4901H98.5347V31.0201H98.2827V29.4901Z" fill="black"/>
<path d="M99.2202 29.4901H99.8682V29.7061H99.4722V30.1561H99.8142V30.3721H99.4722V30.8041H99.8682V31.0201H99.2202V29.4901Z" fill="black"/>
<path d="M100.048 29.4901H100.3L100.534 30.3721V29.4901H100.768V31.0201H100.516L100.282 30.1561V31.0201H100.048V29.4901Z" fill="black"/>
<path d="M101.001 29.4901H101.235V31.0201H101.001V29.4901Z" fill="black"/>
<path d="M102.01 30.5341L102.298 29.4901H102.55V31.0201H102.316V30.1561L102.1 31.0201H101.938L101.722 30.1561V31.0201H101.47V29.4901H101.722L102.01 30.5341Z" fill="black"/>
<path fill-rule="evenodd" clip-rule="evenodd" d="M103.919 30.4801L104.009 31.0201H103.757L103.703 30.6961H103.451L103.397 31.0201H103.145L103.235 30.4801L103.415 29.4901H103.757L103.919 30.4801ZM103.667 30.4801L103.559 29.8501L103.469 30.4801H103.667Z" fill="black"/>
<path fill-rule="evenodd" clip-rule="evenodd" d="M104.152 29.4901H104.53C104.758 29.4901 104.872 29.5981 104.872 29.8141V30.6961C104.872 30.9121 104.752 31.0201 104.512 31.0201H104.152V29.4901ZM104.404 29.7061V30.8041H104.512C104.584 30.8041 104.62 30.7681 104.62 30.6961V29.8141C104.62 29.7421 104.584 29.7061 104.512 29.7061H104.404Z" fill="black"/>
<path d="M106.06 30.5341L106.348 29.4901H106.6V31.0201H106.366V30.1561L106.15 31.0201H105.988L105.772 30.1561V31.0201H105.52V29.4901H105.772L106.06 30.5341Z" fill="black"/>
<path d="M106.833 29.4901H107.085V31.0201H106.833V29.4901Z" fill="black"/>
<path d="M107.32 29.4901H107.572L107.806 30.3721V29.4901H108.04V31.0201H107.788L107.554 30.1561V31.0201H107.32V29.4901Z" fill="black"/>
<path d="M108.273 29.4901H108.507V31.0201H108.273V29.4901Z" fill="black"/>
<path d="M109.282 30.5341L109.57 29.4901H109.822V31.0201H109.588V30.1561L109.372 31.0201H109.21L108.994 30.1561V31.0201H108.742V29.4901H108.994L109.282 30.5341Z" fill="black"/>
<path d="M111.029 31.0201H110.687L110.507 30.0301L110.417 29.4901H110.669L110.849 30.6601L111.029 29.4901H111.281L111.191 30.0301L111.029 31.0201Z" fill="black"/>
<path d="M111.423 29.4901H112.071V29.7061H111.675V30.1561H112.017V30.3721H111.675V30.8041H112.071V31.0201H111.423V29.4901Z" fill="black"/>
<path d="M112.251 29.4901H112.503L112.737 30.3721V29.4901H112.971V31.0201H112.719L112.503 30.1561V31.0201H112.251V29.4901Z" fill="black"/>
<path d="M113.205 29.4901H113.457V31.0201H113.205V29.4901Z" fill="black"/>
<path fill-rule="evenodd" clip-rule="evenodd" d="M114.376 30.4801L114.466 31.0201H114.214L114.16 30.6961H113.908L113.854 31.0201H113.602L113.692 30.4801L113.854 29.4901H114.196L114.376 30.4801ZM114.124 30.4801L114.034 29.8501L113.944 30.4801H114.124Z" fill="black"/>
<path d="M115.151 30.5341L115.439 29.4901H115.691V31.0201H115.457V30.1561L115.241 31.0201H115.061L114.845 30.1561V31.0201H114.611V29.4901H114.863L115.151 30.5341Z" fill="black"/>
<path d="M115.905 30.7323H116.211V30.9843L116.121 31.3083H115.959L116.013 31.0203H115.905V30.7323Z" fill="black"/>
<path d="M130.251 18.294H130.701L131.115 20.094V18.294H131.529V21.39H131.079L130.683 19.644V21.39H130.251V18.294Z" fill="black"/>
<path fill-rule="evenodd" clip-rule="evenodd" d="M133.204 20.7961C133.204 21.2281 132.988 21.4441 132.556 21.4441C132.124 21.4441 131.908 21.2281 131.908 20.7961V18.8881C131.908 18.4561 132.124 18.2401 132.556 18.2401C132.988 18.2401 133.204 18.4561 133.204 18.8881V20.7961ZM132.754 18.9061C132.754 18.7621 132.688 18.6901 132.556 18.6901C132.424 18.6901 132.358 18.7621 132.358 18.9061V20.7961C132.358 20.9401 132.424 21.0121 132.556 21.0121C132.688 21.0121 132.754 20.9401 132.754 20.7961V18.9061Z" fill="black"/>
<path fill-rule="evenodd" clip-rule="evenodd" d="M138.046 20.292L138.19 21.39H137.74L137.65 20.742H137.182L137.092 21.39H136.642L136.804 20.292L137.11 18.294H137.722L138.046 20.292ZM137.596 20.292L137.434 18.996L137.254 20.292H137.596Z" fill="black"/>
<path d="M139.325 18.294V20.958H139.739V21.39H138.461V20.958H138.875V18.726H138.461V18.294H139.325Z" fill="black"/>
<path fill-rule="evenodd" clip-rule="evenodd" d="M141.377 18.294V20.184H141.557V20.634H141.377V21.39H140.945V20.634H140.027V20.238L140.819 18.294H141.377ZM140.459 20.184H140.927V19.014L140.459 20.184Z" fill="black"/>
<path fill-rule="evenodd" clip-rule="evenodd" d="M142.691 20.0401C142.607 20.1121 142.505 20.1481 142.385 20.1481C142.361 20.1481 142.337 20.1481 142.313 20.1481C142.169 20.1361 142.055 20.0821 141.971 19.9861C141.887 19.9021 141.845 19.7401 141.845 19.5001V18.8881C141.845 18.4561 142.061 18.2401 142.493 18.2401C142.925 18.2401 143.141 18.4561 143.141 18.8881V20.7961C143.141 21.2281 142.925 21.4441 142.493 21.4441C142.061 21.4441 141.845 21.2281 141.845 20.7961V20.3641H142.295V20.7961C142.295 20.9281 142.361 20.9941 142.493 20.9941C142.625 20.9941 142.691 20.9281 142.691 20.7961V20.0401ZM142.295 19.5181C142.295 19.6261 142.319 19.6861 142.367 19.6981C142.391 19.7101 142.433 19.7161 142.493 19.7161C142.505 19.7161 142.517 19.7161 142.529 19.7161C142.637 19.7161 142.691 19.6501 142.691 19.5181V18.8881C142.691 18.7561 142.625 18.6901 142.493 18.6901C142.361 18.6901 142.295 18.7561 142.295 18.8881V19.5181Z" fill="black"/>
<path fill-rule="evenodd" clip-rule="evenodd" d="M143.555 18.294H144.239C144.635 18.294 144.833 18.51 144.833 18.942V19.41C144.833 19.614 144.749 19.758 144.581 19.842C144.749 19.926 144.833 20.07 144.833 20.274V20.742C144.833 21.174 144.623 21.39 144.203 21.39H143.555V18.294ZM144.005 18.744V19.626H144.131C144.203 19.626 144.245 19.62 144.257 19.608C144.341 19.584 144.383 19.518 144.383 19.41V18.942C144.383 18.81 144.317 18.744 144.185 18.744H144.005ZM144.005 20.076V20.958H144.203C144.335 20.958 144.401 20.886 144.401 20.742V20.274C144.401 20.178 144.359 20.112 144.275 20.076C144.251 20.076 144.209 20.076 144.149 20.076H144.005Z" fill="black"/>
<path d="M145.173 18.8881C145.173 18.4561 145.383 18.2401 145.803 18.2401C146.235 18.2401 146.451 18.4561 146.451 18.8881V19.3021H146.001V18.8881C146.001 18.7561 145.935 18.6901 145.803 18.6901C145.671 18.6901 145.605 18.7561 145.605 18.8881V19.1761C145.605 19.3081 145.749 19.4761 146.037 19.6801C146.313 19.8841 146.451 20.1241 146.451 20.4001V20.7961C146.451 21.2281 146.235 21.4441 145.803 21.4441C145.383 21.4441 145.173 21.2281 145.173 20.7961V20.3641H145.605V20.7961C145.605 20.9281 145.671 20.9941 145.803 20.9941C145.935 20.9941 146.001 20.9281 146.001 20.7961V20.4361C146.001 20.2921 145.863 20.1181 145.587 19.9141C145.311 19.7101 145.173 19.4641 145.173 19.1761V18.8881Z" fill="black"/>
<path d="M146.83 20.7241C146.83 20.4481 146.968 20.2081 147.244 20.0041C147.532 19.8121 147.676 19.6441 147.676 19.5001V18.8881C147.676 18.7561 147.61 18.6901 147.478 18.6901C147.346 18.6901 147.28 18.7561 147.28 18.8881V19.3021H146.83V18.8881C146.83 18.4561 147.046 18.2401 147.478 18.2401C147.91 18.2401 148.126 18.4561 148.126 18.8881V19.5181C148.126 19.7941 147.982 20.0341 147.694 20.2381C147.418 20.4421 147.28 20.6161 147.28 20.7601V20.9581H148.126V21.3901H146.83V20.7241Z" fill="black"/>
<path fill-rule="evenodd" clip-rule="evenodd" d="M131.567 25.6742C131.567 26.0582 131.405 26.2682 131.081 26.3042C131.081 26.3762 131.243 26.4122 131.567 26.4122V26.7902C131.303 26.7902 131.123 26.7662 131.027 26.7182C130.895 26.6462 130.829 26.5142 130.829 26.3222C130.469 26.2862 130.289 26.0702 130.289 25.6742V23.7662C130.289 23.3342 130.499 23.1182 130.919 23.1182C131.351 23.1182 131.567 23.3342 131.567 23.7662V25.6742ZM131.117 23.7842C131.117 23.6402 131.057 23.5682 130.937 23.5682H130.919C130.799 23.5682 130.739 23.6402 130.739 23.7842V25.6742C130.739 25.8182 130.799 25.8902 130.919 25.8902C131.051 25.8902 131.117 25.8182 131.117 25.6742V23.7842Z" fill="black"/>
<path fill-rule="evenodd" clip-rule="evenodd" d="M131.945 23.1721H132.611C133.007 23.1721 133.205 23.3881 133.205 23.8201V24.2881C133.205 24.5641 133.085 24.7441 132.845 24.8281L133.349 26.2681H132.863L132.449 24.9001L132.395 24.9181V26.2681H131.945V23.1721ZM132.395 23.6221V24.5041H132.503C132.563 24.5041 132.605 24.4981 132.629 24.4861C132.713 24.4621 132.755 24.3961 132.755 24.2881V23.8201C132.755 23.6881 132.689 23.6221 132.557 23.6221H132.395Z" fill="black"/>
<path fill-rule="evenodd" clip-rule="evenodd" d="M138.064 25.6742C138.064 26.0582 137.902 26.2682 137.578 26.3042C137.59 26.3762 137.752 26.4122 138.064 26.4122V26.7902C137.8 26.7902 137.62 26.7662 137.524 26.7182C137.392 26.6462 137.326 26.5142 137.326 26.3222C136.966 26.2862 136.786 26.0702 136.786 25.6742V23.7662C136.786 23.3342 137.002 23.1182 137.434 23.1182C137.854 23.1182 138.064 23.3342 138.064 23.7662V25.6742ZM137.614 23.7842C137.614 23.6402 137.554 23.5682 137.434 23.5682H137.416C137.296 23.5682 137.236 23.6402 137.236 23.7842V25.6742C137.236 25.8182 137.302 25.8902 137.434 25.8902C137.554 25.8902 137.614 25.8182 137.614 25.6742V23.7842Z" fill="black"/>
<path fill-rule="evenodd" clip-rule="evenodd" d="M138.442 23.1721H139.108C139.504 23.1721 139.702 23.3881 139.702 23.8201V24.2881C139.702 24.5641 139.582 24.7441 139.342 24.8281L139.846 26.2681H139.36L138.946 24.9001L138.892 24.9181V26.2681H138.442V23.1721ZM138.892 23.6221V24.5041H139C139.06 24.5041 139.102 24.4981 139.126 24.4861C139.21 24.4621 139.252 24.3961 139.252 24.2881V23.8201C139.252 23.6881 139.186 23.6221 139.054 23.6221H138.892Z" fill="black"/>
<path fill-rule="evenodd" clip-rule="evenodd" d="M141.376 25.6742C141.376 26.1062 141.16 26.3222 140.728 26.3222C140.296 26.3222 140.08 26.1062 140.08 25.6742V23.7662C140.08 23.3342 140.296 23.1182 140.728 23.1182C141.16 23.1182 141.376 23.3342 141.376 23.7662V25.6742ZM140.926 23.7842C140.926 23.6402 140.86 23.5682 140.728 23.5682C140.596 23.5682 140.53 23.6402 140.53 23.7842V25.6742C140.53 25.8182 140.596 25.8902 140.728 25.8902C140.86 25.8902 140.926 25.8182 140.926 25.6742V23.7842Z" fill="black"/>
<path fill-rule="evenodd" clip-rule="evenodd" d="M143.033 25.6742C143.033 26.1062 142.823 26.3222 142.403 26.3222C141.971 26.3222 141.755 26.1062 141.755 25.6742V23.7662C141.755 23.3342 141.971 23.1182 142.403 23.1182C142.823 23.1182 143.033 23.3342 143.033 23.7662V25.6742ZM142.583 23.7842C142.583 23.6402 142.523 23.5682 142.403 23.5682H142.385C142.265 23.5682 142.205 23.6402 142.205 23.7842V25.6742C142.205 25.8182 142.271 25.8902 142.403 25.8902C142.523 25.8902 142.583 25.8182 142.583 25.6742V23.7842Z" fill="black"/>
<path fill-rule="evenodd" clip-rule="evenodd" d="M144.707 25.6742C144.707 26.1062 144.491 26.3222 144.059 26.3222C143.627 26.3222 143.411 26.1062 143.411 25.6742V23.7662C143.411 23.3342 143.627 23.1182 144.059 23.1182C144.491 23.1182 144.707 23.3342 144.707 23.7662V25.6742ZM144.257 23.7842C144.257 23.6402 144.191 23.5682 144.059 23.5682C143.927 23.5682 143.861 23.6402 143.861 23.7842V25.6742C143.861 25.8182 143.927 25.8902 144.059 25.8902C144.191 25.8902 144.257 25.8182 144.257 25.6742V23.7842Z" fill="black"/>
<path d="M145.966 23.1721V25.8361H146.38V26.2681H145.102V25.8361H145.516V23.6041H145.102V23.1721H145.966Z" fill="black"/>
<path d="M146.795 25.6022C146.795 25.3262 146.933 25.0862 147.209 24.8822C147.497 24.6902 147.641 24.5222 147.641 24.3782V23.7662C147.641 23.6222 147.575 23.5502 147.443 23.5502C147.311 23.5502 147.245 23.6222 147.245 23.7662V24.1802H146.795V23.7662C146.795 23.3342 147.011 23.1182 147.443 23.1182C147.875 23.1182 148.091 23.3342 148.091 23.7662V24.3962C148.091 24.6722 147.947 24.9122 147.659 25.1162C147.383 25.3202 147.245 25.4942 147.245 25.6382V25.8362H148.091V26.2682H146.795V25.6022Z" fill="black"/>
<path d="M131.117 33.6127H130.577V28.2307H131.117V33.6127Z" fill="black"/>
<path d="M132.088 33.6127H131.548V28.2307H132.088V33.6127Z" fill="black"/>
<path d="M136.282 33.6127H135.742V28.2307H136.282V33.6127Z" fill="black"/>
<path d="M134.483 33.6127H134.195V28.2307H134.483V33.6127Z" fill="black"/>
<path d="M135.455 33.6127H135.167V28.2307H135.455V33.6127Z" fill="black"/>
<path d="M138.514 33.6127H138.208V28.2307H138.514V33.6127Z" fill="black"/>
<path d="M139.486 33.6127H139.18V28.2307H139.486V33.6127Z" fill="black"/>
<path d="M139.973 33.6127H139.667V28.2307H139.973V33.6127Z" fill="black"/>
<path d="M140.458 33.6127H140.152V28.2307H140.458V33.6127Z" fill="black"/>
<path d="M141.43 33.6127H141.142V28.2307H141.43V33.6127Z" fill="black"/>
<path d="M141.914 33.6127H141.626V28.2307H141.914V33.6127Z" fill="black"/>
<path d="M142.401 33.6127H142.311V28.2307H142.401V33.6127Z" fill="black"/>
<path d="M142.817 33.6127H142.745V28.2307H142.817V33.6127Z" fill="black"/>
<path d="M140.836 33.6127H140.764V28.2307H140.836V33.6127Z" fill="black"/>
<path d="M138.892 33.6127H138.82V28.2307H138.892V33.6127Z" fill="black"/>
<path d="M136.751 33.6127H136.661V28.2307H136.751V33.6127Z" fill="black"/>
<path d="M132.573 33.6127H132.483V28.2307H132.573V33.6127Z" fill="black"/>
<path d="M145.21 33.6127H145.12V28.2307H145.21V33.6127Z" fill="black"/>
<path d="M147.154 33.6127H147.064V28.2307H147.154V33.6127Z" fill="black"/>
<path d="M143.374 33.6127H143.086V28.2307H143.374V33.6127Z" fill="black"/>
<path d="M143.861 33.6127H143.573V28.2307H143.861V33.6127Z" fill="black"/>
<path d="M144.346 33.6127H144.058V28.2307H144.346V33.6127Z" fill="black"/>
<path d="M144.833 33.6127H144.545V28.2307H144.833V33.6127Z" fill="black"/>
<path d="M145.823 33.6127H145.517V28.2307H145.823V33.6127Z" fill="black"/>
<path d="M146.307 33.6127H146.001V28.2307H146.307V33.6127Z" fill="black"/>
<path d="M146.795 33.6127H146.489V28.2307H146.795V33.6127Z" fill="black"/>
<path d="M147.767 33.6127H147.461V28.2307H147.767V33.6127Z" fill="black"/>
<path d="M148.251 33.6127H147.945V28.2307H148.251V33.6127Z" fill="black"/>
<path d="M133.979 33.6127H132.917V28.2307H133.979V33.6127Z" fill="black"/>
<path d="M138.027 33.6127H137.055V28.2307H138.027V33.6127Z" fill="black"/>
<path d="M78.5859 55.4003C77.2826 55.4003 76.403 55.1997 75.9473 54.7987C75.5007 54.3977 75.2773 53.6548 75.2773 52.5702V51.3944L78.2441 50.7792V52.8026H86.0371C86.5931 52.8026 86.9622 52.716 87.1445 52.5428C87.3359 52.3697 87.4316 52.0233 87.4316 51.5038V50.451C87.4316 49.9224 87.3359 49.5715 87.1445 49.3983C86.9531 49.216 86.584 49.1249 86.0371 49.1249H81.1562V46.7733H85.5039C86.0508 46.7733 86.4154 46.6867 86.5977 46.5135C86.7799 46.3404 86.8711 45.9895 86.8711 45.4608V44.7362C86.8711 44.1984 86.7799 43.843 86.5977 43.6698C86.4154 43.4966 86.0508 43.41 85.5039 43.41H78.3672V45.2147L75.5098 44.6815V43.7792C75.5098 42.6945 75.7331 41.9517 76.1797 41.5507C76.6263 41.1496 77.5013 40.9491 78.8047 40.9491H86.625C87.9284 40.9491 88.8034 41.1496 89.25 41.5507C89.6966 41.9517 89.9199 42.6945 89.9199 43.7792V45.0917C89.9199 45.9393 89.7148 46.5682 89.3047 46.9784C88.8945 47.3885 88.1699 47.6757 87.1309 47.8397C88.2884 47.9491 89.1361 48.2408 89.6738 48.7147C90.2116 49.1887 90.4805 49.8768 90.4805 50.7792V52.2968C90.4805 53.4816 90.2253 54.2974 89.7148 54.744C89.2044 55.1815 88.293 55.4003 86.9805 55.4003H78.5859ZM108.228 49.6581C107.189 49.8221 106.136 49.9452 105.069 50.0272C104.003 50.1001 102.928 50.1366 101.843 50.1366C99.5096 50.1366 97.9054 49.8677 97.0304 49.33C96.1645 48.7831 95.7316 47.8124 95.7316 46.4178V44.4764C95.7316 43.2733 96.128 42.3846 96.921 41.8104C97.7231 41.2362 98.9718 40.9491 100.667 40.9491H106.765C108.588 40.9491 109.836 41.2681 110.511 41.9061C111.185 42.5441 111.523 43.7108 111.523 45.4061V47.3065C111.523 49.9953 110.593 52.0734 108.734 53.5409C106.874 55.0083 104.249 55.7421 100.859 55.7421C100.576 55.7421 100.362 55.7375 100.216 55.7284C100.079 55.7284 99.9471 55.7193 99.8195 55.701L97.837 53.3905H98.753C101.834 53.3905 104.058 53.108 105.425 52.5428C106.801 51.9777 107.735 51.0162 108.228 49.6581ZM108.392 47.4432C108.419 47.2792 108.437 47.1242 108.446 46.9784C108.465 46.8234 108.474 46.6913 108.474 46.5819C108.474 45.16 108.287 44.2759 107.913 43.9296C107.54 43.5832 106.719 43.41 105.452 43.41H101.446C100.435 43.41 99.7374 43.5376 99.3546 43.7928C98.9718 44.0481 98.7804 44.522 98.7804 45.2147V46.0214C98.7804 46.7232 98.9946 47.1971 99.423 47.4432C99.8514 47.6893 100.713 47.8124 102.007 47.8124C102.918 47.8124 103.912 47.785 104.987 47.7303C106.072 47.6665 107.207 47.5708 108.392 47.4432ZM128.764 49.6581C127.725 49.8221 126.672 49.9452 125.606 50.0272C124.539 50.1001 123.464 50.1366 122.379 50.1366C120.046 50.1366 118.442 49.8677 117.567 49.33C116.701 48.7831 116.268 47.8124 116.268 46.4178V44.4764C116.268 43.2733 116.664 42.3846 117.457 41.8104C118.259 41.2362 119.508 40.9491 121.203 40.9491H127.301C129.124 40.9491 130.373 41.2681 131.047 41.9061C131.722 42.5441 132.059 43.7108 132.059 45.4061V47.3065C132.059 49.9953 131.129 52.0734 129.27 53.5409C127.41 55.0083 124.785 55.7421 121.395 55.7421C121.112 55.7421 120.898 55.7375 120.752 55.7284C120.615 55.7284 120.483 55.7193 120.356 55.701L118.373 53.3905H119.289C122.37 53.3905 124.594 53.108 125.961 52.5428C127.337 51.9777 128.272 51.0162 128.764 49.6581ZM128.928 47.4432C128.955 47.2792 128.974 47.1242 128.983 46.9784C129.001 46.8234 129.01 46.6913 129.01 46.5819C129.01 45.16 128.823 44.2759 128.449 43.9296C128.076 43.5832 127.255 43.41 125.989 43.41H121.983C120.971 43.41 120.274 43.5376 119.891 43.7928C119.508 44.0481 119.317 44.522 119.317 45.2147V46.0214C119.317 46.7232 119.531 47.1971 119.959 47.4432C120.388 47.6893 121.249 47.8124 122.543 47.8124C123.455 47.8124 124.448 47.785 125.524 47.7303C126.608 47.6665 127.743 47.5708 128.928 47.4432ZM133.14 55.8514L140.413 40.4979H142.259L134.931 55.8514H133.14ZM141.823 49.3846V46.4999H148.344V49.3846H141.823Z" fill="black"/>
</g>
<path d="M60.7263 66.36H50.5978L37.5193 56.2978H14.5417V55.7696H37.8143L50.8928 65.8066H60.038V0L133.822 0V0.553407H60.7263V66.36Z" fill="#8B75D9"/>
<path d="M16.7591 52.6425L16.5071 52.2897L17.1119 51.8109L17.3891 52.2141L16.7591 52.6425Z" fill="#8B75D9"/>
<path d="M17.3375 53.7285L17.1611 53.3253L17.8415 52.9977L18.0431 53.4261L17.3375 53.7285Z" fill="#8B75D9"/>
<path d="M17.6906 54.9101L17.5898 54.4817L18.3206 54.2801L18.4466 54.7589L17.6906 54.9101Z" fill="#8B75D9"/>
<path d="M17.8167 56.1206L17.7915 55.6922L18.5727 55.6418V56.1206H17.8167Z" fill="#8B75D9"/>
<path d="M17.6909 57.3554C17.7245 57.2042 17.7497 57.0614 17.7665 56.927L18.5225 57.0026C18.5057 57.1706 18.4805 57.3386 18.4469 57.5066L17.6909 57.3554Z" fill="#8B75D9"/>
<path d="M17.3381 58.5142C17.3885 58.3882 17.4389 58.237 17.4893 58.111L18.2201 58.363C18.1697 58.5142 18.1193 58.6654 18.0437 58.8166L17.3381 58.5142Z" fill="#8B75D9"/>
<path d="M16.7566 59.5991C16.8322 59.4983 16.9078 59.3471 16.9834 59.2211L17.6386 59.6243C17.563 59.7503 17.4874 59.9015 17.3866 60.0275L16.7566 59.5991Z" fill="#8B75D9"/>
<path d="M15.9778 60.5577L16.2802 60.2301L16.8598 60.7341L16.5322 61.1121L15.9778 60.5577Z" fill="#8B75D9"/>
<path d="M15.0195 61.3352L15.3723 61.0832L15.8511 61.688L15.4479 61.9652L15.0195 61.3352Z" fill="#8B75D9"/>
<path d="M13.9346 61.9159L14.3378 61.7395L14.6906 62.4199L14.237 62.6215L13.9346 61.9159Z" fill="#8B75D9"/>
<path d="M12.7751 62.2696L13.2035 62.1688L13.4051 62.8996L12.9263 63.0256L12.7751 62.2696Z" fill="#8B75D9"/>
<path d="M11.5413 62.3963L11.9949 62.3711L12.0453 63.1523L11.5413 63.1775V62.3963Z" fill="#8B75D9"/>
<path d="M10.3321 62.2699C10.4665 62.3035 10.6093 62.3287 10.7605 62.3455L10.6597 63.1015C10.4917 63.0847 10.3321 63.0595 10.1809 63.0259L10.3321 62.2699Z" fill="#8B75D9"/>
<path d="M9.14907 61.9172C9.27507 61.9676 9.42626 62.018 9.55226 62.0684L9.32546 62.7992C9.17426 62.7488 8.99788 62.6984 8.84668 62.6228L9.14907 61.9172Z" fill="#8B75D9"/>
<path d="M8.06291 61.3375C8.18891 61.4131 8.31491 61.4887 8.44091 61.5643L8.06291 62.2447C7.91171 62.1439 7.76052 62.0683 7.63452 61.9675L8.06291 61.3375Z" fill="#8B75D9"/>
<path d="M7.10488 60.5582L7.43246 60.8606L6.92846 61.4402L6.57568 61.1126L7.10488 60.5582Z" fill="#8B75D9"/>
<path d="M6.32653 59.5984L6.60373 59.9512L5.99892 60.43L5.69653 60.0268L6.32653 59.5984Z" fill="#8B75D9"/>
<path d="M5.7459 58.5129L5.94751 58.9161L5.2419 59.2689L5.04028 58.8153L5.7459 58.5129Z" fill="#8B75D9"/>
<path d="M5.3937 57.3563L5.4945 57.7847L4.7637 57.9863L4.6377 57.5075L5.3937 57.3563Z" fill="#8B75D9"/>
<path d="M5.26723 56.1203L5.29242 56.5739L4.53642 56.6243L4.51123 56.1203H5.26723Z" fill="#8B75D9"/>
<path d="M5.39286 54.9125C5.37606 55.0469 5.35927 55.1897 5.34247 55.3409L4.56128 55.2401C4.59488 55.0721 4.62006 54.9126 4.63686 54.7614L5.39286 54.9125Z" fill="#8B75D9"/>
<path d="M5.74528 53.7266C5.69488 53.8526 5.64449 54.0038 5.59409 54.1298L4.86328 53.903C4.93888 53.7518 4.98927 53.5754 5.03967 53.4242L5.74528 53.7266Z" fill="#8B75D9"/>
<path d="M6.32512 52.6413C6.24952 52.7673 6.17391 52.8933 6.09831 53.0193L5.44312 52.6413C5.51872 52.4901 5.59432 52.3389 5.69512 52.2129L6.32512 52.6413Z" fill="#8B75D9"/>
<path d="M7.10705 51.6866L6.80463 52.0142L6.25024 51.5102L6.57786 51.1574L7.10705 51.6866Z" fill="#8B75D9"/>
<path d="M8.06352 50.9042L7.71074 51.1814L7.23193 50.5766L7.63513 50.2742L8.06352 50.9042Z" fill="#8B75D9"/>
<path d="M9.14736 50.3263L8.74416 50.5279L8.39136 49.8223L8.84497 49.6207L9.14736 50.3263Z" fill="#8B75D9"/>
<path d="M10.3319 49.972L9.90352 50.0728L9.7019 49.342L10.1807 49.216L10.3319 49.972Z" fill="#8B75D9"/>
<path d="M11.5416 49.8462L11.1132 49.8714L11.0627 49.1154L11.5416 49.0902V49.8462Z" fill="#8B75D9"/>
<path d="M12.7764 49.9711C12.6252 49.9543 12.474 49.9375 12.3228 49.9207L12.4236 49.1395C12.5916 49.1731 12.7596 49.1983 12.9276 49.2151L12.7764 49.9711Z" fill="#8B75D9"/>
<path d="M13.9352 50.3244C13.8092 50.274 13.658 50.2236 13.532 50.1732L13.784 49.4676C13.9352 49.518 14.0864 49.5684 14.2376 49.6188L13.9352 50.3244Z" fill="#8B75D9"/>
<path d="M15.0194 50.9047C14.9186 50.8291 14.7674 50.7535 14.6414 50.6779L15.0446 50.0227C15.1706 50.0983 15.3217 50.1739 15.4477 50.2747L15.0194 50.9047Z" fill="#8B75D9"/>
<path d="M15.9772 51.6861L15.6497 51.4089L16.1537 50.8293L16.5317 51.1569L15.9772 51.6861Z" fill="#8B75D9"/>
<path d="M4.18347 49.0389L0.000244141 44.8557L0.277469 44.5785L4.46066 48.7869L4.18347 49.0389Z" fill="#8B75D9"/>
<path d="M22.83 67.6622L18.6467 63.479L18.8987 63.227L23.082 67.4102L22.83 67.6622Z" fill="#8B75D9"/>
<path d="M18.8987 49.0389L18.6467 48.7869L22.83 44.5785L23.082 44.8557L18.8987 49.0389Z" fill="#8B75D9"/>
<path d="M0.277469 67.6622L0.000244141 67.4102L4.18347 63.227L4.46066 63.479L0.277469 67.6622Z" fill="#8B75D9"/>
<path d="M4.18347 49.0389L0.000244141 44.8557L0.277469 44.5785L4.46066 48.7869L4.18347 49.0389Z" fill="#8B75D9"/>
<path d="M22.83 67.6622L18.6467 63.479L18.8987 63.227L23.082 67.4102L22.83 67.6622Z" fill="#8B75D9"/>
<path d="M18.8987 49.0389L18.6467 48.7869L22.83 44.5785L23.082 44.8557L18.8987 49.0389Z" fill="#8B75D9"/>
<path d="M0.277469 67.6622L0.000244141 67.4102L4.18347 63.227L4.46066 63.479L0.277469 67.6622Z" fill="#8B75D9"/>
<path d="M13.6835 54.0035C14.8679 55.1627 14.8679 57.0779 13.6835 58.2623C12.4991 59.4467 10.5839 59.4467 9.42468 58.2623C8.24028 57.0779 8.24028 55.1627 9.42468 54.0035C10.5839 52.8191 12.4991 52.8191 13.6835 54.0035Z" fill="#8B75D9"/>
<path opacity="0.4" d="M68.1681 9.00338H65.7993L68.1681 5.60138H70.5369L68.1681 9.00338Z" fill="#CDB6FA"/>
<path opacity="0.4" d="M72.9321 9.00338H70.5381L72.9321 5.60138H75.3009L72.9321 9.00338Z" fill="#CDB6FA"/>
<path opacity="0.4" d="M77.6919 9.00338H75.2979L77.6919 5.60138H80.0606L77.6919 9.00338Z" fill="#CDB6FA"/>
<path opacity="0.4" d="M82.4305 9.00338H80.0618L82.4305 5.60138H84.8245L82.4305 9.00338Z" fill="#CDB6FA"/>
<path opacity="0.4" d="M87.1953 9.00338H84.8264L87.1953 5.60138H89.5893L87.1953 9.00338Z" fill="#CDB6FA"/>
<path opacity="0.4" d="M91.9552 9.00338H89.5864L91.9552 5.60138H94.3492L91.9552 9.00338Z" fill="#CDB6FA"/>
<path opacity="0.4" d="M96.7199 9.00338H94.3511L96.7199 5.60138H99.0887L96.7199 9.00338Z" fill="#CDB6FA"/>
<path opacity="0.4" d="M101.483 9.00338H99.0889L101.483 5.60138H103.852L101.483 9.00338Z" fill="#CDB6FA"/>
<path opacity="0.4" d="M106.245 9.00338H103.851L106.245 5.60138H108.614L106.245 9.00338Z" fill="#CDB6FA"/>
<path opacity="0.4" d="M111.008 9.00338H108.614L111.008 5.60138H113.376L111.008 9.00338Z" fill="#CDB6FA"/>
<path opacity="0.4" d="M115.746 9.00338H113.377L115.746 5.60138H118.14L115.746 9.00338Z" fill="#CDB6FA"/>
<path opacity="0.4" d="M120.507 9.00338H118.138L120.507 5.60138H122.901L120.507 9.00338Z" fill="#CDB6FA"/>
<defs>
<clipPath id="clip0_249_22697">
<rect x="67" y="15" width="91.1687" height="63.2521" rx="5.2" fill="white"/>
</clipPath>
</defs>
</svg>
