<svg width="478" height="242" viewBox="0 0 478 242" fill="none" xmlns="http://www.w3.org/2000/svg">
<path d="M261.059 237H297.232L343.941 201.064H426.004V199.177H342.888L296.179 235.023H263.517V0H0.00390625V1.97645H261.059V237Z" fill="#8B75D9"/>
<path d="M418.084 188.009L418.984 186.749L416.824 185.039L415.834 186.479L418.084 188.009Z" fill="#8B75D9"/>
<path d="M416.018 191.879L416.648 190.44L414.218 189.27L413.498 190.8L416.018 191.879Z" fill="#8B75D9"/>
<path d="M414.757 196.109L415.117 194.579L412.507 193.859L412.057 195.569L414.757 196.109Z" fill="#8B75D9"/>
<path d="M414.308 200.43L414.398 198.9L411.608 198.72V200.43H414.308Z" fill="#8B75D9"/>
<path d="M414.758 204.84C414.638 204.3 414.548 203.79 414.488 203.31L411.788 203.58C411.848 204.18 411.938 204.78 412.058 205.38L414.758 204.84Z" fill="#8B75D9"/>
<path d="M416.016 208.979C415.836 208.529 415.656 207.989 415.476 207.539L412.866 208.439C413.046 208.979 413.226 209.519 413.496 210.059L416.016 208.979Z" fill="#8B75D9"/>
<path d="M418.094 212.85C417.824 212.49 417.554 211.95 417.284 211.5L414.944 212.94C415.214 213.39 415.484 213.93 415.844 214.38L418.094 212.85Z" fill="#8B75D9"/>
<path d="M420.875 216.27L419.795 215.1L417.725 216.9L418.895 218.25L420.875 216.27Z" fill="#8B75D9"/>
<path d="M424.297 219.059L423.037 218.159L421.327 220.319L422.767 221.309L424.297 219.059Z" fill="#8B75D9"/>
<path d="M428.172 221.13L426.732 220.5L425.472 222.93L427.092 223.65L428.172 221.13Z" fill="#8B75D9"/>
<path d="M432.312 222.389L430.783 222.029L430.062 224.639L431.773 225.089L432.312 222.389Z" fill="#8B75D9"/>
<path d="M436.719 222.84L435.099 222.75L434.919 225.54L436.719 225.63V222.84Z" fill="#8B75D9"/>
<path d="M441.038 222.39C440.558 222.51 440.048 222.6 439.508 222.66L439.868 225.36C440.468 225.3 441.038 225.21 441.578 225.09L441.038 222.39Z" fill="#8B75D9"/>
<path d="M445.264 221.129C444.814 221.309 444.274 221.489 443.824 221.669L444.634 224.279C445.174 224.099 445.804 223.919 446.344 223.649L445.264 221.129Z" fill="#8B75D9"/>
<path d="M449.142 219.06C448.692 219.33 448.242 219.6 447.792 219.87L449.142 222.3C449.682 221.94 450.222 221.67 450.672 221.31L449.142 219.06Z" fill="#8B75D9"/>
<path d="M452.563 216.27L451.393 217.35L453.193 219.42L454.453 218.25L452.563 216.27Z" fill="#8B75D9"/>
<path d="M455.344 212.85L454.354 214.11L456.514 215.82L457.594 214.38L455.344 212.85Z" fill="#8B75D9"/>
<path d="M457.417 208.979L456.697 210.42L459.217 211.679L459.938 210.06L457.417 208.979Z" fill="#8B75D9"/>
<path d="M458.675 204.84L458.315 206.37L460.925 207.09L461.375 205.38L458.675 204.84Z" fill="#8B75D9"/>
<path d="M459.128 200.43L459.038 202.05L461.738 202.23L461.828 200.43H459.128Z" fill="#8B75D9"/>
<path d="M458.679 196.109C458.739 196.589 458.798 197.099 458.858 197.639L461.648 197.279C461.528 196.679 461.439 196.109 461.379 195.569L458.679 196.109Z" fill="#8B75D9"/>
<path d="M457.42 191.88C457.6 192.33 457.78 192.87 457.96 193.32L460.57 192.51C460.3 191.97 460.12 191.34 459.94 190.8L457.42 191.88Z" fill="#8B75D9"/>
<path d="M455.35 188.01C455.62 188.46 455.89 188.91 456.16 189.36L458.5 188.01C458.23 187.47 457.96 186.929 457.6 186.479L455.35 188.01Z" fill="#8B75D9"/>
<path d="M452.557 184.589L453.637 185.759L455.617 183.959L454.447 182.699L452.557 184.589Z" fill="#8B75D9"/>
<path d="M449.139 181.8L450.399 182.79L452.109 180.63L450.669 179.55L449.139 181.8Z" fill="#8B75D9"/>
<path d="M445.269 179.729L446.709 180.449L447.969 177.929L446.349 177.209L445.269 179.729Z" fill="#8B75D9"/>
<path d="M441.039 178.47L442.569 178.829L443.289 176.22L441.579 175.77L441.039 178.47Z" fill="#8B75D9"/>
<path d="M436.72 178.019L438.25 178.109L438.43 175.409L436.72 175.319V178.019Z" fill="#8B75D9"/>
<path d="M432.31 178.47C432.85 178.41 433.39 178.35 433.93 178.29L433.57 175.5C432.97 175.62 432.37 175.71 431.77 175.77L432.31 178.47Z" fill="#8B75D9"/>
<path d="M428.169 179.73C428.619 179.55 429.159 179.37 429.609 179.19L428.709 176.67C428.169 176.85 427.629 177.03 427.089 177.21L428.169 179.73Z" fill="#8B75D9"/>
<path d="M424.298 181.799C424.658 181.529 425.198 181.259 425.648 180.989L424.208 178.649C423.758 178.919 423.218 179.189 422.768 179.549L424.298 181.799Z" fill="#8B75D9"/>
<path d="M420.877 184.589L422.047 183.599L420.247 181.529L418.897 182.699L420.877 184.589Z" fill="#8B75D9"/>
<path d="M462.997 175.139L477.938 160.199L476.947 159.209L462.007 174.239L462.997 175.139Z" fill="#8B75D9"/>
<path d="M396.404 241.65L411.344 226.71L410.444 225.81L395.504 240.75L396.404 241.65Z" fill="#8B75D9"/>
<path d="M410.444 175.139L411.344 174.239L396.404 159.209L395.504 160.199L410.444 175.139Z" fill="#8B75D9"/>
<path d="M476.947 241.65L477.938 240.75L462.997 225.81L462.007 226.71L476.947 241.65Z" fill="#8B75D9"/>
<path d="M462.997 175.139L477.938 160.199L476.947 159.209L462.007 174.239L462.997 175.139Z" fill="#8B75D9"/>
<path d="M396.404 241.65L411.344 226.71L410.444 225.81L395.504 240.75L396.404 241.65Z" fill="#8B75D9"/>
<path d="M410.444 175.139L411.344 174.239L396.404 159.209L395.504 160.199L410.444 175.139Z" fill="#8B75D9"/>
<path d="M476.947 241.65L477.938 240.75L462.997 225.81L462.007 226.71L476.947 241.65Z" fill="#8B75D9"/>
<path d="M429.071 192.87C424.841 197.01 424.841 203.85 429.071 208.08C433.301 212.31 440.141 212.31 444.281 208.08C448.511 203.85 448.511 197.01 444.281 192.87C440.141 188.64 433.301 188.64 429.071 192.87Z" fill="#8B75D9"/>
<path opacity="0.4" d="M234.477 32.15H242.938L234.477 20H226.018L234.477 32.15Z" fill="#CDB6FA"/>
<path opacity="0.4" d="M217.466 32.15H226.016L217.466 20H209.005L217.466 32.15Z" fill="#CDB6FA"/>
<path opacity="0.4" d="M200.466 32.15H209.016L200.466 20H192.006L200.466 32.15Z" fill="#CDB6FA"/>
<path opacity="0.4" d="M183.54 32.15H192L183.54 20H174.99L183.54 32.15Z" fill="#CDB6FA"/>
<path opacity="0.4" d="M166.524 32.15H174.984L166.524 20H157.974L166.524 32.15Z" fill="#CDB6FA"/>
<path opacity="0.4" d="M149.524 32.15H157.984L149.524 20H140.974L149.524 32.15Z" fill="#CDB6FA"/>
<path opacity="0.4" d="M132.509 32.15H140.969L132.509 20H124.049L132.509 32.15Z" fill="#CDB6FA"/>
<path opacity="0.4" d="M115.497 32.15H124.047L115.497 20H107.037L115.497 32.15Z" fill="#CDB6FA"/>
<path opacity="0.4" d="M98.4891 32.15H107.039L98.4891 20H90.0289L98.4891 32.15Z" fill="#CDB6FA"/>
<path opacity="0.4" d="M81.4812 32.15H90.0312L81.4812 20H73.0213L81.4812 32.15Z" fill="#CDB6FA"/>
<path opacity="0.4" d="M64.5555 32.15H73.0156L64.5555 20H56.0055L64.5555 32.15Z" fill="#CDB6FA"/>
<path opacity="0.4" d="M47.5557 32.15H56.0156L47.5557 20H39.0057L47.5557 32.15Z" fill="#CDB6FA"/>
</svg>
