<svg width="390" height="21" viewBox="0 0 390 21" fill="none" xmlns="http://www.w3.org/2000/svg">
<path d="M390 19.7826L379.951 11.8696C379.693 11.8696 379.564 11.8696 379.564 11.8696H358.305L353.667 15.5217C353.667 15.5217 353.538 15.5217 353.28 15.5217H340.139C340.139 15.5217 340.01 15.5217 339.752 15.5217L335.114 11.8696H326.611L316.561 3.95653C316.561 3.95653 316.432 3.95653 316.174 3.95653H243.895C243.637 3.95653 243.509 3.95653 243.509 3.95653L233.845 11.8696H211.041L200.991 3.95653H194.807L204.856 11.8696H195.966L186.303 3.95653H179.732L189.782 11.8696H181.278L171.229 3.95653H165.044L174.708 11.8696H166.591V11.2609C166.591 11.058 166.591 10.9565 166.591 10.9565L157.701 3.95653C157.701 3.95653 157.572 3.95653 157.314 3.95653H132.963L127.939 0.304366C127.939 0.101468 127.81 0 127.552 0H88.1268C87.8692 0 87.7402 0.101468 87.7402 0.304366L82.7155 3.95653H64.1625L58.7511 8.21742C58.4934 8.42032 58.3646 8.52174 58.3646 8.52174H10.8226L0 16.7391H45.6095C45.6095 16.7391 45.7382 16.7391 45.9959 16.7391L50.2478 13.3913C50.5055 13.1884 50.6342 12.9855 50.6342 12.7826H100.496L110.159 20.6956C110.416 20.6956 110.674 20.6956 110.931 20.6956H237.324C237.582 20.8985 237.711 21 237.711 21V20.6956H238.484V21L238.87 20.6956H280.614L286.412 16.1304H317.72L312.696 11.8696C312.438 11.8696 312.309 11.8696 312.309 11.8696H248.147C247.889 11.8696 247.76 11.8696 247.76 11.8696L237.711 19.7826H110.931L102.042 12.7826H158.087H233.845C234.103 12.7826 234.232 12.7826 234.232 12.7826L244.281 4.86958H316.174L325.838 12.7826L335.887 20.3913C335.887 20.5942 336.016 20.6956 336.274 20.6956H389.614C389.871 20.6956 390 20.5942 390 20.3913C390 20.1884 390 19.9855 390 19.7826Z" fill="#8B75D9"/>
</svg>
