<svg width="228" height="159" viewBox="0 0 228 159" fill="none" xmlns="http://www.w3.org/2000/svg">
<g clip-path="url(#clip0_249_22327)">
<rect width="227.922" height="158.13" rx="13" fill="black" fill-opacity="0.01"/>
<path d="M176.758 148.14H182.563L188.773 138.42H182.968L176.758 148.14Z" fill="#8B75D9"/>
<path d="M186.387 148.14H192.192L198.402 138.42H192.597L186.387 148.14Z" fill="#8B75D9"/>
<path d="M196.02 148.14H201.824L208.035 138.42H202.229L196.02 148.14Z" fill="#8B75D9"/>
<path d="M217.663 138.42H211.813L205.648 148.14H211.453L217.663 138.42Z" fill="#8B75D9"/>
<path d="M215.277 148.14H221.082L227.292 138.42H221.442L215.277 148.14Z" fill="#8B75D9"/>
<path fill-rule="evenodd" clip-rule="evenodd" d="M0 134.19V18.9H124.65L137.07 0H216.225L222.03 6.34499L227.835 12.69V35.64L219.195 39.78V61.425L227.835 65.88V136.035H180.63L172.665 148.05H87.93L80.28 157.995H48.78L39.555 148.05H13.815L6.84001 141.03L0 134.19ZM45.225 143.955L51.3 150.975H77.715L82.575 143.955H45.225Z" fill="#8B75D9"/>
<path d="M33.75 150.39L40.77 158.13H45.675L38.655 150.39H33.75Z" fill="#8B75D9"/>
<path d="M24.8398 150.39L31.8598 158.13H36.7648L29.7448 150.39H24.8398Z" fill="#8B75D9"/>
<path d="M15.9297 150.39L22.9497 158.13H27.8547L20.8347 150.39H15.9297Z" fill="#8B75D9"/>
<path d="M83.832 158.13H214.152L219.957 150.39H89.682L83.832 158.13Z" fill="#8B75D9"/>
<path d="M221.262 60.1649L227.922 63.4049V37.71L221.262 40.86V60.1649Z" fill="#8B75D9"/>
<path d="M8.27734 29.2502V24.9302H8.90735V28.6202H9.89736V29.2502H8.27734Z" fill="black"/>
<path fill-rule="evenodd" clip-rule="evenodd" d="M12.0148 28.5299C12.0148 29.0399 11.7148 29.2949 11.1148 29.2949C10.5148 29.2949 10.2148 29.0399 10.2148 28.5299V26.1898C10.2148 25.6498 10.5148 25.3799 11.1148 25.3799C11.7148 25.3799 12.0148 25.6498 12.0148 26.1898V28.5299ZM11.3848 26.1898C11.3848 26.0098 11.2948 25.9199 11.1148 25.9199C10.9348 25.9199 10.8448 26.0098 10.8448 26.1898V28.5299C10.8448 28.7099 10.9348 28.7999 11.1148 28.7999C11.2948 28.7999 11.3848 28.7099 11.3848 28.5299V26.1898Z" fill="black"/>
<path fill-rule="evenodd" clip-rule="evenodd" d="M12.5547 25.4248H13.4547C13.9947 25.4248 14.2647 25.6948 14.2647 26.2348V26.8198C14.2647 27.1498 14.0997 27.3748 13.7697 27.4948L14.4897 29.2498H13.8147L13.2297 27.5848H13.1847V29.2498H12.5547V25.4248ZM13.1847 25.9648V27.0448H13.3197C13.4097 27.0448 13.4697 27.0448 13.4997 27.0448C13.6197 27.0148 13.6797 26.9248 13.6797 26.7748V26.2348C13.6797 26.0548 13.5897 25.9648 13.4097 25.9648H13.1847Z" fill="black"/>
<path d="M14.7148 25.4248H16.3348V25.9648H15.3448V27.0898H16.1998V27.6298H15.3448V28.7098H16.3348V29.2498H14.7148V25.4248Z" fill="black"/>
<path d="M18.1352 28.0348L18.8551 25.4248H19.4852V29.2498H18.9002V27.0898L18.3602 29.2498H17.9551L17.4152 27.0898V29.2498H16.7852V25.4248H17.4152L18.1352 28.0348Z" fill="black"/>
<path d="M21.1914 25.4248H21.8214V29.2498H21.1914V25.4248Z" fill="black"/>
<path fill-rule="evenodd" clip-rule="evenodd" d="M22.4102 25.4248H23.3102C23.8502 25.4248 24.1202 25.6948 24.1202 26.2348V26.8198C24.1202 27.2098 23.9252 27.4648 23.5352 27.5848C23.4452 27.6148 23.3101 27.6298 23.1301 27.6298H23.0402V29.2498H22.4102V25.4248ZM23.0402 25.9648V27.0448H23.1752C23.2652 27.0448 23.3251 27.0448 23.3551 27.0448C23.4451 27.0148 23.4902 26.9248 23.4902 26.7748V26.2348C23.4902 26.0548 23.4002 25.9648 23.2202 25.9648H23.0402Z" fill="black"/>
<path d="M24.5664 26.1898C24.5664 25.6498 24.8514 25.3799 25.4214 25.3799C26.0214 25.3799 26.3214 25.6498 26.3214 26.1898V26.6849H25.6914V26.1898C25.6914 26.0098 25.6014 25.9199 25.4214 25.9199C25.2414 25.9199 25.1514 26.0098 25.1514 26.1898V26.5499C25.1514 26.6999 25.3464 26.8949 25.7364 27.1349C26.1264 27.4049 26.3214 27.7049 26.3214 28.0349V28.5299C26.3214 29.0399 26.0214 29.2949 25.4214 29.2949C24.8514 29.2949 24.5664 29.0399 24.5664 28.5299V27.9898H25.1514V28.5299C25.1514 28.6799 25.2414 28.7549 25.4214 28.7549C25.6014 28.7549 25.6914 28.6799 25.6914 28.5299V28.0799C25.6914 27.8999 25.4964 27.6899 25.1064 27.4499C24.7464 27.1799 24.5664 26.8799 24.5664 26.5499V26.1898Z" fill="black"/>
<path d="M28.6164 28.5298C28.6164 29.0398 28.3164 29.2948 27.7164 29.2948C27.1164 29.2948 26.8164 29.0398 26.8164 28.5298V25.4248H27.4464V28.5298C27.4464 28.6798 27.5364 28.7548 27.7164 28.7548C27.8964 28.7548 27.9864 28.6798 27.9864 28.5298V25.4248H28.6164V28.5298Z" fill="black"/>
<path d="M30.5102 28.0348L31.2752 25.4248H31.8602V29.2498H31.2752V27.0898L30.7352 29.2498H30.3301L29.7902 27.0898V29.2498H29.1602V25.4248H29.7902L30.5102 28.0348Z" fill="black"/>
<path fill-rule="evenodd" clip-rule="evenodd" d="M33.5664 25.4248H34.5114C35.0814 25.4248 35.3664 25.6948 35.3664 26.2348V28.4398C35.3664 28.9798 35.0664 29.2498 34.4664 29.2498H33.5664V25.4248ZM34.1964 25.9648V28.7098H34.4664C34.6464 28.7098 34.7364 28.6198 34.7364 28.4398V26.2348C34.7364 26.0548 34.6464 25.9648 34.4664 25.9648H34.1964Z" fill="black"/>
<path fill-rule="evenodd" clip-rule="evenodd" d="M37.6164 28.5299C37.6164 29.0399 37.3164 29.2949 36.7164 29.2949C36.1164 29.2949 35.8164 29.0399 35.8164 28.5299V26.1898C35.8164 25.6498 36.1164 25.3799 36.7164 25.3799C37.3164 25.3799 37.6164 25.6498 37.6164 26.1898V28.5299ZM36.9864 26.1898C36.9864 26.0098 36.8964 25.9199 36.7164 25.9199C36.5364 25.9199 36.4464 26.0098 36.4464 26.1898V28.5299C36.4464 28.7099 36.5364 28.7999 36.7164 28.7999C36.8964 28.7999 36.9864 28.7099 36.9864 28.5299V26.1898Z" fill="black"/>
<path d="M38.1602 29.2498V25.4248H38.7902V28.7098H39.7801V29.2498H38.1602Z" fill="black"/>
<path fill-rule="evenodd" clip-rule="evenodd" d="M41.8937 28.5299C41.8937 29.0399 41.5938 29.2949 40.9937 29.2949C40.3937 29.2949 40.0938 29.0399 40.0938 28.5299V26.1898C40.0938 25.6498 40.3937 25.3799 40.9937 25.3799C41.5938 25.3799 41.8937 25.6498 41.8937 26.1898V28.5299ZM41.2638 26.1898C41.2638 26.0098 41.1737 25.9199 40.9937 25.9199C40.8137 25.9199 40.7238 26.0098 40.7238 26.1898V28.5299C40.7238 28.7099 40.8137 28.7999 40.9937 28.7999C41.1737 28.7999 41.2638 28.7099 41.2638 28.5299V26.1898Z" fill="black"/>
<path fill-rule="evenodd" clip-rule="evenodd" d="M42.3867 25.4248H43.2867C43.8567 25.4248 44.1417 25.6948 44.1417 26.2348V26.8198C44.1417 27.1498 43.9767 27.3748 43.6467 27.4948L44.3217 29.2498H43.6467L43.1067 27.5848H43.0167V29.2498H42.3867V25.4248ZM43.0167 25.9648V27.0448H43.1517C43.2417 27.0448 43.3017 27.0448 43.3317 27.0448C43.4517 27.0148 43.5117 26.9248 43.5117 26.7748V26.2348C43.5117 26.0548 43.4217 25.9648 43.2417 25.9648H43.0167Z" fill="black"/>
<path d="M45.7188 26.1898C45.7188 25.6498 46.0038 25.3799 46.5738 25.3799C47.1738 25.3799 47.4738 25.6498 47.4738 26.1898V26.6849H46.8438V26.1898C46.8438 26.0098 46.7538 25.9199 46.5738 25.9199C46.3938 25.9199 46.3037 26.0098 46.3037 26.1898V26.5499C46.3037 26.6999 46.4988 26.8949 46.8888 27.1349C47.2788 27.4049 47.4738 27.7049 47.4738 28.0349V28.5299C47.4738 29.0399 47.1738 29.2949 46.5738 29.2949C46.0038 29.2949 45.7188 29.0399 45.7188 28.5299V27.9898H46.3037V28.5299C46.3037 28.6799 46.3938 28.7549 46.5738 28.7549C46.7538 28.7549 46.8438 28.6799 46.8438 28.5299V28.0799C46.8438 27.8999 46.6637 27.6899 46.3037 27.4499C45.9137 27.1799 45.7188 26.8799 45.7188 26.5499V26.1898Z" fill="black"/>
<path d="M48.0117 25.4248H48.6417V29.2498H48.0117V25.4248Z" fill="black"/>
<path d="M50.8508 25.4248V25.9648H50.2658V29.2498H49.6358V25.9648H49.0508V25.4248H50.8508Z" fill="black"/>
<path fill-rule="evenodd" clip-rule="evenodd" d="M54.0874 27.8998L54.2673 29.2498H53.6374L53.5474 28.4398H52.9173L52.7824 29.2498H52.1523L52.3324 27.8998L52.7824 25.4248H53.6374L54.0874 27.8998ZM53.4574 27.8998L53.2324 26.3248L53.0074 27.8998H53.4574Z" fill="black"/>
<path d="M56.0258 28.0348L56.7458 25.4248H57.3758V29.2498H56.7458V27.0898L56.2508 29.2498H55.8008L55.2608 27.0898V29.2498H54.6758V25.4248H55.3058L56.0258 28.0348Z" fill="black"/>
<path d="M57.9141 25.4248H59.5341V25.9648H58.544V27.0898H59.3991V27.6298H58.544V28.7098H59.5341V29.2498H57.9141V25.4248Z" fill="black"/>
<path d="M61.6026 25.4248V25.9648H61.0176V29.2498H60.3877V25.9648H59.8477V25.4248H61.6026Z" fill="black"/>
<path d="M62.0078 28.5303H62.7728V29.1603L62.5028 29.9703H62.0978L62.2328 29.2503H62.0078V28.5303Z" fill="black"/>
<path d="M66.1495 28.5299C66.1495 29.0399 65.8645 29.2949 65.2945 29.2949C64.6945 29.2949 64.3945 29.0399 64.3945 28.5299V26.1898C64.3945 25.6498 64.6945 25.3799 65.2945 25.3799C65.8645 25.3799 66.1495 25.6498 66.1495 26.1898V26.6849H65.5645V26.1898C65.5645 26.0098 65.4745 25.9199 65.2945 25.9199H65.2495C65.0995 25.9199 65.0245 26.0098 65.0245 26.1898V28.5299C65.0245 28.6799 65.1145 28.7549 65.2945 28.7549C65.4745 28.7549 65.5645 28.6799 65.5645 28.5299V27.9898H66.1495V28.5299Z" fill="black"/>
<path fill-rule="evenodd" clip-rule="evenodd" d="M68.3995 28.5299C68.3995 29.0399 68.0995 29.2949 67.4995 29.2949C66.9295 29.2949 66.6445 29.0399 66.6445 28.5299V26.1898C66.6445 25.6498 66.9295 25.3799 67.4995 25.3799C68.0995 25.3799 68.3995 25.6498 68.3995 26.1898V28.5299ZM67.8145 26.1898C67.8145 26.0098 67.7245 25.9199 67.5445 25.9199H67.4995C67.3195 25.9199 67.2295 26.0098 67.2295 26.1898V28.5299C67.2295 28.7099 67.3195 28.7999 67.4995 28.7999C67.7095 28.7999 67.8145 28.7099 67.8145 28.5299V26.1898Z" fill="black"/>
<path d="M68.9375 25.4248H69.5675L70.1525 27.6298V25.4248H70.7375V29.2498H70.1075L69.5225 27.0898V29.2498H68.9375V25.4248Z" fill="black"/>
<path d="M71.2344 26.1898C71.2344 25.6498 71.5344 25.3799 72.1344 25.3799C72.7344 25.3799 73.0344 25.6498 73.0344 26.1898V26.6849H72.4044V26.1898C72.4044 26.0098 72.3144 25.9199 72.1344 25.9199C71.9544 25.9199 71.8644 26.0098 71.8644 26.1898V26.5499C71.8644 26.6999 72.0594 26.8949 72.4494 27.1349C72.8394 27.4049 73.0344 27.7049 73.0344 28.0349V28.5299C73.0344 29.0399 72.7344 29.2949 72.1344 29.2949C71.5344 29.2949 71.2344 29.0399 71.2344 28.5299V27.9898H71.8644V28.5299C71.8644 28.6799 71.9544 28.7549 72.1344 28.7549C72.3144 28.7549 72.4044 28.6799 72.4044 28.5299V28.0799C72.4044 27.8999 72.2094 27.6899 71.8194 27.4499C71.4294 27.1799 71.2344 26.8799 71.2344 26.5499V26.1898Z" fill="black"/>
<path d="M73.5742 25.4248H75.1942V25.9648H74.2042V27.0898H75.0592V27.6298H74.2042V28.7098H75.1942V29.2498H73.5742V25.4248Z" fill="black"/>
<path d="M77.3977 28.5299C77.3977 29.0399 77.0977 29.2949 76.4977 29.2949C75.8977 29.2949 75.5977 29.0399 75.5977 28.5299V26.1898C75.5977 25.6498 75.8977 25.3799 76.4977 25.3799C77.0977 25.3799 77.3977 25.6498 77.3977 26.1898V26.6849H76.7676V26.1898C76.7676 26.0098 76.6777 25.9199 76.4977 25.9199C76.3177 25.9199 76.2276 26.0098 76.2276 26.1898V28.5299C76.2276 28.6799 76.3177 28.7549 76.4977 28.7549C76.6777 28.7549 76.7676 28.6799 76.7676 28.5299V27.9898H77.3977V28.5299Z" fill="black"/>
<path d="M79.5148 25.4248V25.9648H78.9298V29.2498H78.2998V25.9648H77.7148V25.4248H79.5148Z" fill="black"/>
<path d="M79.918 25.4248H81.493V25.9648H80.503V27.0898H81.358V27.6298H80.503V28.7098H81.493V29.2498H79.918V25.4248Z" fill="black"/>
<path d="M83.5636 25.4248V25.9648H82.9786V29.2498H82.3936V25.9648H81.8086V25.4248H83.5636Z" fill="black"/>
<path d="M85.7238 28.5298C85.7238 29.0398 85.4387 29.2948 84.8687 29.2948C84.2687 29.2948 83.9688 29.0398 83.9688 28.5298V25.4248H84.5988V28.5298C84.5988 28.6798 84.6887 28.7548 84.8687 28.7548C85.0487 28.7548 85.1388 28.6798 85.1388 28.5298V25.4248H85.7238V28.5298Z" fill="black"/>
<path d="M86.3086 25.4248H87.8836V25.9648H86.8936V27.0898H87.7486V27.6298H86.8936V28.7098H87.8836V29.2498H86.3086V25.4248Z" fill="black"/>
<path fill-rule="evenodd" clip-rule="evenodd" d="M88.3789 25.4248H89.2789C89.8189 25.4248 90.0889 25.6948 90.0889 26.2348V26.8198C90.0889 27.1498 89.9239 27.3748 89.5939 27.4948L90.3139 29.2498H89.6389L89.0539 27.5848H89.0089V29.2498H88.3789V25.4248ZM89.0089 25.9648V27.0448H89.1439C89.2339 27.0448 89.2939 27.0448 89.3239 27.0448C89.4139 27.0148 89.4589 26.9248 89.4589 26.7748V26.2348C89.4589 26.0548 89.3689 25.9648 89.1889 25.9648H89.0089Z" fill="black"/>
<path fill-rule="evenodd" clip-rule="evenodd" d="M93.4624 27.8998L93.6423 29.2498H93.0124L92.8773 28.4398H92.2474L92.1574 29.2498H91.5273L91.7074 27.8998L92.1574 25.4248H93.0124L93.4624 27.8998ZM92.8324 27.8998L92.6074 26.3248L92.3374 27.8998H92.8324Z" fill="black"/>
<path fill-rule="evenodd" clip-rule="evenodd" d="M94.0039 25.4248H94.9939C95.5339 25.4248 95.8039 25.6948 95.8039 26.2348V28.4398C95.8039 28.9798 95.5189 29.2498 94.9489 29.2498H94.0039V25.4248ZM94.6339 25.9648V28.7098H94.9039C95.0839 28.7098 95.1739 28.6198 95.1739 28.4398V26.2348C95.1739 26.0548 95.0839 25.9648 94.9039 25.9648H94.6339Z" fill="black"/>
<path d="M96.3438 25.4248H96.9738V29.2498H96.3438V25.4248Z" fill="black"/>
<path fill-rule="evenodd" clip-rule="evenodd" d="M97.5586 25.4248H98.4586C98.9986 25.4248 99.2686 25.6948 99.2686 26.2348V26.8198C99.2686 27.2098 99.0736 27.4648 98.6836 27.5848C98.5936 27.6148 98.4586 27.6298 98.2786 27.6298H98.1886V29.2498H97.5586V25.4248ZM98.1886 25.9648V27.0448H98.3236C98.4136 27.0448 98.4736 27.0448 98.5036 27.0448C98.5936 27.0148 98.6386 26.9248 98.6386 26.7748V26.2348C98.6386 26.0548 98.5486 25.9648 98.3686 25.9648H98.1886Z" fill="black"/>
<path d="M99.7617 25.4248H100.392V29.2498H99.7617V25.4248Z" fill="black"/>
<path d="M100.934 26.1898C100.934 25.6498 101.219 25.3799 101.789 25.3799C102.389 25.3799 102.689 25.6498 102.689 26.1898V26.6849H102.059V26.1898C102.059 26.0098 101.969 25.9199 101.789 25.9199C101.609 25.9199 101.519 26.0098 101.519 26.1898V26.5499C101.519 26.6999 101.714 26.8949 102.104 27.1349C102.494 27.4049 102.689 27.7049 102.689 28.0349V28.5299C102.689 29.0399 102.389 29.2949 101.789 29.2949C101.219 29.2949 100.934 29.0399 100.934 28.5299V27.9898H101.519V28.5299C101.519 28.6799 101.609 28.7549 101.789 28.7549C101.969 28.7549 102.059 28.6799 102.059 28.5299V28.0799C102.059 27.8999 101.864 27.6899 101.474 27.4499C101.114 27.1799 100.934 26.8799 100.934 26.5499V26.1898Z" fill="black"/>
<path d="M104.984 28.5299C104.984 29.0399 104.684 29.2949 104.084 29.2949C103.484 29.2949 103.184 29.0399 103.184 28.5299V26.1898C103.184 25.6498 103.484 25.3799 104.084 25.3799C104.684 25.3799 104.984 25.6498 104.984 26.1898V26.6849H104.354V26.1898C104.354 26.0098 104.264 25.9199 104.084 25.9199C103.904 25.9199 103.814 26.0098 103.814 26.1898V28.5299C103.814 28.6799 103.904 28.7549 104.084 28.7549C104.264 28.7549 104.354 28.6799 104.354 28.5299V27.9898H104.984V28.5299Z" fill="black"/>
<path d="M105.48 25.4248H106.11V29.2498H105.48V25.4248Z" fill="black"/>
<path d="M106.691 25.4248H107.321L107.906 27.6298V25.4248H108.491V29.2498H107.861L107.276 27.0898V29.2498H106.691V25.4248Z" fill="black"/>
<path d="M110.788 28.5299C110.788 29.0399 110.488 29.2949 109.888 29.2949C109.288 29.2949 108.988 29.0399 108.988 28.5299V26.1898C108.988 25.6498 109.288 25.3799 109.888 25.3799C110.488 25.3799 110.788 25.6498 110.788 26.1898V26.6849H110.158V26.1898C110.158 26.0098 110.068 25.9199 109.888 25.9199C109.708 25.9199 109.618 26.0098 109.618 26.1898V28.5299C109.618 28.6799 109.708 28.7549 109.888 28.7549C110.068 28.7549 110.158 28.6799 110.158 28.5299V27.6299H109.843V27.0898H110.788V28.5299Z" fill="black"/>
<path d="M112.453 25.4248H114.028V25.9648H113.038V27.0898H113.893V27.6298H113.038V28.7098H114.028V29.2498H112.453V25.4248Z" fill="black"/>
<path d="M114.523 29.2498V25.4248H115.108V28.7098H116.098V29.2498H114.523Z" fill="black"/>
<path d="M116.504 25.4248H117.134V29.2498H116.504V25.4248Z" fill="black"/>
<path d="M119.339 25.4248V25.9648H118.754V29.2498H118.124V25.9648H117.539V25.4248H119.339Z" fill="black"/>
<path d="M119.699 28.5303H120.464V29.1603L120.239 29.9703H119.834L119.969 29.2503H119.699V28.5303Z" fill="black"/>
<path d="M6.02734 31.5902C6.02734 31.0502 6.32734 30.7803 6.92734 30.7803C7.52734 30.7803 7.82734 31.0502 7.82734 31.5902V32.0853H7.19736V31.5902C7.19736 31.4102 7.10734 31.3203 6.92734 31.3203C6.74734 31.3203 6.65735 31.4102 6.65735 31.5902V31.9503C6.65735 32.1003 6.85235 32.2953 7.24235 32.5353C7.63235 32.8053 7.82734 33.1053 7.82734 33.4353V33.9303C7.82734 34.4403 7.52734 34.6953 6.92734 34.6953C6.32734 34.6953 6.02734 34.4403 6.02734 33.9303V33.3902H6.65735V33.9303C6.65735 34.0803 6.74734 34.1553 6.92734 34.1553C7.10734 34.1553 7.19736 34.0803 7.19736 33.9303V33.4803C7.19736 33.3003 7.00237 33.0903 6.61237 32.8503C6.22237 32.5803 6.02734 32.2803 6.02734 31.9503V31.5902Z" fill="black"/>
<path d="M8.32422 30.8252H9.94421V31.3652H8.9542V32.4902H9.80921V33.0302H8.9542V34.1102H9.94421V34.6502H8.32422V30.8252Z" fill="black"/>
<path fill-rule="evenodd" clip-rule="evenodd" d="M10.3945 30.8252H11.3845C11.9245 30.8252 12.1945 31.0952 12.1945 31.6352V33.8402C12.1945 34.3802 11.9095 34.6502 11.3395 34.6502H10.3945V30.8252ZM11.0245 31.3652V34.1102H11.2945C11.4745 34.1102 11.5645 34.0202 11.5645 33.8402V31.6352C11.5645 31.4552 11.4745 31.3652 11.2945 31.3652H11.0245Z" fill="black"/>
<path fill-rule="evenodd" clip-rule="evenodd" d="M13.8594 30.8252H14.8044C15.3444 30.8252 15.6144 31.0952 15.6144 31.6352V33.8402C15.6144 34.3802 15.3294 34.6502 14.7594 34.6502H13.8594V30.8252ZM14.4894 31.3652V34.1102H14.7594C14.9394 34.1102 15.0294 34.0202 15.0294 33.8402V31.6352C15.0294 31.4552 14.9394 31.3652 14.7594 31.3652H14.4894Z" fill="black"/>
<path d="M16.1523 30.8252H16.7824V34.6502H16.1523V30.8252Z" fill="black"/>
<path fill-rule="evenodd" clip-rule="evenodd" d="M19.1225 33.3002L19.3025 34.6502H18.6725L18.5375 33.8402H17.9075L17.8175 34.6502H17.1875L17.3675 33.3002L17.8175 30.8252H18.6725L19.1225 33.3002ZM18.4925 33.3002L18.2675 31.7252L17.9975 33.3002H18.4925Z" fill="black"/>
<path d="M21.0591 33.4352L21.779 30.8252H22.3641V34.6502H21.779V32.4902L21.2391 34.6502H20.8341L20.294 32.4902V34.6502H19.6641V30.8252H20.294L21.0591 33.4352Z" fill="black"/>
<path d="M24.0742 30.8252H24.7042L25.2892 33.0302V30.8252H25.8742V34.6502H25.2442L24.6592 32.4902V34.6502H24.0742V30.8252Z" fill="black"/>
<path fill-rule="evenodd" clip-rule="evenodd" d="M28.1672 33.9303C28.1672 34.4403 27.8672 34.6953 27.2672 34.6953C26.6672 34.6953 26.3672 34.4403 26.3672 33.9303V31.5902C26.3672 31.0502 26.6672 30.7803 27.2672 30.7803C27.8672 30.7803 28.1672 31.0502 28.1672 31.5902V33.9303ZM27.5372 31.5902C27.5372 31.4102 27.4472 31.3203 27.2672 31.3203C27.0872 31.3203 26.9972 31.4102 26.9972 31.5902V33.9303C26.9972 34.1103 27.0872 34.2003 27.2672 34.2003C27.4472 34.2003 27.5372 34.1103 27.5372 33.9303V31.5902Z" fill="black"/>
<path d="M28.707 30.8252H29.337L29.922 33.0302V30.8252H30.462V34.6502H29.877L29.292 32.4902V34.6502H28.707V30.8252Z" fill="black"/>
<path d="M32.8058 33.9302C32.8058 34.4402 32.5058 34.6952 31.9058 34.6952C31.3358 34.6952 31.0508 34.4402 31.0508 33.9302V30.8252H31.6358V33.9302C31.6358 34.0802 31.7258 34.1552 31.9058 34.1552C32.1158 34.1552 32.2208 34.0802 32.2208 33.9302V30.8252H32.8058V33.9302Z" fill="black"/>
<path d="M34.7367 33.4352L35.4567 30.8252H36.0867V34.6502H35.4567V32.4902L34.9167 34.6502H34.5117L33.9717 32.4902V34.6502H33.3867V30.8252H33.9717L34.7367 33.4352Z" fill="black"/>
<path d="M37.9789 33.4352L38.6989 30.8252H39.3289V34.6502H38.7439V32.4902L38.2039 34.6502H37.7989L37.2589 32.4902V34.6502H36.6289V30.8252H37.2589L37.9789 33.4352Z" fill="black"/>
<path d="M40.3625 30.8252L40.8125 32.3102L41.2175 30.8252H41.8925L41.1275 32.9852L41.0825 33.0302V34.6502H40.4975V33.0302L40.4525 32.9852L39.6875 30.8252H40.3625Z" fill="black"/>
<path d="M43.3789 30.8252H44.0089L44.5939 33.0302V30.8252H45.1339V34.6502H44.5489L43.9639 32.4902V34.6502H43.3789V30.8252Z" fill="black"/>
<path d="M45.7188 30.8252H46.3488V34.6502H45.7188V30.8252Z" fill="black"/>
<path fill-rule="evenodd" clip-rule="evenodd" d="M46.9336 30.8252H47.8786C48.4486 30.8252 48.7336 31.0952 48.7336 31.6352V32.2202C48.7336 32.4602 48.6136 32.6402 48.3736 32.7602C48.6136 32.8502 48.7336 33.0152 48.7336 33.2552V33.8402C48.7336 34.3802 48.4486 34.6502 47.8786 34.6502H46.9336V30.8252ZM47.5636 31.3652V32.4452H47.7436C47.8336 32.4452 47.8936 32.4452 47.9236 32.4452C48.0436 32.4152 48.1036 32.3252 48.1036 32.1752V31.6352C48.1036 31.4552 48.0136 31.3652 47.8336 31.3652H47.5636ZM47.5636 32.9852V34.1102H47.8336C48.0136 34.1102 48.1036 34.0202 48.1036 33.8402V33.2552C48.1036 33.1352 48.0436 33.0602 47.9236 33.0302C47.8936 33.0002 47.8336 32.9852 47.7436 32.9852H47.5636Z" fill="black"/>
<path d="M49.2305 30.8252H49.8605V32.4902H50.4005V30.8252H51.0305V34.6502H50.4005V33.0302H49.8605V34.6502H49.2305V30.8252Z" fill="black"/>
<path d="M52.6914 30.8252H54.3114V31.3652H53.3214V32.4902H54.1764V33.0302H53.3214V34.1102H54.3114V34.6502H52.6914V30.8252Z" fill="black"/>
<path d="M56.5617 33.9302C56.5617 34.4402 56.2617 34.6952 55.6617 34.6952C55.0617 34.6952 54.7617 34.4402 54.7617 33.9302V30.8252H55.3917V33.9302C55.3917 34.0802 55.4817 34.1552 55.6617 34.1552C55.8417 34.1552 55.9317 34.0802 55.9317 33.9302V30.8252H56.5617V33.9302Z" fill="black"/>
<path d="M57.1055 30.8252H57.7355V34.6502H57.1055V30.8252Z" fill="black"/>
<path d="M58.2734 31.5902C58.2734 31.0502 58.5734 30.7803 59.1734 30.7803C59.7434 30.7803 60.0284 31.0502 60.0284 31.5902V32.0853H59.4434V31.5902C59.4434 31.4102 59.3534 31.3203 59.1734 31.3203C58.9934 31.3203 58.9034 31.4102 58.9034 31.5902V31.9503C58.9034 32.1003 59.0984 32.2953 59.4884 32.5353C59.8484 32.8053 60.0284 33.1053 60.0284 33.4353V33.9303C60.0284 34.4403 59.7434 34.6953 59.1734 34.6953C58.5734 34.6953 58.2734 34.4403 58.2734 33.9303V33.3902H58.9034V33.9303C58.9034 34.0803 58.9934 34.1553 59.1734 34.1553C59.3534 34.1553 59.4434 34.0803 59.4434 33.9303V33.4803C59.4434 33.3003 59.2484 33.0903 58.8584 32.8503C58.4684 32.5803 58.2734 32.2803 58.2734 31.9503V31.5902Z" fill="black"/>
<path d="M61.9164 33.4352L62.6364 30.8252H63.2664V34.6502H62.6814V32.4902L62.1414 34.6502H61.7364L61.1964 32.4902V34.6502H60.5664V30.8252H61.1964L61.9164 33.4352Z" fill="black"/>
<path fill-rule="evenodd" clip-rule="evenodd" d="M65.6086 33.9303C65.6086 34.4403 65.3086 34.6953 64.7086 34.6953C64.1086 34.6953 63.8086 34.4403 63.8086 33.9303V31.5902C63.8086 31.0502 64.1086 30.7803 64.7086 30.7803C65.3086 30.7803 65.6086 31.0502 65.6086 31.5902V33.9303ZM64.9786 31.5902C64.9786 31.4102 64.8886 31.3203 64.7086 31.3203C64.5286 31.3203 64.4386 31.4102 64.4386 31.5902V33.9303C64.4386 34.1103 64.5286 34.2003 64.7086 34.2003C64.8886 34.2003 64.9786 34.1103 64.9786 33.9303V31.5902Z" fill="black"/>
<path fill-rule="evenodd" clip-rule="evenodd" d="M66.1055 30.8252H67.0955C67.6355 30.8252 67.9055 31.0952 67.9055 31.6352V33.8402C67.9055 34.3802 67.6205 34.6502 67.0505 34.6502H66.1055V30.8252ZM66.7355 31.3652V34.1102H67.0055C67.1855 34.1102 67.2755 34.0202 67.2755 33.8402V31.6352C67.2755 31.4552 67.1855 31.3652 67.0055 31.3652H66.7355Z" fill="black"/>
<path d="M71.1417 30.8252V31.3652H70.5567V34.6502H69.9717V31.3652H69.3867V30.8252H71.1417Z" fill="black"/>
<path d="M71.5508 30.8252H72.1808V34.6502H71.5508V30.8252Z" fill="black"/>
<path d="M72.7617 30.8252H73.3917L73.9767 33.0302V30.8252H74.5617V34.6502H73.9317L73.3467 32.4902V34.6502H72.7617V30.8252Z" fill="black"/>
<path d="M76.8605 33.9303C76.8605 34.4403 76.5605 34.6953 75.9605 34.6953C75.3905 34.6953 75.1055 34.4403 75.1055 33.9303V31.5902C75.1055 31.0502 75.3905 30.7803 75.9605 30.7803C76.5605 30.7803 76.8605 31.0502 76.8605 31.5902V32.0853H76.2305V31.5902C76.2305 31.4102 76.1405 31.3203 75.9605 31.3203C75.7805 31.3203 75.6905 31.4102 75.6905 31.5902V33.9303C75.6905 34.0803 75.7805 34.1553 75.9605 34.1553C76.1405 34.1553 76.2305 34.0803 76.2305 33.9303V33.3902H76.8605V33.9303Z" fill="black"/>
<path d="M77.3984 30.8252H77.9834V34.6502H77.3984V30.8252Z" fill="black"/>
<path fill-rule="evenodd" clip-rule="evenodd" d="M78.5664 30.8252H79.5564C80.0964 30.8252 80.3664 31.0952 80.3664 31.6352V33.8402C80.3664 34.3802 80.0814 34.6502 79.5114 34.6502H78.5664V30.8252ZM79.1964 31.3652V34.1102H79.4664C79.6464 34.1102 79.7364 34.0202 79.7364 33.8402V31.6352C79.7364 31.4552 79.6464 31.3652 79.4664 31.3652H79.1964Z" fill="black"/>
<path d="M82.6633 33.9302C82.6633 34.4402 82.3633 34.6952 81.7633 34.6952C81.1633 34.6952 80.8633 34.4402 80.8633 33.9302V30.8252H81.4933V33.9302C81.4933 34.0802 81.5833 34.1552 81.7633 34.1552C81.9433 34.1552 82.0333 34.0802 82.0333 33.9302V30.8252H82.6633V33.9302Z" fill="black"/>
<path d="M83.2031 30.8252H83.8331L84.4181 33.0302V30.8252H85.0031V34.6502H84.3731L83.8331 32.4902V34.6502H83.2031V30.8252Z" fill="black"/>
<path d="M87.1652 30.8252V31.3652H86.6252V34.6502H85.9952V31.3652H85.4102V30.8252H87.1652Z" fill="black"/>
<path d="M90.4464 33.9302C90.4464 34.4402 90.1464 34.6952 89.5464 34.6952C88.9764 34.6952 88.6914 34.4402 88.6914 33.9302V30.8252H89.2764V33.9302C89.2764 34.0802 89.3664 34.1552 89.5464 34.1552C89.7264 34.1552 89.8164 34.0802 89.8164 33.9302V30.8252H90.4464V33.9302Z" fill="black"/>
<path d="M92.6105 30.8252V31.3652H92.0255V34.6502H91.3955V31.3652H90.8555V30.8252H92.6105Z" fill="black"/>
<path d="M94.1367 34.6502V30.8252H94.7667V34.1102H95.7567V34.6502H94.1367Z" fill="black"/>
<path fill-rule="evenodd" clip-rule="evenodd" d="M97.8725 33.3002L98.0525 34.6502H97.4225L97.2875 33.8402H96.6575L96.5675 34.6502H95.9375L96.1175 33.3002L96.5675 30.8252H97.4225L97.8725 33.3002ZM97.2425 33.3002L97.0175 31.7252L96.7475 33.3002H97.2425Z" fill="black"/>
<path fill-rule="evenodd" clip-rule="evenodd" d="M100.167 33.9303C100.167 34.4403 99.8672 34.6953 99.2672 34.6953C98.6672 34.6953 98.3672 34.4403 98.3672 33.9303V31.5902C98.3672 31.0502 98.6672 30.7803 99.2672 30.7803C99.8672 30.7803 100.167 31.0502 100.167 31.5902V33.9303ZM99.5372 31.5902C99.5372 31.4102 99.4472 31.3203 99.2672 31.3203C99.0872 31.3203 98.9972 31.4102 98.9972 31.5902V33.9303C98.9972 34.1103 99.0872 34.2003 99.2672 34.2003C99.4472 34.2003 99.5372 34.1103 99.5372 33.9303V31.5902Z" fill="black"/>
<path fill-rule="evenodd" clip-rule="evenodd" d="M100.707 30.8252H101.607C102.147 30.8252 102.417 31.0952 102.417 31.6352V32.2202C102.417 32.5502 102.252 32.7752 101.922 32.8952L102.642 34.6502H101.967L101.382 32.9852H101.337V34.6502H100.707V30.8252ZM101.337 31.3652V32.4452H101.472C101.562 32.4452 101.622 32.4452 101.652 32.4452C101.742 32.4152 101.787 32.3252 101.787 32.1752V31.6352C101.787 31.4552 101.697 31.3652 101.517 31.3652H101.337Z" fill="black"/>
<path d="M102.867 30.8252H104.487V31.3652H103.497V32.4902H104.352V33.0302H103.497V34.1102H104.487V34.6502H102.867V30.8252Z" fill="black"/>
<path d="M104.938 30.8252H106.557V31.3652H105.567V32.4902H106.422V33.0302H105.567V34.1102H106.557V34.6502H104.938V30.8252Z" fill="black"/>
<path d="M108.628 30.8252V31.3652H108.043V34.6502H107.413V31.3652H106.828V30.8252H108.628Z" fill="black"/>
<path fill-rule="evenodd" clip-rule="evenodd" d="M110.16 30.8252H111.105C111.645 30.8252 111.915 31.0952 111.915 31.6352V33.8402C111.915 34.3802 111.63 34.6502 111.06 34.6502H110.16V30.8252ZM110.745 31.3652V34.1102H111.06C111.24 34.1102 111.33 34.0202 111.33 33.8402V31.6352C111.33 31.4552 111.24 31.3652 111.06 31.3652H110.745Z" fill="black"/>
<path fill-rule="evenodd" clip-rule="evenodd" d="M114.21 33.9303C114.21 34.4403 113.91 34.6953 113.31 34.6953C112.71 34.6953 112.41 34.4403 112.41 33.9303V31.5902C112.41 31.0502 112.71 30.7803 113.31 30.7803C113.91 30.7803 114.21 31.0502 114.21 31.5902V33.9303ZM113.58 31.5902C113.58 31.4102 113.49 31.3203 113.31 31.3203C113.13 31.3203 113.04 31.4102 113.04 31.5902V33.9303C113.04 34.1103 113.13 34.2003 113.31 34.2003C113.49 34.2003 113.58 34.1103 113.58 33.9303V31.5902Z" fill="black"/>
<path d="M114.75 34.6502V30.8252H115.335V34.1102H116.325V34.6502H114.75Z" fill="black"/>
<path fill-rule="evenodd" clip-rule="evenodd" d="M118.439 33.9303C118.439 34.4403 118.154 34.6953 117.584 34.6953C116.984 34.6953 116.684 34.4403 116.684 33.9303V31.5902C116.684 31.0502 116.984 30.7803 117.584 30.7803C118.154 30.7803 118.439 31.0502 118.439 31.5902V33.9303ZM117.854 31.5902C117.854 31.4102 117.764 31.3203 117.584 31.3203H117.539C117.359 31.3203 117.269 31.4102 117.269 31.5902V33.9303C117.269 34.1103 117.374 34.2003 117.584 34.2003C117.764 34.2003 117.854 34.1103 117.854 33.9303V31.5902Z" fill="black"/>
<path fill-rule="evenodd" clip-rule="evenodd" d="M118.98 30.8252H119.88C120.45 30.8252 120.735 31.0952 120.735 31.6352V32.2202C120.735 32.5502 120.57 32.7752 120.24 32.8952L120.915 34.6502H120.24L119.7 32.9852H119.61V34.6502H118.98V30.8252ZM119.61 31.3652V32.4452H119.745C119.835 32.4452 119.895 32.4452 119.925 32.4452C120.045 32.4152 120.105 32.3252 120.105 32.1752V31.6352C120.105 31.4552 120.015 31.3652 119.835 31.3652H119.61Z" fill="black"/>
<path d="M121.137 30.8252H122.757V31.3652H121.767V32.4902H122.622V33.0302H121.767V34.1102H122.757V34.6502H121.137V30.8252Z" fill="black"/>
<path d="M7.06484 38.8351L7.78483 36.2251H8.41484V40.0501H7.82982V37.8901L7.28984 40.0501H6.88483L6.29984 37.8901V40.0501H5.71484V36.2251H6.34483L7.06484 38.8351Z" fill="black"/>
<path fill-rule="evenodd" clip-rule="evenodd" d="M10.7084 38.7001L10.9334 40.0501H10.3034L10.1684 39.2401H9.53844L9.40342 40.0501H8.77344L8.99844 38.7001L9.44844 36.2251H10.2584L10.7084 38.7001ZM10.1234 38.7001L9.85342 37.1251L9.62842 38.7001H10.1234Z" fill="black"/>
<path d="M13.05 39.3302C13.05 39.8402 12.75 40.0952 12.15 40.0952C11.55 40.0952 11.25 39.8402 11.25 39.3302V36.9901C11.25 36.4501 11.55 36.1802 12.15 36.1802C12.75 36.1802 13.05 36.4501 13.05 36.9901V37.4852H12.42V36.9901C12.42 36.8101 12.33 36.7202 12.15 36.7202C11.97 36.7202 11.88 36.8101 11.88 36.9901V39.3302C11.88 39.4802 11.97 39.5552 12.15 39.5552C12.33 39.5552 12.42 39.4802 12.42 39.3302V38.4302H12.105V37.8901H13.05V39.3302Z" fill="black"/>
<path d="M13.543 36.2251H14.173L14.758 38.4301V36.2251H15.343V40.0501H14.713L14.173 37.8901V40.0501H13.543V36.2251Z" fill="black"/>
<path fill-rule="evenodd" clip-rule="evenodd" d="M17.6381 38.7001L17.8631 40.0501H17.2331L17.0981 39.2401H16.4681L16.3331 40.0501H15.7031L15.9281 38.7001L16.3781 36.2251H17.2331L17.6381 38.7001ZM17.0081 38.7001L16.7381 37.1251L16.5131 38.7001H17.0081Z" fill="black"/>
<path fill-rule="evenodd" clip-rule="evenodd" d="M21.058 38.7001L21.283 40.0501H20.653L20.518 39.2401H19.888L19.753 40.0501H19.168L19.348 38.7001L19.798 36.2251H20.653L21.058 38.7001ZM20.428 38.7001L20.203 37.1251L19.933 38.7001H20.428Z" fill="black"/>
<path d="M21.6445 40.0501V36.2251H22.2745V39.5101H23.2645V40.0501H21.6445Z" fill="black"/>
<path d="M23.668 36.2251H24.253V40.0501H23.668V36.2251Z" fill="black"/>
<path fill-rule="evenodd" clip-rule="evenodd" d="M26.593 39.375C26.593 39.855 26.368 40.1251 25.918 40.1851C25.918 40.2751 26.143 40.32 26.593 40.32V40.77C26.233 40.77 25.978 40.74 25.828 40.68C25.648 40.59 25.558 40.4251 25.558 40.1851C25.048 40.1551 24.793 39.885 24.793 39.375V37.08C24.793 36.54 25.093 36.27 25.693 36.27C26.293 36.27 26.593 36.54 26.593 37.08V39.375ZM25.963 37.0351C25.963 36.8551 25.873 36.765 25.693 36.765C25.513 36.765 25.423 36.8551 25.423 37.0351V39.375C25.423 39.525 25.513 39.6 25.693 39.6C25.873 39.6 25.963 39.525 25.963 39.375V37.0351Z" fill="black"/>
<path d="M28.8898 39.3301C28.8898 39.8401 28.5898 40.0951 27.9898 40.0951C27.3898 40.0951 27.0898 39.8401 27.0898 39.3301V36.2251H27.7198V39.3301C27.7198 39.4801 27.8098 39.5551 27.9898 39.5551C28.1698 39.5551 28.2598 39.4801 28.2598 39.3301V36.2251H28.8898V39.3301Z" fill="black"/>
<path fill-rule="evenodd" clip-rule="evenodd" d="M31.185 38.7001L31.365 40.0501H30.735L30.645 39.2401H30.015L29.88 40.0501H29.25L29.43 38.7001L29.88 36.2251H30.735L31.185 38.7001ZM30.555 38.7001L30.33 37.1251L30.105 38.7001H30.555Z" fill="black"/>
<path d="M33.1195 38.8351L33.8395 36.2251H34.4695V40.0501H33.8395V37.8901L33.2995 40.0501H32.8945L32.3545 37.8901V40.0501H31.7695V36.2251H32.3545L33.1195 38.8351Z" fill="black"/>
<path d="M36.1328 36.2251H37.7528V36.7651H36.7628V37.8901H37.6178V38.4301H36.7628V39.5101H37.7528V40.0501H36.1328V36.2251Z" fill="black"/>
<path fill-rule="evenodd" clip-rule="evenodd" d="M38.2031 36.2251H39.1031C39.6731 36.2251 39.9581 36.4951 39.9581 37.0351V37.6201C39.9581 37.9501 39.7931 38.1751 39.4631 38.2951L40.1381 40.0501H39.4631L38.9231 38.3851H38.8331V40.0501H38.2031V36.2251ZM38.8331 36.7651V37.8451H38.9681C39.0581 37.8451 39.1181 37.8451 39.1481 37.8451C39.2681 37.8151 39.3281 37.7251 39.3281 37.5751V37.0351C39.3281 36.8551 39.2381 36.7651 39.0581 36.7651H38.8331Z" fill="black"/>
<path fill-rule="evenodd" clip-rule="evenodd" d="M42.2514 38.7001L42.4314 40.0501H41.8014L41.6664 39.2401H41.0364L40.9464 40.0501H40.3164L40.4964 38.7001L40.9464 36.2251H41.8014L42.2514 38.7001ZM41.6214 38.7001L41.3964 37.1251L41.1264 38.7001H41.6214Z" fill="black"/>
<path d="M44.3234 36.2251V36.7651H43.7384V40.0501H43.1084V36.7651H42.5234V36.2251H44.3234Z" fill="black"/>
<path d="M47.1139 40.0501H46.2589L45.8539 37.5751L45.6289 36.2251H46.2589L46.7089 39.1501L47.1589 36.2251H47.7889L47.5639 37.5751L47.1139 40.0501Z" fill="black"/>
<path fill-rule="evenodd" clip-rule="evenodd" d="M49.9055 39.3302C49.9055 39.8402 49.6055 40.0952 49.0055 40.0952C48.4055 40.0952 48.1055 39.8402 48.1055 39.3302V36.9901C48.1055 36.4501 48.4055 36.1802 49.0055 36.1802C49.6055 36.1802 49.9055 36.4501 49.9055 36.9901V39.3302ZM49.2755 36.9901C49.2755 36.8101 49.1855 36.7202 49.0055 36.7202C48.8255 36.7202 48.7355 36.8101 48.7355 36.9901V39.3302C48.7355 39.5102 48.8255 39.6002 49.0055 39.6002C49.1855 39.6002 49.2755 39.5102 49.2755 39.3302V36.9901Z" fill="black"/>
<path d="M50.3984 40.0501V36.2251H51.0284V39.5101H52.0184V40.0501H50.3984Z" fill="black"/>
<path d="M54.1789 39.3301C54.1789 39.8401 53.8789 40.0951 53.2789 40.0951C52.6789 40.0951 52.3789 39.8401 52.3789 39.3301V36.2251H53.0089V39.3301C53.0089 39.4801 53.0989 39.5551 53.2789 39.5551C53.4589 39.5551 53.5489 39.4801 53.5489 39.3301V36.2251H54.1789V39.3301Z" fill="black"/>
<path d="M56.3391 36.2251V36.7651H55.754V40.0501H55.1241V36.7651H54.5391V36.2251H56.3391Z" fill="black"/>
<path fill-rule="evenodd" clip-rule="evenodd" d="M56.6992 36.2251H57.6442C58.1842 36.2251 58.4542 36.4951 58.4542 37.0351V37.6201C58.4542 38.0101 58.2592 38.2651 57.8692 38.3851C57.7792 38.4151 57.6292 38.4301 57.4192 38.4301H57.3292V40.0501H56.6992V36.2251ZM57.3292 36.7651V37.8451H57.4642C57.5542 37.8451 57.6142 37.8451 57.6442 37.8451C57.7642 37.8151 57.8242 37.7251 57.8242 37.5751V37.0351C57.8242 36.8551 57.7342 36.7651 57.5542 36.7651H57.3292Z" fill="black"/>
<path fill-rule="evenodd" clip-rule="evenodd" d="M60.6577 38.7001L60.8377 40.0501H60.2077L60.1176 39.2401H59.4426L59.3526 40.0501H58.7227L58.9026 38.7001L59.3526 36.2251H60.2077L60.6577 38.7001ZM60.0276 38.7001L59.8026 37.1251L59.5327 38.7001H60.0276Z" fill="black"/>
<path d="M62.7297 36.2251V36.7651H62.1447V40.0501H61.5147V36.7651H60.9297V36.2251H62.7297Z" fill="black"/>
<path d="M63.0898 39.3301H63.8098V40.0501H63.0898V39.3301Z" fill="black"/>
<path d="M67.2276 39.195C67.2276 39.795 66.9427 40.095 66.3727 40.095C65.7727 40.095 65.4727 39.795 65.4727 39.195V35.73H66.1026V39.195C66.1026 39.405 66.1927 39.51 66.3727 39.51C66.5527 39.51 66.6426 39.405 66.6426 39.195V35.73H67.2276V39.195Z" fill="black"/>
<path d="M69.3878 36.2251V36.7651H68.8028V40.0501H68.2178V36.7651H67.6328V36.2251H69.3878Z" fill="black"/>
<path d="M73.3033 39.1501L73.7083 36.2251H74.3383L74.1583 37.5751L73.7083 40.0501H72.8533L72.5383 38.0701L72.2233 40.0501H71.3683L70.9183 37.5751L70.7383 36.2251H71.3683L71.7733 39.1501L72.2233 36.2251H72.8533L73.3033 39.1501Z" fill="black"/>
<path d="M74.7422 36.2251H75.3722V40.0501H74.7422V36.2251Z" fill="black"/>
<path d="M75.9141 36.9901C75.9141 36.4501 76.199 36.1802 76.769 36.1802C77.369 36.1802 77.669 36.4501 77.669 36.9901V37.4852H77.0391V36.9901C77.0391 36.8101 76.949 36.7202 76.769 36.7202C76.589 36.7202 76.4991 36.8101 76.4991 36.9901V37.3502C76.4991 37.5002 76.6941 37.6952 77.0841 37.9352C77.4741 38.2052 77.669 38.5052 77.669 38.8352V39.3302C77.669 39.8402 77.369 40.0952 76.769 40.0952C76.199 40.0952 75.9141 39.8402 75.9141 39.3302V38.7901H76.4991V39.3302C76.4991 39.4802 76.589 39.5552 76.769 39.5552C76.949 39.5552 77.0391 39.4802 77.0391 39.3302V38.8802C77.0391 38.7002 76.8591 38.4902 76.4991 38.2502C76.1091 37.9802 75.9141 37.6802 75.9141 37.3502V36.9901Z" fill="black"/>
<path d="M78.207 36.2251H78.837V40.0501H78.207V36.2251Z" fill="black"/>
<path d="M80.5508 36.2251H82.1708V36.7651H81.1808V37.8901H82.0358V38.4301H81.1808V39.5101H82.1708V40.0501H80.5508V36.2251Z" fill="black"/>
<path d="M82.6172 36.2251H83.2472L83.8322 38.4301V36.2251H84.4172V40.0501H83.7872L83.2022 37.8901V40.0501H82.6172V36.2251Z" fill="black"/>
<path d="M85.0039 36.2251H85.5889V40.0501H85.0039V36.2251Z" fill="black"/>
<path d="M87.5258 38.8351L88.2458 36.2251H88.8758V40.0501H88.2908V37.8901L87.7508 40.0501H87.3458L86.8058 37.8901V40.0501H86.1758V36.2251H86.8058L87.5258 38.8351Z" fill="black"/>
<path fill-rule="evenodd" clip-rule="evenodd" d="M92.2944 38.7001L92.5194 40.0501H91.8894L91.7544 39.2401H91.1244L90.9894 40.0501H90.3594L90.5844 38.7001L91.0344 36.2251H91.8894L92.2944 38.7001ZM91.6644 38.7001L91.3944 37.1251L91.1694 38.7001H91.6644Z" fill="black"/>
<path fill-rule="evenodd" clip-rule="evenodd" d="M92.8789 36.2251H93.8239C94.3939 36.2251 94.6789 36.4951 94.6789 37.0351V39.2401C94.6789 39.7801 94.3789 40.0501 93.7789 40.0501H92.8789V36.2251ZM93.5089 36.7651V39.5101H93.7789C93.9589 39.5101 94.0489 39.4201 94.0489 39.2401V37.0351C94.0489 36.8551 93.9589 36.7651 93.7789 36.7651H93.5089Z" fill="black"/>
<path d="M97.6508 38.8351L98.3708 36.2251H99.0008V40.0501H98.4158V37.8901L97.8758 40.0501H97.4708L96.9308 37.8901V40.0501H96.3008V36.2251H96.9308L97.6508 38.8351Z" fill="black"/>
<path d="M99.582 36.2251H100.212V40.0501H99.582V36.2251Z" fill="black"/>
<path d="M100.801 36.2251H101.431L102.016 38.4301V36.2251H102.601V40.0501H101.971L101.386 37.8901V40.0501H100.801V36.2251Z" fill="black"/>
<path d="M103.184 36.2251H103.769V40.0501H103.184V36.2251Z" fill="black"/>
<path d="M105.705 38.8351L106.425 36.2251H107.055V40.0501H106.47V37.8901L105.93 40.0501H105.525L104.985 37.8901V40.0501H104.355V36.2251H104.985L105.705 38.8351Z" fill="black"/>
<path d="M110.069 40.0501H109.214L108.764 37.5751L108.539 36.2251H109.169L109.619 39.1501L110.069 36.2251H110.699L110.474 37.5751L110.069 40.0501Z" fill="black"/>
<path d="M111.059 36.2251H112.679V36.7651H111.689V37.8901H112.544V38.4301H111.689V39.5101H112.679V40.0501H111.059V36.2251Z" fill="black"/>
<path d="M113.129 36.2251H113.759L114.344 38.4301V36.2251H114.929V40.0501H114.299L113.759 37.8901V40.0501H113.129V36.2251Z" fill="black"/>
<path d="M115.512 36.2251H116.142V40.0501H115.512V36.2251Z" fill="black"/>
<path fill-rule="evenodd" clip-rule="evenodd" d="M118.439 38.7001L118.664 40.0501H118.034L117.899 39.2401H117.269L117.134 40.0501H116.504L116.729 38.7001L117.134 36.2251H117.989L118.439 38.7001ZM117.809 38.7001L117.584 37.1251L117.359 38.7001H117.809Z" fill="black"/>
<path d="M120.373 38.8351L121.093 36.2251H121.723V40.0501H121.138V37.8901L120.598 40.0501H120.148L119.608 37.8901V40.0501H119.023V36.2251H119.653L120.373 38.8351Z" fill="black"/>
<path d="M122.262 39.3301H123.027V39.9601L122.802 40.7701H122.397L122.532 40.0501H122.262V39.3301Z" fill="black"/>
<path d="M158.129 8.23486H159.254L160.289 12.7349V8.23486H161.324V15.9748H160.199L159.209 11.6099V15.9748H158.129V8.23486Z" fill="black"/>
<path fill-rule="evenodd" clip-rule="evenodd" d="M165.51 14.4901C165.51 15.5701 164.97 16.1101 163.89 16.1101C162.81 16.1101 162.27 15.5701 162.27 14.4901V9.72009C162.27 8.64009 162.81 8.1001 163.89 8.1001C164.97 8.1001 165.51 8.64009 165.51 9.72009V14.4901ZM164.385 9.76508C164.385 9.40508 164.22 9.2251 163.89 9.2251C163.56 9.2251 163.395 9.40508 163.395 9.76508V14.4901C163.395 14.8501 163.56 15.0301 163.89 15.0301C164.22 15.0301 164.385 14.8501 164.385 14.4901V9.76508Z" fill="black"/>
<path fill-rule="evenodd" clip-rule="evenodd" d="M177.615 13.2299L177.975 15.9748H176.85L176.625 14.3549H175.455L175.23 15.9748H174.105L174.51 13.2299L175.275 8.23486H176.805L177.615 13.2299ZM176.49 13.2299L176.085 9.98982L175.635 13.2299H176.49Z" fill="black"/>
<path d="M180.808 8.23486V14.8948H181.843V15.9748H178.648V14.8948H179.683V9.31482H178.648V8.23486H180.808Z" fill="black"/>
<path fill-rule="evenodd" clip-rule="evenodd" d="M185.938 8.23486V12.9599H186.388V14.0849H185.938V15.9748H184.857V14.0849H182.562V13.0948L184.543 8.23486H185.938ZM183.643 12.9599H184.812V10.0349L183.643 12.9599Z" fill="black"/>
<path fill-rule="evenodd" clip-rule="evenodd" d="M189.224 12.6001C189.014 12.7801 188.759 12.8701 188.459 12.8701C188.399 12.8701 188.339 12.8701 188.279 12.8701C187.919 12.8401 187.634 12.7051 187.424 12.4651C187.214 12.2551 187.109 11.8501 187.109 11.2501V9.72009C187.109 8.64009 187.649 8.1001 188.729 8.1001C189.809 8.1001 190.349 8.64009 190.349 9.72009V14.4901C190.349 15.5701 189.809 16.1101 188.729 16.1101C187.649 16.1101 187.109 15.5701 187.109 14.4901V13.4101H188.234V14.4901C188.234 14.8201 188.399 14.9851 188.729 14.9851C189.059 14.9851 189.224 14.8201 189.224 14.4901V12.6001ZM188.234 11.2951C188.234 11.5651 188.294 11.7151 188.414 11.7451C188.474 11.7751 188.579 11.7901 188.729 11.7901C188.759 11.7901 188.789 11.7901 188.819 11.7901C189.089 11.7901 189.224 11.6251 189.224 11.2951V9.72009C189.224 9.39009 189.059 9.2251 188.729 9.2251C188.399 9.2251 188.234 9.39009 188.234 9.72009V11.2951Z" fill="black"/>
<path fill-rule="evenodd" clip-rule="evenodd" d="M191.383 8.23486H193.093C194.083 8.23486 194.578 8.77485 194.578 9.85485V11.0248C194.578 11.5348 194.368 11.8949 193.948 12.1049C194.368 12.3149 194.578 12.6749 194.578 13.1849V14.3549C194.578 15.4349 194.053 15.9748 193.003 15.9748H191.383V8.23486ZM192.508 9.35986V11.5648H192.823C193.003 11.5648 193.108 11.5498 193.138 11.5198C193.348 11.4598 193.453 11.2948 193.453 11.0248V9.85485C193.453 9.52485 193.288 9.35986 192.958 9.35986H192.508ZM192.508 12.6898V14.8948H193.003C193.333 14.8948 193.498 14.7149 193.498 14.3549V13.1849C193.498 12.9449 193.393 12.7798 193.183 12.6898C193.123 12.6898 193.018 12.6898 192.868 12.6898H192.508Z" fill="black"/>
<path d="M195.434 9.72009C195.434 8.64009 195.959 8.1001 197.009 8.1001C198.089 8.1001 198.629 8.64009 198.629 9.72009V10.7551H197.504V9.72009C197.504 9.39009 197.339 9.2251 197.009 9.2251C196.679 9.2251 196.514 9.39009 196.514 9.72009V10.4401C196.514 10.7701 196.874 11.1901 197.594 11.7001C198.284 12.2101 198.629 12.8101 198.629 13.5001V14.4901C198.629 15.5701 198.089 16.1101 197.009 16.1101C195.959 16.1101 195.434 15.5701 195.434 14.4901V13.4101H196.514V14.4901C196.514 14.8201 196.679 14.9851 197.009 14.9851C197.339 14.9851 197.504 14.8201 197.504 14.4901V13.5901C197.504 13.2301 197.159 12.7951 196.469 12.2851C195.779 11.7751 195.434 11.1601 195.434 10.4401V9.72009Z" fill="black"/>
<path d="M199.574 14.3101C199.574 13.6201 199.919 13.0201 200.609 12.5101C201.329 12.0301 201.689 11.6101 201.689 11.2501V9.72009C201.689 9.39009 201.524 9.2251 201.194 9.2251C200.864 9.2251 200.699 9.39009 200.699 9.72009V10.7551H199.574V9.72009C199.574 8.64009 200.114 8.1001 201.194 8.1001C202.274 8.1001 202.814 8.64009 202.814 9.72009V11.2951C202.814 11.9851 202.454 12.5851 201.734 13.0951C201.044 13.6051 200.699 14.0401 200.699 14.4001V14.8951H202.814V15.9751H199.574V14.3101Z" fill="black"/>
<path fill-rule="evenodd" clip-rule="evenodd" d="M161.414 26.685C161.414 27.645 161.009 28.17 160.199 28.26C160.199 28.44 160.604 28.5299 161.414 28.5299V29.4749C160.754 29.4749 160.304 29.4149 160.064 29.2949C159.734 29.1149 159.569 28.7849 159.569 28.3049C158.669 28.2149 158.219 27.675 158.219 26.685V21.9149C158.219 20.8349 158.744 20.2949 159.794 20.2949C160.874 20.2949 161.414 20.8349 161.414 21.9149V26.685ZM160.289 21.96C160.289 21.6 160.139 21.4199 159.839 21.4199H159.794C159.494 21.4199 159.344 21.6 159.344 21.96V26.685C159.344 27.045 159.494 27.2249 159.794 27.2249C160.124 27.2249 160.289 27.045 160.289 26.685V21.96Z" fill="black"/>
<path fill-rule="evenodd" clip-rule="evenodd" d="M162.359 20.4302H164.024C165.014 20.4302 165.509 20.9702 165.509 22.0502V23.2202C165.509 23.9102 165.209 24.3602 164.609 24.5702L165.869 28.1702H164.654L163.619 24.7502L163.484 24.7952V28.1702H162.359V20.4302ZM163.484 21.5552V23.7602H163.754C163.904 23.7602 164.009 23.7451 164.069 23.7151C164.279 23.6551 164.384 23.4902 164.384 23.2202V22.0502C164.384 21.7202 164.219 21.5552 163.889 21.5552H163.484Z" fill="black"/>
<path fill-rule="evenodd" clip-rule="evenodd" d="M177.66 26.685C177.66 27.645 177.255 28.17 176.445 28.26C176.475 28.44 176.88 28.5299 177.66 28.5299V29.4749C177 29.4749 176.55 29.4149 176.31 29.2949C175.98 29.1149 175.815 28.7849 175.815 28.3049C174.915 28.2149 174.465 27.675 174.465 26.685V21.9149C174.465 20.8349 175.005 20.2949 176.085 20.2949C177.135 20.2949 177.66 20.8349 177.66 21.9149V26.685ZM176.535 21.96C176.535 21.6 176.385 21.4199 176.085 21.4199H176.04C175.74 21.4199 175.59 21.6 175.59 21.96V26.685C175.59 27.045 175.755 27.2249 176.085 27.2249C176.385 27.2249 176.535 27.045 176.535 26.685V21.96Z" fill="black"/>
<path fill-rule="evenodd" clip-rule="evenodd" d="M178.605 20.4302H180.271C181.261 20.4302 181.755 20.9702 181.755 22.0502V23.2202C181.755 23.9102 181.455 24.3602 180.855 24.5702L182.115 28.1702H180.9L179.865 24.7502L179.73 24.7952V28.1702H178.605V20.4302ZM179.73 21.5552V23.7602H180C180.15 23.7602 180.255 23.7451 180.315 23.7151C180.525 23.6551 180.63 23.4902 180.63 23.2202V22.0502C180.63 21.7202 180.465 21.5552 180.135 21.5552H179.73Z" fill="black"/>
<path fill-rule="evenodd" clip-rule="evenodd" d="M185.939 26.685C185.939 27.765 185.399 28.3049 184.319 28.3049C183.239 28.3049 182.699 27.765 182.699 26.685V21.9149C182.699 20.8349 183.239 20.2949 184.319 20.2949C185.399 20.2949 185.939 20.8349 185.939 21.9149V26.685ZM184.814 21.96C184.814 21.6 184.649 21.4199 184.319 21.4199C183.989 21.4199 183.824 21.6 183.824 21.96V26.685C183.824 27.045 183.989 27.2249 184.319 27.2249C184.649 27.2249 184.814 27.045 184.814 26.685V21.96Z" fill="black"/>
<path fill-rule="evenodd" clip-rule="evenodd" d="M190.078 26.685C190.078 27.765 189.553 28.3049 188.503 28.3049C187.423 28.3049 186.883 27.765 186.883 26.685V21.9149C186.883 20.8349 187.423 20.2949 188.503 20.2949C189.553 20.2949 190.078 20.8349 190.078 21.9149V26.685ZM188.953 21.96C188.953 21.6 188.803 21.4199 188.503 21.4199H188.458C188.158 21.4199 188.008 21.6 188.008 21.96V26.685C188.008 27.045 188.173 27.2249 188.503 27.2249C188.803 27.2249 188.953 27.045 188.953 26.685V21.96Z" fill="black"/>
<path fill-rule="evenodd" clip-rule="evenodd" d="M194.263 26.685C194.263 27.765 193.723 28.3049 192.643 28.3049C191.563 28.3049 191.023 27.765 191.023 26.685V21.9149C191.023 20.8349 191.563 20.2949 192.643 20.2949C193.723 20.2949 194.263 20.8349 194.263 21.9149V26.685ZM193.138 21.96C193.138 21.6 192.973 21.4199 192.643 21.4199C192.313 21.4199 192.148 21.6 192.148 21.96V26.685C192.148 27.045 192.313 27.2249 192.643 27.2249C192.973 27.2249 193.138 27.045 193.138 26.685V21.96Z" fill="black"/>
<path d="M197.414 20.4302V27.0901H198.449V28.1702H195.254V27.0901H196.289V21.5102H195.254V20.4302H197.414Z" fill="black"/>
<path d="M199.484 26.5049C199.484 25.8149 199.829 25.2149 200.519 24.7049C201.239 24.2249 201.599 23.8049 201.599 23.4449V21.9149C201.599 21.5549 201.434 21.3749 201.104 21.3749C200.774 21.3749 200.609 21.5549 200.609 21.9149V22.9499H199.484V21.9149C199.484 20.8349 200.024 20.2949 201.104 20.2949C202.184 20.2949 202.724 20.8349 202.724 21.9149V23.4899C202.724 24.1799 202.364 24.7799 201.644 25.2899C200.954 25.7999 200.609 26.2349 200.609 26.5949V27.0899H202.724V28.1699H199.484V26.5049Z" fill="black"/>
<path d="M160.288 46.5302H158.938V33.0752H160.288V46.5302Z" fill="black"/>
<path d="M162.717 46.5302H161.367V33.0752H162.717V46.5302Z" fill="black"/>
<path d="M173.205 46.5302H171.855V33.0752H173.205V46.5302Z" fill="black"/>
<path d="M168.704 46.5302H167.984V33.0752H168.704V46.5302Z" fill="black"/>
<path d="M171.134 46.5302H170.414V33.0752H171.134V46.5302Z" fill="black"/>
<path d="M178.785 46.5302H178.02V33.0752H178.785V46.5302Z" fill="black"/>
<path d="M181.214 46.5302H180.449V33.0752H181.214V46.5302Z" fill="black"/>
<path d="M182.429 46.5302H181.664V33.0752H182.429V46.5302Z" fill="black"/>
<path d="M183.644 46.5302H182.879V33.0752H183.644V46.5302Z" fill="black"/>
<path d="M186.075 46.5302H185.355V33.0752H186.075V46.5302Z" fill="black"/>
<path d="M187.286 46.5302H186.566V33.0752H187.286V46.5302Z" fill="black"/>
<path d="M188.502 46.5302H188.277V33.0752H188.502V46.5302Z" fill="black"/>
<path d="M189.539 46.5302H189.359V33.0752H189.539V46.5302Z" fill="black"/>
<path d="M184.59 46.5302H184.41V33.0752H184.59V46.5302Z" fill="black"/>
<path d="M179.731 46.5302H179.551V33.0752H179.731V46.5302Z" fill="black"/>
<path d="M174.373 46.5302H174.148V33.0752H174.373V46.5302Z" fill="black"/>
<path d="M163.932 46.5302H163.707V33.0752H163.932V46.5302Z" fill="black"/>
<path d="M195.526 46.5302H195.301V33.0752H195.526V46.5302Z" fill="black"/>
<path d="M200.385 46.5302H200.16V33.0752H200.385V46.5302Z" fill="black"/>
<path d="M190.935 46.5302H190.215V33.0752H190.935V46.5302Z" fill="black"/>
<path d="M192.15 46.5302H191.43V33.0752H192.15V46.5302Z" fill="black"/>
<path d="M193.365 46.5302H192.645V33.0752H193.365V46.5302Z" fill="black"/>
<path d="M194.579 46.5302H193.859V33.0752H194.579V46.5302Z" fill="black"/>
<path d="M197.054 46.5302H196.289V33.0752H197.054V46.5302Z" fill="black"/>
<path d="M198.269 46.5302H197.504V33.0752H198.269V46.5302Z" fill="black"/>
<path d="M199.484 46.5302H198.719V33.0752H199.484V46.5302Z" fill="black"/>
<path d="M201.913 46.5302H201.148V33.0752H201.913V46.5302Z" fill="black"/>
<path d="M203.128 46.5302H202.363V33.0752H203.128V46.5302Z" fill="black"/>
<path d="M167.444 46.5302H164.789V33.0752H167.444V46.5302Z" fill="black"/>
<path d="M177.567 46.5302H175.137V33.0752H177.567V46.5302Z" fill="black"/>
<path d="M26.6816 97C23.8887 97 22.0039 96.5703 21.0273 95.7109C20.0703 94.8516 19.5918 93.2598 19.5918 90.9355V88.416L25.9492 87.0977V91.4336H42.6484C43.8398 91.4336 44.6309 91.248 45.0215 90.877C45.4316 90.5059 45.6367 89.7637 45.6367 88.6504V86.3945C45.6367 85.2617 45.4316 84.5098 45.0215 84.1387C44.6113 83.748 43.8203 83.5527 42.6484 83.5527H32.1895V78.5137H41.5059C42.6777 78.5137 43.459 78.3281 43.8496 77.957C44.2402 77.5859 44.4355 76.834 44.4355 75.7012V74.1484C44.4355 72.9961 44.2402 72.2344 43.8496 71.8633C43.459 71.4922 42.6777 71.3066 41.5059 71.3066H26.2129V75.1738L20.0898 74.0312V72.0977C20.0898 69.7734 20.5684 68.1816 21.5254 67.3223C22.4824 66.4629 24.3574 66.0332 27.1504 66.0332H43.9082C46.7012 66.0332 48.5762 66.4629 49.5332 67.3223C50.4902 68.1816 50.9688 69.7734 50.9688 72.0977V74.9102C50.9688 76.7266 50.5293 78.0742 49.6504 78.9531C48.7715 79.832 47.2188 80.4473 44.9922 80.7988C47.4727 81.0332 49.2891 81.6582 50.4414 82.6738C51.5938 83.6895 52.1699 85.1641 52.1699 87.0977V90.3496C52.1699 92.8887 51.623 94.6367 50.5293 95.5938C49.4355 96.5312 47.4824 97 44.6699 97H26.6816ZM90.1996 84.6953C87.973 85.0469 85.7172 85.3105 83.432 85.4863C81.1469 85.6426 78.8422 85.7207 76.518 85.7207C71.518 85.7207 68.0805 85.1445 66.2055 83.9922C64.35 82.8203 63.4223 80.7402 63.4223 77.752V73.5918C63.4223 71.0137 64.2719 69.1094 65.9711 67.8789C67.6898 66.6484 70.3656 66.0332 73.9984 66.0332H87.0648C90.9711 66.0332 93.6469 66.7168 95.0922 68.084C96.5375 69.4512 97.2602 71.9512 97.2602 75.584V79.6562C97.2602 85.418 95.268 89.8711 91.2836 93.0156C87.2992 96.1602 81.6742 97.7324 74.4086 97.7324C73.8031 97.7324 73.3441 97.7227 73.0316 97.7031C72.7387 97.7031 72.4555 97.6836 72.182 97.6445L67.934 92.6934H69.8969C76.4984 92.6934 81.2641 92.0879 84.1937 90.877C87.143 89.666 89.1449 87.6055 90.1996 84.6953ZM90.5512 79.9492C90.6098 79.5977 90.6488 79.2656 90.6684 78.9531C90.7074 78.6211 90.727 78.3379 90.727 78.1035C90.727 75.0566 90.3266 73.1621 89.5258 72.4199C88.725 71.6777 86.9672 71.3066 84.2523 71.3066H75.6684C73.5004 71.3066 72.0062 71.5801 71.1859 72.127C70.3656 72.6738 69.9555 73.6895 69.9555 75.1738V76.9023C69.9555 78.4062 70.4145 79.4219 71.3324 79.9492C72.2504 80.4766 74.0961 80.7402 76.8695 80.7402C78.8227 80.7402 80.9516 80.6816 83.2562 80.5645C85.5805 80.4277 88.0121 80.2227 90.5512 79.9492ZM134.206 84.6953C131.979 85.0469 129.723 85.3105 127.438 85.4863C125.153 85.6426 122.848 85.7207 120.524 85.7207C115.524 85.7207 112.087 85.1445 110.212 83.9922C108.356 82.8203 107.429 80.7402 107.429 77.752V73.5918C107.429 71.0137 108.278 69.1094 109.977 67.8789C111.696 66.6484 114.372 66.0332 118.005 66.0332H131.071C134.977 66.0332 137.653 66.7168 139.098 68.084C140.544 69.4512 141.266 71.9512 141.266 75.584V79.6562C141.266 85.418 139.274 89.8711 135.29 93.0156C131.305 96.1602 125.68 97.7324 118.415 97.7324C117.809 97.7324 117.35 97.7227 117.038 97.7031C116.745 97.7031 116.462 97.6836 116.188 97.6445L111.94 92.6934H113.903C120.505 92.6934 125.27 92.0879 128.2 90.877C131.149 89.666 133.151 87.6055 134.206 84.6953ZM134.557 79.9492C134.616 79.5977 134.655 79.2656 134.675 78.9531C134.714 78.6211 134.733 78.3379 134.733 78.1035C134.733 75.0566 134.333 73.1621 133.532 72.4199C132.731 71.6777 130.973 71.3066 128.259 71.3066H119.675C117.507 71.3066 116.012 71.5801 115.192 72.127C114.372 72.6738 113.962 73.6895 113.962 75.1738V76.9023C113.962 78.4062 114.421 79.4219 115.339 79.9492C116.257 80.4766 118.102 80.7402 120.876 80.7402C122.829 80.7402 124.958 80.6816 127.262 80.5645C129.587 80.4277 132.018 80.2227 134.557 79.9492ZM143.583 97.9668L159.169 65.0664H163.124L147.421 97.9668H143.583ZM162.189 84.1094V77.9277H176.164V84.1094H162.189Z" fill="black"/>
</g>
<defs>
<clipPath id="clip0_249_22327">
<rect width="227.922" height="158.13" rx="13" fill="white"/>
</clipPath>
</defs>
</svg>
